<svg width="160" height="90" viewBox="-8.108108108108112 39.189189189189186 216.21621621621622 121.62162162162163" xmlns="http://www.w3.org/2000/svg">
  <path d="M 0 0 L 25 0 L 0 25 Z" fill="#333" stroke="#000" stroke-width="1" />
  <path d="M 25 0 L 25 25 L 0 25 Z" fill="#999" stroke="#000" stroke-width="1" />
  <path d="M 25 0 L 50 25 L 25 25 Z" fill="#333" stroke="#000" stroke-width="1" />
  <path d="M 25 0 L 50 0 L 50 25 Z" fill="#999" stroke="#000" stroke-width="1" />
  <path d="M 0 25 L 25 25 L 25 50 Z" fill="#333" stroke="#000" stroke-width="1" />
  <path d="M 0 25 L 25 50 L 0 50 Z" fill="#999" stroke="#000" stroke-width="1" />
  <path d="M 50 25 L 50 50 L 25 50 Z" fill="#333" stroke="#000" stroke-width="1" />
  <path d="M 25 25 L 50 25 L 25 50 Z" fill="#999" stroke="#000" stroke-width="1" />
  <path d="M 50 0 L 66.66666666666667 0 L 66.66666666666667 16.666666666666668 L 50 16.666666666666668 Z" fill="#999" stroke="#000" stroke-width="1" />
  <path d="M 83.33333333333334 0 L 83.33333333333334 16.666666666666668 L 66.66666666666667 16.666666666666668 Z" fill="#333" stroke="#000" stroke-width="1" />
  <path d="M 66.66666666666667 0 L 83.33333333333334 0 L 66.66666666666667 16.666666666666668 Z" fill="#999" stroke="#000" stroke-width="1" />
  <path d="M 83.33333333333334 0 L 100.00000000000001 0 L 100.00000000000001 16.666666666666668 L 83.33333333333334 16.666666666666668 Z" fill="#999" stroke="#000" stroke-width="1" />
  <path d="M 50 16.666666666666668 L 66.66666666666667 16.666666666666668 L 66.66666666666667 33.333333333333336 Z" fill="#333" stroke="#000" stroke-width="1" />
  <path d="M 50 16.666666666666668 L 66.66666666666667 33.333333333333336 L 50 33.333333333333336 Z" fill="#999" stroke="#000" stroke-width="1" />
  <path d="M 66.66666666666667 16.666666666666668 L 83.33333333333334 16.666666666666668 L 83.33333333333334 33.333333333333336 L 66.66666666666667 33.333333333333336 Z" fill="#333" stroke="#000" stroke-width="1" />
  <path d="M 83.33333333333334 16.666666666666668 L 100.00000000000001 33.333333333333336 L 83.33333333333334 33.333333333333336 Z" fill="#333" stroke="#000" stroke-width="1" />
  <path d="M 83.33333333333334 16.666666666666668 L 100.00000000000001 16.666666666666668 L 100.00000000000001 33.333333333333336 Z" fill="#999" stroke="#000" stroke-width="1" />
  <path d="M 50 33.333333333333336 L 66.66666666666667 33.333333333333336 L 66.66666666666667 50 L 50 50 Z" fill="#999" stroke="#000" stroke-width="1" />
  <path d="M 66.66666666666667 33.333333333333336 L 83.33333333333334 33.333333333333336 L 66.66666666666667 50 Z" fill="#333" stroke="#000" stroke-width="1" />
  <path d="M 83.33333333333334 33.333333333333336 L 83.33333333333334 50 L 66.66666666666667 50 Z" fill="#999" stroke="#000" stroke-width="1" />
  <path d="M 83.33333333333334 33.333333333333336 L 100.00000000000001 33.333333333333336 L 100.00000000000001 50 L 83.33333333333334 50 Z" fill="#999" stroke="#000" stroke-width="1" />
  <path d="M 100 0 L 125 0 L 100 25 Z" fill="#333" stroke="#000" stroke-width="1" />
  <path d="M 125 0 L 125 25 L 100 25 Z" fill="#999" stroke="#000" stroke-width="1" />
  <path d="M 125 0 L 150 25 L 125 25 Z" fill="#333" stroke="#000" stroke-width="1" />
  <path d="M 125 0 L 150 0 L 150 25 Z" fill="#999" stroke="#000" stroke-width="1" />
  <path d="M 100 25 L 125 25 L 125 50 Z" fill="#333" stroke="#000" stroke-width="1" />
  <path d="M 100 25 L 125 50 L 100 50 Z" fill="#999" stroke="#000" stroke-width="1" />
  <path d="M 150 25 L 150 50 L 125 50 Z" fill="#333" stroke="#000" stroke-width="1" />
  <path d="M 125 25 L 150 25 L 125 50 Z" fill="#999" stroke="#000" stroke-width="1" />
  <path d="M 150 0 L 166.66666666666666 0 L 166.66666666666666 16.666666666666668 L 150 16.666666666666668 Z" fill="#999" stroke="#000" stroke-width="1" />
  <path d="M 183.33333333333331 0 L 183.33333333333331 16.666666666666668 L 166.66666666666666 16.666666666666668 Z" fill="#333" stroke="#000" stroke-width="1" />
  <path d="M 166.66666666666666 0 L 183.33333333333331 0 L 166.66666666666666 16.666666666666668 Z" fill="#999" stroke="#000" stroke-width="1" />
  <path d="M 183.33333333333334 0 L 200 0 L 200 16.666666666666668 L 183.33333333333334 16.666666666666668 Z" fill="#999" stroke="#000" stroke-width="1" />
  <path d="M 150 16.666666666666668 L 166.66666666666666 16.666666666666668 L 166.66666666666666 33.333333333333336 Z" fill="#333" stroke="#000" stroke-width="1" />
  <path d="M 150 16.666666666666668 L 166.66666666666666 33.333333333333336 L 150 33.333333333333336 Z" fill="#999" stroke="#000" stroke-width="1" />
  <path d="M 166.66666666666666 16.666666666666668 L 183.33333333333331 16.666666666666668 L 183.33333333333331 33.333333333333336 L 166.66666666666666 33.333333333333336 Z" fill="#333" stroke="#000" stroke-width="1" />
  <path d="M 183.33333333333334 16.666666666666668 L 200 33.333333333333336 L 183.33333333333334 33.333333333333336 Z" fill="#333" stroke="#000" stroke-width="1" />
  <path d="M 183.33333333333334 16.666666666666668 L 200 16.666666666666668 L 200 33.333333333333336 Z" fill="#999" stroke="#000" stroke-width="1" />
  <path d="M 150 33.333333333333336 L 166.66666666666666 33.333333333333336 L 166.66666666666666 50 L 150 50 Z" fill="#999" stroke="#000" stroke-width="1" />
  <path d="M 166.66666666666666 33.333333333333336 L 183.33333333333331 33.333333333333336 L 166.66666666666666 50 Z" fill="#333" stroke="#000" stroke-width="1" />
  <path d="M 183.33333333333331 33.333333333333336 L 183.33333333333331 50 L 166.66666666666666 50 Z" fill="#999" stroke="#000" stroke-width="1" />
  <path d="M 183.33333333333334 33.333333333333336 L 200 33.333333333333336 L 200 50 L 183.33333333333334 50 Z" fill="#999" stroke="#000" stroke-width="1" />
  <path d="M 0 50 L 25 50 L 0 75 Z" fill="#333" stroke="#000" stroke-width="1" />
  <path d="M 25 50 L 25 75 L 0 75 Z" fill="#999" stroke="#000" stroke-width="1" />
  <path d="M 25 50 L 50 75 L 25 75 Z" fill="#333" stroke="#000" stroke-width="1" />
  <path d="M 25 50 L 50 50 L 50 75 Z" fill="#999" stroke="#000" stroke-width="1" />
  <path d="M 0 75 L 25 75 L 25 100 Z" fill="#333" stroke="#000" stroke-width="1" />
  <path d="M 0 75 L 25 100 L 0 100 Z" fill="#999" stroke="#000" stroke-width="1" />
  <path d="M 50 75 L 50 100 L 25 100 Z" fill="#333" stroke="#000" stroke-width="1" />
  <path d="M 25 75 L 50 75 L 25 100 Z" fill="#999" stroke="#000" stroke-width="1" />
  <path d="M 50 50 L 66.66666666666667 50 L 66.66666666666667 66.66666666666667 L 50 66.66666666666667 Z" fill="#999" stroke="#000" stroke-width="1" />
  <path d="M 83.33333333333334 50 L 83.33333333333334 66.66666666666667 L 66.66666666666667 66.66666666666667 Z" fill="#333" stroke="#000" stroke-width="1" />
  <path d="M 66.66666666666667 50 L 83.33333333333334 50 L 66.66666666666667 66.66666666666667 Z" fill="#999" stroke="#000" stroke-width="1" />
  <path d="M 83.33333333333334 50 L 100.00000000000001 50 L 100.00000000000001 66.66666666666667 L 83.33333333333334 66.66666666666667 Z" fill="#999" stroke="#000" stroke-width="1" />
  <path d="M 50 66.66666666666667 L 66.66666666666667 66.66666666666667 L 66.66666666666667 83.33333333333334 Z" fill="#333" stroke="#000" stroke-width="1" />
  <path d="M 50 66.66666666666667 L 66.66666666666667 83.33333333333334 L 50 83.33333333333334 Z" fill="#999" stroke="#000" stroke-width="1" />
  <path d="M 66.66666666666667 66.66666666666667 L 83.33333333333334 66.66666666666667 L 83.33333333333334 83.33333333333334 L 66.66666666666667 83.33333333333334 Z" fill="#333" stroke="#000" stroke-width="1" />
  <path d="M 83.33333333333334 66.66666666666667 L 100.00000000000001 83.33333333333334 L 83.33333333333334 83.33333333333334 Z" fill="#333" stroke="#000" stroke-width="1" />
  <path d="M 83.33333333333334 66.66666666666667 L 100.00000000000001 66.66666666666667 L 100.00000000000001 83.33333333333334 Z" fill="#999" stroke="#000" stroke-width="1" />
  <path d="M 50 83.33333333333334 L 66.66666666666667 83.33333333333334 L 66.66666666666667 100.00000000000001 L 50 100.00000000000001 Z" fill="#999" stroke="#000" stroke-width="1" />
  <path d="M 66.66666666666667 83.33333333333334 L 83.33333333333334 83.33333333333334 L 66.66666666666667 100.00000000000001 Z" fill="#333" stroke="#000" stroke-width="1" />
  <path d="M 83.33333333333334 83.33333333333334 L 83.33333333333334 100.00000000000001 L 66.66666666666667 100.00000000000001 Z" fill="#999" stroke="#000" stroke-width="1" />
  <path d="M 83.33333333333334 83.33333333333334 L 100.00000000000001 83.33333333333334 L 100.00000000000001 100.00000000000001 L 83.33333333333334 100.00000000000001 Z" fill="#999" stroke="#000" stroke-width="1" />
  <path d="M 100 50 L 125 50 L 100 75 Z" fill="#333" stroke="#000" stroke-width="1" />
  <path d="M 125 50 L 125 75 L 100 75 Z" fill="#999" stroke="#000" stroke-width="1" />
  <path d="M 125 50 L 150 75 L 125 75 Z" fill="#333" stroke="#000" stroke-width="1" />
  <path d="M 125 50 L 150 50 L 150 75 Z" fill="#999" stroke="#000" stroke-width="1" />
  <path d="M 100 75 L 125 75 L 125 100 Z" fill="#333" stroke="#000" stroke-width="1" />
  <path d="M 100 75 L 125 100 L 100 100 Z" fill="#999" stroke="#000" stroke-width="1" />
  <path d="M 150 75 L 150 100 L 125 100 Z" fill="#333" stroke="#000" stroke-width="1" />
  <path d="M 125 75 L 150 75 L 125 100 Z" fill="#999" stroke="#000" stroke-width="1" />
  <path d="M 150 50 L 166.66666666666666 50 L 166.66666666666666 66.66666666666667 L 150 66.66666666666667 Z" fill="#999" stroke="#000" stroke-width="1" />
  <path d="M 183.33333333333331 50 L 183.33333333333331 66.66666666666667 L 166.66666666666666 66.66666666666667 Z" fill="#333" stroke="#000" stroke-width="1" />
  <path d="M 166.66666666666666 50 L 183.33333333333331 50 L 166.66666666666666 66.66666666666667 Z" fill="#999" stroke="#000" stroke-width="1" />
  <path d="M 183.33333333333334 50 L 200 50 L 200 66.66666666666667 L 183.33333333333334 66.66666666666667 Z" fill="#999" stroke="#000" stroke-width="1" />
  <path d="M 150 66.66666666666667 L 166.66666666666666 66.66666666666667 L 166.66666666666666 83.33333333333334 Z" fill="#333" stroke="#000" stroke-width="1" />
  <path d="M 150 66.66666666666667 L 166.66666666666666 83.33333333333334 L 150 83.33333333333334 Z" fill="#999" stroke="#000" stroke-width="1" />
  <path d="M 166.66666666666666 66.66666666666667 L 183.33333333333331 66.66666666666667 L 183.33333333333331 83.33333333333334 L 166.66666666666666 83.33333333333334 Z" fill="#333" stroke="#000" stroke-width="1" />
  <path d="M 183.33333333333334 66.66666666666667 L 200 83.33333333333334 L 183.33333333333334 83.33333333333334 Z" fill="#333" stroke="#000" stroke-width="1" />
  <path d="M 183.33333333333334 66.66666666666667 L 200 66.66666666666667 L 200 83.33333333333334 Z" fill="#999" stroke="#000" stroke-width="1" />
  <path d="M 150 83.33333333333334 L 166.66666666666666 83.33333333333334 L 166.66666666666666 100.00000000000001 L 150 100.00000000000001 Z" fill="#999" stroke="#000" stroke-width="1" />
  <path d="M 166.66666666666666 83.33333333333334 L 183.33333333333331 83.33333333333334 L 166.66666666666666 100.00000000000001 Z" fill="#333" stroke="#000" stroke-width="1" />
  <path d="M 183.33333333333331 83.33333333333334 L 183.33333333333331 100.00000000000001 L 166.66666666666666 100.00000000000001 Z" fill="#999" stroke="#000" stroke-width="1" />
  <path d="M 183.33333333333334 83.33333333333334 L 200 83.33333333333334 L 200 100.00000000000001 L 183.33333333333334 100.00000000000001 Z" fill="#999" stroke="#000" stroke-width="1" />
  <path d="M 0 100 L 25 100 L 0 125 Z" fill="#333" stroke="#000" stroke-width="1" />
  <path d="M 25 100 L 25 125 L 0 125 Z" fill="#999" stroke="#000" stroke-width="1" />
  <path d="M 25 100 L 50 125 L 25 125 Z" fill="#333" stroke="#000" stroke-width="1" />
  <path d="M 25 100 L 50 100 L 50 125 Z" fill="#999" stroke="#000" stroke-width="1" />
  <path d="M 0 125 L 25 125 L 25 150 Z" fill="#333" stroke="#000" stroke-width="1" />
  <path d="M 0 125 L 25 150 L 0 150 Z" fill="#999" stroke="#000" stroke-width="1" />
  <path d="M 50 125 L 50 150 L 25 150 Z" fill="#333" stroke="#000" stroke-width="1" />
  <path d="M 25 125 L 50 125 L 25 150 Z" fill="#999" stroke="#000" stroke-width="1" />
  <path d="M 50 100 L 66.66666666666667 100 L 66.66666666666667 116.66666666666667 L 50 116.66666666666667 Z" fill="#999" stroke="#000" stroke-width="1" />
  <path d="M 83.33333333333334 100 L 83.33333333333334 116.66666666666667 L 66.66666666666667 116.66666666666667 Z" fill="#333" stroke="#000" stroke-width="1" />
  <path d="M 66.66666666666667 100 L 83.33333333333334 100 L 66.66666666666667 116.66666666666667 Z" fill="#999" stroke="#000" stroke-width="1" />
  <path d="M 83.33333333333334 100 L 100.00000000000001 100 L 100.00000000000001 116.66666666666667 L 83.33333333333334 116.66666666666667 Z" fill="#999" stroke="#000" stroke-width="1" />
  <path d="M 50 116.66666666666667 L 66.66666666666667 116.66666666666667 L 66.66666666666667 133.33333333333334 Z" fill="#333" stroke="#000" stroke-width="1" />
  <path d="M 50 116.66666666666667 L 66.66666666666667 133.33333333333334 L 50 133.33333333333334 Z" fill="#999" stroke="#000" stroke-width="1" />
  <path d="M 66.66666666666667 116.66666666666667 L 83.33333333333334 116.66666666666667 L 83.33333333333334 133.33333333333334 L 66.66666666666667 133.33333333333334 Z" fill="#333" stroke="#000" stroke-width="1" />
  <path d="M 83.33333333333334 116.66666666666667 L 100.00000000000001 133.33333333333334 L 83.33333333333334 133.33333333333334 Z" fill="#333" stroke="#000" stroke-width="1" />
  <path d="M 83.33333333333334 116.66666666666667 L 100.00000000000001 116.66666666666667 L 100.00000000000001 133.33333333333334 Z" fill="#999" stroke="#000" stroke-width="1" />
  <path d="M 50 133.33333333333334 L 66.66666666666667 133.33333333333334 L 66.66666666666667 150 L 50 150 Z" fill="#999" stroke="#000" stroke-width="1" />
  <path d="M 66.66666666666667 133.33333333333334 L 83.33333333333334 133.33333333333334 L 66.66666666666667 150 Z" fill="#333" stroke="#000" stroke-width="1" />
  <path d="M 83.33333333333334 133.33333333333334 L 83.33333333333334 150 L 66.66666666666667 150 Z" fill="#999" stroke="#000" stroke-width="1" />
  <path d="M 83.33333333333334 133.33333333333334 L 100.00000000000001 133.33333333333334 L 100.00000000000001 150 L 83.33333333333334 150 Z" fill="#999" stroke="#000" stroke-width="1" />
  <path d="M 100 100 L 125 100 L 100 125 Z" fill="#333" stroke="#000" stroke-width="1" />
  <path d="M 125 100 L 125 125 L 100 125 Z" fill="#999" stroke="#000" stroke-width="1" />
  <path d="M 125 100 L 150 125 L 125 125 Z" fill="#333" stroke="#000" stroke-width="1" />
  <path d="M 125 100 L 150 100 L 150 125 Z" fill="#999" stroke="#000" stroke-width="1" />
  <path d="M 100 125 L 125 125 L 125 150 Z" fill="#333" stroke="#000" stroke-width="1" />
  <path d="M 100 125 L 125 150 L 100 150 Z" fill="#999" stroke="#000" stroke-width="1" />
  <path d="M 150 125 L 150 150 L 125 150 Z" fill="#333" stroke="#000" stroke-width="1" />
  <path d="M 125 125 L 150 125 L 125 150 Z" fill="#999" stroke="#000" stroke-width="1" />
  <path d="M 150 100 L 166.66666666666666 100 L 166.66666666666666 116.66666666666667 L 150 116.66666666666667 Z" fill="#999" stroke="#000" stroke-width="1" />
  <path d="M 183.33333333333331 100 L 183.33333333333331 116.66666666666667 L 166.66666666666666 116.66666666666667 Z" fill="#333" stroke="#000" stroke-width="1" />
  <path d="M 166.66666666666666 100 L 183.33333333333331 100 L 166.66666666666666 116.66666666666667 Z" fill="#999" stroke="#000" stroke-width="1" />
  <path d="M 183.33333333333334 100 L 200 100 L 200 116.66666666666667 L 183.33333333333334 116.66666666666667 Z" fill="#999" stroke="#000" stroke-width="1" />
  <path d="M 150 116.66666666666667 L 166.66666666666666 116.66666666666667 L 166.66666666666666 133.33333333333334 Z" fill="#333" stroke="#000" stroke-width="1" />
  <path d="M 150 116.66666666666667 L 166.66666666666666 133.33333333333334 L 150 133.33333333333334 Z" fill="#999" stroke="#000" stroke-width="1" />
  <path d="M 166.66666666666666 116.66666666666667 L 183.33333333333331 116.66666666666667 L 183.33333333333331 133.33333333333334 L 166.66666666666666 133.33333333333334 Z" fill="#333" stroke="#000" stroke-width="1" />
  <path d="M 183.33333333333334 116.66666666666667 L 200 133.33333333333334 L 183.33333333333334 133.33333333333334 Z" fill="#333" stroke="#000" stroke-width="1" />
  <path d="M 183.33333333333334 116.66666666666667 L 200 116.66666666666667 L 200 133.33333333333334 Z" fill="#999" stroke="#000" stroke-width="1" />
  <path d="M 150 133.33333333333334 L 166.66666666666666 133.33333333333334 L 166.66666666666666 150 L 150 150 Z" fill="#999" stroke="#000" stroke-width="1" />
  <path d="M 166.66666666666666 133.33333333333334 L 183.33333333333331 133.33333333333334 L 166.66666666666666 150 Z" fill="#333" stroke="#000" stroke-width="1" />
  <path d="M 183.33333333333331 133.33333333333334 L 183.33333333333331 150 L 166.66666666666666 150 Z" fill="#999" stroke="#000" stroke-width="1" />
  <path d="M 183.33333333333334 133.33333333333334 L 200 133.33333333333334 L 200 150 L 183.33333333333334 150 Z" fill="#999" stroke="#000" stroke-width="1" />
  <path d="M 0 150 L 25 150 L 0 175 Z" fill="#333" stroke="#000" stroke-width="1" />
  <path d="M 25 150 L 25 175 L 0 175 Z" fill="#999" stroke="#000" stroke-width="1" />
  <path d="M 25 150 L 50 175 L 25 175 Z" fill="#333" stroke="#000" stroke-width="1" />
  <path d="M 25 150 L 50 150 L 50 175 Z" fill="#999" stroke="#000" stroke-width="1" />
  <path d="M 0 175 L 25 175 L 25 200 Z" fill="#333" stroke="#000" stroke-width="1" />
  <path d="M 0 175 L 25 200 L 0 200 Z" fill="#999" stroke="#000" stroke-width="1" />
  <path d="M 50 175 L 50 200 L 25 200 Z" fill="#333" stroke="#000" stroke-width="1" />
  <path d="M 25 175 L 50 175 L 25 200 Z" fill="#999" stroke="#000" stroke-width="1" />
  <path d="M 50 150 L 66.66666666666667 150 L 66.66666666666667 166.66666666666666 L 50 166.66666666666666 Z" fill="#999" stroke="#000" stroke-width="1" />
  <path d="M 83.33333333333334 150 L 83.33333333333334 166.66666666666666 L 66.66666666666667 166.66666666666666 Z" fill="#333" stroke="#000" stroke-width="1" />
  <path d="M 66.66666666666667 150 L 83.33333333333334 150 L 66.66666666666667 166.66666666666666 Z" fill="#999" stroke="#000" stroke-width="1" />
  <path d="M 83.33333333333334 150 L 100.00000000000001 150 L 100.00000000000001 166.66666666666666 L 83.33333333333334 166.66666666666666 Z" fill="#999" stroke="#000" stroke-width="1" />
  <path d="M 50 166.66666666666666 L 66.66666666666667 166.66666666666666 L 66.66666666666667 183.33333333333331 Z" fill="#333" stroke="#000" stroke-width="1" />
  <path d="M 50 166.66666666666666 L 66.66666666666667 183.33333333333331 L 50 183.33333333333331 Z" fill="#999" stroke="#000" stroke-width="1" />
  <path d="M 66.66666666666667 166.66666666666666 L 83.33333333333334 166.66666666666666 L 83.33333333333334 183.33333333333331 L 66.66666666666667 183.33333333333331 Z" fill="#333" stroke="#000" stroke-width="1" />
  <path d="M 83.33333333333334 166.66666666666666 L 100.00000000000001 183.33333333333331 L 83.33333333333334 183.33333333333331 Z" fill="#333" stroke="#000" stroke-width="1" />
  <path d="M 83.33333333333334 166.66666666666666 L 100.00000000000001 166.66666666666666 L 100.00000000000001 183.33333333333331 Z" fill="#999" stroke="#000" stroke-width="1" />
  <path d="M 50 183.33333333333334 L 66.66666666666667 183.33333333333334 L 66.66666666666667 200 L 50 200 Z" fill="#999" stroke="#000" stroke-width="1" />
  <path d="M 66.66666666666667 183.33333333333334 L 83.33333333333334 183.33333333333334 L 66.66666666666667 200 Z" fill="#333" stroke="#000" stroke-width="1" />
  <path d="M 83.33333333333334 183.33333333333334 L 83.33333333333334 200 L 66.66666666666667 200 Z" fill="#999" stroke="#000" stroke-width="1" />
  <path d="M 83.33333333333334 183.33333333333334 L 100.00000000000001 183.33333333333334 L 100.00000000000001 200 L 83.33333333333334 200 Z" fill="#999" stroke="#000" stroke-width="1" />
  <path d="M 100 150 L 125 150 L 100 175 Z" fill="#333" stroke="#000" stroke-width="1" />
  <path d="M 125 150 L 125 175 L 100 175 Z" fill="#999" stroke="#000" stroke-width="1" />
  <path d="M 125 150 L 150 175 L 125 175 Z" fill="#333" stroke="#000" stroke-width="1" />
  <path d="M 125 150 L 150 150 L 150 175 Z" fill="#999" stroke="#000" stroke-width="1" />
  <path d="M 100 175 L 125 175 L 125 200 Z" fill="#333" stroke="#000" stroke-width="1" />
  <path d="M 100 175 L 125 200 L 100 200 Z" fill="#999" stroke="#000" stroke-width="1" />
  <path d="M 150 175 L 150 200 L 125 200 Z" fill="#333" stroke="#000" stroke-width="1" />
  <path d="M 125 175 L 150 175 L 125 200 Z" fill="#999" stroke="#000" stroke-width="1" />
  <path d="M 150 150 L 166.66666666666666 150 L 166.66666666666666 166.66666666666666 L 150 166.66666666666666 Z" fill="#999" stroke="#000" stroke-width="1" />
  <path d="M 183.33333333333331 150 L 183.33333333333331 166.66666666666666 L 166.66666666666666 166.66666666666666 Z" fill="#333" stroke="#000" stroke-width="1" />
  <path d="M 166.66666666666666 150 L 183.33333333333331 150 L 166.66666666666666 166.66666666666666 Z" fill="#999" stroke="#000" stroke-width="1" />
  <path d="M 183.33333333333334 150 L 200 150 L 200 166.66666666666666 L 183.33333333333334 166.66666666666666 Z" fill="#999" stroke="#000" stroke-width="1" />
  <path d="M 150 166.66666666666666 L 166.66666666666666 166.66666666666666 L 166.66666666666666 183.33333333333331 Z" fill="#333" stroke="#000" stroke-width="1" />
  <path d="M 150 166.66666666666666 L 166.66666666666666 183.33333333333331 L 150 183.33333333333331 Z" fill="#999" stroke="#000" stroke-width="1" />
  <path d="M 166.66666666666666 166.66666666666666 L 183.33333333333331 166.66666666666666 L 183.33333333333331 183.33333333333331 L 166.66666666666666 183.33333333333331 Z" fill="#333" stroke="#000" stroke-width="1" />
  <path d="M 183.33333333333334 166.66666666666666 L 200 183.33333333333331 L 183.33333333333334 183.33333333333331 Z" fill="#333" stroke="#000" stroke-width="1" />
  <path d="M 183.33333333333334 166.66666666666666 L 200 166.66666666666666 L 200 183.33333333333331 Z" fill="#999" stroke="#000" stroke-width="1" />
  <path d="M 150 183.33333333333334 L 166.66666666666666 183.33333333333334 L 166.66666666666666 200 L 150 200 Z" fill="#999" stroke="#000" stroke-width="1" />
  <path d="M 166.66666666666666 183.33333333333334 L 183.33333333333331 183.33333333333334 L 166.66666666666666 200 Z" fill="#333" stroke="#000" stroke-width="1" />
  <path d="M 183.33333333333331 183.33333333333334 L 183.33333333333331 200 L 166.66666666666666 200 Z" fill="#999" stroke="#000" stroke-width="1" />
  <path d="M 183.33333333333334 183.33333333333334 L 200 183.33333333333334 L 200 200 L 183.33333333333334 200 Z" fill="#999" stroke="#000" stroke-width="1" />
</svg>