<svg width="160" height="90" viewBox="-69.95868022275509 -39.35175762529974 139.91736044551018 78.70351525059948" xmlns="http://www.w3.org/2000/svg">
  <path d="M 50 0 L 64.71177920604846 2.926354830241923 L 60.905755831612794 22.06052644849641 L 46.19397662556434 19.134171618254488 L 35.35533905932738 35.35533905932737 L 43.68889255462142 47.82738324386555 L 27.46772511354853 58.666020810102516 L 19.13417161825449 46.19397662556434 L 3.061616997868383e-15 50 L -2.9263548302419196 64.71177920604846 L -22.06052644849641 60.905755831612794 L -19.134171618254488 46.19397662556434 L -35.35533905932737 35.35533905932738 L -47.82738324386555 43.68889255462142 L -58.666020810102516 27.467725113548532 L -46.19397662556434 19.134171618254495 L -50 6.123233995736766e-15 L -64.71177920604846 -2.9263548302419164 L -60.905755831612794 -22.060526448496407 L -46.19397662556434 -19.134171618254484 L -35.355339059327385 -35.35533905932737 L -43.68889255462142 -47.82738324386555 L -27.467725113548553 -58.6660208101025 L -19.134171618254516 -46.193976625564325 L -9.184850993605149e-15 -50 L 2.926354830241916 -64.71177920604846 L 22.060526448496425 -60.905755831612794 L 19.1341716182545 -46.19397662556433 L 35.35533905932737 -35.355339059327385 L 47.82738324386555 -43.68889255462142 L 58.6660208101025 -27.467725113548557 L 46.193976625564325 -19.13417161825452 Z" fill="#d99126" stroke="#d99126" stroke-width="1" />
</svg>