<svg width="160" height="90" viewBox="-294.05405405405435 -32.42146781881806 308.1081081081083 173.3108108108109" xmlns="http://www.w3.org/2000/svg">
  <path d="M -100 -80 L -95 -80 L -92.5 -75.6698729810778 L -97.5 -75.6698729810778 L -100 -71.3397459621556 L -95 -71.3397459621556 L -90 -71.3397459621556 L -87.5 -75.6698729810778 L -82.5 -75.6698729810778 L -80 -71.3397459621556 L -77.5 -67.0096189432334 L -82.5 -67.0096189432334 L -85 -71.3397459621556 L -87.5 -67.0096189432334 L -85 -62.67949192431121 L -87.5 -58.34936490538902 L -92.5 -58.34936490538902 L -97.5 -58.34936490538902 L -95 -62.679491924311215 L -90 -62.67949192431122 L -92.5 -67.00961894323342 L -97.5 -67.00961894323342 L -100 -62.67949192431123 L -105 -62.67949192431123 L -102.5 -67.00961894323342 L -105 -71.33974596215562 L -107.5 -67.00961894323342 L -110 -62.67949192431123 L -107.5 -58.34936490538904 L -102.5 -58.34936490538904 L -100 -54.01923788646684 L -105 -54.01923788646684 L -107.5 -49.68911086754465 L -102.5 -49.68911086754465 L -97.5 -49.68911086754465 L -95 -54.01923788646684 L -90 -54.01923788646684 L -87.5 -49.68911086754464 L -92.5 -49.68911086754464 L -95 -45.35898384862245 L -90 -45.35898384862245 L -85 -45.35898384862245 L -82.5 -49.68911086754464 L -85 -54.01923788646684 L -82.5 -58.34936490538903 L -80 -62.67949192431122 L -77.5 -58.349364905389024 L -80 -54.01923788646683 L -75 -54.01923788646683 L -72.5 -58.349364905389024 L -67.5 -58.349364905389024 L -65 -54.019237886466826 L -70 -54.019237886466826 L -72.5 -49.689110867544635 L -67.5 -49.689110867544635 L -62.5 -49.689110867544635 L -60 -54.019237886466826 L -55 -54.019237886466826 L -52.5 -49.68911086754463 L -50 -45.35898384862243 L -55 -45.35898384862243 L -57.5 -49.68911086754462 L -60 -45.35898384862243 L -57.5 -41.02885682970023 L -52.5 -41.02885682970023 L -50 -36.69872981077803 L -47.5 -32.368602791855835 L -52.5 -32.368602791855835 L -55 -36.698729810778026 L -57.5 -32.368602791855835 L -55 -28.03847577293364 L -57.5 -23.708348754011446 L -62.5 -23.708348754011446 L -67.5 -23.708348754011446 L -65 -28.03847577293364 L -60 -28.038475772933648 L -62.5 -32.36860279185584 L -67.5 -32.36860279185584 L -70 -36.69872981077803 L -67.5 -41.02885682970023 L -65 -36.69872981077804 L -60 -36.69872981077805 L -62.5 -41.02885682970024 L -65 -45.35898384862243 L -70 -45.35898384862243 L -72.5 -41.02885682970024 L -77.5 -41.02885682970024 L -75 -45.35898384862244 L -77.5 -49.68911086754463 L -80 -45.35898384862244 L -82.5 -41.028856829700246 L -80 -36.69872981077805 L -75 -36.69872981077805 L -72.5 -32.36860279185585 L -70 -28.038475772933655 L -75 -28.038475772933655 L -77.5 -32.36860279185585 L -80 -28.03847577293366 L -77.5 -23.708348754011464 L -80 -19.37822173508927 L -85 -19.37822173508927 L -82.5 -23.708348754011464 L -85 -28.038475772933655 L -87.5 -23.70834875401146 L -90 -19.37822173508927 L -87.5 -15.048094716167075 L -90 -10.717967697244882 L -95 -10.717967697244882 L -100 -10.717967697244882 L -97.5 -15.048094716167078 L -92.5 -15.048094716167084 L -95 -19.378221735089276 L -100 -19.378221735089276 L -102.5 -15.048094716167084 L -107.5 -15.048094716167084 L -112.5 -15.048094716167084 L -110 -19.37822173508928 L -105 -19.378221735089287 L -107.5 -23.708348754011478 L -112.5 -23.708348754011478 L -115 -28.03847577293367 L -112.5 -32.368602791855864 L -110 -36.69872981077806 L -107.5 -32.36860279185587 L -110 -28.038475772933676 L -105 -28.038475772933676 L -102.5 -32.36860279185587 L -97.5 -32.36860279185587 L -95 -28.03847577293368 L -100 -28.038475772933676 L -102.5 -23.70834875401148 L -97.5 -23.70834875401148 L -92.5 -23.70834875401148 L -90 -28.038475772933673 L -92.5 -32.368602791855864 L -90 -36.698729810778055 L -87.5 -32.368602791855864 L -82.5 -32.368602791855864 L -85 -36.69872981077806 L -87.5 -41.02885682970026 L -92.5 -41.02885682970027 L -95 -36.698729810778076 L -100 -36.69872981077808 L -105 -36.69872981077809 L -102.5 -41.02885682970028 L -97.5 -41.02885682970028 L -100 -45.35898384862247 L -105 -45.35898384862248 L -107.5 -41.02885682970029 L -112.5 -41.028856829700295 L -110 -45.358983848622486 L -112.5 -49.689110867544684 L -115 -45.35898384862249 L -117.5 -41.0288568297003 L -115 -36.698729810778104 L -117.5 -32.36860279185591 L -122.5 -32.36860279185592 L -127.5 -32.36860279185593 L -125 -36.69872981077812 L -120 -36.69872981077812 L -122.5 -41.02885682970032 L -127.5 -41.028856829700324 L -130 -45.358983848622515 L -127.5 -49.689110867544706 L -125 -54.0192378864669 L -122.5 -49.689110867544706 L -125 -45.35898384862251 L -120 -45.35898384862251 L -117.5 -49.6891108675447 L -120 -54.0192378864669 L -117.5 -58.34936490538909 L -115 -54.0192378864669 L -110 -54.0192378864669 L -112.5 -58.349364905389095 L -115 -62.67949192431129 L -120 -62.6794919243113 L -122.5 -58.34936490538911 L -127.5 -58.349364905389116 L -125 -62.67949192431131 L -127.5 -67.0096189432335 L -130 -62.679491924311314 L -132.5 -58.34936490538912 L -130 -54.019237886466925 L -132.5 -49.689110867544734 L -137.5 -49.68911086754474 L -135 -54.01923788646693 L -137.5 -58.34936490538912 L -140 -54.01923788646693 L -142.5 -49.68911086754474 L -140 -45.35898384862254 L -135 -45.358983848622536 L -132.5 -41.02885682970034 L -130 -36.69872981077814 L -135 -36.69872981077815 L -137.5 -41.028856829700345 L -140 -36.698729810778154 L -137.5 -32.368602791855956 L -132.5 -32.36860279185595 L -130 -28.03847577293375 L -135 -28.038475772933754 L -137.5 -23.708348754011563 L -132.5 -23.708348754011556 L -127.5 -23.70834875401155 L -125 -28.038475772933737 L -120 -28.03847577293373 L -117.5 -23.70834875401153 L -115 -19.378221735089333 L -120 -19.378221735089337 L -122.5 -23.70834875401153 L -125 -19.37822173508934 L -122.5 -15.048094716167144 L -125 -10.717967697244955 L -130 -10.717967697244958 L -135 -10.717967697244962 L -132.5 -15.048094716167155 L -127.5 -15.048094716167157 L -130 -19.37822173508935 L -135 -19.378221735089355 L -137.5 -15.048094716167164 L -142.5 -15.048094716167167 L -140 -19.37822173508936 L -142.5 -23.708348754011556 L -145 -19.378221735089365 L -147.5 -15.048094716167174 L -145 -10.717967697244978 L -140 -10.717967697244971 L -137.5 -6.387840678322775 L -142.5 -6.387840678322778 L -145 -2.057713659400588 L -140 -2.0577136594005814 L -135 -2.0577136594005747 L -132.5 -6.387840678322764 L -127.5 -6.387840678322757 L -125 -2.0577136594005605 L -130 -2.0577136594005645 L -132.5 2.2724133595216256 L -127.5 2.2724133595216323 L -122.5 2.272413359521639 L -120 -2.0577136594005503 L -122.5 -6.387840678322748 L -120 -10.717967697244937 L -117.5 -15.048094716167126 L -115 -10.71796769724493 L -117.5 -6.38784067832274 L -112.5 -6.387840678322734 L -110 -10.717967697244923 L -105 -10.717967697244916 L -102.5 -6.3878406783227195 L -107.5 -6.387840678322723 L -110 -2.057713659400533 L -105 -2.0577136594005263 L -100 -2.0577136594005196 L -97.5 -6.387840678322709 L -92.5 -6.387840678322702 L -90 -2.0577136594005054 L -87.5 2.272413359521691 L -92.5 2.272413359521687 L -95 -2.0577136594005077 L -97.5 2.2724133595216824 L -95 6.602540378443878 L -97.5 10.932667397366068 L -102.5 10.932667397366064 L -107.5 10.93266739736606 L -105 6.602540378443868 L -100 6.602540378443867 L -102.5 2.2724133595216722 L -107.5 2.2724133595216682 L -110 6.602540378443859 L -115 6.602540378443855 L -112.5 2.2724133595216625 L -115 -2.057713659400532 L -117.5 2.272413359521658 L -120 6.602540378443848 L -117.5 10.932667397366044 L -112.5 10.932667397366052 L -110 15.262794416288248 L -115 15.262794416288244 L -117.5 19.592921435210435 L -112.5 19.592921435210442 L -107.5 19.59292143521045 L -105 15.26279441628826 L -100 15.262794416288267 L -97.5 19.592921435210464 L -102.5 19.59292143521046 L -105 23.92304845413265 L -100 23.92304845413266 L -95 23.923048454132665 L -92.5 19.592921435210478 L -95 15.26279441628828 L -92.5 10.93266739736609 L -90 6.602540378443901 L -87.5 10.932667397366098 L -90 15.262794416288287 L -85 15.262794416288294 L -82.5 10.932667397366105 L -85 6.602540378443908 L -82.5 2.2724133595217184 L -80 6.602540378443915 L -75 6.602540378443921 L -77.5 2.2724133595217237 L -80 -2.0577136594004735 L -85 -2.057713659400483 L -87.5 -6.38784067832268 L -85 -10.71796769724487 L -82.5 -15.048094716167059 L -80 -10.717967697244863 L -82.5 -6.387840678322672 L -77.5 -6.387840678322666 L -75 -10.717967697244855 L -77.5 -15.048094716167054 L -75 -19.37822173508924 L -72.5 -23.708348754011432 L -70 -19.378221735089234 L -72.5 -15.048094716167043 L -67.5 -15.048094716167036 L -65 -19.378221735089227 L -60 -19.37822173508922 L -57.50000000000001 -15.048094716167023 L -55.000000000000014 -10.717967697244827 L -60.000000000000014 -10.71796769724483 L -62.500000000000014 -15.048094716167025 L -65.00000000000001 -10.717967697244834 L -62.50000000000002 -6.387840678322638 L -65.00000000000003 -2.0577136594004477 L -70.00000000000003 -2.0577136594004517 L -67.50000000000003 -6.387840678322645 L -70.00000000000003 -10.71796769724484 L -72.50000000000003 -6.387840678322649 L -75.00000000000003 -2.0577136594004592 L -72.50000000000003 2.272413359521737 L -67.50000000000003 2.2724133595217437 L -65.00000000000003 6.6025403784439405 L -70.00000000000003 6.602540378443937 L -72.50000000000003 10.932667397366128 L -67.50000000000003 10.932667397366135 L -62.50000000000003 10.932667397366142 L -60.00000000000002 6.602540378443953 L -62.500000000000014 2.2724133595217557 L -60.00000000000001 -2.0577136594004335 L -57.5 -6.387840678322623 L -55.00000000000001 -2.0577136594004264 L -57.500000000000014 2.2724133595217637 L -52.500000000000014 2.2724133595217704 L -50.00000000000001 -2.057713659400419 L -45.00000000000001 -2.057713659400412 L -42.500000000000014 2.272413359521784 L -47.500000000000014 2.27241335952178 L -50.00000000000002 6.602540378443971 L -45.00000000000002 6.602540378443978 L -40.00000000000002 6.602540378443985 L -37.500000000000014 2.2724133595217957 L -32.500000000000014 2.2724133595218023 L -30.00000000000002 6.602540378443999 L -27.50000000000003 10.932667397366195 L -32.50000000000003 10.932667397366192 L -35.00000000000003 6.602540378443997 L -37.500000000000036 10.932667397366188 L -35.00000000000004 15.262794416288385 L -37.50000000000005 19.592921435210574 L -42.50000000000005 19.59292143521057 L -47.50000000000005 19.592921435210567 L -45.00000000000005 15.262794416288374 L -40.00000000000005 15.262794416288372 L -42.50000000000005 10.932667397366178 L -47.50000000000005 10.932667397366174 L -50.00000000000006 15.262794416288365 L -55.00000000000006 15.262794416288362 L -52.50000000000006 10.932667397366169 L -55.00000000000006 6.602540378443974 L -57.500000000000064 10.932667397366163 L -60.00000000000007 15.262794416288354 L -57.50000000000008 19.59292143521055 L -52.50000000000008 19.592921435210556 L -50.000000000000085 23.923048454132754 L -55.000000000000085 23.92304845413275 L -57.50000000000009 28.25317547305494 L -52.50000000000009 28.25317547305495 L -47.50000000000009 28.253175473054956 L -45.000000000000085 23.92304845413277 L -40.000000000000085 23.923048454132775 L -37.50000000000009 28.253175473054974 L -42.50000000000009 28.25317547305497 L -45.0000000000001 32.58330249197716 L -40.0000000000001 32.583302491977165 L -35.0000000000001 32.58330249197717 L -32.50000000000009 28.25317547305498 L -35.000000000000085 23.923048454132783 L -32.50000000000008 19.59292143521059 L -30.00000000000007 15.262794416288402 L -27.500000000000078 19.5929214352106 L -30.00000000000008 23.92304845413279 L -25.00000000000008 23.923048454132797 L -22.500000000000075 19.592921435210606 L -17.500000000000075 19.592921435210613 L -15.00000000000008 23.92304845413281 L -20.000000000000078 23.923048454132807 L -22.50000000000008 28.253175473055 L -17.50000000000008 28.253175473055006 L -12.500000000000082 28.253175473055013 L -10.000000000000075 23.923048454132825 L -5.000000000000075 23.923048454132832 L -2.50000000000008 28.25317547305503 L -8.526512829121202e-14 32.58330249197723 L -5.000000000000085 32.58330249197722 L -7.5000000000000835 28.253175473055027 L -10.000000000000089 32.583302491977214 L -7.500000000000094 36.91342951089941 L -2.500000000000094 36.91342951089942 L -9.947598300641403e-14 41.24355652982162 L 2.499999999999895 45.573683548743816 L -2.500000000000105 45.57368354874381 L -5.000000000000103 41.24355652982162 L -7.500000000000108 45.57368354874381 L -5.000000000000114 49.90381056766601 L -7.500000000000119 54.2339375865882 L -12.500000000000119 54.23393758658819 L -17.50000000000012 54.23393758658818 L -15.00000000000012 49.90381056766599 L -10.00000000000012 49.90381056766599 L -12.500000000000119 45.5736835487438 L -17.50000000000012 45.573683548743794 L -20.00000000000012 41.2435565298216 L -17.50000000000012 36.91342951089941 L -15.000000000000117 41.2435565298216 L -10.000000000000117 41.2435565298216 L -12.500000000000115 36.913429510899405 L -15.000000000000114 32.58330249197721 L -20.000000000000114 32.5833024919772 L -22.500000000000117 36.91342951089939 L -27.500000000000117 36.913429510899384 L -25.000000000000117 32.58330249197719 L -27.500000000000114 28.253175473055 L -30.000000000000117 32.583302491977186 L -32.50000000000012 36.91342951089938 L -30.000000000000128 41.243556529821575 L -25.000000000000128 41.24355652982158 L -22.500000000000135 45.57368354874378 L -20.000000000000142 49.90381056766598 L -25.000000000000142 49.90381056766597 L -27.500000000000142 45.57368354874377 L -30.000000000000146 49.903810567665964 L -27.50000000000015 54.23393758658816 L -22.50000000000015 54.23393758658817 L -20.000000000000156 58.56406460551037 L -25.000000000000156 58.56406460551036 L -27.50000000000016 62.89419162443255 L -22.50000000000016 62.89419162443256 L -17.50000000000016 62.894191624432565 L -15.000000000000153 58.564064605510374 L -10.000000000000153 58.56406460551038 L -7.500000000000158 62.89419162443258 L -5.000000000000163 67.22431864335478 L -10.000000000000163 67.22431864335478 L -12.500000000000162 62.89419162443258 L -15.000000000000167 67.22431864335476 L -12.500000000000172 71.55444566227696 L -7.500000000000172 71.55444566227696 L -5.000000000000178 75.88457268119916 L -2.500000000000183 80.21469970012136 L -7.500000000000183 80.21469970012136 L -10.000000000000181 75.88457268119916 L -12.500000000000187 80.21469970012134 L -10.000000000000192 84.54482671904354 L -12.500000000000197 88.87495373796573 L -17.5000000000002 88.87495373796573 L -22.5000000000002 88.87495373796573 L -20.0000000000002 84.54482671904353 L -15.000000000000199 84.54482671904353 L -17.5000000000002 80.21469970012133 L -22.5000000000002 80.21469970012133 L -25.0000000000002 75.88457268119913 L -22.5000000000002 71.55444566227693 L -20.000000000000195 75.88457268119913 L -15.000000000000195 75.88457268119913 L -17.500000000000192 71.55444566227693 L -20.000000000000192 67.22431864335474 L -25.000000000000192 67.22431864335474 L -27.500000000000195 71.55444566227692 L -32.5000000000002 71.55444566227692 L -30.0000000000002 67.22431864335472 L -32.5000000000002 62.89419162443252 L -35.000000000000206 67.2243186433547 L -37.50000000000021 71.55444566227689 L -35.00000000000022 75.88457268119909 L -30.00000000000022 75.88457268119909 L -27.500000000000227 80.21469970012129 L -25.000000000000234 84.54482671904348 L -30.000000000000234 84.54482671904348 L -32.500000000000234 80.21469970012129 L -35.00000000000024 84.54482671904347 L -32.50000000000025 88.87495373796567 L -35.000000000000256 93.20508075688785 L -40.000000000000256 93.20508075688785 L -37.500000000000256 88.87495373796565 L -40.000000000000256 84.54482671904346 L -42.50000000000026 88.87495373796564 L -45.00000000000027 93.20508075688782 L -42.50000000000028 97.53520777581002 L -45.000000000000284 101.8653347947322 L -50.000000000000284 101.8653347947322 L -55.000000000000284 101.8653347947322 L -52.500000000000284 97.53520777581001 L -47.500000000000284 97.53520777581001 L -50.000000000000284 93.20508075688781 L -55.000000000000284 93.20508075688781 L -57.50000000000029 97.53520777581 L -62.50000000000029 97.53520777581 L -67.50000000000028 97.53520777581 L -65.00000000000028 93.2050807568878 L -60.000000000000284 93.2050807568878 L -62.500000000000284 88.8749537379656 L -67.50000000000028 88.8749537379656 L -70.00000000000028 84.5448267190434 L -67.50000000000028 80.2146997001212 L -65.00000000000028 75.884572681199 L -62.500000000000284 80.2146997001212 L -65.00000000000028 84.5448267190434 L -60.000000000000284 84.5448267190434 L -57.500000000000284 80.2146997001212 L -52.500000000000284 80.2146997001212 L -50.000000000000284 84.5448267190434 L -55.000000000000284 84.5448267190434 L -57.50000000000028 88.8749537379656 L -52.50000000000028 88.8749537379656 L -47.50000000000028 88.8749537379656 L -45.00000000000028 84.5448267190434 L -47.50000000000028 80.2146997001212 L -45.00000000000028 75.884572681199 L -42.50000000000028 80.2146997001212 L -37.50000000000028 80.2146997001212 L -40.00000000000028 75.884572681199 L -42.50000000000028 71.5544456622768 L -47.50000000000028 71.5544456622768 L -50.000000000000284 75.88457268119899 L -55.000000000000284 75.88457268119899 L -60.000000000000284 75.88457268119899 L -57.500000000000284 71.55444566227679 L -52.500000000000284 71.55444566227679 L -55.000000000000284 67.2243186433546 L -60.000000000000284 67.2243186433546 L -62.500000000000284 62.894191624432395 L -60.000000000000284 58.564064605510204 L -57.500000000000284 62.894191624432395 L -52.500000000000284 62.894191624432395 L -55.000000000000284 58.5640646055102 L -57.500000000000284 54.233937586588 L -62.500000000000284 54.23393758658799 L -65.00000000000028 49.9038105676658 L -62.500000000000284 45.57368354874361 L -60.000000000000284 41.24355652982142 L -57.500000000000284 45.57368354874361 L -60.00000000000028 49.90381056766581 L -55.00000000000028 49.90381056766581 L -52.50000000000028 45.57368354874362 L -47.50000000000028 45.57368354874362 L -45.00000000000028 49.90381056766581 L -42.50000000000028 54.233937586588 L -47.50000000000028 54.233937586588 L -50.00000000000028 49.90381056766581 L -52.50000000000027 54.233937586588006 L -50.00000000000027 58.5640646055102 L -45.00000000000027 58.5640646055102 L -42.50000000000027 62.89419162443239 L -47.50000000000027 62.89419162443239 L -50.00000000000026 67.22431864335458 L -45.00000000000026 67.22431864335458 L -40.00000000000026 67.22431864335458 L -37.50000000000026 62.89419162443239 L -40.00000000000026 58.5640646055102 L -37.50000000000026 54.233937586588006 L -35.00000000000026 58.5640646055102 L -30.000000000000263 58.5640646055102 L -32.50000000000026 54.233937586588 L -35.00000000000026 49.9038105676658 L -40.00000000000026 49.90381056766579 L -42.50000000000026 45.5736835487436 L -40.00000000000026 41.24355652982141 L -37.50000000000026 45.5736835487436 L -32.50000000000026 45.5736835487436 L -35.00000000000026 41.243556529821404 L -37.50000000000026 36.913429510899206 L -42.50000000000026 36.9134295108992 L -45.00000000000027 41.24355652982139 L -50.00000000000027 41.24355652982138 L -55.00000000000027 41.243556529821376 L -52.50000000000027 36.913429510899185 L -47.50000000000027 36.913429510899185 L -50.00000000000027 32.583302491976994 L -55.00000000000027 32.58330249197699 L -57.50000000000028 36.91342951089918 L -62.50000000000028 36.91342951089917 L -60.00000000000028 32.58330249197698 L -62.50000000000028 28.253175473054785 L -65.00000000000028 32.58330249197697 L -67.50000000000028 36.913429510899164 L -65.00000000000028 41.24355652982136 L -67.50000000000028 45.57368354874355 L -72.50000000000028 45.573683548743546 L -77.50000000000028 45.57368354874354 L -75.00000000000028 41.24355652982135 L -70.00000000000028 41.24355652982135 L -72.50000000000028 36.91342951089915 L -77.50000000000028 36.91342951089914 L -80.00000000000028 32.58330249197695 L -77.50000000000028 28.25317547305476 L -75.00000000000028 23.92304845413257 L -72.50000000000028 28.25317547305476 L -75.00000000000028 32.58330249197696 L -70.00000000000028 32.58330249197696 L -67.50000000000028 28.253175473054768 L -70.00000000000028 23.923048454132573 L -67.50000000000028 19.59292143521038 L -65.00000000000028 23.92304845413257 L -60.000000000000284 23.92304845413257 L -62.500000000000284 19.592921435210375 L -65.00000000000028 15.26279441628818 L -70.00000000000028 15.262794416288177 L -72.50000000000028 19.592921435210368 L -77.50000000000028 19.592921435210364 L -75.00000000000028 15.262794416288171 L -77.50000000000028 10.932667397365977 L -80.00000000000028 15.262794416288166 L -82.50000000000028 19.592921435210357 L -80.00000000000028 23.923048454132555 L -82.50000000000028 28.253175473054746 L -87.50000000000028 28.253175473054743 L -85.00000000000028 23.923048454132548 L -87.50000000000028 19.592921435210354 L -90.00000000000028 23.923048454132545 L -92.50000000000028 28.253175473054736 L -90.00000000000028 32.58330249197693 L -85.00000000000028 32.58330249197694 L -82.50000000000028 36.913429510899135 L -80.00000000000028 41.24355652982133 L -85.00000000000028 41.243556529821326 L -87.50000000000028 36.913429510899135 L -90.00000000000028 41.243556529821326 L -87.50000000000028 45.573683548743524 L -82.50000000000028 45.57368354874353 L -80.00000000000028 49.90381056766573 L -85.00000000000028 49.90381056766572 L -87.50000000000028 54.23393758658791 L -82.50000000000028 54.23393758658792 L -77.50000000000028 54.23393758658793 L -75.00000000000028 49.90381056766574 L -70.00000000000028 49.903810567665744 L -67.50000000000028 54.23393758658794 L -65.00000000000028 58.56406460551014 L -70.00000000000028 58.56406460551013 L -72.50000000000028 54.23393758658794 L -75.00000000000028 58.56406460551013 L -72.50000000000028 62.89419162443233 L -67.50000000000028 62.89419162443234 L -65.00000000000028 67.22431864335454 L -62.50000000000029 71.55444566227673 L -67.50000000000028 71.55444566227673 L -70.00000000000028 67.22431864335454 L -72.50000000000028 71.55444566227672 L -70.00000000000028 75.88457268119892 L -72.50000000000028 80.2146997001211 L -77.50000000000028 80.2146997001211 L -82.50000000000028 80.2146997001211 L -80.00000000000028 75.8845726811989 L -75.00000000000028 75.8845726811989 L -77.50000000000028 71.5544456622767 L -82.50000000000028 71.5544456622767 L -85.00000000000028 67.22431864335451 L -82.50000000000028 62.89419162443232 L -80.00000000000028 67.22431864335451 L -75.00000000000028 67.22431864335451 L -77.50000000000028 62.89419162443231 L -80.00000000000028 58.56406460551011 L -85.00000000000028 58.564064605510104 L -87.50000000000028 62.894191624432295 L -92.50000000000028 62.89419162443229 L -90.00000000000028 58.5640646055101 L -92.50000000000028 54.2339375865879 L -95.00000000000028 58.56406460551009 L -97.50000000000028 62.89419162443228 L -95.00000000000028 67.22431864335448 L -90.00000000000028 67.22431864335448 L -87.50000000000028 71.55444566227668 L -85.00000000000028 75.88457268119888 L -90.00000000000028 75.88457268119888 L -92.50000000000028 71.55444566227668 L -95.00000000000028 75.88457268119886 L -92.50000000000028 80.21469970012106 L -95.00000000000028 84.54482671904324 L -100.00000000000028 84.54482671904324 L -97.50000000000028 80.21469970012105 L -100.00000000000028 75.88457268119885 L -102.50000000000028 80.21469970012103 L -105.00000000000028 84.54482671904321 L -102.50000000000028 88.87495373796541 L -105.00000000000028 93.2050807568876 L -110.00000000000028 93.2050807568876 L -115.00000000000028 93.2050807568876 L -112.50000000000028 88.8749537379654 L -107.50000000000028 88.8749537379654 L -110.00000000000028 84.5448267190432 L -115.00000000000028 84.5448267190432 L -117.50000000000028 80.214699700121 L -115.00000000000028 75.8845726811988 L -112.50000000000028 71.5544456622766 L -110.00000000000028 75.8845726811988 L -112.50000000000028 80.214699700121 L -107.50000000000028 80.214699700121 L -105.00000000000028 75.8845726811988 L -107.50000000000028 71.5544456622766 L -105.00000000000028 67.22431864335441 L -102.50000000000028 71.5544456622766 L -97.50000000000028 71.5544456622766 L -100.00000000000028 67.22431864335441 L -102.50000000000028 62.89419162443221 L -107.50000000000028 62.8941916244322 L -110.00000000000028 67.2243186433544 L -115.00000000000028 67.2243186433544 L -112.50000000000028 62.8941916244322 L -115.00000000000028 58.56406460551001 L -117.50000000000028 62.8941916244322 L -120.00000000000028 67.2243186433544 L -117.50000000000028 71.55444566227659 L -120.00000000000028 75.88457268119878 L -125.00000000000028 75.88457268119878 L -122.50000000000028 71.55444566227658 L -125.00000000000028 67.22431864335438 L -127.50000000000028 71.55444566227656 L -130.00000000000028 75.88457268119875 L -127.50000000000028 80.21469970012095 L -122.50000000000028 80.21469970012095 L -120.00000000000028 84.54482671904314 L -117.50000000000028 88.87495373796534 L -122.50000000000028 88.87495373796534 L -125.00000000000028 84.54482671904314 L -127.50000000000028 88.87495373796533 L -125.00000000000028 93.20508075688753 L -127.50000000000028 97.53520777580971 L -132.50000000000028 97.53520777580971 L -130.00000000000028 93.20508075688751 L -132.50000000000028 88.87495373796531 L -135.00000000000028 93.2050807568875 L -137.50000000000028 97.53520777580968 L -135.00000000000028 101.86533479473188 L -137.50000000000028 106.19546181365406 L -142.50000000000028 106.19546181365406 L -147.50000000000028 106.19546181365406 L -145.00000000000028 101.86533479473187 L -140.00000000000028 101.86533479473187 L -142.50000000000028 97.53520777580967 L -147.50000000000028 97.53520777580967 L -150.00000000000028 101.86533479473185 L -155.00000000000028 101.86533479473185 L -160.00000000000028 101.86533479473185 L -157.50000000000028 97.53520777580965 L -152.50000000000028 97.53520777580965 L -155.00000000000028 93.20508075688745 L -160.00000000000028 93.20508075688745 L -162.50000000000028 88.87495373796526 L -160.00000000000028 84.54482671904306 L -157.50000000000028 80.21469970012086 L -155.00000000000028 84.54482671904306 L -157.50000000000028 88.87495373796526 L -152.50000000000028 88.87495373796526 L -150.00000000000028 84.54482671904306 L -145.00000000000028 84.54482671904306 L -142.50000000000028 88.87495373796526 L -147.50000000000028 88.87495373796526 L -150.00000000000028 93.20508075688745 L -145.00000000000028 93.20508075688745 L -140.00000000000028 93.20508075688745 L -137.50000000000028 88.87495373796526 L -140.00000000000028 84.54482671904306 L -137.50000000000028 80.21469970012086 L -135.00000000000028 84.54482671904306 L -130.00000000000028 84.54482671904306 L -132.50000000000028 80.21469970012086 L -135.00000000000028 75.88457268119866 L -140.00000000000028 75.88457268119866 L -142.50000000000028 80.21469970012085 L -147.50000000000028 80.21469970012085 L -152.50000000000028 80.21469970012085 L -150.00000000000028 75.88457268119865 L -145.00000000000028 75.88457268119865 L -147.50000000000028 71.55444566227645 L -152.50000000000028 71.55444566227645 L -155.00000000000028 75.88457268119863 L -160.00000000000028 75.88457268119863 L -157.50000000000028 71.55444566227644 L -160.00000000000028 67.22431864335424 L -162.50000000000028 71.55444566227642 L -165.00000000000028 75.8845726811986 L -162.50000000000028 80.2146997001208 L -165.00000000000028 84.54482671904299 L -170.00000000000028 84.54482671904299 L -175.00000000000028 84.54482671904299 L -172.50000000000028 80.21469970012079 L -167.50000000000028 80.21469970012079 L -170.00000000000028 75.88457268119859 L -175.00000000000028 75.88457268119859 L -177.50000000000028 80.21469970012078 L -182.50000000000028 80.21469970012078 L -187.50000000000028 80.21469970012078 L -185.00000000000028 75.88457268119858 L -180.00000000000028 75.88457268119858 L -182.50000000000028 71.55444566227638 L -187.50000000000028 71.55444566227638 L -190.00000000000028 67.22431864335418 L -187.50000000000028 62.89419162443199 L -185.00000000000028 58.5640646055098 L -182.50000000000028 62.89419162443199 L -185.00000000000028 67.22431864335418 L -180.00000000000028 67.22431864335418 L -177.50000000000028 62.89419162443199 L -172.50000000000028 62.89419162443199 L -170.00000000000028 67.22431864335418 L -175.00000000000028 67.22431864335418 L -177.50000000000028 71.55444566227638 L -172.50000000000028 71.55444566227638 L -167.50000000000028 71.55444566227638 L -165.00000000000028 67.22431864335418 L -167.50000000000028 62.89419162443198 L -165.00000000000028 58.56406460550979 L -162.50000000000028 62.89419162443198 L -157.50000000000028 62.89419162443198 L -160.00000000000028 58.564064605509785 L -162.50000000000028 54.23393758658759 L -167.50000000000028 54.23393758658758 L -170.00000000000028 58.56406460550977 L -175.00000000000028 58.56406460550976 L -180.00000000000028 58.564064605509756 L -177.50000000000028 54.233937586587565 L -172.50000000000028 54.233937586587565 L -175.00000000000028 49.903810567665374 L -180.00000000000028 49.90381056766537 L -182.50000000000028 45.573683548743176 L -180.00000000000028 41.243556529820985 L -177.50000000000028 45.573683548743176 L -172.50000000000028 45.573683548743176 L -175.00000000000028 41.24355652982098 L -177.50000000000028 36.91342951089878 L -182.50000000000028 36.91342951089877 L -185.00000000000028 32.58330249197658 L -182.50000000000028 28.25317547305439 L -180.00000000000028 23.9230484541322 L -177.50000000000028 28.25317547305439 L -180.00000000000028 32.58330249197659 L -175.00000000000028 32.58330249197659 L -172.50000000000028 28.253175473054398 L -175.00000000000028 23.923048454132203 L -172.50000000000028 19.59292143521001 L -170.00000000000028 15.262794416287816 L -167.50000000000028 19.59292143521001 L -170.00000000000028 23.923048454132203 L -165.00000000000028 23.923048454132203 L -162.50000000000028 19.59292143521001 L -157.50000000000028 19.59292143521001 L -155.00000000000028 23.9230484541322 L -152.50000000000028 28.25317547305439 L -157.50000000000028 28.253175473054394 L -160.00000000000028 23.9230484541322 L -162.50000000000028 28.253175473054394 L -160.00000000000028 32.58330249197659 L -162.50000000000028 36.91342951089879 L -167.50000000000028 36.91342951089879 L -165.00000000000028 32.583302491976596 L -167.50000000000028 28.2531754730544 L -170.00000000000028 32.583302491976596 L -172.50000000000028 36.913429510898794 L -170.00000000000028 41.243556529820985 L -165.00000000000028 41.243556529820985 L -162.50000000000028 45.573683548743176 L -167.50000000000028 45.573683548743176 L -170.00000000000028 49.903810567665374 L -165.00000000000028 49.903810567665374 L -160.00000000000028 49.903810567665374 L -157.50000000000028 45.57368354874318 L -160.00000000000028 41.24355652982099 L -157.50000000000028 36.9134295108988 L -155.00000000000028 32.58330249197661 L -152.50000000000028 36.9134295108988 L -155.00000000000028 41.243556529821 L -150.00000000000028 41.243556529821 L -147.50000000000028 36.91342951089881 L -142.50000000000028 36.91342951089881 L -140.00000000000028 41.243556529821 L -145.00000000000028 41.243556529821 L -147.50000000000028 45.5736835487432 L -142.50000000000028 45.5736835487432 L -137.50000000000028 45.5736835487432 L -135.00000000000028 41.24355652982101 L -130.00000000000028 41.24355652982101 L -127.50000000000028 45.5736835487432 L -125.00000000000028 49.90381056766539 L -130.00000000000028 49.90381056766539 L -132.50000000000028 45.5736835487432 L -135.00000000000028 49.903810567665396 L -132.50000000000028 54.23393758658759 L -135.00000000000028 58.564064605509785 L -140.00000000000028 58.564064605509785 L -145.00000000000028 58.564064605509785 L -142.50000000000028 54.233937586587594 L -137.50000000000028 54.2339375865876 L -140.00000000000028 49.90381056766541 L -145.00000000000028 49.90381056766541 L -147.50000000000028 54.23393758658761 L -152.50000000000028 54.23393758658761 L -150.00000000000028 49.90381056766542 L -152.50000000000028 45.573683548743226 L -155.00000000000028 49.903810567665424 L -157.50000000000028 54.23393758658762 L -155.00000000000028 58.56406460550981 L -150.00000000000028 58.56406460550981 L -147.50000000000028 62.894191624432004 L -152.50000000000028 62.894191624432004 L -155.00000000000028 67.2243186433542 L -150.00000000000028 67.2243186433542 L -145.00000000000028 67.2243186433542 L -142.50000000000028 62.894191624432004 L -137.50000000000028 62.894191624432004 L -135.00000000000028 67.2243186433542 L -140.00000000000028 67.2243186433542 L -142.50000000000028 71.5544456622764 L -137.50000000000028 71.5544456622764 L -132.50000000000028 71.5544456622764 L -130.00000000000028 67.2243186433542 L -132.50000000000028 62.894191624432 L -130.00000000000028 58.564064605509806 L -127.50000000000028 54.233937586587615 L -125.00000000000028 58.564064605509806 L -127.50000000000028 62.894191624432004 L -122.50000000000028 62.894191624432004 L -120.00000000000028 58.56406460550981 L -122.50000000000028 54.233937586587615 L -120.00000000000028 49.903810567665424 L -117.50000000000028 54.233937586587615 L -112.50000000000028 54.233937586587615 L -115.00000000000028 49.90381056766542 L -117.50000000000028 45.57368354874322 L -122.50000000000028 45.57368354874321 L -125.00000000000028 41.24355652982102 L -122.50000000000028 36.91342951089883 L -120.00000000000028 32.58330249197664 L -117.50000000000028 36.91342951089883 L -120.00000000000028 41.24355652982103 L -115.00000000000028 41.24355652982103 L -112.50000000000028 36.91342951089884 L -107.50000000000028 36.91342951089884 L -105.00000000000028 41.24355652982103 L -102.50000000000028 45.57368354874322 L -107.50000000000028 45.57368354874322 L -110.00000000000028 41.24355652982103 L -112.50000000000028 45.573683548743226 L -110.00000000000028 49.90381056766542 L -105.00000000000028 49.90381056766542 L -102.50000000000028 54.23393758658761 L -107.50000000000028 54.23393758658761 L -110.00000000000028 58.564064605509806 L -105.00000000000028 58.564064605509806 L -100.00000000000028 58.564064605509806 L -97.50000000000028 54.233937586587615 L -100.00000000000028 49.90381056766542 L -97.50000000000028 45.573683548743226 L -95.00000000000028 49.90381056766542 L -90.00000000000028 49.90381056766542 L -92.50000000000028 45.57368354874322 L -95.00000000000028 41.24355652982102 L -100.00000000000028 41.243556529821014 L -102.50000000000028 36.91342951089882 L -100.00000000000028 32.58330249197663 L -97.50000000000028 36.91342951089882 L -92.50000000000028 36.91342951089882 L -95.00000000000028 32.583302491976625 L -97.50000000000028 28.25317547305443 L -102.50000000000028 28.253175473054426 L -105.00000000000028 32.58330249197662 L -110.00000000000028 32.58330249197661 L -115.00000000000028 32.5833024919766 L -112.50000000000028 28.253175473054412 L -107.50000000000028 28.253175473054412 L -110.00000000000028 23.923048454132218 L -115.00000000000028 23.923048454132214 L -117.50000000000028 28.253175473054405 L -122.50000000000028 28.2531754730544 L -120.00000000000028 23.923048454132207 L -122.50000000000028 19.592921435210013 L -125.00000000000028 23.923048454132203 L -127.50000000000028 28.253175473054394 L -125.00000000000028 32.58330249197659 L -127.50000000000028 36.91342951089878 L -132.50000000000028 36.91342951089877 L -137.50000000000028 36.913429510898766 L -135.00000000000028 32.583302491976575 L -130.00000000000028 32.583302491976575 L -132.50000000000028 28.25317547305438 L -137.50000000000028 28.253175473054377 L -140.00000000000028 32.58330249197657 L -145.00000000000028 32.58330249197656 L -150.00000000000028 32.58330249197655 L -147.50000000000028 28.253175473054362 L -142.50000000000028 28.253175473054362 L -145.00000000000028 23.923048454132168 L -150.00000000000028 23.923048454132164 L -152.50000000000028 19.59292143520997 L -150.00000000000028 15.262794416287777 L -147.50000000000028 10.932667397365584 L -145.00000000000028 15.262794416287775 L -147.50000000000028 19.59292143520997 L -142.50000000000028 19.59292143520997 L -140.00000000000028 15.262794416287777 L -135.00000000000028 15.262794416287775 L -132.50000000000028 19.592921435209966 L -137.50000000000028 19.59292143520997 L -140.00000000000028 23.923048454132164 L -135.00000000000028 23.923048454132164 L -130.00000000000028 23.923048454132164 L -127.50000000000028 19.592921435209973 L -130.00000000000028 15.262794416287779 L -127.50000000000028 10.932667397365586 L -125.00000000000028 15.262794416287779 L -120.00000000000028 15.262794416287777 L -122.50000000000028 10.932667397365583 L -125.00000000000028 6.602540378443388 L -130.00000000000028 6.6025403784433845 L -132.50000000000028 10.932667397365574 L -137.50000000000028 10.93266739736557 L -142.50000000000028 10.932667397365567 L -140.00000000000028 6.602540378443374 L -135.00000000000028 6.602540378443373 L -137.50000000000028 2.2724133595211784 L -142.50000000000028 2.2724133595211744 L -145.00000000000028 6.602540378443365 L -150.00000000000028 6.602540378443361 L -147.50000000000028 2.2724133595211686 L -150.00000000000028 -2.057713659401026 L -152.50000000000028 2.272413359521164 L -155.00000000000028 6.602540378443354 L -152.50000000000028 10.93266739736555 L -155.00000000000028 15.26279441628774 L -160.00000000000028 15.262794416287736 L -165.00000000000028 15.262794416287733 L -162.50000000000028 10.93266739736554 L -157.50000000000028 10.932667397365538 L -160.00000000000028 6.602540378443344 L -165.00000000000028 6.60254037844334 L -167.50000000000028 2.2724133595211455 L -165.00000000000028 -2.0577136594010472 L -162.50000000000028 -6.38784067832324 L -160.00000000000028 -2.057713659401048 L -162.50000000000028 2.2724133595211473 L -157.50000000000028 2.272413359521146 L -155.00000000000028 -2.057713659401047 L -157.50000000000028 -6.387840678323242 L -155.00000000000028 -10.717967697245435 L -152.50000000000028 -6.387840678323243 L -147.50000000000028 -6.3878406783232435 L -150.00000000000028 -10.717967697245438 L -152.50000000000028 -15.048094716167633 L -157.50000000000028 -15.048094716167636 L -160.00000000000028 -10.717967697245445 L -165.00000000000028 -10.717967697245449 L -162.50000000000028 -15.048094716167641 L -165.00000000000028 -19.378221735089838 L -167.50000000000028 -15.048094716167647 L -170.00000000000028 -10.717967697245456 L -167.50000000000028 -6.3878406783232595 L -170.00000000000028 -2.0577136594010694 L -175.00000000000028 -2.0577136594010734 L -172.50000000000028 -6.387840678323267 L -175.00000000000028 -10.717967697245461 L -177.50000000000028 -6.387840678323271 L -180.00000000000028 -2.057713659401081 L -177.50000000000028 2.2724133595211153 L -172.50000000000028 2.272413359521122 L -170.00000000000028 6.602540378443319 L -167.50000000000028 10.932667397365515 L -172.50000000000028 10.932667397365512 L -175.00000000000028 6.602540378443317 L -177.50000000000028 10.932667397365506 L -175.00000000000028 15.262794416287703 L -177.50000000000028 19.59292143520989 L -182.50000000000028 19.592921435209888 L -180.00000000000028 15.262794416287695 L -182.50000000000028 10.9326673973655 L -185.00000000000028 15.26279441628769 L -187.50000000000028 19.59292143520988 L -185.00000000000028 23.92304845413208 L -187.50000000000028 28.25317547305427 L -192.50000000000028 28.253175473054267 L -197.50000000000028 28.253175473054263 L -195.00000000000028 23.923048454132072 L -190.00000000000028 23.923048454132072 L -192.50000000000028 19.592921435209878 L -197.50000000000028 19.592921435209874 L -200.00000000000028 23.923048454132065 L -205.00000000000028 23.92304845413206 L -210.00000000000028 23.923048454132058 L -207.50000000000028 19.592921435209867 L -202.50000000000028 19.592921435209867 L -205.00000000000028 15.262794416287672 L -210.00000000000028 15.262794416287669 L -212.50000000000028 10.932667397365474 L -210.00000000000028 6.6025403784432815 L -207.50000000000028 2.2724133595210887 L -205.00000000000028 6.602540378443281 L -207.50000000000028 10.932667397365476 L -202.50000000000028 10.932667397365474 L -200.00000000000028 6.6025403784432815 L -195.00000000000028 6.602540378443281 L -192.50000000000028 10.932667397365472 L -197.50000000000028 10.932667397365474 L -200.00000000000028 15.262794416287669 L -195.00000000000028 15.262794416287667 L -190.00000000000028 15.262794416287665 L -187.50000000000028 10.932667397365472 L -190.00000000000028 6.602540378443278 L -187.50000000000028 2.272413359521085 L -185.00000000000028 6.602540378443277 L -180.00000000000028 6.602540378443276 L -182.50000000000028 2.2724133595210816 L -185.00000000000028 -2.057713659401113 L -190.00000000000028 -2.057713659401117 L -192.50000000000028 2.272413359521073 L -197.50000000000028 2.272413359521069 L -202.50000000000028 2.272413359521065 L -200.00000000000028 -2.0577136594011276 L -195.00000000000028 -2.057713659401129 L -197.50000000000028 -6.3878406783233235 L -202.50000000000028 -6.387840678323327 L -205.00000000000028 -10.717967697245522 L -202.50000000000028 -15.048094716167714 L -200.00000000000028 -10.717967697245523 L -195.00000000000028 -10.717967697245525 L -197.50000000000028 -15.04809471616772 L -200.00000000000028 -19.378221735089916 L -205.00000000000028 -19.37822173508992 L -207.50000000000028 -23.708348754012114 L -205.00000000000028 -28.038475772934305 L -202.50000000000028 -32.368602791856496 L -200.00000000000028 -28.038475772934305 L -202.50000000000028 -23.70834875401211 L -197.50000000000028 -23.70834875401211 L -195.00000000000028 -28.038475772934305 L -197.50000000000028 -32.3686027918565 L -195.00000000000028 -36.698729810778694 L -192.50000000000028 -41.028856829700885 L -190.00000000000028 -36.698729810778694 L -192.50000000000028 -32.368602791856496 L -187.50000000000028 -32.368602791856496 L -185.00000000000028 -36.69872981077869 L -180.00000000000028 -36.69872981077869 L -177.50000000000028 -32.368602791856496 L -175.00000000000028 -28.038475772934305 L -180.00000000000028 -28.0384757729343 L -182.50000000000028 -32.368602791856496 L -185.00000000000028 -28.0384757729343 L -182.50000000000028 -23.70834875401211 L -185.00000000000028 -19.378221735089916 L -190.00000000000028 -19.378221735089912 L -187.50000000000028 -23.708348754012103 L -190.00000000000028 -28.038475772934298 L -192.50000000000028 -23.708348754012103 L -195.00000000000028 -19.37822173508991 L -192.50000000000028 -15.048094716167718 L -187.50000000000028 -15.04809471616772 L -185.00000000000028 -10.717967697245527 L -190.00000000000028 -10.717967697245525 L -192.50000000000028 -6.38784067832333 L -187.50000000000028 -6.387840678323331 L -182.50000000000028 -6.3878406783233315 L -180.00000000000028 -10.717967697245523 L -182.50000000000028 -15.048094716167718 L -180.00000000000028 -19.37822173508991 L -177.50000000000028 -23.7083487540121 L -175.00000000000028 -19.37822173508991 L -177.50000000000028 -15.048094716167714 L -172.50000000000028 -15.048094716167716 L -170.00000000000028 -19.37822173508991 L -172.50000000000028 -23.708348754012103 L -170.00000000000028 -28.038475772934298 L -167.50000000000028 -23.708348754012107 L -162.50000000000028 -23.708348754012107 L -165.00000000000028 -28.0384757729343 L -167.50000000000028 -32.368602791856496 L -172.50000000000028 -32.3686027918565 L -175.00000000000028 -36.6987298107787 L -172.50000000000028 -41.02885682970089 L -170.00000000000028 -45.35898384862308 L -167.50000000000028 -41.02885682970089 L -170.00000000000028 -36.698729810778694 L -165.00000000000028 -36.698729810778694 L -162.50000000000028 -41.028856829700885 L -157.50000000000028 -41.028856829700885 L -155.00000000000028 -36.698729810778694 L -152.50000000000028 -32.3686027918565 L -157.50000000000028 -32.3686027918565 L -160.00000000000028 -36.698729810778694 L -162.50000000000028 -32.368602791856496 L -160.00000000000028 -28.038475772934305 L -155.00000000000028 -28.038475772934305 L -152.50000000000028 -23.708348754012114 L -157.50000000000028 -23.70834875401211 L -160.00000000000028 -19.378221735089916 L -155.00000000000028 -19.378221735089916 L -150.00000000000028 -19.378221735089916 L -147.50000000000028 -23.708348754012107 L -150.00000000000028 -28.0384757729343 L -147.50000000000028 -32.368602791856496 L -145.00000000000028 -28.038475772934305 L -140.00000000000028 -28.038475772934305 L -142.50000000000028 -32.3686027918565 L -145.00000000000028 -36.6987298107787 L -150.00000000000028 -36.69872981077871 L -152.50000000000028 -41.0288568297009 L -150.00000000000028 -45.35898384862309 L -147.50000000000028 -41.0288568297009 L -142.50000000000028 -41.0288568297009 L -145.00000000000028 -45.3589838486231 L -147.50000000000028 -49.689110867545295 L -152.50000000000028 -49.6891108675453 L -155.00000000000028 -45.35898384862311 L -160.00000000000028 -45.35898384862312 L -165.00000000000028 -45.358983848623126 L -162.50000000000028 -49.68911086754532 L -157.50000000000028 -49.68911086754532 L -160.00000000000028 -54.01923788646751 L -165.00000000000028 -54.019237886467515 L -167.50000000000028 -49.689110867545324 L -172.50000000000028 -49.68911086754533 L -170.00000000000028 -54.01923788646752 L -172.50000000000028 -58.34936490538972 L -175.00000000000028 -54.01923788646753 L -177.50000000000028 -49.68911086754534 L -175.00000000000028 -45.35898384862314 L -177.50000000000028 -41.02885682970095 L -182.50000000000028 -41.028856829700956 L -187.50000000000028 -41.02885682970096 L -185.00000000000028 -45.358983848623154 L -180.00000000000028 -45.358983848623154 L -182.50000000000028 -49.68911086754535 L -187.50000000000028 -49.68911086754536 L -190.00000000000028 -54.01923788646755 L -187.50000000000028 -58.34936490538974 L -185.00000000000028 -62.67949192431193 L -182.50000000000028 -58.34936490538974 L -185.00000000000028 -54.01923788646754 L -180.00000000000028 -54.01923788646754 L -177.50000000000028 -58.349364905389734 L -180.00000000000028 -62.67949192431193 L -177.50000000000028 -67.00961894323413 L -175.00000000000028 -62.67949192431194 L -170.00000000000028 -62.67949192431194 L -172.50000000000028 -67.00961894323413 L -175.00000000000028 -71.33974596215633 L -180.00000000000028 -71.33974596215633 L -182.50000000000028 -67.00961894323414 L -187.50000000000028 -67.00961894323414 L -185.00000000000028 -71.33974596215634 L -187.50000000000028 -75.66987298107854 L -190.00000000000028 -71.33974596215636 L -192.50000000000028 -67.00961894323417 L -190.00000000000028 -62.679491924311975 L -192.50000000000028 -58.349364905389784 L -197.50000000000028 -58.34936490538979 L -195.00000000000028 -62.67949192431198 L -197.50000000000028 -67.00961894323417 L -200.00000000000028 -62.67949192431198 L -202.50000000000028 -58.34936490538979 L -200.00000000000028 -54.01923788646759 L -195.00000000000028 -54.019237886467586 L -192.50000000000028 -49.68911086754539 L -190.00000000000028 -45.35898384862319 L -195.00000000000028 -45.3589838486232 L -197.50000000000028 -49.689110867545395 L -200.00000000000028 -45.358983848623204 L -197.50000000000028 -41.028856829701006 L -200.00000000000028 -36.698729810778815 L -205.00000000000028 -36.69872981077882 L -202.50000000000028 -41.02885682970101 L -205.00000000000028 -45.35898384862321 L -207.50000000000028 -41.02885682970102 L -210.00000000000028 -36.69872981077883 L -207.50000000000028 -32.36860279185663 L -210.00000000000028 -28.03847577293444 L -215.00000000000028 -28.038475772934444 L -220.00000000000028 -28.038475772934447 L -217.50000000000028 -32.36860279185664 L -212.50000000000028 -32.36860279185664 L -215.00000000000028 -36.69872981077883 L -220.00000000000028 -36.698729810778836 L -222.50000000000028 -41.02885682970103 L -220.00000000000028 -45.35898384862322 L -217.50000000000028 -49.68911086754541 L -215.00000000000028 -45.35898384862322 L -217.50000000000028 -41.02885682970102 L -212.50000000000028 -41.02885682970102 L -210.00000000000028 -45.35898384862321 L -212.50000000000028 -49.68911086754541 L -210.00000000000028 -54.0192378864676 L -207.50000000000028 -49.68911086754541 L -202.50000000000028 -49.68911086754541 L -205.00000000000028 -54.01923788646761 L -207.50000000000028 -58.349364905389805 L -212.50000000000028 -58.34936490538981 L -215.00000000000028 -54.01923788646762 L -220.00000000000028 -54.01923788646763 L -217.50000000000028 -58.34936490538982 L -220.00000000000028 -62.67949192431202 L -222.50000000000028 -58.34936490538983 L -225.00000000000028 -54.019237886467636 L -222.50000000000028 -49.68911086754544 L -225.00000000000028 -45.35898384862325 L -230.00000000000028 -45.358983848623254 L -227.50000000000028 -49.689110867545445 L -230.00000000000028 -54.019237886467636 L -232.50000000000028 -49.689110867545445 L -235.00000000000028 -45.358983848623254 L -232.50000000000028 -41.028856829701056 L -227.50000000000028 -41.02885682970105 L -225.00000000000028 -36.69872981077885 L -222.50000000000028 -32.36860279185665 L -227.50000000000028 -32.36860279185666 L -230.00000000000028 -36.69872981077886 L -232.50000000000028 -32.36860279185667 L -230.00000000000028 -28.03847577293447 L -225.00000000000028 -28.03847577293446 L -222.50000000000028 -23.708348754012263 L -227.50000000000028 -23.708348754012267 L -230.00000000000028 -19.378221735090076 L -225.00000000000028 -19.37822173509007 L -220.00000000000028 -19.37822173509006 L -217.50000000000028 -23.70834875401225 L -212.50000000000028 -23.708348754012242 L -210.00000000000028 -19.378221735090044 L -207.50000000000028 -15.048094716167848 L -212.50000000000028 -15.048094716167851 L -215.00000000000028 -19.378221735090044 L -217.50000000000028 -15.048094716167853 L -215.00000000000028 -10.717967697245657 L -210.00000000000028 -10.71796769724565 L -207.50000000000028 -6.387840678323453 L -205.00000000000028 -2.057713659401257 L -210.00000000000028 -2.057713659401261 L -212.50000000000028 -6.387840678323455 L -215.00000000000028 -2.057713659401265 L -212.50000000000028 2.2724133595209315 L -215.00000000000028 6.602540378443122 L -220.00000000000028 6.602540378443118 L -225.00000000000028 6.6025403784431145 L -222.50000000000028 2.2724133595209217 L -217.50000000000028 2.2724133595209204 L -220.00000000000028 -2.057713659401274 L -225.00000000000028 -2.057713659401278 L -227.50000000000028 -6.387840678323473 L -225.00000000000028 -10.717967697245665 L -222.50000000000028 -6.387840678323474 L -217.50000000000028 -6.3878406783234745 L -220.00000000000028 -10.717967697245669 L -222.50000000000028 -15.048094716167864 L -227.50000000000028 -15.048094716167867 L -230.00000000000028 -10.717967697245676 L -235.00000000000028 -10.71796769724568 L -232.50000000000028 -15.048094716167872 L -235.00000000000028 -19.378221735090065 L -237.50000000000028 -15.048094716167874 L -240.00000000000028 -10.717967697245683 L -237.50000000000028 -6.387840678323487 L -232.50000000000028 -6.38784067832348 L -230.00000000000028 -2.0577136594012835 L -227.50000000000028 2.272413359520913 L -232.50000000000028 2.272413359520909 L -235.00000000000028 -2.0577136594012857 L -237.50000000000028 2.2724133595209044 L -235.00000000000028 6.6025403784431 L -230.00000000000028 6.602540378443107 L -227.50000000000028 10.932667397365304 L -232.50000000000028 10.9326673973653 L -235.00000000000028 15.262794416287491 L -230.00000000000028 15.262794416287498 L -225.00000000000028 15.262794416287505 L -222.50000000000028 10.932667397365316 L -217.50000000000028 10.932667397365323 L -215.00000000000028 15.26279441628752 L -212.50000000000028 19.592921435209718 L -217.50000000000028 19.592921435209714 L -220.00000000000028 15.26279441628752 L -222.50000000000028 19.59292143520971 L -220.00000000000028 23.92304845413191 L -222.50000000000028 28.2531754730541 L -227.50000000000028 28.253175473054096 L -232.50000000000028 28.253175473054092 L -230.00000000000028 23.9230484541319 L -225.00000000000028 23.9230484541319 L -227.50000000000028 19.592921435209707 L -232.50000000000028 19.592921435209703 L -235.00000000000028 23.923048454131894 L -240.00000000000028 23.92304845413189 L -237.50000000000028 19.592921435209696 L -240.00000000000028 15.262794416287502 L -242.50000000000028 19.592921435209693 L -245.00000000000028 23.923048454131884 L -242.50000000000028 28.25317547305408 L -237.50000000000028 28.253175473054085 L -235.00000000000028 32.58330249197628 L -240.00000000000028 32.583302491976276 L -242.50000000000028 36.91342951089847 L -237.50000000000028 36.913429510898474 L -232.50000000000028 36.91342951089848 L -230.00000000000028 32.58330249197629 L -225.00000000000028 32.5833024919763 L -222.50000000000028 36.913429510898496 L -227.50000000000028 36.91342951089849 L -230.00000000000028 41.24355652982068 L -225.00000000000028 41.24355652982069 L -220.00000000000028 41.243556529820694 L -217.50000000000028 36.9134295108985 L -220.00000000000028 32.583302491976305 L -217.50000000000028 28.253175473054114 L -215.00000000000028 23.923048454131923 L -212.50000000000028 28.25317547305412 L -215.00000000000028 32.58330249197631 L -210.00000000000028 32.58330249197632 L -207.50000000000028 28.253175473054128 L -202.50000000000028 28.253175473054135 L -200.00000000000028 32.58330249197633 L -205.00000000000028 32.583302491976326 L -207.50000000000028 36.91342951089852 L -202.50000000000028 36.913429510898524 L -197.50000000000028 36.91342951089853 L -195.00000000000028 32.58330249197634 L -190.00000000000028 32.58330249197635 L -187.50000000000028 36.913429510898546 L -185.00000000000028 41.243556529820744 L -190.00000000000028 41.24355652982074 L -192.50000000000028 36.91342951089854 L -195.00000000000028 41.24355652982073 L -192.50000000000028 45.57368354874293 L -187.50000000000028 45.573683548742935 L -185.00000000000028 49.90381056766513 L -182.50000000000028 54.23393758658733 L -187.50000000000028 54.233937586587324 L -190.00000000000028 49.90381056766513 L -192.50000000000028 54.233937586587324 L -190.00000000000028 58.56406460550952 L -192.50000000000028 62.89419162443171 L -197.50000000000028 62.894191624431706 L -202.50000000000028 62.8941916244317 L -200.00000000000028 58.56406460550951 L -195.00000000000028 58.56406460550951 L -197.50000000000028 54.23393758658732 L -202.50000000000028 54.23393758658731 L -205.00000000000028 49.90381056766512 L -202.50000000000028 45.57368354874293 L -200.00000000000028 49.90381056766512 L -195.00000000000028 49.90381056766512 L -197.50000000000028 45.57368354874292 L -200.00000000000028 41.24355652982072 L -205.00000000000028 41.243556529820715 L -207.50000000000028 45.573683548742906 L -212.50000000000028 45.5736835487429 L -210.00000000000028 41.24355652982071 L -212.50000000000028 36.91342951089851 L -215.00000000000028 41.2435565298207 L -217.50000000000028 45.57368354874289 L -215.00000000000028 49.90381056766509 L -210.00000000000028 49.9038105676651 L -207.50000000000028 54.233937586587295 L -205.00000000000028 58.56406460550949 L -210.00000000000028 58.564064605509486 L -212.50000000000028 54.23393758658729 L -215.00000000000028 58.56406460550948 L -212.50000000000028 62.89419162443168 L -215.00000000000028 67.22431864335387 L -220.00000000000028 67.22431864335387 L -217.50000000000028 62.89419162443168 L -220.00000000000028 58.564064605509486 L -222.50000000000028 62.89419162443168 L -225.00000000000028 67.22431864335387 L -222.50000000000028 71.55444566227607 L -225.00000000000028 75.88457268119825 L -230.00000000000028 75.88457268119825 L -235.00000000000028 75.88457268119825 L -232.50000000000028 71.55444566227605 L -227.50000000000028 71.55444566227605 L -230.00000000000028 67.22431864335385 L -235.00000000000028 67.22431864335385 L -237.50000000000028 71.55444566227604 L -242.50000000000028 71.55444566227604 L -247.50000000000028 71.55444566227604 L -245.00000000000028 67.22431864335384 L -240.00000000000028 67.22431864335384 L -242.50000000000028 62.89419162443164 L -247.50000000000028 62.894191624431635 L -250.00000000000028 58.564064605509444 L -247.50000000000028 54.23393758658725 L -245.00000000000028 49.90381056766506 L -242.50000000000028 54.23393758658725 L -245.00000000000028 58.56406460550945 L -240.00000000000028 58.56406460550945 L -237.50000000000028 54.23393758658726 L -232.50000000000028 54.23393758658726 L -230.00000000000028 58.56406460550945 L -235.00000000000028 58.56406460550945 L -237.50000000000028 62.89419162443165 L -232.50000000000028 62.89419162443165 L -227.50000000000028 62.89419162443165 L -225.00000000000028 58.56406460550946 L -227.50000000000028 54.23393758658726 L -225.00000000000028 49.90381056766507 L -222.50000000000028 54.23393758658726 L -217.50000000000028 54.23393758658726 L -220.00000000000028 49.90381056766506 L -222.50000000000028 45.57368354874286 L -227.50000000000028 45.573683548742856 L -230.00000000000028 49.90381056766505 L -235.00000000000028 49.90381056766504 L -240.00000000000028 49.90381056766503 L -237.50000000000028 45.57368354874284 L -232.50000000000028 45.57368354874284 L -235.00000000000028 41.24355652982065 L -240.00000000000028 41.243556529820644 L -242.50000000000028 45.573683548742835 L -247.50000000000028 45.57368354874283 L -245.00000000000028 41.24355652982064 L -247.50000000000028 36.91342951089844 L -250.00000000000028 41.24355652982063 L -252.50000000000028 45.57368354874282 L -250.00000000000028 49.90381056766502 L -252.50000000000028 54.23393758658721 L -257.5000000000003 54.2339375865872 L -262.5000000000003 54.233937586587196 L -260.0000000000003 49.903810567665005 L -255.00000000000028 49.903810567665005 L -257.5000000000003 45.57368354874281 L -262.5000000000003 45.5736835487428 L -265.0000000000003 41.24355652982061 L -262.5000000000003 36.91342951089842 L -260.0000000000003 32.58330249197623 L -257.5000000000003 36.91342951089842 L -260.0000000000003 41.243556529820616 L -255.00000000000028 41.243556529820616 L -252.50000000000028 36.913429510898425 L -255.00000000000028 32.58330249197623 L -252.50000000000028 28.253175473054036 L -250.00000000000028 32.58330249197623 L -245.00000000000028 32.58330249197623 L -247.50000000000028 28.253175473054032 L -250.00000000000028 23.923048454131838 L -255.00000000000028 23.923048454131834 L -257.5000000000003 28.253175473054025 L -262.5000000000003 28.25317547305402 L -260.0000000000003 23.92304845413183 L -262.5000000000003 19.592921435209636 L -265.0000000000003 23.923048454131827 L -267.5000000000003 28.253175473054018 L -265.0000000000003 32.58330249197621 L -267.5000000000003 36.9134295108984 L -272.5000000000003 36.913429510898396 L -270.0000000000003 32.583302491976205 L -272.5000000000003 28.25317547305401 L -275.0000000000003 32.5833024919762 L -277.5000000000003 36.91342951089839 L -275.0000000000003 41.24355652982059 L -270.0000000000003 41.243556529820594 L -267.5000000000003 45.57368354874279 L -265.0000000000003 49.90381056766499 L -270.0000000000003 49.90381056766498 L -272.5000000000003 45.57368354874279 L -275.0000000000003 49.90381056766498 L -272.5000000000003 54.23393758658718 L -267.5000000000003 54.23393758658719 L -265.0000000000003 58.56406460550939 L -270.0000000000003 58.56406460550938 L -272.5000000000003 62.89419162443157 L -267.5000000000003 62.89419162443158 L -262.5000000000003 62.894191624431585 L -260.0000000000003 58.564064605509394 L -255.00000000000028 58.5640646055094 L -252.50000000000028 62.8941916244316 L -250.00000000000028 67.2243186433538 L -255.00000000000028 67.2243186433538 L -257.5000000000003 62.8941916244316 L -260.0000000000003 67.22431864335378 L -257.5000000000003 71.55444566227598 L -260.0000000000003 75.88457268119816 L -265.0000000000003 75.88457268119816 L -270.0000000000003 75.88457268119816 L -267.5000000000003 71.55444566227597 L -262.5000000000003 71.55444566227597 L -265.0000000000003 67.22431864335377 L -270.0000000000003 67.22431864335377 L -272.5000000000003 71.55444566227595 L -277.5000000000003 71.55444566227595 L -275.0000000000003 67.22431864335375 L -277.5000000000003 62.894191624431556 L -280.0000000000003 67.22431864335374 L -282.5000000000003 71.55444566227592 L -280.0000000000003 75.88457268119812 L -275.0000000000003 75.88457268119812 L -272.5000000000003 80.21469970012032 L -277.5000000000003 80.21469970012032 L -280.0000000000003 84.5448267190425 L -275.0000000000003 84.5448267190425 L -270.0000000000003 84.5448267190425 L -267.5000000000003 80.21469970012032 L -262.5000000000003 80.21469970012032 L -260.0000000000003 84.54482671904252 L -265.0000000000003 84.54482671904252 L -267.5000000000003 88.8749537379647 L -262.5000000000003 88.8749537379647 L -257.5000000000003 88.8749537379647 L -255.00000000000028 84.54482671904252 L -257.5000000000003 80.21469970012032 L -255.00000000000028 75.88457268119814 L -252.50000000000028 71.55444566227595 L -250.00000000000028 75.88457268119815 L -252.50000000000028 80.21469970012033 L -247.50000000000028 80.21469970012033 L -245.00000000000028 75.88457268119815 L -240.00000000000028 75.88457268119815 L -237.50000000000028 80.21469970012035 L -242.50000000000028 80.21469970012035 L -245.00000000000028 84.54482671904253 L -240.00000000000028 84.54482671904253 L -235.00000000000028 84.54482671904253 L -232.50000000000028 80.21469970012035 L -227.50000000000028 80.21469970012035 L -225.00000000000028 84.54482671904255 L -222.50000000000028 88.87495373796474 L -227.50000000000028 88.87495373796474 L -230.00000000000028 84.54482671904255 L -232.50000000000028 88.87495373796473 L -230.00000000000028 93.20508075688693 L -232.50000000000028 97.53520777580911 L -237.50000000000028 97.53520777580911 L -242.50000000000028 97.53520777580911 L -240.00000000000028 93.20508075688691 L -235.00000000000028 93.20508075688691 L -237.50000000000028 88.87495373796472 L -242.50000000000028 88.87495373796472 L -245.00000000000028 93.2050807568869 L -250.00000000000028 93.2050807568869 L -247.50000000000028 88.8749537379647 L -250.00000000000028 84.5448267190425 L -252.50000000000028 88.87495373796469 L -255.00000000000028 93.20508075688687 L -252.50000000000028 97.53520777580907 L -247.50000000000028 97.53520777580907 L -245.00000000000028 101.86533479473127 L -250.00000000000028 101.86533479473127 L -252.50000000000028 106.19546181365345 L -247.50000000000028 106.19546181365345 L -242.50000000000028 106.19546181365345 L -240.00000000000028 101.86533479473127 L -235.00000000000028 101.86533479473127 L -232.50000000000028 106.19546181365347 L -237.50000000000028 106.19546181365347 L -240.00000000000028 110.52558883257565 L -235.00000000000028 110.52558883257565 L -230.00000000000028 110.52558883257565 L -227.50000000000028 106.19546181365347 L -230.00000000000028 101.86533479473127 L -227.50000000000028 97.53520777580908 L -225.00000000000028 93.2050807568869 L -222.50000000000028 97.5352077758091 L -225.00000000000028 101.86533479473128 L -220.00000000000028 101.86533479473128 L -217.50000000000028 97.5352077758091 L -220.00000000000028 93.2050807568869 L -217.50000000000028 88.87495373796472 L -215.00000000000028 93.20508075688691 L -210.00000000000028 93.20508075688691 L -212.50000000000028 88.87495373796472 L -215.00000000000028 84.54482671904252 L -220.00000000000028 84.5448267190425 L -222.50000000000028 80.2146997001203 L -220.00000000000028 75.88457268119812 L -217.50000000000028 71.55444566227594 L -215.00000000000028 75.88457268119814 L -217.50000000000028 80.21469970012032 L -212.50000000000028 80.21469970012032 L -210.00000000000028 75.88457268119814 L -212.50000000000028 71.55444566227594 L -210.00000000000028 67.22431864335375 L -207.50000000000028 62.89419162443156 L -205.00000000000028 67.22431864335375 L -207.50000000000028 71.55444566227594 L -202.50000000000028 71.55444566227594 L -200.00000000000028 67.22431864335375 L -195.00000000000028 67.22431864335375 L -192.50000000000028 71.55444566227595 L -190.00000000000028 75.88457268119815 L -195.00000000000028 75.88457268119815 L -197.50000000000028 71.55444566227595 L -200.00000000000028 75.88457268119814 L -197.50000000000028 80.21469970012033 L -200.00000000000028 84.54482671904252 L -205.00000000000028 84.54482671904252 L -202.50000000000028 80.21469970012032 L -205.00000000000028 75.88457268119812 L -207.50000000000028 80.2146997001203 L -210.00000000000028 84.54482671904249 L -207.50000000000028 88.87495373796469 L -202.50000000000028 88.87495373796469 L -200.00000000000028 93.20508075688689 L -205.00000000000028 93.20508075688689 L -207.50000000000028 97.53520777580907 L -202.50000000000028 97.53520777580907 L -197.50000000000028 97.53520777580907 L -195.00000000000028 93.20508075688689 L -197.50000000000028 88.87495373796469 L -195.00000000000028 84.5448267190425 L -192.50000000000028 80.21469970012032 L -190.00000000000028 84.54482671904252 L -192.50000000000028 88.8749537379647 L -187.50000000000028 88.8749537379647 L -185.00000000000028 84.54482671904252 L -180.00000000000028 84.54482671904252 L -177.50000000000028 88.87495373796472 L -182.50000000000028 88.87495373796472 L -185.00000000000028 93.2050807568869 L -180.00000000000028 93.2050807568869 L -175.00000000000028 93.2050807568869 L -172.50000000000028 88.87495373796472 L -167.50000000000028 88.87495373796472 L -165.00000000000028 93.20508075688691 L -162.50000000000028 97.53520777580911 L -167.50000000000028 97.53520777580911 L -170.00000000000028 93.20508075688691 L -172.50000000000028 97.5352077758091 L -170.00000000000028 101.8653347947313 L -172.50000000000028 106.19546181365348 L -177.50000000000028 106.19546181365348 L -182.50000000000028 106.19546181365348 L -180.00000000000028 101.86533479473128 L -175.00000000000028 101.86533479473128 L -177.50000000000028 97.53520777580908 L -182.50000000000028 97.53520777580908 L -185.00000000000028 101.86533479473127 L -190.00000000000028 101.86533479473127 L -187.50000000000028 97.53520777580907 L -190.00000000000028 93.20508075688687 L -192.50000000000028 97.53520777580906 L -195.00000000000028 101.86533479473124 L -192.50000000000028 106.19546181365344 L -187.50000000000028 106.19546181365344 L -185.00000000000028 110.52558883257564 L -190.00000000000028 110.52558883257564 L -192.50000000000028 114.85571585149782 L -187.50000000000028 114.85571585149782 L -182.50000000000028 114.85571585149782 L -180.00000000000028 110.52558883257564 L -175.00000000000028 110.52558883257564 L -172.50000000000028 114.85571585149783 L -177.50000000000028 114.85571585149783 L -180.00000000000028 119.18584287042002 L -175.00000000000028 119.18584287042002 L -170.00000000000028 119.18584287042002 L -167.50000000000028 114.85571585149783 L -170.00000000000028 110.52558883257564 L -167.50000000000028 106.19546181365345 L -165.00000000000028 101.86533479473127 L -162.50000000000028 106.19546181365347 L -165.00000000000028 110.52558883257565 L -160.00000000000028 110.52558883257565 L -157.50000000000028 106.19546181365347 L -152.50000000000028 106.19546181365347 L -150.00000000000028 110.52558883257566 L -155.00000000000028 110.52558883257566 L -157.50000000000028 114.85571585149785 L -152.50000000000028 114.85571585149785 L -147.50000000000028 114.85571585149785 L -145.00000000000028 110.52558883257566 L -140.00000000000028 110.52558883257566 L -137.50000000000028 114.85571585149786 L -135.00000000000028 119.18584287042006 L -140.00000000000028 119.18584287042006 L -142.50000000000028 114.85571585149786 L -145.00000000000028 119.18584287042005 L -142.50000000000028 123.51596988934224 L -137.50000000000028 123.51596988934224 L -135.00000000000028 127.84609690826444 L -132.50000000000028 132.17622392718664 L -137.50000000000028 132.17622392718664 L -140.00000000000028 127.84609690826444 L -142.50000000000028 132.17622392718664 L -140.00000000000028 136.50635094610882 L -142.50000000000028 140.836477965031 L -147.50000000000028 140.836477965031 L -152.50000000000028 140.836477965031 L -150.00000000000028 136.50635094610882 L -145.00000000000028 136.50635094610882 L -147.50000000000028 132.17622392718664 L -152.50000000000028 132.17622392718664 L -155.00000000000028 127.84609690826444 L -152.50000000000028 123.51596988934224 L -150.00000000000028 127.84609690826444 L -145.00000000000028 127.84609690826444 L -147.50000000000028 123.51596988934224 L -150.00000000000028 119.18584287042005 L -155.00000000000028 119.18584287042005 L -157.50000000000028 123.51596988934223 L -162.50000000000028 123.51596988934223 L -160.00000000000028 119.18584287042003 L -162.50000000000028 114.85571585149783 L -165.00000000000028 119.18584287042002 L -167.50000000000028 123.5159698893422 L -165.00000000000028 127.8460969082644 L -160.00000000000028 127.8460969082644 L -157.50000000000028 132.17622392718658 L -155.00000000000028 136.50635094610877 L -160.00000000000028 136.50635094610877 L -162.50000000000028 132.17622392718658 L -165.00000000000028 136.50635094610877 L -162.50000000000028 140.83647796503095 L -165.00000000000028 145.16660498395314 L -170.00000000000028 145.16660498395314 L -167.50000000000028 140.83647796503095 L -170.00000000000028 136.50635094610877 L -172.50000000000028 140.83647796503095 L -175.00000000000028 145.16660498395314 L -172.50000000000028 149.49673200287532 L -175.00000000000028 153.8268590217975 L -180.00000000000028 153.8268590217975 L -185.00000000000028 153.8268590217975 L -182.50000000000028 149.49673200287532 L -177.50000000000028 149.49673200287532 L -180.00000000000028 145.16660498395314 L -185.00000000000028 145.16660498395314 L -187.50000000000028 149.49673200287532 L -192.50000000000028 149.49673200287532 L -197.50000000000028 149.49673200287532 L -195.00000000000028 145.16660498395314 L -190.00000000000028 145.16660498395314 L -192.50000000000028 140.83647796503095 L -197.50000000000028 140.83647796503095 L -200.00000000000028 136.50635094610877 L -197.50000000000028 132.17622392718658 L -195.00000000000028 127.84609690826439 L -192.50000000000028 132.17622392718658 L -195.00000000000028 136.50635094610877 L -190.00000000000028 136.50635094610877 L -187.50000000000028 132.17622392718658 L -182.50000000000028 132.17622392718658 L -180.00000000000028 136.50635094610877 L -185.00000000000028 136.50635094610877 L -187.50000000000028 140.83647796503095 L -182.50000000000028 140.83647796503095 L -177.50000000000028 140.83647796503095 L -175.00000000000028 136.50635094610877 L -177.50000000000028 132.17622392718658 L -175.00000000000028 127.84609690826439 L -172.50000000000028 132.17622392718658 L -167.50000000000028 132.17622392718658 L -170.00000000000028 127.84609690826439 L -172.50000000000028 123.51596988934219 L -177.50000000000028 123.51596988934219 L -180.00000000000028 127.84609690826437 L -185.00000000000028 127.84609690826437 L -190.00000000000028 127.84609690826437 L -187.50000000000028 123.51596988934217 L -182.50000000000028 123.51596988934217 L -185.00000000000028 119.18584287041998 L -190.00000000000028 119.18584287041998 L -192.50000000000028 123.51596988934216 L -197.50000000000028 123.51596988934216 L -195.00000000000028 119.18584287041996 L -197.50000000000028 114.85571585149776 L -200.00000000000028 119.18584287041995 L -202.50000000000028 123.51596988934213 L -200.00000000000028 127.84609690826433 L -202.50000000000028 132.17622392718653 L -207.50000000000028 132.17622392718653 L -212.50000000000028 132.17622392718653 L -210.00000000000028 127.84609690826433 L -205.00000000000028 127.84609690826433 L -207.50000000000028 123.51596988934213 L -212.50000000000028 123.51596988934213 L -215.00000000000028 119.18584287041993 L -212.50000000000028 114.85571585149773 L -210.00000000000028 110.52558883257554 L -207.50000000000028 114.85571585149773 L -210.00000000000028 119.18584287041993 L -205.00000000000028 119.18584287041993 L -202.50000000000028 114.85571585149773 L -205.00000000000028 110.52558883257554 L -202.50000000000028 106.19546181365334 L -200.00000000000028 110.52558883257554 L -195.00000000000028 110.52558883257554 L -197.50000000000028 106.19546181365334 L -200.00000000000028 101.86533479473114 L -205.00000000000028 101.86533479473114 L -207.50000000000028 106.19546181365332 L -212.50000000000028 106.19546181365332 L -210.00000000000028 101.86533479473113 L -212.50000000000028 97.53520777580893 L -215.00000000000028 101.86533479473111 L -217.50000000000028 106.1954618136533 L -215.00000000000028 110.5255888325755 L -217.50000000000028 114.85571585149768 L -222.50000000000028 114.85571585149768 L -220.00000000000028 110.52558883257548 L -222.50000000000028 106.19546181365328 L -225.00000000000028 110.52558883257547 L -227.50000000000028 114.85571585149765 L -225.00000000000028 119.18584287041985 L -220.00000000000028 119.18584287041985 L -217.50000000000028 123.51596988934205 L -215.00000000000028 127.84609690826424 L -220.00000000000028 127.84609690826424 L -222.50000000000028 123.51596988934205 L -225.00000000000028 127.84609690826423 L -222.50000000000028 132.1762239271864 L -217.50000000000028 132.1762239271864 L -215.00000000000028 136.5063509461086 L -220.00000000000028 136.5063509461086 L -222.50000000000028 140.83647796503078 L -217.50000000000028 140.83647796503078 L -212.50000000000028 140.83647796503078 L -210.00000000000028 136.5063509461086 L -205.00000000000028 136.5063509461086 L -202.50000000000028 140.83647796503078 L -200.00000000000028 145.16660498395296 L -205.00000000000028 145.16660498395296 L -207.50000000000028 140.83647796503078 L -210.00000000000028 145.16660498395296 L -207.50000000000028 149.49673200287515 L -210.00000000000028 153.82685902179733 L -215.00000000000028 153.82685902179733 L -220.00000000000028 153.82685902179733 L -217.50000000000028 149.49673200287515 L -212.50000000000028 149.49673200287515 L -215.00000000000028 145.16660498395296 L -220.00000000000028 145.16660498395296 L -222.50000000000028 149.49673200287515 L -227.50000000000028 149.49673200287515 L -225.00000000000028 145.16660498395296 L -227.50000000000028 140.83647796503078 L -230.00000000000028 145.16660498395296 L -232.50000000000028 149.49673200287515 L -230.00000000000028 153.82685902179733 L -225.00000000000028 153.82685902179733 L -222.50000000000028 158.15698604071952 L -227.50000000000028 158.15698604071952 L -230.00000000000028 162.4871130596417 L -225.00000000000028 162.4871130596417 L -220.00000000000028 162.4871130596417 L -217.50000000000028 158.15698604071952 L -212.50000000000028 158.15698604071952 L -210.00000000000028 162.4871130596417 L -215.00000000000028 162.4871130596417 L -217.50000000000028 166.81724007856388 L -212.50000000000028 166.81724007856388 L -207.50000000000028 166.81724007856388 L -205.00000000000028 162.4871130596417 L -207.50000000000028 158.15698604071952 L -205.00000000000028 153.82685902179733 L -202.50000000000028 149.49673200287515 L -200.00000000000028 153.82685902179733 L -202.50000000000028 158.15698604071952 L -197.50000000000028 158.15698604071952 L -195.00000000000028 153.82685902179733 L -190.00000000000028 153.82685902179733 L -187.50000000000028 158.15698604071952 L -192.50000000000028 158.15698604071952 L -195.00000000000028 162.4871130596417 L -190.00000000000028 162.4871130596417 L -185.00000000000028 162.4871130596417 L -182.50000000000028 158.15698604071952 L -177.50000000000028 158.15698604071952 L -175.00000000000028 162.4871130596417 L -172.50000000000028 166.81724007856388 L -177.50000000000028 166.81724007856388 L -180.00000000000028 162.4871130596417 L -182.50000000000028 166.81724007856388 L -180.00000000000028 171.14736709748607 L -182.50000000000028 175.47749411640825 L -187.50000000000028 175.47749411640825 L -192.50000000000028 175.47749411640825 L -190.00000000000028 171.14736709748607 L -185.00000000000028 171.14736709748607 L -187.50000000000028 166.81724007856388 L -192.50000000000028 166.81724007856388 L -195.00000000000028 171.14736709748607 L -200.00000000000028 171.14736709748607 L -197.50000000000028 166.81724007856388 L -200.00000000000028 162.4871130596417 L -202.50000000000028 166.81724007856388 L -205.00000000000028 171.14736709748607 L -202.50000000000028 175.47749411640825 L -197.50000000000028 175.47749411640825 L -195.00000000000028 179.80762113533044 L -200.00000000000028 179.80762113533044 L -202.50000000000028 184.13774815425262 L -197.50000000000028 184.13774815425262 L -192.50000000000028 184.13774815425262 L -190.00000000000028 179.80762113533044 L -185.00000000000028 179.80762113533044 L -182.50000000000028 184.13774815425262 L -187.50000000000028 184.13774815425262 L -190.00000000000028 188.4678751731748 L -185.00000000000028 188.4678751731748 L -180.00000000000028 188.4678751731748 L -177.50000000000028 184.13774815425262 L -180.00000000000028 179.80762113533044 L -177.50000000000028 175.47749411640825 L -175.00000000000028 171.14736709748607 L -172.50000000000028 175.47749411640825 L -175.00000000000028 179.80762113533044 L -170.00000000000028 179.80762113533044 L -167.50000000000028 175.47749411640825 L -170.00000000000028 171.14736709748607 L -167.50000000000028 166.81724007856388 L -165.00000000000028 171.14736709748607 L -160.00000000000028 171.14736709748607 L -162.50000000000028 166.81724007856388 L -165.00000000000028 162.4871130596417 L -170.00000000000028 162.4871130596417 L -172.50000000000028 158.15698604071952 L -170.00000000000028 153.82685902179733 L -167.50000000000028 149.49673200287515 L -165.00000000000028 153.82685902179733 L -167.50000000000028 158.15698604071952 L -162.50000000000028 158.15698604071952 L -160.00000000000028 153.82685902179733 L -162.50000000000028 149.49673200287515 L -160.00000000000028 145.16660498395296 L -157.50000000000028 140.83647796503078 L -155.00000000000028 145.16660498395296 L -157.50000000000028 149.49673200287515 L -152.50000000000028 149.49673200287515 L -150.00000000000028 145.16660498395296 L -145.00000000000028 145.16660498395296 L -142.50000000000028 149.49673200287515 L -140.00000000000028 153.82685902179733 L -145.00000000000028 153.82685902179733 L -147.50000000000028 149.49673200287515 L -150.00000000000028 153.82685902179733 L -147.50000000000028 158.15698604071952 L -150.00000000000028 162.4871130596417 L -155.00000000000028 162.4871130596417 L -152.50000000000028 158.15698604071952 L -155.00000000000028 153.82685902179733 L -157.50000000000028 158.15698604071952 L -160.00000000000028 162.4871130596417 L -157.50000000000028 166.81724007856388 L -152.50000000000028 166.81724007856388 L -150.00000000000028 171.14736709748607 L -155.00000000000028 171.14736709748607 L -157.50000000000028 175.47749411640825 L -152.50000000000028 175.47749411640825 L -147.50000000000028 175.47749411640825 L -145.00000000000028 171.14736709748607 L -147.50000000000028 166.81724007856388 L -145.00000000000028 162.4871130596417 L -142.50000000000028 158.15698604071952 L -140.00000000000028 162.4871130596417 L -142.50000000000028 166.81724007856388 L -137.50000000000028 166.81724007856388 L -135.00000000000028 162.4871130596417 L -137.50000000000028 158.15698604071952 L -135.00000000000028 153.82685902179733 L -132.50000000000028 158.15698604071952 L -127.50000000000028 158.15698604071952 L -130.00000000000028 153.82685902179733 L -132.50000000000028 149.49673200287515 L -137.50000000000028 149.49673200287515 L -140.00000000000028 145.16660498395296 L -137.50000000000028 140.83647796503078 L -135.00000000000028 136.5063509461086 L -132.50000000000028 140.83647796503078 L -135.00000000000028 145.16660498395296 L -130.00000000000028 145.16660498395296 L -127.50000000000028 140.83647796503078 L -122.50000000000028 140.83647796503078 L -120.00000000000028 145.16660498395296 L -117.50000000000028 149.49673200287515 L -122.50000000000028 149.49673200287515 L -125.00000000000028 145.16660498395296 L -127.50000000000028 149.49673200287515 L -125.00000000000028 153.82685902179733 L -120.00000000000028 153.82685902179733 L -117.50000000000028 158.15698604071952 L -122.50000000000028 158.15698604071952 L -125.00000000000028 162.4871130596417 L -120.00000000000028 162.4871130596417 L -115.00000000000028 162.4871130596417 L -112.50000000000028 158.15698604071952 L -115.00000000000028 153.82685902179733 L -112.50000000000028 149.49673200287515 L -110.00000000000028 153.82685902179733 L -105.00000000000028 153.82685902179733 L -107.50000000000028 149.49673200287515 L -110.00000000000028 145.16660498395296 L -115.00000000000028 145.16660498395296 L -117.50000000000028 140.83647796503078 L -115.00000000000028 136.5063509461086 L -112.50000000000028 140.83647796503078 L -107.50000000000028 140.83647796503078 L -110.00000000000028 136.5063509461086 L -112.50000000000028 132.1762239271864 L -117.50000000000028 132.1762239271864 L -120.0000000000003 136.5063509461086 L -125.0000000000003 136.5063509461086 L -130.00000000000028 136.5063509461086 L -127.50000000000028 132.1762239271864 L -122.50000000000028 132.1762239271864 L -125.00000000000028 127.84609690826422 L -130.00000000000028 127.8460969082642 L -132.50000000000028 123.515969889342 L -130.00000000000028 119.18584287041982 L -127.50000000000028 123.51596988934202 L -122.50000000000028 123.51596988934202 L -125.00000000000028 119.18584287041982 L -127.50000000000028 114.85571585149762 L -132.50000000000028 114.8557158514976 L -135.00000000000028 110.52558883257541 L -132.50000000000028 106.19546181365322 L -130.00000000000028 101.86533479473104 L -127.50000000000028 106.19546181365324 L -130.00000000000028 110.52558883257542 L -125.00000000000028 110.52558883257542 L -122.50000000000028 106.19546181365324 L -125.00000000000028 101.86533479473104 L -122.50000000000028 97.53520777580886 L -120.00000000000028 93.20508075688667 L -117.50000000000028 97.53520777580887 L -120.00000000000028 101.86533479473106 L -115.00000000000028 101.86533479473106 L -112.50000000000028 97.53520777580887 L -107.50000000000028 97.53520777580887 L -105.00000000000028 101.86533479473107 L -102.50000000000028 106.19546181365327 L -107.50000000000028 106.19546181365327 L -110.00000000000028 101.86533479473107 L -112.50000000000028 106.19546181365325 L -110.00000000000028 110.52558883257545 L -112.50000000000028 114.85571585149764 L -117.50000000000028 114.85571585149764 L -115.00000000000028 110.52558883257544 L -117.50000000000028 106.19546181365324 L -120.00000000000028 110.52558883257542 L -122.50000000000028 114.8557158514976 L -120.00000000000028 119.1858428704198 L -115.00000000000028 119.1858428704198 L -112.50000000000028 123.515969889342 L -117.50000000000028 123.515969889342 L -120.00000000000028 127.84609690826419 L -115.00000000000028 127.84609690826419 L -110.00000000000028 127.84609690826419 L -107.50000000000028 123.515969889342 L -110.00000000000028 119.1858428704198 L -107.50000000000028 114.85571585149762 L -105.00000000000028 110.52558883257544 L -102.50000000000028 114.85571585149764 L -105.00000000000028 119.18584287041982 L -100.00000000000028 119.18584287041982 L -97.50000000000028 114.85571585149764 L -100.00000000000028 110.52558883257544 L -97.50000000000028 106.19546181365325 L -95.00000000000028 110.52558883257545 L -90.00000000000028 110.52558883257545 L -92.50000000000028 106.19546181365325 L -95.00000000000028 101.86533479473106 L -100.00000000000028 101.86533479473104 L -102.50000000000028 97.53520777580884 L -100.00000000000028 93.20508075688666 L -97.50000000000028 88.87495373796447 L -95.00000000000028 93.20508075688667 L -97.50000000000028 97.53520777580886 L -92.50000000000028 97.53520777580886 L -90.00000000000028 93.20508075688667 L -92.50000000000028 88.87495373796447 L -90.00000000000028 84.54482671904229 L -87.50000000000028 80.21469970012011 L -85.00000000000028 84.5448267190423 L -87.50000000000028 88.87495373796449 L -82.50000000000028 88.87495373796449 L -80.00000000000028 84.5448267190423 L -75.00000000000028 84.5448267190423 L -72.50000000000028 88.8749537379645 L -70.00000000000028 93.2050807568867 L -75.00000000000028 93.2050807568867 L -77.50000000000028 88.8749537379645 L -80.00000000000028 93.20508075688669 L -77.50000000000028 97.53520777580889 L -80.00000000000028 101.86533479473107 L -85.00000000000028 101.86533479473107 L -82.50000000000028 97.53520777580887 L -85.00000000000028 93.20508075688667 L -87.50000000000028 97.53520777580886 L -90.00000000000028 101.86533479473104 L -87.50000000000028 106.19546181365324 L -82.50000000000028 106.19546181365324 L -80.00000000000028 110.52558883257544 L -85.00000000000028 110.52558883257544 L -87.50000000000028 114.85571585149762 L -82.50000000000028 114.85571585149762 L -77.50000000000028 114.85571585149762 L -75.00000000000028 110.52558883257544 L -77.50000000000028 106.19546181365324 L -75.00000000000028 101.86533479473106 L -72.50000000000028 97.53520777580887 L -70.00000000000028 101.86533479473107 L -72.50000000000028 106.19546181365325 L -67.50000000000028 106.19546181365325 L -65.00000000000028 101.86533479473107 L -60.000000000000284 101.86533479473107 L -57.50000000000029 106.19546181365327 L -62.50000000000029 106.19546181365327 L -65.0000000000003 110.52558883257545 L -60.0000000000003 110.52558883257545 L -55.0000000000003 110.52558883257545 L -52.50000000000029 106.19546181365327 L -47.50000000000029 106.19546181365327 L -45.0000000000003 110.52558883257547 L -42.500000000000306 114.85571585149766 L -47.500000000000306 114.85571585149766 L -50.000000000000306 110.52558883257547 L -52.50000000000031 114.85571585149765 L -50.00000000000032 119.18584287041985 L -45.00000000000032 119.18584287041985 L -42.50000000000033 123.51596988934205 L -40.000000000000334 127.84609690826424 L -45.000000000000334 127.84609690826424 L -47.500000000000334 123.51596988934205 L -50.00000000000034 127.84609690826423 L -47.50000000000035 132.1762239271864 L -50.000000000000355 136.5063509461086 L -55.000000000000355 136.5063509461086 L -60.000000000000355 136.5063509461086 L -57.500000000000355 132.1762239271864 L -52.500000000000355 132.1762239271864 L -55.000000000000355 127.84609690826422 L -60.000000000000355 127.84609690826422 L -62.500000000000355 123.51596988934202 L -60.000000000000355 119.18584287041982 L -57.500000000000355 123.51596988934202 L -52.500000000000355 123.51596988934202 L -55.000000000000355 119.18584287041982 L -57.500000000000355 114.85571585149762 L -62.500000000000355 114.85571585149762 L -65.00000000000036 119.1858428704198 L -70.00000000000036 119.1858428704198 L -67.50000000000036 114.8557158514976 L -70.00000000000036 110.52558883257541 L -72.50000000000036 114.85571585149759 L -75.00000000000036 119.18584287041978 L -72.50000000000036 123.51596988934197 L -67.50000000000036 123.51596988934197 L -65.00000000000036 127.84609690826417 L -62.50000000000036 132.17622392718636 L -67.50000000000037 132.17622392718636 L -70.00000000000037 127.84609690826416 L -72.50000000000037 132.17622392718636 L -70.00000000000037 136.50635094610854 L -72.50000000000037 140.83647796503072 L -77.50000000000037 140.83647796503072 L -75.00000000000037 136.50635094610854 L -77.50000000000037 132.17622392718636 L -80.00000000000037 136.50635094610854 L -82.50000000000037 140.83647796503072 L -80.00000000000037 145.1666049839529 L -82.50000000000037 149.4967320028751 L -87.50000000000037 149.4967320028751 L -92.50000000000037 149.4967320028751 L -90.00000000000037 145.1666049839529 L -85.00000000000037 145.1666049839529 L -87.50000000000037 140.83647796503072 L -92.50000000000037 140.83647796503072 L -95.00000000000037 136.50635094610854 L -92.50000000000037 132.17622392718636 L -90.00000000000037 127.84609690826416 L -87.50000000000037 132.17622392718636 L -90.00000000000037 136.50635094610854 L -85.00000000000037 136.50635094610854 L -82.50000000000037 132.17622392718636 L -85.00000000000037 127.84609690826416 L -82.50000000000037 123.51596988934196 L -80.00000000000037 127.84609690826416 L -75.00000000000037 127.84609690826416 L -77.50000000000037 123.51596988934196 L -80.00000000000037 119.18584287041976 L -85.00000000000037 119.18584287041976 L -87.50000000000037 123.51596988934195 L -92.50000000000037 123.51596988934195 L -90.00000000000037 119.18584287041975 L -92.50000000000037 114.85571585149755 L -95.00000000000037 119.18584287041973 L -97.50000000000037 123.51596988934192 L -95.00000000000037 127.84609690826412 L -97.50000000000037 132.1762239271863 L -102.50000000000037 132.1762239271863 L -100.00000000000037 127.8460969082641 L -102.50000000000037 123.5159698893419 L -105.00000000000037 127.84609690826409 L -107.50000000000037 132.17622392718627 L -105.00000000000037 136.50635094610845 L -100.00000000000037 136.50635094610845 L -97.50000000000037 140.83647796503064 L -95.00000000000037 145.16660498395282 L -100.00000000000037 145.16660498395282 L -102.50000000000037 140.83647796503064 L -105.00000000000037 145.16660498395282 L -102.50000000000037 149.496732002875 L -97.50000000000037 149.496732002875 L -95.00000000000037 153.8268590217972 L -100.00000000000037 153.8268590217972 L -102.50000000000037 158.15698604071937 L -97.50000000000037 158.15698604071937 L -92.50000000000037 158.15698604071937 L -90.00000000000037 153.8268590217972 L -85.00000000000037 153.8268590217972 L -82.50000000000037 158.15698604071937 L -80.00000000000037 162.48711305964156 L -85.00000000000037 162.48711305964156 L -87.50000000000037 158.15698604071937 L -90.00000000000037 162.48711305964156 L -87.50000000000037 166.81724007856374 L -90.00000000000037 171.14736709748593 L -95.00000000000037 171.14736709748593 L -100.00000000000037 171.14736709748593 L -97.50000000000037 166.81724007856374 L -92.50000000000037 166.81724007856374 L -95.00000000000037 162.48711305964156 L -100.00000000000037 162.48711305964156 L -102.50000000000037 166.81724007856374 L -107.50000000000037 166.81724007856374 L -105.00000000000037 162.48711305964156 L -107.50000000000037 158.15698604071937 L -110.00000000000037 162.48711305964156 L -112.50000000000037 166.81724007856374 L -110.00000000000037 171.14736709748593 L -105.00000000000037 171.14736709748593 L -102.50000000000037 175.4774941164081 L -107.50000000000037 175.4774941164081 L -110.00000000000037 179.8076211353303 L -105.00000000000037 179.8076211353303 L -100.00000000000037 179.8076211353303 L -97.50000000000037 175.4774941164081 L -92.50000000000037 175.4774941164081 L -90.00000000000037 179.8076211353303 L -95.00000000000037 179.8076211353303 L -97.50000000000037 184.13774815425248 L -92.50000000000037 184.13774815425248 L -87.50000000000037 184.13774815425248 L -85.00000000000037 179.8076211353303 L -87.50000000000037 175.4774941164081 L -85.00000000000037 171.14736709748593 L -82.50000000000037 166.81724007856374 L -80.00000000000037 171.14736709748593 L -82.50000000000037 175.4774941164081 L -77.50000000000037 175.4774941164081 L -75.00000000000037 171.14736709748593 L -77.50000000000037 166.81724007856374 L -75.00000000000037 162.48711305964156 L -72.50000000000037 166.81724007856374 L -67.50000000000037 166.81724007856374 L -70.00000000000037 162.48711305964156 L -72.50000000000037 158.15698604071937 L -77.50000000000037 158.15698604071937 L -80.00000000000037 153.8268590217972 L -77.50000000000037 149.496732002875 L -75.00000000000037 145.16660498395282 L -72.50000000000037 149.496732002875 L -75.00000000000037 153.8268590217972 L -70.00000000000037 153.8268590217972 L -67.50000000000037 149.496732002875 L -70.00000000000037 145.16660498395282 L -67.50000000000037 140.83647796503064 L -65.00000000000037 136.50635094610845 L -62.50000000000038 140.83647796503064 L -65.00000000000038 145.16660498395282 L -60.000000000000384 145.16660498395282 L -57.50000000000038 140.83647796503064 L -52.50000000000038 140.83647796503064 L -50.000000000000384 145.16660498395282 L -47.50000000000039 149.496732002875 L -52.50000000000039 149.496732002875 L -55.00000000000039 145.16660498395282 L -57.5000000000004 149.496732002875 L -55.000000000000405 153.8268590217972 L -57.50000000000041 158.15698604071937 L -62.50000000000041 158.15698604071937 L -60.00000000000041 153.8268590217972 L -62.50000000000041 149.496732002875 L -65.00000000000041 153.8268590217972 L -67.50000000000041 158.15698604071937 L -65.00000000000041 162.48711305964156 L -60.00000000000041 162.48711305964156 L -57.50000000000042 166.81724007856374 L -62.50000000000042 166.81724007856374 L -65.00000000000043 171.14736709748593 L -60.000000000000426 171.14736709748593 L -55.000000000000426 171.14736709748593 L -52.50000000000042 166.81724007856374 L -55.00000000000041 162.48711305964156 L -52.500000000000405 158.15698604071937 L -50.0000000000004 153.8268590217972 L -47.500000000000405 158.15698604071937 L -50.00000000000041 162.48711305964156 L -45.00000000000041 162.48711305964156" fill="#d99126" stroke="#c93" stroke-width="0.5" />
</svg>