<svg width="160" height="90" viewBox="-112.56756756756762 -349.2567567567568 335.13513513513516 188.51351351351352" xmlns="http://www.w3.org/2000/svg">
  <path d="M -100 -100 L -100 -110 L -90 -110 L -90 -100 L -80 -100 L -70 -100 L -70 -110 L -80 -110 L -80 -120 L -70 -120 L -70 -130 L -80 -130 L -90 -130 L -90 -120 L -100 -120 L -100 -130 L -100 -140 L -90 -140 L -90 -150 L -100 -150 L -100 -160 L -100 -170 L -90 -170 L -90 -160 L -80 -160 L -80 -170 L -70 -170 L -70 -160 L -70 -150 L -80 -150 L -80 -140 L -70 -140 L -60 -140 L -50 -140 L -50 -150 L -60 -150 L -60 -160 L -60 -170 L -50 -170 L -50 -160 L -40 -160 L -40 -170 L -30 -170 L -30 -160 L -30 -150 L -40 -150 L -40 -140 L -30 -140 L -30 -130 L -30 -120 L -40 -120 L -40 -130 L -50 -130 L -60 -130 L -60 -120 L -50 -120 L -50 -110 L -60 -110 L -60 -100 L -50 -100 L -40 -100 L -40 -110 L -30 -110 L -30 -100 L -20 -100 L -10 -100 L -10 -110 L -20 -110 L -20 -120 L -20 -130 L -10 -130 L -10 -120 L 0 -120 L 6.123233995736766e-16 -130 L 10 -130 L 10 -120 L 10 -110 L 0 -110 L 6.123233995736766e-16 -100 L 10 -100 L 20 -100 L 20 -110 L 30 -110 L 30 -100 L 40 -100 L 50 -100 L 50 -110 L 40 -110 L 40 -120 L 50 -120 L 50 -130 L 40 -130 L 30 -130 L 29.999999999999996 -120 L 19.999999999999996 -120 L 19.999999999999996 -130 L 19.999999999999996 -140 L 19.999999999999996 -150 L 29.999999999999996 -150 L 29.999999999999996 -140 L 40 -140 L 50 -140 L 50 -150 L 40 -150 L 40 -160 L 50 -160 L 50 -170 L 40 -170 L 30 -170 L 29.999999999999996 -160 L 19.999999999999996 -160 L 19.999999999999996 -170 L 9.999999999999996 -170 L -3.552713678800501e-15 -170 L -5.3896838775215305e-15 -160 L 9.999999999999995 -160 L 9.999999999999993 -150 L 9.999999999999991 -140 L -8.881784197001252e-15 -140 L -8.269460797427575e-15 -150 L -10.000000000000009 -150 L -10.00000000000001 -140 L -20.00000000000001 -140 L -20.00000000000001 -150 L -20.00000000000001 -160 L -10.00000000000001 -160 L -10.00000000000001 -170 L -20.00000000000001 -170 L -20.00000000000001 -180 L -10.00000000000001 -180 L -10.00000000000001 -190 L -20.00000000000001 -190 L -20.00000000000001 -200 L -20.00000000000001 -210 L -10.00000000000001 -210 L -10.00000000000001 -200 L -1.0658141036401503e-14 -200 L -1.0045817636827825e-14 -210 L 9.99999999999999 -210 L 9.99999999999999 -200 L 9.99999999999999 -190 L -1.0658141036401503e-14 -190 L -1.0045817636827825e-14 -180 L 9.99999999999999 -180 L 19.99999999999999 -180 L 19.99999999999999 -190 L 29.99999999999999 -190 L 29.99999999999999 -180 L 39.999999999999986 -180 L 49.999999999999986 -180 L 49.999999999999986 -190 L 39.999999999999986 -190 L 39.999999999999986 -200 L 49.999999999999986 -200 L 49.999999999999986 -210 L 39.999999999999986 -210 L 29.999999999999986 -210 L 29.999999999999982 -200 L 19.999999999999982 -200 L 19.999999999999982 -210 L 19.999999999999982 -220 L 19.999999999999982 -230 L 29.999999999999982 -230 L 29.999999999999982 -220 L 39.999999999999986 -220 L 49.999999999999986 -220 L 49.999999999999986 -230 L 39.999999999999986 -230 L 39.999999999999986 -240 L 49.999999999999986 -240 L 49.999999999999986 -250 L 39.999999999999986 -250 L 29.999999999999986 -250 L 29.999999999999982 -240 L 19.999999999999982 -240 L 19.999999999999982 -250 L 9.999999999999982 -250 L -1.7763568394002505e-14 -250 L -1.9600538592723535e-14 -240 L 9.99999999999998 -240 L 9.999999999999979 -230 L 9.999999999999977 -220 L -2.3092638912203256e-14 -220 L -2.248031551262958e-14 -230 L -10.000000000000023 -230 L -10.000000000000025 -220 L -20.000000000000025 -220 L -20.000000000000025 -230 L -20.000000000000025 -240 L -10.000000000000025 -240 L -10.000000000000025 -250 L -20.000000000000025 -250 L -30.000000000000025 -250 L -30.00000000000003 -240 L -40.00000000000003 -240 L -40.00000000000003 -250 L -50.00000000000003 -250 L -60.00000000000003 -250 L -60.00000000000003 -240 L -50.00000000000003 -240 L -50.00000000000003 -230 L -60.00000000000003 -230 L -60.00000000000003 -220 L -50.00000000000003 -220 L -40.00000000000003 -220 L -40.00000000000003 -230 L -30.00000000000003 -230 L -30.000000000000032 -220 L -30.000000000000036 -210 L -40.000000000000036 -210 L -40.000000000000036 -200 L -30.000000000000036 -200 L -30.00000000000004 -190 L -30.000000000000043 -180 L -40.00000000000004 -180 L -40.00000000000004 -190 L -50.00000000000004 -190 L -50.00000000000004 -180 L -60.00000000000004 -180 L -60.00000000000004 -190 L -60.00000000000004 -200 L -50.00000000000004 -200 L -50.00000000000004 -210 L -60.00000000000004 -210 L -70.00000000000004 -210 L -80.00000000000004 -210 L -80.00000000000004 -200 L -70.00000000000004 -200 L -70.00000000000004 -190 L -70.00000000000004 -180 L -80.00000000000004 -180 L -80.00000000000004 -190 L -90.00000000000004 -190 L -90.00000000000004 -180 L -100.00000000000004 -180 L -100.00000000000004 -190 L -100.00000000000004 -200 L -90.00000000000004 -200 L -90.00000000000004 -210 L -100.00000000000004 -210 L -100.00000000000004 -220 L -100.00000000000004 -230 L -90.00000000000004 -230 L -90.00000000000004 -220 L -80.00000000000004 -220 L -70.00000000000004 -220 L -70.00000000000004 -230 L -80.00000000000004 -230 L -80.00000000000004 -240 L -70.00000000000004 -240 L -70.00000000000004 -250 L -80.00000000000004 -250 L -90.00000000000004 -250 L -90.00000000000004 -240 L -100.00000000000004 -240 L -100.00000000000004 -250 L -100.00000000000004 -260 L -90.00000000000004 -260 L -90.00000000000004 -270 L -100.00000000000004 -270 L -100.00000000000004 -280 L -100.00000000000004 -290 L -90.00000000000004 -290 L -90.00000000000004 -280 L -80.00000000000004 -280 L -80.00000000000004 -290 L -70.00000000000004 -290 L -70.00000000000004 -280 L -70.00000000000004 -270 L -80.00000000000004 -270 L -80.00000000000004 -260 L -70.00000000000004 -260 L -60.00000000000004 -260 L -60.00000000000004 -270 L -50.00000000000004 -270 L -50.00000000000004 -260 L -40.00000000000004 -260 L -30.000000000000043 -260 L -30.000000000000043 -270 L -40.00000000000004 -270 L -40.00000000000004 -280 L -30.000000000000043 -280 L -30.000000000000043 -290 L -40.00000000000004 -290 L -50.00000000000004 -290 L -50.00000000000004 -280 L -60.00000000000004 -280 L -60.00000000000004 -290 L -60.00000000000004 -300 L -60.00000000000004 -310 L -50.00000000000004 -310 L -50.00000000000004 -300 L -40.00000000000004 -300 L -30.000000000000043 -300 L -30.000000000000043 -310 L -40.00000000000004 -310 L -40.00000000000004 -320 L -30.000000000000043 -320 L -30.000000000000043 -330 L -40.00000000000004 -330 L -50.00000000000004 -330 L -50.00000000000004 -320 L -60.00000000000004 -320 L -60.00000000000004 -330 L -70.00000000000004 -330 L -80.00000000000004 -330 L -80.00000000000004 -320 L -70.00000000000004 -320 L -70.00000000000004 -310 L -70.00000000000004 -300 L -80.00000000000004 -300 L -80.00000000000004 -310 L -90.00000000000004 -310 L -90.00000000000004 -300 L -100.00000000000004 -300 L -100.00000000000004 -310 L -100.00000000000004 -320 L -90.00000000000004 -320 L -90.00000000000004 -330 L -100.00000000000004 -330 L -100.00000000000004 -340 L -100.00000000000004 -350 L -90.00000000000004 -350 L -90.00000000000004 -340 L -80.00000000000004 -340 L -70.00000000000004 -340 L -70.00000000000004 -350 L -80.00000000000004 -350 L -80.00000000000004 -360 L -70.00000000000004 -360 L -70.00000000000004 -370 L -80.00000000000004 -370 L -90.00000000000004 -370 L -90.00000000000004 -360 L -100.00000000000004 -360 L -100.00000000000004 -370 L -100.00000000000004 -380 L -90.00000000000004 -380 L -90.00000000000004 -390 L -100.00000000000004 -390 L -100.00000000000004 -400 L -100.00000000000004 -410 L -90.00000000000004 -410 L -90.00000000000004 -400 L -80.00000000000004 -400 L -80.00000000000004 -410 L -70.00000000000004 -410 L -70.00000000000004 -400 L -70.00000000000004 -390 L -80.00000000000004 -390 L -80.00000000000004 -380 L -70.00000000000004 -380 L -60.00000000000004 -380 L -50.00000000000004 -380 L -50.00000000000004 -390 L -60.00000000000004 -390 L -60.00000000000004 -400 L -60.00000000000004 -410 L -50.00000000000004 -410 L -50.00000000000004 -400 L -40.00000000000004 -400 L -40.00000000000004 -410 L -30.000000000000043 -410 L -30.000000000000043 -400 L -30.000000000000043 -390 L -40.00000000000004 -390 L -40.00000000000004 -380 L -30.000000000000043 -380 L -30.000000000000043 -370 L -30.000000000000043 -360 L -40.00000000000004 -360 L -40.00000000000004 -370 L -50.00000000000004 -370 L -60.00000000000004 -370 L -60.00000000000004 -360 L -50.00000000000004 -360 L -50.00000000000004 -350 L -60.00000000000004 -350 L -60.00000000000004 -340 L -50.00000000000004 -340 L -40.00000000000004 -340 L -40.00000000000004 -350 L -30.000000000000043 -350 L -30.000000000000043 -340 L -20.000000000000043 -340 L -20.000000000000043 -350 L -10.000000000000043 -350 L -10.000000000000043 -340 L -4.263256414560601e-14 -340 L 9.999999999999957 -340 L 9.999999999999957 -350 L -4.263256414560601e-14 -350 L -4.2020240746032335e-14 -360 L 9.999999999999957 -360 L 9.999999999999957 -370 L -4.263256414560601e-14 -370 L -10.000000000000043 -370 L -10.000000000000044 -360 L -20.000000000000043 -360 L -20.000000000000043 -370 L -20.000000000000043 -380 L -10.000000000000043 -380 L -10.000000000000043 -390 L -20.000000000000043 -390 L -20.000000000000043 -400 L -20.000000000000043 -410 L -10.000000000000043 -410 L -10.000000000000043 -400 L -4.263256414560601e-14 -400 L -4.2020240746032335e-14 -410 L 9.999999999999957 -410 L 9.999999999999957 -400 L 9.999999999999957 -390 L -4.263256414560601e-14 -390 L -4.2020240746032335e-14 -380 L 9.999999999999957 -380 L 19.999999999999957 -380 L 29.999999999999957 -380 L 29.999999999999957 -390 L 19.999999999999957 -390 L 19.999999999999957 -400 L 19.999999999999957 -410 L 29.999999999999957 -410 L 29.999999999999957 -400 L 39.99999999999996 -400 L 39.99999999999996 -410 L 49.99999999999996 -410 L 49.99999999999996 -400 L 49.99999999999996 -390 L 39.99999999999996 -390 L 39.99999999999996 -380 L 49.99999999999996 -380 L 49.99999999999996 -370 L 49.99999999999996 -360 L 39.99999999999996 -360 L 39.99999999999996 -370 L 29.999999999999957 -370 L 19.999999999999957 -370 L 19.999999999999957 -360 L 29.999999999999957 -360 L 29.999999999999957 -350 L 19.999999999999957 -350 L 19.999999999999957 -340 L 29.999999999999957 -340 L 39.99999999999996 -340 L 39.99999999999996 -350 L 49.99999999999996 -350 L 49.99999999999996 -340 L 49.99999999999996 -330 L 39.99999999999996 -330 L 39.99999999999996 -320 L 49.99999999999996 -320 L 49.99999999999996 -310 L 49.99999999999996 -300 L 39.99999999999996 -300 L 39.99999999999996 -310 L 29.999999999999957 -310 L 29.999999999999957 -300 L 19.999999999999957 -300 L 19.999999999999954 -310 L 19.99999999999995 -320 L 29.99999999999995 -320 L 29.999999999999947 -330 L 19.999999999999947 -330 L 9.999999999999947 -330 L 9.999999999999947 -320 L -5.3290705182007514e-14 -320 L -5.512767538072854e-14 -330 L -10.000000000000055 -330 L -20.000000000000057 -330 L -20.000000000000057 -320 L -10.000000000000057 -320 L -10.000000000000057 -310 L -20.000000000000057 -310 L -20.000000000000057 -300 L -10.000000000000057 -300 L -5.684341886080802e-14 -300 L -5.623109546123434e-14 -310 L 9.999999999999943 -310 L 9.999999999999943 -300 L 9.999999999999943 -290 L 9.999999999999943 -280 L -5.684341886080802e-14 -280 L -5.868038905952904e-14 -290 L -10.000000000000059 -290 L -20.000000000000057 -290 L -20.000000000000057 -280 L -10.000000000000057 -280 L -10.000000000000057 -270 L -20.000000000000057 -270 L -20.000000000000057 -260 L -10.000000000000057 -260 L -5.684341886080802e-14 -260 L -5.623109546123434e-14 -270 L 9.999999999999943 -270 L 9.999999999999943 -260 L 19.999999999999943 -260 L 29.999999999999943 -260 L 29.999999999999943 -270 L 19.999999999999943 -270 L 19.999999999999943 -280 L 19.999999999999943 -290 L 29.999999999999943 -290 L 29.999999999999943 -280 L 39.99999999999994 -280 L 39.99999999999994 -290 L 49.99999999999994 -290 L 49.99999999999994 -280 L 49.99999999999994 -270 L 39.99999999999994 -270 L 39.99999999999994 -260 L 49.99999999999994 -260 L 59.99999999999994 -260 L 69.99999999999994 -260 L 69.99999999999994 -270 L 59.99999999999994 -270 L 59.99999999999994 -280 L 59.99999999999994 -290 L 69.99999999999994 -290 L 69.99999999999994 -280 L 79.99999999999994 -280 L 79.99999999999994 -290 L 89.99999999999994 -290 L 89.99999999999994 -280 L 89.99999999999994 -270 L 79.99999999999994 -270 L 79.99999999999994 -260 L 89.99999999999994 -260 L 99.99999999999994 -260 L 99.99999999999994 -270 L 109.99999999999994 -270 L 109.99999999999994 -260 L 119.99999999999994 -260 L 129.99999999999994 -260 L 129.99999999999994 -270 L 119.99999999999994 -270 L 119.99999999999994 -280 L 129.99999999999994 -280 L 129.99999999999994 -290 L 119.99999999999994 -290 L 109.99999999999994 -290 L 109.99999999999994 -280 L 99.99999999999994 -280 L 99.99999999999994 -290 L 99.99999999999994 -300 L 99.99999999999994 -310 L 109.99999999999994 -310 L 109.99999999999994 -300 L 119.99999999999994 -300 L 129.99999999999994 -300 L 129.99999999999994 -310 L 119.99999999999994 -310 L 119.99999999999994 -320 L 129.99999999999994 -320 L 129.99999999999994 -330 L 119.99999999999994 -330 L 109.99999999999994 -330 L 109.99999999999994 -320 L 99.99999999999994 -320 L 99.99999999999994 -330 L 89.99999999999994 -330 L 79.99999999999994 -330 L 79.99999999999994 -320 L 89.99999999999994 -320 L 89.99999999999994 -310 L 89.99999999999994 -300 L 79.99999999999994 -300 L 79.99999999999994 -310 L 69.99999999999994 -310 L 69.99999999999994 -300 L 59.99999999999994 -300 L 59.99999999999994 -310 L 59.99999999999994 -320 L 69.99999999999994 -320 L 69.99999999999994 -330 L 59.99999999999994 -330 L 59.99999999999994 -340 L 59.99999999999994 -350 L 69.99999999999994 -350 L 69.99999999999994 -340 L 79.99999999999994 -340 L 89.99999999999994 -340 L 89.99999999999994 -350 L 79.99999999999994 -350 L 79.99999999999994 -360 L 89.99999999999994 -360 L 89.99999999999994 -370 L 79.99999999999994 -370 L 69.99999999999994 -370 L 69.99999999999994 -360 L 59.99999999999994 -360 L 59.99999999999994 -370 L 59.99999999999994 -380 L 69.99999999999994 -380 L 69.99999999999994 -390 L 59.99999999999994 -390 L 59.99999999999994 -400 L 59.99999999999994 -410 L 69.99999999999994 -410 L 69.99999999999994 -400 L 79.99999999999994 -400 L 79.99999999999994 -410 L 89.99999999999994 -410 L 89.99999999999994 -400 L 89.99999999999994 -390 L 79.99999999999994 -390 L 79.99999999999994 -380 L 89.99999999999994 -380 L 99.99999999999994 -380 L 109.99999999999994 -380 L 109.99999999999994 -390 L 99.99999999999994 -390 L 99.99999999999994 -400 L 99.99999999999994 -410 L 109.99999999999994 -410 L 109.99999999999994 -400 L 119.99999999999994 -400 L 119.99999999999994 -410 L 129.99999999999994 -410 L 129.99999999999994 -400 L 129.99999999999994 -390 L 119.99999999999994 -390 L 119.99999999999994 -380 L 129.99999999999994 -380 L 129.99999999999994 -370 L 129.99999999999994 -360 L 119.99999999999994 -360 L 119.99999999999994 -370 L 109.99999999999994 -370 L 99.99999999999994 -370 L 99.99999999999994 -360 L 109.99999999999994 -360 L 109.99999999999994 -350 L 99.99999999999994 -350 L 99.99999999999994 -340 L 109.99999999999994 -340 L 119.99999999999994 -340 L 119.99999999999994 -350 L 129.99999999999994 -350 L 129.99999999999994 -340 L 139.99999999999994 -340 L 139.99999999999994 -350 L 149.99999999999994 -350 L 149.99999999999994 -340 L 159.99999999999994 -340 L 169.99999999999994 -340 L 169.99999999999994 -350 L 159.99999999999994 -350 L 159.99999999999994 -360 L 169.99999999999994 -360 L 169.99999999999994 -370 L 159.99999999999994 -370 L 149.99999999999994 -370 L 149.99999999999994 -360 L 139.99999999999994 -360 L 139.99999999999994 -370 L 139.99999999999994 -380 L 149.99999999999994 -380 L 149.99999999999994 -390 L 139.99999999999994 -390 L 139.99999999999994 -400 L 139.99999999999994 -410 L 149.99999999999994 -410 L 149.99999999999994 -400 L 159.99999999999994 -400 L 159.99999999999994 -410 L 169.99999999999994 -410 L 169.99999999999994 -400 L 169.99999999999994 -390 L 159.99999999999994 -390 L 159.99999999999994 -380 L 169.99999999999994 -380 L 179.99999999999994 -380 L 189.99999999999994 -380 L 189.99999999999994 -390 L 179.99999999999994 -390 L 179.99999999999994 -400 L 179.99999999999994 -410 L 189.99999999999994 -410 L 189.99999999999994 -400 L 199.99999999999994 -400 L 199.99999999999994 -410 L 209.99999999999994 -410 L 209.99999999999994 -400 L 209.99999999999994 -390 L 199.99999999999994 -390 L 199.99999999999994 -380 L 209.99999999999994 -380 L 209.99999999999994 -370 L 209.99999999999994 -360 L 199.99999999999994 -360 L 199.99999999999994 -370 L 189.99999999999994 -370 L 179.99999999999994 -370 L 179.99999999999994 -360 L 189.99999999999994 -360 L 189.99999999999994 -350 L 179.99999999999994 -350 L 179.99999999999994 -340 L 189.99999999999994 -340 L 199.99999999999994 -340 L 199.99999999999994 -350 L 209.99999999999994 -350 L 209.99999999999994 -340 L 209.99999999999994 -330 L 199.99999999999994 -330 L 199.99999999999994 -320 L 209.99999999999994 -320 L 209.99999999999994 -310 L 209.99999999999994 -300 L 199.99999999999994 -300 L 199.99999999999994 -310 L 189.99999999999994 -310 L 189.99999999999994 -300 L 179.99999999999994 -300 L 179.99999999999994 -310 L 179.99999999999994 -320 L 189.99999999999994 -320 L 189.99999999999994 -330 L 179.99999999999994 -330 L 169.99999999999994 -330 L 169.99999999999994 -320 L 159.99999999999994 -320 L 159.99999999999994 -330 L 149.99999999999994 -330 L 139.99999999999994 -330 L 139.99999999999994 -320 L 149.99999999999994 -320 L 149.99999999999994 -310 L 139.99999999999994 -310 L 139.99999999999994 -300 L 149.99999999999994 -300 L 159.99999999999994 -300 L 159.99999999999994 -310 L 169.99999999999994 -310 L 169.99999999999994 -300 L 169.99999999999994 -290 L 169.99999999999994 -280 L 159.99999999999994 -280 L 159.99999999999994 -290 L 149.99999999999994 -290 L 139.99999999999994 -290 L 139.99999999999994 -280 L 149.99999999999994 -280 L 149.99999999999994 -270 L 139.99999999999994 -270 L 139.99999999999994 -260 L 149.99999999999994 -260 L 159.99999999999994 -260 L 159.99999999999994 -270 L 169.99999999999994 -270 L 169.99999999999994 -260 L 179.99999999999994 -260 L 189.99999999999994 -260 L 189.99999999999994 -270 L 179.99999999999994 -270 L 179.99999999999994 -280 L 179.99999999999994 -290 L 189.99999999999994 -290 L 189.99999999999994 -280 L 199.99999999999994 -280 L 199.99999999999994 -290 L 209.99999999999994 -290 L 209.99999999999994 -280 L 209.99999999999994 -270 L 199.99999999999994 -270 L 199.99999999999994 -260 L 209.99999999999994 -260 L 209.99999999999994 -250 L 209.99999999999994 -240 L 199.99999999999994 -240 L 199.99999999999994 -250 L 189.99999999999994 -250 L 179.99999999999994 -250 L 179.99999999999994 -240 L 189.99999999999994 -240 L 189.99999999999994 -230 L 179.99999999999994 -230 L 179.99999999999994 -220 L 189.99999999999994 -220 L 199.99999999999994 -220 L 199.99999999999994 -230 L 209.99999999999994 -230 L 209.99999999999994 -220 L 209.99999999999994 -210 L 199.99999999999994 -210 L 199.99999999999994 -200 L 209.99999999999994 -200 L 209.99999999999994 -190 L 209.99999999999994 -180 L 199.99999999999994 -180 L 199.99999999999994 -190 L 189.99999999999994 -190 L 189.99999999999994 -180 L 179.99999999999994 -180 L 179.99999999999994 -190 L 179.99999999999994 -200 L 189.99999999999994 -200 L 189.99999999999994 -210 L 179.99999999999994 -210 L 169.99999999999994 -210 L 159.99999999999994 -210 L 159.99999999999994 -200 L 169.99999999999994 -200 L 169.99999999999994 -190 L 169.99999999999994 -180 L 159.99999999999994 -180 L 159.99999999999994 -190 L 149.99999999999994 -190 L 149.99999999999994 -180 L 139.99999999999994 -180 L 139.99999999999994 -190 L 139.99999999999994 -200 L 149.99999999999994 -200 L 149.99999999999994 -210 L 139.99999999999994 -210 L 139.99999999999994 -220 L 139.99999999999994 -230 L 149.99999999999994 -230 L 149.99999999999994 -220 L 159.99999999999994 -220 L 169.99999999999994 -220 L 169.99999999999994 -230 L 159.99999999999994 -230 L 159.99999999999994 -240 L 169.99999999999994 -240 L 169.99999999999994 -250 L 159.99999999999994 -250 L 149.99999999999994 -250 L 149.99999999999994 -240 L 139.99999999999994 -240 L 139.99999999999994 -250 L 129.99999999999994 -250 L 119.99999999999994 -250 L 119.99999999999994 -240 L 129.99999999999994 -240 L 129.99999999999994 -230 L 129.99999999999994 -220 L 119.99999999999994 -220 L 119.99999999999994 -230 L 109.99999999999994 -230 L 109.99999999999994 -220 L 99.99999999999994 -220 L 99.99999999999994 -230 L 99.99999999999994 -240 L 109.99999999999994 -240 L 109.99999999999994 -250 L 99.99999999999994 -250 L 89.99999999999994 -250 L 89.99999999999994 -240 L 79.99999999999994 -240 L 79.99999999999994 -250 L 69.99999999999994 -250 L 59.99999999999994 -250 L 59.99999999999994 -240 L 69.99999999999994 -240 L 69.99999999999994 -230 L 59.99999999999994 -230 L 59.99999999999994 -220 L 69.99999999999994 -220 L 79.99999999999994 -220 L 79.99999999999994 -230 L 89.99999999999994 -230 L 89.99999999999994 -220 L 89.99999999999994 -210 L 89.99999999999994 -200 L 79.99999999999994 -200 L 79.99999999999994 -210 L 69.99999999999994 -210 L 59.99999999999994 -210 L 59.99999999999994 -200 L 69.99999999999994 -200 L 69.99999999999994 -190 L 59.99999999999994 -190 L 59.99999999999994 -180 L 69.99999999999994 -180 L 79.99999999999994 -180 L 79.99999999999994 -190 L 89.99999999999994 -190 L 89.99999999999994 -180 L 99.99999999999994 -180 L 109.99999999999994 -180 L 109.99999999999994 -190 L 99.99999999999994 -190 L 99.99999999999994 -200 L 99.99999999999994 -210 L 109.99999999999994 -210 L 109.99999999999994 -200 L 119.99999999999994 -200 L 119.99999999999994 -210 L 129.99999999999994 -210 L 129.99999999999994 -200 L 129.99999999999994 -190 L 119.99999999999994 -190 L 119.99999999999994 -180 L 129.99999999999994 -180 L 129.99999999999994 -170 L 119.99999999999994 -170 L 119.99999999999994 -160 L 129.99999999999994 -160 L 129.99999999999994 -150 L 129.99999999999994 -140 L 119.99999999999994 -140 L 119.99999999999994 -150 L 109.99999999999994 -150 L 109.99999999999994 -140 L 99.99999999999994 -140 L 99.99999999999994 -150 L 99.99999999999994 -160 L 109.99999999999994 -160 L 109.99999999999994 -170 L 99.99999999999994 -170 L 89.99999999999994 -170 L 89.99999999999994 -160 L 79.99999999999994 -160 L 79.99999999999994 -170 L 69.99999999999994 -170 L 59.99999999999994 -170 L 59.99999999999994 -160 L 69.99999999999994 -160 L 69.99999999999994 -150 L 59.99999999999994 -150 L 59.99999999999994 -140 L 69.99999999999994 -140 L 79.99999999999994 -140 L 79.99999999999994 -150 L 89.99999999999994 -150 L 89.99999999999994 -140 L 89.99999999999994 -130 L 89.99999999999994 -120 L 79.99999999999994 -120 L 79.99999999999994 -130 L 69.99999999999994 -130 L 59.99999999999994 -130 L 59.99999999999994 -120 L 69.99999999999994 -120 L 69.99999999999994 -110 L 59.99999999999994 -110 L 59.99999999999994 -100 L 69.99999999999994 -100 L 79.99999999999994 -100 L 79.99999999999994 -110 L 89.99999999999994 -110 L 89.99999999999994 -100 L 99.99999999999994 -100 L 109.99999999999994 -100 L 109.99999999999994 -110 L 99.99999999999994 -110 L 99.99999999999994 -120 L 99.99999999999994 -130 L 109.99999999999994 -130 L 109.99999999999994 -120 L 119.99999999999994 -120 L 119.99999999999994 -130 L 129.99999999999994 -130 L 129.99999999999994 -120 L 129.99999999999994 -110 L 119.99999999999994 -110 L 119.99999999999994 -100 L 129.99999999999994 -100 L 139.99999999999994 -100 L 139.99999999999994 -110 L 149.99999999999994 -110 L 149.99999999999994 -100 L 159.99999999999994 -100 L 169.99999999999994 -100 L 169.99999999999994 -110 L 159.99999999999994 -110 L 159.99999999999994 -120 L 169.99999999999994 -120 L 169.99999999999994 -130 L 159.99999999999994 -130 L 149.99999999999994 -130 L 149.99999999999994 -120 L 139.99999999999994 -120 L 139.99999999999994 -130 L 139.99999999999994 -140 L 149.99999999999994 -140 L 149.99999999999994 -150 L 139.99999999999994 -150 L 139.99999999999994 -160 L 139.99999999999994 -170 L 149.99999999999994 -170 L 149.99999999999994 -160 L 159.99999999999994 -160 L 159.99999999999994 -170 L 169.99999999999994 -170 L 169.99999999999994 -160 L 169.99999999999994 -150 L 159.99999999999994 -150 L 159.99999999999994 -140 L 169.99999999999994 -140 L 179.99999999999994 -140 L 189.99999999999994 -140 L 189.99999999999994 -150 L 179.99999999999994 -150 L 179.99999999999994 -160 L 179.99999999999994 -170 L 189.99999999999994 -170 L 189.99999999999994 -160 L 199.99999999999994 -160 L 199.99999999999994 -170 L 209.99999999999994 -170 L 209.99999999999994 -160 L 209.99999999999994 -150 L 199.99999999999994 -150 L 199.99999999999994 -140 L 209.99999999999994 -140 L 209.99999999999994 -130 L 209.99999999999994 -120 L 199.99999999999994 -120 L 199.99999999999994 -130 L 189.99999999999994 -130 L 179.99999999999994 -130 L 179.99999999999994 -120 L 189.99999999999994 -120 L 189.99999999999994 -110 L 179.99999999999994 -110 L 179.99999999999994 -100 L 189.99999999999994 -100 L 199.99999999999994 -100 L 199.99999999999994 -110 L 209.99999999999994 -110" fill="#d99126" stroke="#c93" stroke-width="0.5" />
</svg>