<svg width="160" height="90" viewBox="-106.5675675675676 -52.49138495239713 175.1351351351352 98.51351351351354" xmlns="http://www.w3.org/2000/svg">
  <path d="M -100 -50 L -98 -50 L -97 -51.732050807568875 L -96 -50 L -94 -50 L -93 -51.732050807568875 L -94 -53.46410161513775 L -92 -53.46410161513775 L -91 -55.196152422706625 L -90 -53.46410161513775 L -88 -53.46410161513775 L -89 -51.732050807568875 L -88 -50 L -86 -50 L -85 -51.732050807568875 L -84 -50 L -82 -50 L -81 -51.732050807568875 L -82 -53.46410161513775 L -80 -53.46410161513775 L -79 -55.196152422706625 L -80 -56.9282032302755 L -82 -56.9282032302755 L -81 -58.660254037844375 L -82 -60.39230484541325 L -80 -60.39230484541325 L -79 -62.124355652982125 L -78 -60.39230484541325 L -76 -60.39230484541325 L -75 -62.124355652982125 L -76 -63.856406460551 L -74 -63.856406460551 L -73 -65.58845726811988 L -72 -63.85640646055101 L -70 -63.85640646055101 L -71 -62.12435565298213 L -70 -60.39230484541326 L -68 -60.39230484541326 L -67 -62.12435565298213 L -66 -60.39230484541326 L -64 -60.39230484541326 L -65 -58.66025403784438 L -64 -56.92820323027551 L -66 -56.92820323027551 L -67 -55.19615242270663 L -66 -53.46410161513776 L -64 -53.46410161513776 L -65 -51.73205080756888 L -64 -50.00000000000001 L -62 -50.00000000000001 L -61 -51.73205080756888 L -60 -50.00000000000001 L -58 -50.00000000000001 L -57 -51.73205080756888 L -58 -53.46410161513776 L -56 -53.46410161513776 L -55 -55.19615242270663 L -54 -53.46410161513776 L -52 -53.46410161513776 L -53 -51.73205080756888 L -52 -50.00000000000001 L -50 -50.00000000000001 L -49 -51.73205080756888 L -48 -50.00000000000001 L -46 -50.00000000000001 L -45 -51.73205080756888 L -46 -53.46410161513776 L -44 -53.46410161513776 L -43 -55.19615242270663 L -44 -56.92820323027551 L -46 -56.92820323027551 L -45 -58.66025403784438 L -46 -60.39230484541326 L -44 -60.39230484541326 L -43 -62.12435565298213 L -42 -60.39230484541326 L -40 -60.39230484541326 L -39 -62.12435565298213 L -40 -63.85640646055101 L -38 -63.85640646055101 L -37 -65.58845726811988 L -38 -67.32050807568876 L -40 -67.32050807568876 L -39 -69.05255888325765 L -40 -70.78460969082653 L -42 -70.78460969082653 L -43 -69.05255888325765 L -44 -70.78460969082653 L -46 -70.78460969082653 L -45 -72.51666049839541 L -46 -74.24871130596429 L -44 -74.24871130596429 L -43 -75.98076211353317 L -44 -77.71281292110206 L -46 -77.71281292110206 L -45 -79.44486372867094 L -46 -81.17691453623982 L -44 -81.17691453623982 L -43 -82.9089653438087 L -42 -81.17691453623982 L -40 -81.17691453623982 L -39 -82.9089653438087 L -40 -84.64101615137758 L -38 -84.64101615137758 L -37 -86.37306695894647 L -36 -84.64101615137758 L -34 -84.64101615137758 L -35 -82.9089653438087 L -34 -81.17691453623982 L -32 -81.17691453623982 L -31 -82.9089653438087 L -30 -81.17691453623982 L -28 -81.17691453623982 L -27 -82.9089653438087 L -28 -84.64101615137758 L -26 -84.64101615137758 L -25 -86.37306695894647 L -26 -88.10511776651535 L -28 -88.10511776651535 L -27 -89.83716857408423 L -28 -91.56921938165311 L -26 -91.56921938165311 L -25 -93.301270189222 L -24 -91.56921938165311 L -22 -91.56921938165311 L -21 -93.301270189222 L -22 -95.03332099679088 L -20 -95.03332099679088 L -19 -96.76537180435976 L -18 -95.03332099679088 L -16 -95.03332099679088 L -17 -93.301270189222 L -16 -91.56921938165311 L -14 -91.56921938165311 L -13 -93.301270189222 L -12 -91.56921938165311 L -10 -91.56921938165311 L -10.999999999999998 -89.83716857408423 L -9.999999999999996 -88.10511776651535 L -11.999999999999996 -88.10511776651535 L -12.999999999999995 -86.37306695894647 L -11.999999999999993 -84.64101615137758 L -9.999999999999993 -84.64101615137758 L -10.999999999999991 -82.9089653438087 L -9.99999999999999 -81.17691453623982 L -7.999999999999989 -81.17691453623982 L -6.99999999999999 -82.9089653438087 L -5.999999999999989 -81.17691453623982 L -3.9999999999999893 -81.17691453623982 L -2.99999999999999 -82.9089653438087 L -3.9999999999999902 -84.64101615137758 L -1.9999999999999902 -84.64101615137758 L -0.9999999999999908 -86.37306695894647 L 1.0103029524088925e-14 -84.64101615137758 L 2.00000000000001 -84.64101615137758 L 1.0000000000000115 -82.9089653438087 L 2.0000000000000124 -81.17691453623982 L 4.000000000000012 -81.17691453623982 L 5.0000000000000115 -82.9089653438087 L 6.000000000000012 -81.17691453623982 L 8.000000000000012 -81.17691453623982 L 7.000000000000013 -79.44486372867094 L 8.000000000000014 -77.71281292110206 L 6.000000000000014 -77.71281292110206 L 5.000000000000015 -75.98076211353317 L 6.000000000000016 -74.24871130596429 L 8.000000000000016 -74.24871130596429 L 7.000000000000017 -72.51666049839541 L 8.000000000000018 -70.78460969082653 L 6.000000000000018 -70.78460969082653 L 5.000000000000019 -69.05255888325765 L 4.000000000000016 -70.78460969082653 L 2.000000000000016 -70.78460969082653 L 1.0000000000000173 -69.05255888325765 L 2.000000000000018 -67.32050807568876 L 1.8207657603852567e-14 -67.32050807568876 L -0.9999999999999806 -65.58845726811988 L 2.0317081350640365e-14 -63.85640646055101 L 2.0000000000000204 -63.85640646055101 L 1.0000000000000218 -62.12435565298213 L 2.0000000000000226 -60.39230484541326 L 4.000000000000023 -60.39230484541326 L 5.000000000000022 -62.12435565298213 L 6.000000000000023 -60.39230484541326 L 8.000000000000023 -60.39230484541326 L 7.000000000000024 -58.66025403784438 L 8.000000000000025 -56.92820323027551 L 6.000000000000025 -56.92820323027551 L 5.000000000000026 -55.19615242270663 L 6.000000000000027 -53.46410161513776 L 8.000000000000027 -53.46410161513776 L 7.0000000000000275 -51.73205080756888 L 8.000000000000028 -50.00000000000001 L 10.000000000000028 -50.00000000000001 L 11.000000000000028 -51.73205080756888 L 12.000000000000028 -50.00000000000001 L 14.000000000000028 -50.00000000000001 L 15.000000000000028 -51.73205080756888 L 14.000000000000028 -53.46410161513776 L 16.00000000000003 -53.46410161513776 L 17.00000000000003 -55.19615242270663 L 18.00000000000003 -53.46410161513776 L 20.00000000000003 -53.46410161513776 L 19.00000000000003 -51.73205080756888 L 20.00000000000003 -50.00000000000001 L 22.00000000000003 -50.00000000000001 L 23.00000000000003 -51.73205080756888 L 24.00000000000003 -50.00000000000001 L 26.00000000000003 -50.00000000000001 L 27.00000000000003 -51.73205080756888 L 26.00000000000003 -53.46410161513776 L 28.00000000000003 -53.46410161513776 L 29.00000000000003 -55.19615242270663 L 28.00000000000003 -56.92820323027551 L 26.00000000000003 -56.92820323027551 L 27.00000000000003 -58.66025403784438 L 26.00000000000003 -60.39230484541326 L 28.00000000000003 -60.39230484541326 L 29.00000000000003 -62.12435565298213 L 30.00000000000003 -60.39230484541326 L 32.00000000000003 -60.39230484541326 L 33.00000000000003 -62.12435565298213 L 32.00000000000003 -63.85640646055101 L 34.00000000000003 -63.85640646055101 L 35.00000000000003 -65.58845726811988 L 36.00000000000003 -63.85640646055101 L 38.00000000000003 -63.85640646055101 L 37.00000000000003 -62.12435565298213 L 38.00000000000003 -60.39230484541326 L 40.00000000000003 -60.39230484541326 L 41.00000000000003 -62.12435565298213 L 42.00000000000003 -60.39230484541326 L 44.00000000000003 -60.39230484541326 L 43.00000000000003 -58.66025403784438 L 44.00000000000003 -56.92820323027551 L 42.00000000000003 -56.92820323027551 L 41.00000000000003 -55.19615242270663 L 42.00000000000003 -53.46410161513776 L 44.00000000000003 -53.46410161513776 L 43.00000000000003 -51.73205080756888 L 44.00000000000003 -50.00000000000001 L 46.00000000000003 -50.00000000000001 L 47.00000000000003 -51.73205080756888 L 48.00000000000003 -50.00000000000001 L 50.00000000000003 -50.00000000000001 L 51.00000000000003 -51.73205080756888 L 50.00000000000003 -53.46410161513776 L 52.00000000000003 -53.46410161513776 L 53.00000000000003 -55.19615242270663 L 54.00000000000003 -53.46410161513776 L 56.00000000000003 -53.46410161513776 L 55.00000000000003 -51.73205080756888 L 56.00000000000003 -50.00000000000001 L 58.00000000000003 -50.00000000000001 L 59.00000000000003 -51.73205080756888 L 60.00000000000003 -50.00000000000001 L 62.00000000000003 -50.00000000000001 L 61.00000000000003 -48.26794919243113 L 62.00000000000003 -46.53589838486226 L 60.00000000000003 -46.53589838486226 L 59.00000000000003 -44.80384757729338 L 60.00000000000003 -43.07179676972451 L 62.00000000000003 -43.07179676972451 L 61.00000000000003 -41.33974596215563 L 62.00000000000003 -39.60769515458676 L 60.00000000000003 -39.60769515458676 L 59.00000000000003 -37.87564434701788 L 58.00000000000003 -39.60769515458676 L 56.00000000000003 -39.60769515458676 L 55.00000000000003 -37.87564434701788 L 56.00000000000003 -36.14359353944901 L 54.00000000000003 -36.14359353944901 L 53.00000000000003 -34.41154273188013 L 54.00000000000003 -32.67949192431126 L 56.00000000000003 -32.67949192431126 L 55.00000000000003 -30.94744111674238 L 56.00000000000003 -29.2153903091735 L 58.00000000000003 -29.2153903091735 L 59.00000000000003 -30.94744111674238 L 60.00000000000003 -29.2153903091735 L 62.00000000000003 -29.2153903091735 L 61.00000000000003 -27.483339501604622 L 62.00000000000003 -25.751288694035743 L 60.00000000000003 -25.75128869403574 L 59.00000000000003 -24.01923788646686 L 60.00000000000003 -22.287187078897986 L 62.00000000000003 -22.287187078897986 L 61.00000000000003 -20.555136271329108 L 62.00000000000003 -18.82308546376023 L 60.00000000000003 -18.823085463760226 L 59.00000000000003 -17.091034656191347 L 58.00000000000003 -18.823085463760222 L 56.00000000000003 -18.82308546376022 L 55.00000000000003 -17.09103465619134 L 56.00000000000003 -15.358983848622463 L 54.00000000000003 -15.358983848622461 L 53.00000000000003 -13.626933041053583 L 52.00000000000003 -15.358983848622458 L 50.00000000000003 -15.358983848622456 L 51.00000000000003 -17.091034656191336 L 50.00000000000003 -18.82308546376021 L 48.00000000000003 -18.823085463760208 L 47.00000000000003 -17.09103465619133 L 46.00000000000003 -18.823085463760204 L 44.00000000000003 -18.8230854637602 L 43.00000000000003 -17.091034656191322 L 44.00000000000003 -15.358983848622445 L 42.00000000000003 -15.358983848622444 L 41.00000000000003 -13.626933041053565 L 42.00000000000003 -11.894882233484688 L 44.00000000000003 -11.89488223348469 L 43.00000000000003 -10.162831425915812 L 44.00000000000003 -8.430780618346935 L 42.00000000000003 -8.430780618346933 L 41.00000000000003 -6.6987298107780555 L 40.00000000000003 -8.430780618346931 L 38.00000000000003 -8.43078061834693 L 37.00000000000003 -6.698729810778052 L 38.00000000000003 -4.966679003209175 L 36.00000000000003 -4.966679003209173 L 35.00000000000003 -3.234628195640296 L 36.00000000000003 -1.502577388071419 L 38.00000000000003 -1.50257738807142 L 37.00000000000003 0.22947341949745792 L 38.00000000000003 1.9615242270663347 L 40.00000000000003 1.9615242270663338 L 41.00000000000003 0.22947341949745614 L 42.00000000000003 1.961524227066333 L 44.00000000000003 1.961524227066332 L 43.00000000000003 3.69357503463521 L 44.00000000000003 5.425625842204086 L 42.00000000000003 5.425625842204088 L 41.00000000000003 7.157676649772966 L 42.00000000000003 8.889727457341841 L 44.00000000000003 8.889727457341841 L 43.00000000000003 10.62177826491072 L 44.00000000000003 12.353829072479597 L 46.00000000000003 12.353829072479595 L 47.00000000000003 10.621778264910716 L 48.00000000000003 12.353829072479593 L 50.00000000000003 12.353829072479591 L 51.00000000000003 10.621778264910713 L 50.00000000000003 8.889727457341836 L 52.00000000000003 8.889727457341834 L 53.00000000000003 7.157676649772957 L 54.00000000000003 8.889727457341834 L 56.00000000000003 8.889727457341834 L 55.00000000000003 10.621778264910713 L 56.00000000000003 12.35382907247959 L 58.00000000000003 12.353829072479588 L 59.00000000000003 10.62177826491071 L 60.00000000000003 12.353829072479586 L 62.00000000000003 12.353829072479584 L 61.00000000000003 14.085879880048463 L 62.00000000000003 15.81793068761734 L 60.00000000000003 15.817930687617341 L 59.00000000000003 17.54998149518622 L 60.00000000000003 19.2820323027551 L 62.00000000000003 19.2820323027551 L 61.00000000000003 21.014083110323977 L 62.00000000000003 22.746133917892855 L 60.00000000000003 22.74613391789286 L 59.00000000000003 24.478184725461738 L 58.00000000000003 22.746133917892863 L 56.00000000000003 22.746133917892866 L 55.00000000000003 24.478184725461745 L 56.00000000000003 26.21023553303062 L 54.00000000000003 26.210235533030623 L 53.00000000000003 27.9422863405995 L 54.00000000000003 29.674337148168377 L 56.00000000000003 29.674337148168377 L 55.00000000000003 31.406387955737255 L 56.00000000000003 33.138438763306134 L 58.00000000000003 33.138438763306134 L 59.00000000000003 31.406387955737255 L 60.00000000000003 33.138438763306134 L 62.00000000000003 33.138438763306134 L 61.00000000000003 34.87048957087501 L 62.00000000000003 36.602540378443884 L 60.00000000000003 36.602540378443884 L 59.00000000000003 38.33459118601276 L 60.00000000000003 40.066641993581634 L 62.00000000000003 40.066641993581634 L 61.00000000000003 41.79869280115051 L 62.00000000000003 43.53074360871938 L 60.00000000000003 43.53074360871938 L 59.00000000000003 45.26279441628826 L 58.00000000000003 43.53074360871938 L 56.00000000000003 43.53074360871938 L 55.00000000000003 45.26279441628826 L 56.00000000000003 46.99484522385713 L 54.00000000000003 46.99484522385713 L 53.00000000000003 48.72689603142601 L 52.00000000000003 46.99484522385713 L 50.00000000000003 46.99484522385713 L 51.00000000000003 45.26279441628825 L 50.00000000000003 43.530743608719376 L 48.00000000000003 43.530743608719376 L 47.00000000000003 45.26279441628825 L 46.00000000000003 43.530743608719376 L 44.00000000000003 43.530743608719376 L 43.00000000000003 45.26279441628825 L 44.00000000000003 46.994845223857126 L 42.00000000000003 46.994845223857126 L 41.00000000000003 48.726896031426 L 42.00000000000003 50.458946838994876 L 44.00000000000003 50.458946838994876 L 43.00000000000003 52.19099764656375 L 44.00000000000003 53.923048454132626 L 42.00000000000003 53.923048454132626 L 41.00000000000003 55.6550992617015 L 40.00000000000003 53.923048454132626 L 38.00000000000003 53.923048454132626 L 37.00000000000003 55.6550992617015 L 38.00000000000003 57.387150069270376 L 36.00000000000003 57.387150069270376 L 35.00000000000003 59.11920087683925 L 34.00000000000003 57.387150069270376 L 32.00000000000003 57.387150069270376 L 33.00000000000003 55.655099261701494 L 32.00000000000003 53.92304845413262 L 30.00000000000003 53.92304845413262 L 29.00000000000003 55.655099261701494 L 28.000000000000025 53.92304845413262 L 26.000000000000025 53.92304845413262 L 27.00000000000002 52.19099764656374 L 26.000000000000018 50.45894683899486 L 28.000000000000018 50.458946838994855 L 29.000000000000014 48.72689603142597 L 28.00000000000001 46.9948452238571 L 26.00000000000001 46.9948452238571 L 27.000000000000007 45.262794416288216 L 26.000000000000004 43.53074360871934 L 24.000000000000004 43.53074360871934 L 23.000000000000004 45.262794416288216 L 22 43.53074360871934 L 20 43.53074360871934 L 19 45.262794416288216 L 20 46.99484522385709 L 18 46.99484522385709 L 17 48.726896031425966 L 15.999999999999998 46.99484522385709 L 13.999999999999998 46.99484522385709 L 14.999999999999995 45.26279441628821 L 13.999999999999993 43.530743608719334 L 11.999999999999993 43.530743608719334 L 10.999999999999995 45.26279441628821 L 9.999999999999993 43.530743608719334 L 7.999999999999993 43.530743608719334 L 6.999999999999994 45.26279441628821 L 7.999999999999995 46.994845223857084 L 5.999999999999995 46.994845223857084 L 4.999999999999996 48.72689603142596 L 5.9999999999999964 50.458946838994834 L 7.9999999999999964 50.458946838994834 L 6.999999999999997 52.19099764656371 L 7.999999999999998 53.923048454132584 L 5.999999999999998 53.923048454132584 L 4.999999999999999 55.65509926170146 L 3.9999999999999964 53.923048454132584 L 1.9999999999999964 53.923048454132584 L 0.9999999999999977 55.65509926170146 L 1.9999999999999987 57.387150069270334 L -1.3322676295501878e-15 57.387150069270334 L -1 59.11920087683921 L 8.881784197001252e-16 60.85125168440808 L 2.000000000000001 60.85125168440808 L 1.0000000000000022 62.58330249197696 L 2.000000000000003 64.31535329954583 L 4.0000000000000036 64.31535329954583 L 5.000000000000003 62.58330249197696 L 6.0000000000000036 64.31535329954583 L 8.000000000000004 64.31535329954583 L 7.000000000000004 66.04740410711472 L 8.000000000000005 67.7794549146836 L 6.000000000000005 67.7794549146836 L 5.000000000000006 69.51150572225248 L 6.000000000000007 71.24355652982136 L 8.000000000000007 71.24355652982136 L 7.000000000000008 72.97560733739024 L 8.000000000000009 74.70765814495913 L 6.000000000000009 74.70765814495913 L 5.00000000000001 76.43970895252801 L 4.000000000000007 74.70765814495913 L 2.000000000000007 74.70765814495913 L 1.0000000000000084 76.43970895252801 L 2.0000000000000093 78.17175976009689 L 9.325873406851315e-15 78.17175976009689 L -0.9999999999999895 79.90381056766577 L -1.999999999999992 78.17175976009689 L -3.999999999999992 78.17175976009689 L -2.9999999999999947 76.43970895252801 L -3.9999999999999973 74.70765814495913 L -5.999999999999997 74.70765814495913 L -6.9999999999999964 76.43970895252801 L -7.999999999999999 74.70765814495913 L -10 74.70765814495913 L -10.999999999999998 76.43970895252801 L -9.999999999999996 78.17175976009689 L -11.999999999999996 78.17175976009689 L -12.999999999999995 79.90381056766577 L -11.999999999999993 81.63586137523465 L -9.999999999999993 81.63586137523465 L -10.999999999999991 83.36791218280354 L -9.99999999999999 85.09996299037242 L -11.99999999999999 85.09996299037242 L -12.999999999999988 86.8320137979413 L -13.99999999999999 85.09996299037242 L -15.99999999999999 85.09996299037242 L -16.99999999999999 86.8320137979413 L -15.99999999999999 88.56406460551018 L -17.99999999999999 88.56406460551018 L -18.99999999999999 90.29611541307906 L -19.999999999999993 88.56406460551018 L -21.999999999999993 88.56406460551018 L -20.999999999999996 86.8320137979413 L -22 85.09996299037242 L -24 85.09996299037242 L -25 86.8320137979413 L -26.000000000000004 85.09996299037242 L -28.000000000000004 85.09996299037242 L -27.000000000000007 83.36791218280354 L -28.00000000000001 81.63586137523465 L -26.00000000000001 81.63586137523465 L -25.000000000000014 79.90381056766577 L -26.000000000000018 78.17175976009689 L -28.000000000000018 78.17175976009689 L -27.00000000000002 76.43970895252801 L -28.000000000000025 74.70765814495913 L -30.000000000000025 74.70765814495913 L -31.000000000000025 76.43970895252801 L -32.00000000000003 74.70765814495913 L -34.00000000000003 74.70765814495913 L -35.00000000000003 76.43970895252801 L -34.00000000000003 78.17175976009689 L -36.00000000000003 78.17175976009689 L -37.00000000000003 79.90381056766577 L -38.00000000000003 78.17175976009689 L -40.00000000000003 78.17175976009689 L -39.00000000000003 76.43970895252801 L -40.00000000000003 74.70765814495913 L -42.00000000000003 74.70765814495913 L -43.00000000000003 76.43970895252801 L -44.00000000000003 74.70765814495913 L -46.00000000000003 74.70765814495913 L -45.00000000000003 72.97560733739024 L -46.00000000000003 71.24355652982136 L -44.00000000000003 71.24355652982136 L -43.00000000000003 69.51150572225248 L -44.00000000000003 67.7794549146836 L -46.00000000000003 67.7794549146836 L -45.00000000000003 66.04740410711472 L -46.00000000000003 64.31535329954583 L -44.00000000000003 64.31535329954583 L -43.00000000000003 62.58330249197695 L -42.00000000000002 64.31535329954582 L -40.00000000000002 64.31535329954582 L -39.00000000000002 62.58330249197694 L -40.00000000000002 60.85125168440806 L -38.00000000000002 60.851251684408055 L -37.00000000000002 59.11920087683917 L -38.00000000000002 57.3871500692703 L -40.00000000000002 57.3871500692703 L -39.00000000000002 55.655099261701416 L -40.00000000000002 53.92304845413254 L -42.00000000000002 53.92304845413254 L -43.00000000000002 55.655099261701416 L -44.00000000000002 53.92304845413254 L -46.00000000000002 53.92304845413254 L -45.00000000000002 52.19099764656366 L -46.00000000000002 50.458946838994784 L -44.00000000000002 50.45894683899478 L -43.00000000000002 48.726896031425895 L -44.00000000000002 46.99484522385702 L -46.00000000000002 46.99484522385702 L -45.00000000000002 45.26279441628814 L -46.00000000000002 43.53074360871926 L -48.00000000000002 43.53074360871926 L -49.00000000000002 45.26279441628814 L -50.00000000000002 43.53074360871926 L -52.00000000000002 43.53074360871926 L -53.00000000000002 45.26279441628814 L -52.00000000000002 46.99484522385701 L -54.00000000000002 46.99484522385701 L -55.00000000000002 48.72689603142589 L -56.00000000000002 46.99484522385701 L -58.00000000000002 46.99484522385701 L -57.00000000000002 45.26279441628813 L -58.00000000000002 43.530743608719256 L -60.00000000000002 43.530743608719256 L -61.00000000000002 45.26279441628813 L -62.00000000000002 43.530743608719256 L -64.00000000000003 43.530743608719256 L -65.00000000000003 45.26279441628813 L -64.00000000000003 46.994845223857006 L -66.00000000000003 46.994845223857006 L -67.00000000000003 48.72689603142588 L -66.00000000000003 50.458946838994756 L -64.00000000000003 50.458946838994756 L -65.00000000000003 52.19099764656363 L -64.00000000000003 53.923048454132505 L -66.00000000000003 53.923048454132505 L -67.00000000000003 55.65509926170138 L -68.00000000000003 53.923048454132505 L -70.00000000000003 53.923048454132505 L -71.00000000000003 55.65509926170138 L -70.00000000000003 57.387150069270255 L -72.00000000000003 57.387150069270255 L -73.00000000000003 59.11920087683913 L -74.00000000000003 57.387150069270255 L -76.00000000000003 57.387150069270255 L -75.00000000000003 55.65509926170137 L -76.00000000000003 53.9230484541325 L -78.00000000000003 53.9230484541325 L -79.00000000000003 55.65509926170137 L -80.00000000000003 53.9230484541325 L -82.00000000000003 53.9230484541325 L -81.00000000000003 52.190997646563616 L -82.00000000000003 50.45894683899474 L -80.00000000000003 50.458946838994734 L -79.00000000000003 48.72689603142585 L -80.00000000000003 46.99484522385698 L -82.00000000000003 46.99484522385698 L -81.00000000000003 45.262794416288095 L -82.00000000000003 43.53074360871922 L -84.00000000000003 43.53074360871922 L -85.00000000000003 45.262794416288095 L -86.00000000000003 43.53074360871922 L -88.00000000000003 43.53074360871922 L -89.00000000000003 45.262794416288095 L -88.00000000000003 46.99484522385697 L -90.00000000000003 46.99484522385697 L -91.00000000000003 48.726896031425845 L -92.00000000000003 46.99484522385697 L -94.00000000000003 46.99484522385697 L -93.00000000000003 45.26279441628809 L -94.00000000000003 43.53074360871921 L -96.00000000000003 43.53074360871921 L -97.00000000000003 45.26279441628809 L -98.00000000000003 43.53074360871921 L -100.00000000000003 43.53074360871921 L -99.00000000000003 41.79869280115033 L -100.00000000000003 40.066641993581456 L -98.00000000000003 40.06664199358145 L -97.00000000000003 38.33459118601257 L -98.00000000000003 36.60254037844369 L -100.00000000000003 36.60254037844369 L -99.00000000000003 34.87048957087481 L -100.00000000000003 33.138438763305935 L -98.00000000000003 33.13843876330593 L -97.00000000000003 31.40638795573705 L -96.00000000000003 33.13843876330593 L -94.00000000000003 33.13843876330592 L -93.00000000000003 31.406387955737042 L -94.00000000000003 29.674337148168167 L -92.00000000000003 29.674337148168163 L -91.00000000000003 27.942286340599285 L -92.00000000000003 26.21023553303041 L -94.00000000000003 26.210235533030414 L -93.00000000000003 24.478184725461535 L -94.00000000000003 22.74613391789266 L -96.00000000000003 22.746133917892664 L -97.00000000000003 24.478184725461542 L -98.00000000000003 22.746133917892667 L -100.00000000000003 22.74613391789267 L -99.00000000000003 21.014083110323792 L -100.00000000000003 19.282032302754917 L -98.00000000000003 19.282032302754914 L -97.00000000000003 17.549981495186035 L -98.00000000000003 15.81793068761716 L -100.00000000000003 15.817930687617162 L -99.00000000000003 14.085879880048283 L -100.00000000000003 12.353829072479407 L -98.00000000000003 12.353829072479403 L -97.00000000000003 10.621778264910525 L -96.00000000000003 12.3538290724794 L -94.00000000000003 12.353829072479396 L -93.00000000000003 10.621778264910517 L -94.00000000000003 8.889727457341642 L -92.00000000000003 8.889727457341639 L -91.00000000000003 7.15767664977276 L -90.00000000000003 8.889727457341635 L -88.00000000000003 8.889727457341632 L -89.00000000000003 10.621778264910512 L -88.00000000000003 12.353829072479387 L -86.00000000000003 12.353829072479384 L -85.00000000000003 10.621778264910505 L -84.00000000000003 12.35382907247938 L -82.00000000000003 12.353829072479376 L -81.00000000000003 10.621778264910498 L -82.00000000000003 8.889727457341621 L -80.00000000000003 8.889727457341618 L -79.00000000000003 7.157676649772739 L -80.00000000000003 5.425625842203863 L -82.00000000000003 5.425625842203865 L -81.00000000000003 3.693575034634986 L -82.00000000000003 1.9615242270661102 L -80.00000000000003 1.9615242270661062 L -79.00000000000003 0.22947341949722722 L -78.00000000000003 1.9615242270661022 L -76.00000000000003 1.9615242270660982 L -75.00000000000003 0.22947341949721922 L -76.00000000000003 -1.5025773880716566 L -74.00000000000003 -1.5025773880716606 L -73.00000000000003 -3.2346281956405396 L -74.00000000000003 -4.966679003209416 L -76.00000000000003 -4.966679003209414 L -75.00000000000003 -6.698729810778293 L -76.00000000000003 -8.430780618347168 L -78.00000000000003 -8.430780618347166 L -79.00000000000003 -6.698729810778288 L -80.00000000000003 -8.430780618347164 L -82.00000000000003 -8.430780618347162 L -81.00000000000003 -10.16283142591604 L -82.00000000000003 -11.894882233484918 L -80.00000000000003 -11.894882233484921 L -79.00000000000003 -13.6269330410538 L -80.00000000000003 -15.358983848622675 L -82.00000000000003 -15.358983848622673 L -81.00000000000003 -17.091034656191553 L -82.00000000000003 -18.823085463760428 L -84.00000000000003 -18.823085463760425 L -85.00000000000003 -17.091034656191546 L -86.00000000000003 -18.82308546376042 L -88.00000000000003 -18.823085463760417 L -89.00000000000003 -17.09103465619154 L -88.00000000000003 -15.358983848622662 L -90.00000000000003 -15.35898384862266 L -91.00000000000003 -13.626933041053782 L -92.00000000000003 -15.358983848622657 L -94.00000000000003 -15.358983848622655 L -93.00000000000003 -17.091034656191535 L -94.00000000000003 -18.82308546376041 L -96.00000000000003 -18.823085463760407 L -97.00000000000003 -17.09103465619153 L -98.00000000000003 -18.823085463760403 L -100.00000000000003 -18.8230854637604 L -99.00000000000003 -20.55513627132928 L -100.00000000000003 -22.287187078898153 L -98.00000000000003 -22.287187078898157 L -97.00000000000003 -24.019237886467035 L -98.00000000000003 -25.75128869403591 L -100.00000000000003 -25.751288694035907 L -99.00000000000003 -27.483339501604785 L -100.00000000000003 -29.21539030917366 L -98.00000000000003 -29.215390309173664 L -97.00000000000003 -30.947441116742542 L -96.00000000000003 -29.215390309173667 L -94.00000000000003 -29.21539030917367 L -93.00000000000003 -30.94744111674255 L -94.00000000000003 -32.67949192431143 L -92.00000000000003 -32.679491924311435 L -91.00000000000003 -34.41154273188032 L -92.00000000000003 -36.14359353944919 L -94.00000000000003 -36.14359353944919 L -93.00000000000003 -37.875644347018074 L -94.00000000000003 -39.60769515458695 L -96.00000000000003 -39.60769515458695 L -97.00000000000003 -37.875644347018074 L -98.00000000000003 -39.60769515458695 L -100.00000000000003 -39.60769515458695 L -99.00000000000003 -41.33974596215583 L -100.00000000000003 -43.071796769724706 L -98.00000000000003 -43.07179676972471 L -97.00000000000003 -44.803847577293595 L -98.00000000000003 -46.53589838486247 L -100.00000000000003 -46.53589838486247 L -99.00000000000003 -48.26794919243135 L -100.00000000000003 -50.00000000000023" fill="#d99126" stroke="#c93" stroke-width="0.5" />
</svg>