<svg width="160" height="90" viewBox="-154.32866261461572 -8.545095745346494 168.65732522923142 94.86974544144267" xmlns="http://www.w3.org/2000/svg">
  <path d="M -150 0 L -148 0 L -148 2 L -146 2 L -146 0 L -144 0 L -144 2 L -146 2.0000000000000004 L -146 4 L -144 4 L -144 6 L -142 6 L -142 8 L -140 8 L -140 6 L -138 6 L -138 4 L -136 4 L -136 2 L -138 1.9999999999999998 L -138 -2.220446049250313e-16 L -136 -2.220446049250313e-16 L -136 1.9999999999999998 L -134 1.9999999999999998 L -134 -2.220446049250313e-16 L -132 -2.220446049250313e-16 L -132 1.9999999999999998 L -134 2 L -134 4 L -132 4 L -132 6 L -134 6 L -134 4 L -136 4 L -136 6 L -138 6 L -138 8 L -140 8 L -140 10 L -138 10 L -138 12 L -136 12 L -136 14 L -134 14 L -134 12 L -132 12 L -132 14 L -134 14 L -134 16 L -132 16 L -132 18 L -130 18 L -130 20 L -128 20 L -128 18 L -126 18 L -126 20 L -128 20 L -128 22 L -126 22 L -126 24 L -124 24 L -124 26 L -122 26 L -122 24 L -120 24 L -120 22 L -118 22 L -118 20 L -120 20 L -120 18 L -118 18 L -118 20 L -116 20 L -116 18 L -114 18 L -114 16 L -112 16 L -112 14 L -114 14 L -114 12 L -112 12 L -112 14 L -110 14 L -110 12 L -108 12 L -108 10 L -106 10 L -106 8 L -108 8 L -108 6 L -110 6 L -110 4 L -112 3.9999999999999996 L -112 6 L -114 6 L -114 4 L -112 4 L -112 2 L -114 1.9999999999999998 L -114 -2.220446049250313e-16 L -112 -2.220446049250313e-16 L -112 1.9999999999999998 L -110 1.9999999999999998 L -110 -2.220446049250313e-16 L -108 -2.220446049250313e-16 L -108 1.9999999999999998 L -110 2 L -110 4 L -108 4 L -108 6 L -106 6 L -106 8 L -104 8 L -104 6 L -102 6 L -102 4 L -100 4 L -100 2 L -102 1.9999999999999998 L -102 -2.220446049250313e-16 L -100 -2.220446049250313e-16 L -100 1.9999999999999998 L -98 1.9999999999999998 L -98 -2.220446049250313e-16 L -96 -2.220446049250313e-16 L -96 1.9999999999999998 L -98 2 L -98 4 L -96 4 L -96 6 L -98 6 L -98 4 L -100 4 L -100 6 L -102 6 L -102 8 L -104 8 L -104 10 L -102 10 L -102 12 L -100 12 L -100 14 L -98 14 L -98 12 L -96 12 L -96 14 L -98 14 L -98 16 L -96 16 L -96 18 L -98 18 L -98 16 L -100 16 L -100 18 L -102 18 L -102 16 L -100 16 L -100 14 L -102 14 L -102 12 L -104 12 L -104 10 L -106 10 L -106 12 L -108 12 L -108 14 L -110 14 L -110 16 L -108 16 L -108 18 L -110 18 L -110 16 L -112 16 L -112 18 L -114 18 L -114 20 L -116 20 L -116 22 L -114 22 L -114 24 L -116 24 L -116 22 L -118 22 L -118 24 L -120 24 L -120 26 L -122 26 L -122 28 L -120 28 L -120 30 L -118 30 L -118 32 L -116 32 L -116 30 L -114 30 L -114 32 L -116 32 L -116 34 L -114 34 L -114 36 L -112 36 L -112 38 L -110 38 L -110 36 L -108 36 L -108 38 L -110 38 L -110 40 L -108 40 L -108 42 L -106 42 L -106 44 L -104 44 L -104 42 L -102 42 L -102 40 L -100 40 L -100 38 L -102 38 L -102 36 L -100 36 L -100 38 L -98 38 L -98 36 L -96 36 L -96 38 L -98 38 L -98 40 L -96 40 L -96 42 L -98 42 L -98 40 L -100 40 L -100 42 L -102 42 L -102 44 L -104 44 L -104 46 L -102 46 L -102 48 L -100 48 L -100 50 L -98 50 L -98 48 L -96 48 L -96 50 L -98 50 L -98 52 L -96 52 L -96 54 L -94 54 L -94 56 L -92 56 L -92 54 L -90 54 L -90 56 L -92 56 L -92 58 L -90 58 L -90 60 L -88 60 L -88 62 L -86 62 L -86 60 L -84 60 L -84 58 L -82 58 L -82 56 L -84 56 L -84 54 L -82 54 L -82 56 L -80 56 L -80 54 L -78 54 L -78 56 L -80 56 L -80 58 L -78 58 L -78 60 L -80 60 L -80 58 L -82 58 L -82 60 L -84 60 L -84 62 L -86 62 L -86 64 L -84 64 L -84 66 L -82 66 L -82 68 L -80 68 L -80 66 L -78 66 L -78 68 L -80 68 L -80 70 L -78 70 L -78 72 L -76 72 L -76 74 L -74 74 L -74 72 L -72 72 L -72 74 L -74 74 L -74 76 L -72 76 L -72 78 L -70 78 L -70 80 L -68 80 L -68 78 L -66 78 L -66 76 L -64 76 L -64 74 L -66 74 L -66 72 L -64 72 L -64 74 L -62 74 L -62 72 L -60 72 L -60 70 L -58 70 L -58 68 L -60 68 L -60 66 L -58 66 L -58 68 L -56 68 L -56 66 L -54 66 L -54 64 L -52 64 L -52 62 L -54 62 L -54 60 L -56 60 L -56 58 L -58 58 L -58 60 L -60 60 L -60 58 L -58 58 L -58 56 L -60 56 L -60 54 L -58 54 L -58 56 L -56 56 L -56 54 L -54 54 L -54 56 L -56 56 L -56 58 L -54 58 L -54 60 L -52 60 L -52 62 L -50 62 L -50 60 L -48 60 L -48 58 L -46 58 L -46 56 L -48 56 L -48 54 L -46 54 L -46 56 L -44 56 L -44 54 L -42 54 L -42 52 L -40 52 L -40 50 L -42 50 L -42 48 L -40 48 L -40 50 L -38 50 L -38 48 L -36 48 L -36 46 L -34 46 L -34 44 L -36 44 L -36 42 L -38 42 L -38 40 L -40 40 L -40 42 L -42 42 L -42 40 L -40 40 L -40 38 L -42 38 L -42 36 L -40 36 L -40 38 L -38 38 L -38 36 L -36 36 L -36 38 L -38 38 L -38 40 L -36 40 L -36 42 L -34 42 L -34 44 L -32 44 L -32 42 L -30 42 L -30 40 L -28 40 L -28 38 L -30 38 L -30 36 L -28 36 L -28 38 L -26 38 L -26 36 L -24 36 L -24 34 L -22 34 L -22 32 L -24 32 L -24 30 L -22 30 L -22 32 L -20 32 L -20 30 L -18 30 L -18 28 L -16 28 L -16 26 L -18 26 L -18 24 L -20 24 L -20 22 L -22 22 L -22 24 L -24 24 L -24 22 L -22 22 L -22 20 L -24 20 L -24 18 L -26 18 L -26 16 L -28 16 L -28 18 L -30 18 L -30 16 L -28 16 L -28 14 L -30 14 L -30 12 L -32 12 L -32 10 L -34 10 L -34 12 L -36 12 L -36 14 L -38 14 L -38 16 L -36 16 L -36 18 L -38 18 L -38 16 L -40 16 L -40 18 L -42 18 L -42 16 L -40 16 L -40 14 L -42 14 L -42 12 L -40 12 L -40 14 L -38 14 L -38 12 L -36 12 L -36 10 L -34 10 L -34 8 L -36 8 L -36 6 L -38 6 L -38 4 L -40 3.9999999999999996 L -40 6 L -42 6 L -42 4 L -40 4 L -40 2 L -42 1.9999999999999998 L -42 -2.220446049250313e-16 L -40 -2.220446049250313e-16 L -40 1.9999999999999998 L -38 1.9999999999999998 L -38 -2.220446049250313e-16 L -36 -2.220446049250313e-16 L -36 1.9999999999999998 L -38 2 L -38 4 L -36 4 L -36 6 L -34 6 L -34 8 L -32 8 L -32 6 L -30 6 L -30 4 L -28 4 L -28 2 L -30 1.9999999999999998 L -30 -2.220446049250313e-16 L -28 -2.220446049250313e-16 L -28 1.9999999999999998 L -26 1.9999999999999998 L -26 -2.220446049250313e-16 L -24 -2.220446049250313e-16 L -24 1.9999999999999998 L -26 2 L -26 4 L -24 4 L -24 6 L -26 6 L -26 4 L -28 4 L -28 6 L -30 6 L -30 8 L -32 8 L -32 10 L -30 10 L -30 12 L -28 12 L -28 14 L -26 14 L -26 12 L -24 12 L -24 14 L -26 14 L -26 16 L -24 16 L -24 18 L -22 18 L -22 20 L -20 20 L -20 18 L -18 18 L -18 20 L -20 20 L -20 22 L -18 22 L -18 24 L -16 24 L -16 26 L -14 26 L -14 24 L -12 24 L -12 22 L -10 22 L -10 20 L -12 20 L -12 18 L -10 18 L -10 20 L -8 20 L -8 18 L -6 18 L -6 16 L -4 16 L -4 14 L -6 14 L -6 12 L -4 12 L -4 14 L -2 14 L -1.9999999999999998 12 L 2.220446049250313e-16 12 L 3.4450928483976665e-16 10 L 2.0000000000000004 10 L 2.0000000000000004 8 L 4.440892098500626e-16 8 L 5.66553889764798e-16 6 L -1.9999999999999993 6 L -1.9999999999999991 4 L -3.999999999999999 3.9999999999999996 L -3.9999999999999996 6 L -6 6 L -6 4 L -4 4 L -4 2 L -6 1.9999999999999998 L -6 -2.220446049250313e-16 L -4 -2.220446049250313e-16 L -4 1.9999999999999998 L -2 1.9999999999999998 L -1.9999999999999998 -2.220446049250313e-16 L 2.220446049250313e-16 -2.220446049250313e-16 L 3.4450928483976665e-16 1.9999999999999998 L -1.9999999999999996 2 L -1.9999999999999993 4 L 6.661338147750939e-16 4 L 7.885984946898293e-16 6 L 2.000000000000001 6 L 2.000000000000001 8 L 4.000000000000001 8 L 4.000000000000001 6 L 6.000000000000001 6 L 6.000000000000001 4 L 8 4 L 8 2 L 6 1.9999999999999998 L 6 -2.220446049250313e-16 L 8 -2.220446049250313e-16 L 8 1.9999999999999998 L 10 1.9999999999999998 L 10 -2.220446049250313e-16" fill="#d99126" stroke="#c93" stroke-width="0.5" />
</svg>