<svg width="160" height="90" viewBox="-86.28378378378379 -25.87837837837838 167.56756756756758 94.25675675675676" xmlns="http://www.w3.org/2000/svg">
  <path d="M -20 6.38378239159465e-16 L -20.576441587903087 5.852709660483848 L -22.283614024661397 11.480502970952694 L -25.055911630923642 16.667106990588067 L -28.786796564403573 21.213203435596423 L -33.33289300941193 24.944088369076358 L -38.5194970290473 27.716385975338603 L -44.14729033951615 29.423558412096913 L -50 30 L -55.852709660483846 29.423558412096913 L -61.48050297095269 27.716385975338603 L -66.66710699058805 24.944088369076365 L -71.21320343559643 21.213203435596427 L -74.94408836907635 16.667106990588067 L -77.7163859753386 11.480502970952697 L -79.42355841209691 5.8527096604838595 L -80 4.312318636601525e-15 L -79.42355841209691 -5.85270966048385 L -77.71638597533861 -11.48050297095269 L -74.94408836907637 -16.66710699058806 L -71.21320343559643 -21.213203435596423 L -66.66710699058807 -24.944088369076358 L -61.48050297095271 -27.716385975338596 L -55.85270966048386 -29.42355841209691 L -50.00000000000001 -30 L -44.147290339516154 -29.423558412096913 L -38.5194970290473 -27.7163859753386 L -33.33289300941195 -24.944088369076365 L -28.78679656440358 -21.21320343559643 L -25.055911630923642 -16.667106990588067 L -22.283614024661404 -11.480502970952712 L -20.57644158790309 -5.85270966048386 Z" fill="#d99126" stroke="#d99126" stroke-width="1" />
  <path d="M 25 -25 L 75 -25 L 75 25 L 25 25 Z" fill="#d9ca26" stroke="#d9ca26" stroke-width="1" />
  <path d="M 21.65063509461097 72.49999999999999 L 9.386895524674413e-16 85 L -21.650635094610962 72.5 L -21.65063509461097 47.5 L -5.184544443269325e-15 34.99999999999999 L 21.65063509461097 47.5 Z" fill="#aed926" stroke="#aed926" stroke-width="1" />
</svg>