<svg width="160" height="90" viewBox="-284.97297297297314 -277.2972972972988 985.9459459459513 554.5945945945977" xmlns="http://www.w3.org/2000/svg">
  <path d="M 200 -1.6084356069256955e-14 L 196.1570560806461 39.01806440322563 L 184.77590650225736 76.53668647301794 L 166.29392246050907 111.11404660392041 L 141.4213562373095 141.42135623730948 L 111.11404660392046 166.29392246050907 L 76.53668647301797 184.77590650225736 L 39.01806440322567 196.1570560806461 L 1.541060361165523e-14 200 L -39.01806440322564 196.1570560806461 L -76.53668647301794 184.77590650225736 L -111.1140466039204 166.2939224605091 L -141.42135623730948 141.42135623730948 L -166.29392246050907 111.11404660392041 L -184.77590650225736 76.53668647301797 L -196.1570560806461 39.01806440322571 L -200 8.408579913690109e-15 L -196.1570560806461 -39.018064403225694 L -184.77590650225736 -76.53668647301795 L -166.2939224605091 -111.11404660392041 L -141.42135623730954 -141.4213562373095 L -111.11404660392043 -166.29392246050907 L -76.53668647301807 -184.77590650225727 L -39.01806440322573 -196.15705608064604 L -3.35752683542389e-14 -200 L 39.018064403225665 -196.1570560806461 L 76.53668647301801 -184.77590650225733 L 111.11404660392037 -166.2939224605091 L 141.42135623730948 -141.42135623730957 L 166.29392246050907 -111.11404660392046 L 184.77590650225727 -76.53668647301811 L 196.15705608064604 -39.018064403225765 Z" fill="#d99126" stroke="#d99126" stroke-width="1" />
  <path d="M 175.99999999999994 -1.1851630787873546e-14 L 173.11779206048456 29.263548302419224 L 164.58192987669295 57.40251485476345 L 150.7204418453818 83.33553495294031 L 132.06601717798208 106.0660171779821 L 109.3355349529403 124.72044184538179 L 83.40251485476344 138.581929876693 L 55.263548302419196 147.11779206048456 L 25.99999999999995 150 L -3.2635483024192986 147.11779206048456 L -31.402514854763492 138.581929876693 L -57.33553495294035 124.72044184538181 L -80.06601717798219 106.06601717798212 L -98.72044184538184 83.33553495294031 L -112.58192987669307 57.40251485476347 L -121.11779206048462 29.263548302419277 L -124.00000000000006 6.518071199336753e-15 L -121.11779206048462 -29.26354830241927 L -112.58192987669307 -57.40251485476346 L -98.7204418453819 -83.33553495294031 L -80.06601717798219 -106.06601717798213 L -57.33553495294035 -124.72044184538179 L -31.4025148547636 -138.58192987669295 L -3.263548302419352 -147.11779206048453 L 25.999999999999897 -150 L 55.263548302419196 -147.11779206048456 L 83.40251485476344 -138.58192987669298 L 109.33553495294025 -124.72044184538181 L 132.06601717798208 -106.06601717798218 L 150.7204418453818 -83.33553495294034 L 164.58192987669287 -57.402514854763574 L 173.11779206048445 -29.263548302419323 Z" fill="#d9ca26" stroke="#d9ca26" stroke-width="1" />
  <path d="M 352 -2.4549806632023774e-14 L 346.23558412096924 58.52709660483845 L 329.163859753386 114.8050297095269 L 301.4408836907637 166.67106990588061 L 264.13203435596427 212.1320343559642 L 218.6710699058806 249.44088369076357 L 166.805029709527 277.163859753386 L 110.52709660483839 294.2355841209691 L 52 300 L -6.527096604838391 294.2355841209691 L -62.80502970952699 277.163859753386 L -114.67106990588059 249.44088369076363 L -160.13203435596427 212.13203435596424 L -197.44088369076368 166.67106990588061 L -225.16385975338602 114.80502970952693 L -242.23558412096924 58.527096604838555 L -248 1.2189597342396824e-14 L -242.23558412096924 -58.52709660483854 L -225.16385975338602 -114.80502970952692 L -197.44088369076368 -166.67106990588061 L -160.13203435596427 -212.13203435596427 L -114.67106990588059 -249.44088369076357 L -62.80502970952699 -277.1638597533859 L -6.527096604838604 -294.23558412096907 L 52 -300 L 110.52709660483839 -294.2355841209691 L 166.805029709527 -277.16385975338596 L 218.6710699058806 -249.44088369076363 L 264.13203435596427 -212.13203435596435 L 301.4408836907637 -166.67106990588067 L 329.16385975338585 -114.80502970952715 L 346.235584120969 -58.52709660483865 Z" fill="#aed926" stroke="#aed926" stroke-width="1" />
  <path d="M 278.00000000000057 -1.6084356069256955e-14 L 274.1570560806467 39.01806440322563 L 262.77590650225807 76.53668647301794 L 244.29392246050966 111.11404660392041 L 219.42135623731005 141.42135623730948 L 189.11404660392108 166.29392246050907 L 154.53668647301853 184.77590650225736 L 117.01806440322613 196.1570560806461 L 78.00000000000054 200 L 38.981935596774946 196.1570560806461 L 1.463313526982546 184.77590650225736 L -33.11404660392 166.2939224605091 L -63.42135623730897 141.42135623730948 L -88.29392246050858 111.11404660392041 L -106.77590650225696 76.53668647301797 L -118.15705608064562 39.01806440322571 L -121.99999999999946 8.408579913690109e-15 L -118.15705608064562 -39.018064403225694 L -106.77590650225696 -76.53668647301795 L -88.29392246050858 -111.11404660392041 L -63.42135623730897 -141.4213562373095 L -33.11404660392 -166.29392246050907 L 1.463313526982546 -184.77590650225727 L 38.981935596774946 -196.15705608064604 L 78.00000000000054 -200 L 117.01806440322613 -196.1570560806461 L 154.53668647301853 -184.77590650225733 L 189.1140466039208 -166.2939224605091 L 219.42135623731005 -141.42135623730957 L 244.29392246050966 -111.11404660392046 L 262.7759065022577 -76.53668647301811 L 274.1570560806467 -39.018064403225765 Z" fill="#75d926" stroke="#75d926" stroke-width="1" />
  <path d="M 254.00000000000023 -1.1851630787873546e-14 L 251.11779206048482 29.263548302419224 L 242.58192987669332 57.40251485476345 L 228.72044184538203 83.33553495294031 L 210.06601717798233 106.0660171779821 L 187.3355349529406 124.72044184538179 L 161.4025148547637 138.581929876693 L 133.2635483024194 147.11779206048456 L 104.0000000000002 150 L 74.736451697581 147.11779206048456 L 46.5974851452367 138.581929876693 L 20.664465047059792 124.72044184538181 L -2.0660171779819336 106.06601717798212 L -20.720441845381643 83.33553495294031 L -34.58192987669294 57.40251485476347 L -43.11779206048443 29.263548302419277 L -45.99999999999979 6.518071199336753e-15 L -43.11779206048443 -29.26354830241927 L -34.58192987669294 -57.40251485476346 L -20.720441845381643 -83.33553495294031 L -2.0660171779819336 -106.06601717798213 L 20.664465047059792 -124.72044184538179 L 46.5974851452367 -138.58192987669295 L 74.736451697581 -147.11779206048453 L 104.0000000000002 -150 L 133.2635483024194 -147.11779206048456 L 161.4025148547637 -138.58192987669298 L 187.3355349529404 -124.72044184538181 L 210.06601717798233 -106.06601717798218 L 228.72044184538203 -83.33553495294034 L 242.5819298766931 -57.402514854763574 L 251.11779206048482 -29.263548302419323 Z" fill="#3cd926" stroke="#3cd926" stroke-width="1" />
  <path d="M 430 -2.4549806632023774e-14 L 424.23558412096924 58.52709660483845 L 407.16385975338625 114.8050297095269 L 379.44088369076326 166.67106990588061 L 342.13203435596427 212.1320343559642 L 296.6710699058808 249.44088369076357 L 244.805029709527 277.163859753386 L 188.5270966048384 294.2355841209691 L 130 300 L 71.47290339516161 294.2355841209691 L 15.194970290473009 277.163859753386 L -36.67106990588081 249.44088369076363 L -82.13203435596427 212.13203435596424 L -119.44088369076368 166.67106990588061 L -147.16385975338625 114.80502970952693 L -164.23558412096924 58.527096604838555 L -170 1.2189597342396824e-14 L -164.23558412096924 -58.52709660483854 L -147.16385975338625 -114.80502970952692 L -119.44088369076368 -166.67106990588061 L -82.13203435596427 -212.13203435596427 L -36.67106990588081 -249.44088369076357 L 15.194970290473009 -277.1638597533859 L 71.47290339516161 -294.23558412096907 L 130 -300 L 188.5270966048384 -294.2355841209691 L 244.805029709527 -277.16385975338596 L 296.6710699058808 -249.44088369076363 L 342.13203435596427 -212.13203435596435 L 379.44088369076326 -166.67106990588067 L 407.16385975338625 -114.80502970952715 L 424.23558412096924 -58.52709660483865 Z" fill="#26d94a" stroke="#26d94a" stroke-width="1" />
  <path d="M 355.99999999999943 -1.6084356069256955e-14 L 352.1570560806456 39.01806440322563 L 340.77590650225693 76.53668647301794 L 322.29392246050827 111.11404660392041 L 297.42135623730894 141.42135623730948 L 267.11404660392 166.29392246050907 L 232.53668647301745 184.77590650225736 L 195.01806440322505 196.1570560806461 L 155.99999999999946 200 L 116.98193559677387 196.1570560806461 L 79.46331352698147 184.77590650225736 L 44.88595339607892 166.2939224605091 L 14.57864376268995 141.42135623730948 L -10.293922460509378 111.11404660392041 L -28.77590650225804 76.53668647301797 L -40.1570560806467 39.01806440322571 L -44.00000000000054 8.408579913690109e-15 L -40.1570560806467 -39.018064403225694 L -28.77590650225804 -76.53668647301795 L -10.293922460509378 -111.11404660392041 L 14.57864376268995 -141.4213562373095 L 44.88595339607892 -166.29392246050907 L 79.46331352698147 -184.77590650225727 L 116.98193559677387 -196.15705608064604 L 155.99999999999946 -200 L 195.01806440322505 -196.1570560806461 L 232.53668647301745 -184.77590650225733 L 267.11404660392 -166.2939224605091 L 297.42135623730894 -141.42135623730957 L 322.29392246050827 -111.11404660392046 L 340.77590650225693 -76.53668647301811 L 352.1570560806456 -39.018064403225765 Z" fill="#26d983" stroke="#26d983" stroke-width="1" />
  <path d="M 331.9999999999996 -1.1851630787873546e-14 L 329.11779206048425 29.263548302419224 L 320.5819298766927 57.40251485476345 L 306.72044184538123 83.33553495294031 L 288.06601717798173 106.0660171779821 L 265.33553495294 124.72044184538179 L 239.4025148547631 138.581929876693 L 211.2635483024188 147.11779206048456 L 181.9999999999996 150 L 152.7364516975804 147.11779206048456 L 124.5974851452361 138.581929876693 L 98.6644650470592 124.72044184538181 L 75.93398282201747 106.06601717798212 L 57.27955815461797 83.33553495294031 L 43.41807012330648 57.40251485476347 L 34.882207939514984 29.263548302419277 L 31.999999999999602 6.518071199336753e-15 L 34.882207939514984 -29.26354830241927 L 43.41807012330648 -57.40251485476346 L 57.27955815461797 -83.33553495294031 L 75.93398282201747 -106.06601717798213 L 98.6644650470592 -124.72044184538179 L 124.5974851452361 -138.58192987669295 L 152.7364516975804 -147.11779206048453 L 181.9999999999996 -150 L 211.2635483024188 -147.11779206048456 L 239.4025148547631 -138.58192987669298 L 265.33553495294 -124.72044184538181 L 288.06601717798173 -106.06601717798218 L 306.72044184538123 -83.33553495294034 L 320.5819298766927 -57.402514854763574 L 329.11779206048425 -29.263548302419323 Z" fill="#26d9bc" stroke="#26d9bc" stroke-width="1" />
  <path d="M 508.0000000000008 -2.4549806632023774e-14 L 502.2355841209701 58.52709660483845 L 485.1638597533871 114.8050297095269 L 457.44088369076405 166.67106990588061 L 420.13203435596506 212.1320343559642 L 374.6710699058816 249.44088369076357 L 322.80502970952784 277.163859753386 L 266.52709660483924 294.2355841209691 L 208.00000000000082 300 L 149.47290339516243 294.2355841209691 L 93.19497029047383 277.163859753386 L 41.32893009412001 249.44088369076363 L -4.132034355963441 212.13203435596424 L -41.44088369076243 166.67106990588061 L -69.16385975338542 114.80502970952693 L -86.23558412096841 58.527096604838555 L -91.99999999999918 1.2189597342396824e-14 L -86.23558412096841 -58.52709660483854 L -69.16385975338542 -114.80502970952692 L -41.44088369076243 -166.67106990588061 L -4.132034355963441 -212.13203435596427 L 41.32893009412001 -249.44088369076357 L 93.19497029047383 -277.1638597533859 L 149.47290339516243 -294.23558412096907 L 208.00000000000082 -300 L 266.52709660483924 -294.2355841209691 L 322.80502970952784 -277.16385975338596 L 374.6710699058816 -249.44088369076363 L 420.13203435596506 -212.13203435596435 L 457.44088369076405 -166.67106990588067 L 485.1638597533871 -114.80502970952715 L 502.2355841209701 -58.52709660483865 Z" fill="#26bcd9" stroke="#26bcd9" stroke-width="1" />
  <path d="M 434.00000000000057 -1.6084356069256955e-14 L 430.1570560806467 39.01806440322563 L 418.77590650225807 76.53668647301794 L 400.2939224605094 111.11404660392041 L 375.4213562373101 141.42135623730948 L 345.1140466039211 166.29392246050907 L 310.53668647301856 184.77590650225736 L 273.01806440322616 196.1570560806461 L 234.00000000000054 200 L 194.98193559677495 196.1570560806461 L 157.46331352698255 184.77590650225736 L 122.88595339608 166.2939224605091 L 92.57864376269103 141.42135623730948 L 67.7060775394917 111.11404660392041 L 49.22409349774304 76.53668647301797 L 37.84294391935438 39.01806440322571 L 34.00000000000054 8.408579913690109e-15 L 37.84294391935438 -39.018064403225694 L 49.22409349774304 -76.53668647301795 L 67.7060775394917 -111.11404660392041 L 92.57864376269103 -141.4213562373095 L 122.88595339608 -166.29392246050907 L 157.46331352698255 -184.77590650225727 L 194.98193559677495 -196.15705608064604 L 234.00000000000054 -200 L 273.01806440322616 -196.1570560806461 L 310.53668647301856 -184.77590650225733 L 345.1140466039211 -166.2939224605091 L 375.4213562373101 -141.42135623730957 L 400.2939224605094 -111.11404660392046 L 418.77590650225807 -76.53668647301811 L 430.1570560806467 -39.018064403225765 Z" fill="#2683d9" stroke="#2683d9" stroke-width="1" />
  <path d="M 410.0000000000008 -1.1851630787873546e-14 L 407.117792060485 29.263548302419224 L 398.5819298766935 57.40251485476345 L 384.7204418453824 83.33553495294031 L 366.0660171779829 106.0660171779821 L 343.3355349529412 124.72044184538179 L 317.40251485476387 138.581929876693 L 289.2635483024204 147.11779206048456 L 260.0000000000008 150 L 230.73645169758117 147.11779206048456 L 202.59748514523773 138.581929876693 L 176.6644650470604 124.72044184538181 L 153.93398282201866 106.06601717798212 L 135.27955815461917 83.33553495294031 L 121.41807012330767 57.40251485476347 L 112.88220793951618 29.263548302419277 L 110.0000000000008 6.518071199336753e-15 L 112.88220793951618 -29.26354830241927 L 121.41807012330767 -57.40251485476346 L 135.27955815461917 -83.33553495294031 L 153.93398282201866 -106.06601717798213 L 176.6644650470604 -124.72044184538179 L 202.59748514523687 -138.58192987669295 L 230.73645169758117 -147.11779206048453 L 260.0000000000008 -150 L 289.2635483024204 -147.11779206048456 L 317.4025148547647 -138.58192987669298 L 343.3355349529412 -124.72044184538181 L 366.0660171779829 -106.06601717798218 L 384.7204418453824 -83.33553495294034 L 398.5819298766935 -57.402514854763574 L 407.117792060485 -29.263548302419323 Z" fill="#264ad9" stroke="#264ad9" stroke-width="1" />
  <path d="M 586.0000000000016 -2.4549806632023774e-14 L 580.2355841209701 58.52709660483845 L 563.163859753387 114.8050297095269 L 535.4408836907648 166.67106990588061 L 498.1320343559659 212.1320343559642 L 452.67106990588246 249.44088369076357 L 400.8050297095278 277.163859753386 L 344.5270966048409 294.2355841209691 L 286.00000000000165 300 L 227.4729033951624 294.2355841209691 L 171.1949702904755 277.163859753386 L 119.32893009412084 249.44088369076363 L 73.86796564403738 212.13203435596424 L 36.55911630923839 166.67106990588061 L 8.836140246616253 114.80502970952693 L -8.235584120966735 58.527096604838555 L -13.999999999998352 1.2189597342396824e-14 L -8.235584120966735 -58.52709660483854 L 8.836140246616253 -114.80502970952692 L 36.55911630923839 -166.67106990588061 L 73.86796564403738 -212.13203435596427 L 119.32893009412084 -249.44088369076357 L 171.1949702904738 -277.1638597533859 L 227.4729033951624 -294.23558412096907 L 286.00000000000165 -300 L 344.5270966048409 -294.2355841209691 L 400.8050297095295 -277.16385975338596 L 452.67106990588246 -249.44088369076363 L 498.1320343559659 -212.13203435596435 L 535.4408836907648 -166.67106990588067 L 563.163859753387 -114.80502970952715 L 580.2355841209701 -58.52709660483865 Z" fill="#3c26d9" stroke="#3c26d9" stroke-width="1" />
  <path d="M 512.0000000000022 -1.6084356069256955e-14 L 508.15705608064775 39.01806440322563 L 496.7759065022591 76.53668647301794 L 478.293922460511 111.11404660392041 L 453.42135623731167 141.42135623730948 L 423.1140466039227 166.29392246050907 L 388.5366864730196 184.77590650225736 L 351.0180644032283 196.1570560806461 L 312.00000000000216 200 L 272.981935596776 196.1570560806461 L 235.46331352698473 184.77590650225736 L 200.88595339608162 166.2939224605091 L 170.57864376269265 141.42135623730948 L 145.70607753949332 111.11404660392041 L 127.22409349774523 76.53668647301797 L 115.84294391935657 39.01806440322571 L 112.00000000000216 8.408579913690109e-15 L 115.84294391935657 -39.018064403225694 L 127.22409349774523 -76.53668647301795 L 145.70607753949332 -111.11404660392041 L 170.57864376269265 -141.4213562373095 L 200.88595339608162 -166.29392246050907 L 235.4633135269836 -184.77590650225727 L 272.981935596776 -196.15705608064604 L 312.00000000000216 -200 L 351.0180644032283 -196.1570560806461 L 388.5366864730207 -184.77590650225733 L 423.1140466039227 -166.2939224605091 L 453.42135623731167 -141.42135623730957 L 478.293922460511 -111.11404660392046 L 496.7759065022591 -76.53668647301811 L 508.15705608064775 -39.018064403225765 Z" fill="#7526d9" stroke="#7526d9" stroke-width="1" />
  <path d="M 488.0000000000024 -1.1851630787873546e-14 L 485.1177920604866 29.263548302419224 L 476.5819298766951 57.40251485476345 L 462.720441845384 83.33553495294031 L 444.0660171779845 106.0660171779821 L 421.3355349529428 124.72044184538179 L 395.40251485476546 138.581929876693 L 367.263548302422 147.11779206048456 L 338.0000000000024 150 L 308.73645169758277 147.11779206048456 L 280.5974851452393 138.581929876693 L 254.66446504706198 124.72044184538181 L 231.93398282202025 106.06601717798212 L 213.27955815462076 83.33553495294031 L 199.4180701233097 57.40251485476347 L 190.8822079395182 29.263548302419277 L 188.0000000000024 6.518071199336753e-15 L 190.8822079395182 -29.26354830241927 L 199.4180701233097 -57.40251485476346 L 213.27955815462076 -83.33553495294031 L 231.93398282202025 -106.06601717798213 L 254.66446504706198 -124.72044184538179 L 280.59748514523847 -138.58192987669295 L 308.73645169758277 -147.11779206048453 L 338.0000000000024 -150 L 367.263548302422 -147.11779206048456 L 395.4025148547663 -138.58192987669298 L 421.3355349529428 -124.72044184538181 L 444.0660171779845 -106.06601717798218 L 462.720441845384 -83.33553495294034 L 476.5819298766951 -57.402514854763574 L 485.1177920604866 -29.263548302419323 Z" fill="#ae26d9" stroke="#ae26d9" stroke-width="1" />
  <path d="M 664.000000000005 -2.4549806632023774e-14 L 658.2355841209733 58.52709660483845 L 641.1638597533904 114.8050297095269 L 613.4408836907683 166.67106990588061 L 576.1320343559692 212.1320343559642 L 530.6710699058858 249.44088369076357 L 478.8050297095311 277.163859753386 L 422.5270966048442 294.2355841209691 L 364.00000000000495 300 L 305.4729033951657 294.2355841209691 L 249.1949702904788 277.163859753386 L 197.32893009412413 249.44088369076363 L 151.86796564404068 212.13203435596424 L 114.55911630924169 166.67106990588061 L 86.83614024661955 114.80502970952693 L 69.76441587903656 58.527096604838555 L 64.00000000000495 1.2189597342396824e-14 L 69.76441587903656 -58.52709660483854 L 86.83614024661955 -114.80502970952692 L 114.55911630924169 -166.67106990588061 L 151.86796564404068 -212.13203435596427 L 197.32893009412413 -249.44088369076357 L 249.1949702904771 -277.1638597533859 L 305.4729033951657 -294.23558412096907 L 364.00000000000495 -300 L 422.5270966048442 -294.2355841209691 L 478.8050297095328 -277.16385975338596 L 530.6710699058858 -249.44088369076363 L 576.1320343559692 -212.13203435596435 L 613.4408836907683 -166.67106990588067 L 641.1638597533904 -114.80502970952715 L 658.2355841209733 -58.52709660483865 Z" fill="#d926ca" stroke="#d926ca" stroke-width="1" />
  <path d="M 200 -1.6084356069256955e-14 L 196.1570560806461 39.01806440322563 L 184.77590650225736 76.53668647301794 L 166.29392246050907 111.11404660392041 L 141.4213562373095 141.42135623730948 L 111.11404660392046 166.29392246050907 L 76.53668647301797 184.77590650225736 L 39.01806440322567 196.1570560806461 L 1.541060361165523e-14 200 L -39.01806440322564 196.1570560806461 L -76.53668647301794 184.77590650225736 L -111.1140466039204 166.2939224605091 L -141.42135623730948 141.42135623730948 L -166.29392246050907 111.11404660392041 L -184.77590650225736 76.53668647301797 L -196.1570560806461 39.01806440322571 L -200 8.408579913690109e-15 L -196.1570560806461 -39.018064403225694 L -184.77590650225736 -76.53668647301795 L -166.2939224605091 -111.11404660392041 L -141.42135623730954 -141.4213562373095 L -111.11404660392043 -166.29392246050907 L -76.53668647301807 -184.77590650225727 L -39.01806440322573 -196.15705608064604 L -3.35752683542389e-14 -200 L 39.018064403225665 -196.1570560806461 L 76.53668647301801 -184.77590650225733 L 111.11404660392037 -166.2939224605091 L 141.42135623730948 -141.42135623730957 L 166.29392246050907 -111.11404660392046 L 184.77590650225727 -76.53668647301811 L 196.15705608064604 -39.018064403225765 Z" fill="#d92691" stroke="#d92691" stroke-width="1" />
  <path d="M 175.99999999999994 -1.1851630787873546e-14 L 173.11779206048456 29.263548302419224 L 164.58192987669295 57.40251485476345 L 150.7204418453818 83.33553495294031 L 132.06601717798208 106.0660171779821 L 109.3355349529403 124.72044184538179 L 83.40251485476344 138.581929876693 L 55.263548302419196 147.11779206048456 L 25.99999999999995 150 L -3.2635483024192986 147.11779206048456 L -31.402514854763492 138.581929876693 L -57.33553495294035 124.72044184538181 L -80.06601717798219 106.06601717798212 L -98.72044184538184 83.33553495294031 L -112.58192987669307 57.40251485476347 L -121.11779206048462 29.263548302419277 L -124.00000000000006 6.518071199336753e-15 L -121.11779206048462 -29.26354830241927 L -112.58192987669307 -57.40251485476346 L -98.7204418453819 -83.33553495294031 L -80.06601717798219 -106.06601717798213 L -57.33553495294035 -124.72044184538179 L -31.4025148547636 -138.58192987669295 L -3.263548302419352 -147.11779206048453 L 25.999999999999897 -150 L 55.263548302419196 -147.11779206048456 L 83.40251485476344 -138.58192987669298 L 109.33553495294025 -124.72044184538181 L 132.06601717798208 -106.06601717798218 L 150.7204418453818 -83.33553495294034 L 164.58192987669287 -57.402514854763574 L 173.11779206048445 -29.263548302419323 Z" fill="#d99126" stroke="#d99126" stroke-width="1" />
  <path d="M 352 -2.4549806632023774e-14 L 346.23558412096924 58.52709660483845 L 329.163859753386 114.8050297095269 L 301.4408836907637 166.67106990588061 L 264.13203435596427 212.1320343559642 L 218.6710699058806 249.44088369076357 L 166.805029709527 277.163859753386 L 110.52709660483839 294.2355841209691 L 52 300 L -6.527096604838391 294.2355841209691 L -62.80502970952699 277.163859753386 L -114.67106990588059 249.44088369076363 L -160.13203435596427 212.13203435596424 L -197.44088369076368 166.67106990588061 L -225.16385975338602 114.80502970952693 L -242.23558412096924 58.527096604838555 L -248 1.2189597342396824e-14 L -242.23558412096924 -58.52709660483854 L -225.16385975338602 -114.80502970952692 L -197.44088369076368 -166.67106990588061 L -160.13203435596427 -212.13203435596427 L -114.67106990588059 -249.44088369076357 L -62.80502970952699 -277.1638597533859 L -6.527096604838604 -294.23558412096907 L 52 -300 L 110.52709660483839 -294.2355841209691 L 166.805029709527 -277.16385975338596 L 218.6710699058806 -249.44088369076363 L 264.13203435596427 -212.13203435596435 L 301.4408836907637 -166.67106990588067 L 329.16385975338585 -114.80502970952715 L 346.235584120969 -58.52709660483865 Z" fill="#d9ca26" stroke="#d9ca26" stroke-width="1" />
  <path d="M 278.00000000000057 -1.6084356069256955e-14 L 274.1570560806467 39.01806440322563 L 262.77590650225807 76.53668647301794 L 244.29392246050966 111.11404660392041 L 219.42135623731005 141.42135623730948 L 189.11404660392108 166.29392246050907 L 154.53668647301853 184.77590650225736 L 117.01806440322613 196.1570560806461 L 78.00000000000054 200 L 38.981935596774946 196.1570560806461 L 1.463313526982546 184.77590650225736 L -33.11404660392 166.2939224605091 L -63.42135623730897 141.42135623730948 L -88.29392246050858 111.11404660392041 L -106.77590650225696 76.53668647301797 L -118.15705608064562 39.01806440322571 L -121.99999999999946 8.408579913690109e-15 L -118.15705608064562 -39.018064403225694 L -106.77590650225696 -76.53668647301795 L -88.29392246050858 -111.11404660392041 L -63.42135623730897 -141.4213562373095 L -33.11404660392 -166.29392246050907 L 1.463313526982546 -184.77590650225727 L 38.981935596774946 -196.15705608064604 L 78.00000000000054 -200 L 117.01806440322613 -196.1570560806461 L 154.53668647301853 -184.77590650225733 L 189.1140466039208 -166.2939224605091 L 219.42135623731005 -141.42135623730957 L 244.29392246050966 -111.11404660392046 L 262.7759065022577 -76.53668647301811 L 274.1570560806467 -39.018064403225765 Z" fill="#aed926" stroke="#aed926" stroke-width="1" />
  <path d="M 254.00000000000023 -1.1851630787873546e-14 L 251.11779206048482 29.263548302419224 L 242.58192987669332 57.40251485476345 L 228.72044184538203 83.33553495294031 L 210.06601717798233 106.0660171779821 L 187.3355349529406 124.72044184538179 L 161.4025148547637 138.581929876693 L 133.2635483024194 147.11779206048456 L 104.0000000000002 150 L 74.736451697581 147.11779206048456 L 46.5974851452367 138.581929876693 L 20.664465047059792 124.72044184538181 L -2.0660171779819336 106.06601717798212 L -20.720441845381643 83.33553495294031 L -34.58192987669294 57.40251485476347 L -43.11779206048443 29.263548302419277 L -45.99999999999979 6.518071199336753e-15 L -43.11779206048443 -29.26354830241927 L -34.58192987669294 -57.40251485476346 L -20.720441845381643 -83.33553495294031 L -2.0660171779819336 -106.06601717798213 L 20.664465047059792 -124.72044184538179 L 46.5974851452367 -138.58192987669295 L 74.736451697581 -147.11779206048453 L 104.0000000000002 -150 L 133.2635483024194 -147.11779206048456 L 161.4025148547637 -138.58192987669298 L 187.3355349529404 -124.72044184538181 L 210.06601717798233 -106.06601717798218 L 228.72044184538203 -83.33553495294034 L 242.5819298766931 -57.402514854763574 L 251.11779206048482 -29.263548302419323 Z" fill="#75d926" stroke="#75d926" stroke-width="1" />
  <path d="M 430 -2.4549806632023774e-14 L 424.23558412096924 58.52709660483845 L 407.16385975338625 114.8050297095269 L 379.44088369076326 166.67106990588061 L 342.13203435596427 212.1320343559642 L 296.6710699058808 249.44088369076357 L 244.805029709527 277.163859753386 L 188.5270966048384 294.2355841209691 L 130 300 L 71.47290339516161 294.2355841209691 L 15.194970290473009 277.163859753386 L -36.67106990588081 249.44088369076363 L -82.13203435596427 212.13203435596424 L -119.44088369076368 166.67106990588061 L -147.16385975338625 114.80502970952693 L -164.23558412096924 58.527096604838555 L -170 1.2189597342396824e-14 L -164.23558412096924 -58.52709660483854 L -147.16385975338625 -114.80502970952692 L -119.44088369076368 -166.67106990588061 L -82.13203435596427 -212.13203435596427 L -36.67106990588081 -249.44088369076357 L 15.194970290473009 -277.1638597533859 L 71.47290339516161 -294.23558412096907 L 130 -300 L 188.5270966048384 -294.2355841209691 L 244.805029709527 -277.16385975338596 L 296.6710699058808 -249.44088369076363 L 342.13203435596427 -212.13203435596435 L 379.44088369076326 -166.67106990588067 L 407.16385975338625 -114.80502970952715 L 424.23558412096924 -58.52709660483865 Z" fill="#3cd926" stroke="#3cd926" stroke-width="1" />
  <path d="M 355.99999999999943 -1.6084356069256955e-14 L 352.1570560806456 39.01806440322563 L 340.77590650225693 76.53668647301794 L 322.29392246050827 111.11404660392041 L 297.42135623730894 141.42135623730948 L 267.11404660392 166.29392246050907 L 232.53668647301745 184.77590650225736 L 195.01806440322505 196.1570560806461 L 155.99999999999946 200 L 116.98193559677387 196.1570560806461 L 79.46331352698147 184.77590650225736 L 44.88595339607892 166.2939224605091 L 14.57864376268995 141.42135623730948 L -10.293922460509378 111.11404660392041 L -28.77590650225804 76.53668647301797 L -40.1570560806467 39.01806440322571 L -44.00000000000054 8.408579913690109e-15 L -40.1570560806467 -39.018064403225694 L -28.77590650225804 -76.53668647301795 L -10.293922460509378 -111.11404660392041 L 14.57864376268995 -141.4213562373095 L 44.88595339607892 -166.29392246050907 L 79.46331352698147 -184.77590650225727 L 116.98193559677387 -196.15705608064604 L 155.99999999999946 -200 L 195.01806440322505 -196.1570560806461 L 232.53668647301745 -184.77590650225733 L 267.11404660392 -166.2939224605091 L 297.42135623730894 -141.42135623730957 L 322.29392246050827 -111.11404660392046 L 340.77590650225693 -76.53668647301811 L 352.1570560806456 -39.018064403225765 Z" fill="#26d94a" stroke="#26d94a" stroke-width="1" />
  <path d="M 331.9999999999996 -1.1851630787873546e-14 L 329.11779206048425 29.263548302419224 L 320.5819298766927 57.40251485476345 L 306.72044184538123 83.33553495294031 L 288.06601717798173 106.0660171779821 L 265.33553495294 124.72044184538179 L 239.4025148547631 138.581929876693 L 211.2635483024188 147.11779206048456 L 181.9999999999996 150 L 152.7364516975804 147.11779206048456 L 124.5974851452361 138.581929876693 L 98.6644650470592 124.72044184538181 L 75.93398282201747 106.06601717798212 L 57.27955815461797 83.33553495294031 L 43.41807012330648 57.40251485476347 L 34.882207939514984 29.263548302419277 L 31.999999999999602 6.518071199336753e-15 L 34.882207939514984 -29.26354830241927 L 43.41807012330648 -57.40251485476346 L 57.27955815461797 -83.33553495294031 L 75.93398282201747 -106.06601717798213 L 98.6644650470592 -124.72044184538179 L 124.5974851452361 -138.58192987669295 L 152.7364516975804 -147.11779206048453 L 181.9999999999996 -150 L 211.2635483024188 -147.11779206048456 L 239.4025148547631 -138.58192987669298 L 265.33553495294 -124.72044184538181 L 288.06601717798173 -106.06601717798218 L 306.72044184538123 -83.33553495294034 L 320.5819298766927 -57.402514854763574 L 329.11779206048425 -29.263548302419323 Z" fill="#26d983" stroke="#26d983" stroke-width="1" />
  <path d="M 508.0000000000008 -2.4549806632023774e-14 L 502.2355841209701 58.52709660483845 L 485.1638597533871 114.8050297095269 L 457.44088369076405 166.67106990588061 L 420.13203435596506 212.1320343559642 L 374.6710699058816 249.44088369076357 L 322.80502970952784 277.163859753386 L 266.52709660483924 294.2355841209691 L 208.00000000000082 300 L 149.47290339516243 294.2355841209691 L 93.19497029047383 277.163859753386 L 41.32893009412001 249.44088369076363 L -4.132034355963441 212.13203435596424 L -41.44088369076243 166.67106990588061 L -69.16385975338542 114.80502970952693 L -86.23558412096841 58.527096604838555 L -91.99999999999918 1.2189597342396824e-14 L -86.23558412096841 -58.52709660483854 L -69.16385975338542 -114.80502970952692 L -41.44088369076243 -166.67106990588061 L -4.132034355963441 -212.13203435596427 L 41.32893009412001 -249.44088369076357 L 93.19497029047383 -277.1638597533859 L 149.47290339516243 -294.23558412096907 L 208.00000000000082 -300 L 266.52709660483924 -294.2355841209691 L 322.80502970952784 -277.16385975338596 L 374.6710699058816 -249.44088369076363 L 420.13203435596506 -212.13203435596435 L 457.44088369076405 -166.67106990588067 L 485.1638597533871 -114.80502970952715 L 502.2355841209701 -58.52709660483865 Z" fill="#26d9bc" stroke="#26d9bc" stroke-width="1" />
  <path d="M 434.00000000000057 -1.6084356069256955e-14 L 430.1570560806467 39.01806440322563 L 418.77590650225807 76.53668647301794 L 400.2939224605094 111.11404660392041 L 375.4213562373101 141.42135623730948 L 345.1140466039211 166.29392246050907 L 310.53668647301856 184.77590650225736 L 273.01806440322616 196.1570560806461 L 234.00000000000054 200 L 194.98193559677495 196.1570560806461 L 157.46331352698255 184.77590650225736 L 122.88595339608 166.2939224605091 L 92.57864376269103 141.42135623730948 L 67.7060775394917 111.11404660392041 L 49.22409349774304 76.53668647301797 L 37.84294391935438 39.01806440322571 L 34.00000000000054 8.408579913690109e-15 L 37.84294391935438 -39.018064403225694 L 49.22409349774304 -76.53668647301795 L 67.7060775394917 -111.11404660392041 L 92.57864376269103 -141.4213562373095 L 122.88595339608 -166.29392246050907 L 157.46331352698255 -184.77590650225727 L 194.98193559677495 -196.15705608064604 L 234.00000000000054 -200 L 273.01806440322616 -196.1570560806461 L 310.53668647301856 -184.77590650225733 L 345.1140466039211 -166.2939224605091 L 375.4213562373101 -141.42135623730957 L 400.2939224605094 -111.11404660392046 L 418.77590650225807 -76.53668647301811 L 430.1570560806467 -39.018064403225765 Z" fill="#26bcd9" stroke="#26bcd9" stroke-width="1" />
  <path d="M 410.0000000000008 -1.1851630787873546e-14 L 407.117792060485 29.263548302419224 L 398.5819298766935 57.40251485476345 L 384.7204418453824 83.33553495294031 L 366.0660171779829 106.0660171779821 L 343.3355349529412 124.72044184538179 L 317.40251485476387 138.581929876693 L 289.2635483024204 147.11779206048456 L 260.0000000000008 150 L 230.73645169758117 147.11779206048456 L 202.59748514523773 138.581929876693 L 176.6644650470604 124.72044184538181 L 153.93398282201866 106.06601717798212 L 135.27955815461917 83.33553495294031 L 121.41807012330767 57.40251485476347 L 112.88220793951618 29.263548302419277 L 110.0000000000008 6.518071199336753e-15 L 112.88220793951618 -29.26354830241927 L 121.41807012330767 -57.40251485476346 L 135.27955815461917 -83.33553495294031 L 153.93398282201866 -106.06601717798213 L 176.6644650470604 -124.72044184538179 L 202.59748514523687 -138.58192987669295 L 230.73645169758117 -147.11779206048453 L 260.0000000000008 -150 L 289.2635483024204 -147.11779206048456 L 317.4025148547647 -138.58192987669298 L 343.3355349529412 -124.72044184538181 L 366.0660171779829 -106.06601717798218 L 384.7204418453824 -83.33553495294034 L 398.5819298766935 -57.402514854763574 L 407.117792060485 -29.263548302419323 Z" fill="#2683d9" stroke="#2683d9" stroke-width="1" />
  <path d="M 586.0000000000016 -2.4549806632023774e-14 L 580.2355841209701 58.52709660483845 L 563.163859753387 114.8050297095269 L 535.4408836907648 166.67106990588061 L 498.1320343559659 212.1320343559642 L 452.67106990588246 249.44088369076357 L 400.8050297095278 277.163859753386 L 344.5270966048409 294.2355841209691 L 286.00000000000165 300 L 227.4729033951624 294.2355841209691 L 171.1949702904755 277.163859753386 L 119.32893009412084 249.44088369076363 L 73.86796564403738 212.13203435596424 L 36.55911630923839 166.67106990588061 L 8.836140246616253 114.80502970952693 L -8.235584120966735 58.527096604838555 L -13.999999999998352 1.2189597342396824e-14 L -8.235584120966735 -58.52709660483854 L 8.836140246616253 -114.80502970952692 L 36.55911630923839 -166.67106990588061 L 73.86796564403738 -212.13203435596427 L 119.32893009412084 -249.44088369076357 L 171.1949702904738 -277.1638597533859 L 227.4729033951624 -294.23558412096907 L 286.00000000000165 -300 L 344.5270966048409 -294.2355841209691 L 400.8050297095295 -277.16385975338596 L 452.67106990588246 -249.44088369076363 L 498.1320343559659 -212.13203435596435 L 535.4408836907648 -166.67106990588067 L 563.163859753387 -114.80502970952715 L 580.2355841209701 -58.52709660483865 Z" fill="#264ad9" stroke="#264ad9" stroke-width="1" />
  <path d="M 512.0000000000022 -1.6084356069256955e-14 L 508.15705608064775 39.01806440322563 L 496.7759065022591 76.53668647301794 L 478.293922460511 111.11404660392041 L 453.42135623731167 141.42135623730948 L 423.1140466039227 166.29392246050907 L 388.5366864730196 184.77590650225736 L 351.0180644032283 196.1570560806461 L 312.00000000000216 200 L 272.981935596776 196.1570560806461 L 235.46331352698473 184.77590650225736 L 200.88595339608162 166.2939224605091 L 170.57864376269265 141.42135623730948 L 145.70607753949332 111.11404660392041 L 127.22409349774523 76.53668647301797 L 115.84294391935657 39.01806440322571 L 112.00000000000216 8.408579913690109e-15 L 115.84294391935657 -39.018064403225694 L 127.22409349774523 -76.53668647301795 L 145.70607753949332 -111.11404660392041 L 170.57864376269265 -141.4213562373095 L 200.88595339608162 -166.29392246050907 L 235.4633135269836 -184.77590650225727 L 272.981935596776 -196.15705608064604 L 312.00000000000216 -200 L 351.0180644032283 -196.1570560806461 L 388.5366864730207 -184.77590650225733 L 423.1140466039227 -166.2939224605091 L 453.42135623731167 -141.42135623730957 L 478.293922460511 -111.11404660392046 L 496.7759065022591 -76.53668647301811 L 508.15705608064775 -39.018064403225765 Z" fill="#3c26d9" stroke="#3c26d9" stroke-width="1" />
  <path d="M 488.0000000000024 -1.1851630787873546e-14 L 485.1177920604866 29.263548302419224 L 476.5819298766951 57.40251485476345 L 462.720441845384 83.33553495294031 L 444.0660171779845 106.0660171779821 L 421.3355349529428 124.72044184538179 L 395.40251485476546 138.581929876693 L 367.263548302422 147.11779206048456 L 338.0000000000024 150 L 308.73645169758277 147.11779206048456 L 280.5974851452393 138.581929876693 L 254.66446504706198 124.72044184538181 L 231.93398282202025 106.06601717798212 L 213.27955815462076 83.33553495294031 L 199.4180701233097 57.40251485476347 L 190.8822079395182 29.263548302419277 L 188.0000000000024 6.518071199336753e-15 L 190.8822079395182 -29.26354830241927 L 199.4180701233097 -57.40251485476346 L 213.27955815462076 -83.33553495294031 L 231.93398282202025 -106.06601717798213 L 254.66446504706198 -124.72044184538179 L 280.59748514523847 -138.58192987669295 L 308.73645169758277 -147.11779206048453 L 338.0000000000024 -150 L 367.263548302422 -147.11779206048456 L 395.4025148547663 -138.58192987669298 L 421.3355349529428 -124.72044184538181 L 444.0660171779845 -106.06601717798218 L 462.720441845384 -83.33553495294034 L 476.5819298766951 -57.402514854763574 L 485.1177920604866 -29.263548302419323 Z" fill="#7526d9" stroke="#7526d9" stroke-width="1" />
  <path d="M 664.000000000005 -2.4549806632023774e-14 L 658.2355841209733 58.52709660483845 L 641.1638597533904 114.8050297095269 L 613.4408836907683 166.67106990588061 L 576.1320343559692 212.1320343559642 L 530.6710699058858 249.44088369076357 L 478.8050297095311 277.163859753386 L 422.5270966048442 294.2355841209691 L 364.00000000000495 300 L 305.4729033951657 294.2355841209691 L 249.1949702904788 277.163859753386 L 197.32893009412413 249.44088369076363 L 151.86796564404068 212.13203435596424 L 114.55911630924169 166.67106990588061 L 86.83614024661955 114.80502970952693 L 69.76441587903656 58.527096604838555 L 64.00000000000495 1.2189597342396824e-14 L 69.76441587903656 -58.52709660483854 L 86.83614024661955 -114.80502970952692 L 114.55911630924169 -166.67106990588061 L 151.86796564404068 -212.13203435596427 L 197.32893009412413 -249.44088369076357 L 249.1949702904771 -277.1638597533859 L 305.4729033951657 -294.23558412096907 L 364.00000000000495 -300 L 422.5270966048442 -294.2355841209691 L 478.8050297095328 -277.16385975338596 L 530.6710699058858 -249.44088369076363 L 576.1320343559692 -212.13203435596435 L 613.4408836907683 -166.67106990588067 L 641.1638597533904 -114.80502970952715 L 658.2355841209733 -58.52709660483865 Z" fill="#ae26d9" stroke="#ae26d9" stroke-width="1" />
</svg>