<svg width="160" height="90" viewBox="-57.622994799158846 -32.41293457452685 115.24598959831769 64.8258691490537" xmlns="http://www.w3.org/2000/svg">
  <path d="M 43.30127018922194 24.999999999999996 L 3.061616997868383e-15 50 L -43.301270189221924 25.000000000000018 L -43.30127018922194 -24.999999999999986 L -9.184850993605149e-15 -50 L 43.30127018922194 -24.999999999999982 Z" fill="#d99126" stroke="#d99126" stroke-width="1" />
  <path d="M 53.30127018922194 24.999999999999996 L 52.540065514334806 28.826834323650893 L 50.372338001087414 32.07106781186547 L 47.12810451287284 34.23879532511286 L 43.30127018922194 35 L 39.47443586557104 34.23879532511286 L 36.23020237735646 32.071067811865476 L 34.06247486410907 28.826834323650896 L 33.30127018922194 24.999999999999996 L 34.06247486410907 21.1731656763491 L 36.23020237735646 17.92893218813452 L 39.47443586557104 15.761204674887132 L 43.30127018922194 14.999999999999996 L 47.12810451287284 15.76120467488713 L 50.372338001087414 17.928932188134517 L 52.5400655143348 21.173165676349093 Z" fill="#d9ca26" stroke="#d9ca26" stroke-width="1" />
  <path d="M 10.000000000000004 50 L 9.238795325112871 53.8268343236509 L 7.071067811865478 57.071067811865476 L 3.8268343236509015 59.23879532511287 L 3.67394039744206e-15 60 L -3.826834323650894 59.23879532511287 L -7.071067811865472 57.071067811865476 L -9.238795325112864 53.8268343236509 L -9.999999999999996 50 L -9.238795325112864 46.1731656763491 L -7.071067811865475 42.928932188134524 L -3.8268343236509 40.76120467488714 L 1.2246467991473535e-15 40 L 3.8268343236509033 40.76120467488713 L 7.071067811865476 42.928932188134524 L 9.238795325112868 46.17316567634909 Z" fill="#aed926" stroke="#aed926" stroke-width="1" />
  <path d="M -33.301270189221924 25.000000000000018 L -34.062474864109056 28.826834323650914 L -36.23020237735645 32.07106781186549 L -39.474435865571024 34.23879532511289 L -43.301270189221924 35.000000000000014 L -47.128104512872824 34.23879532511289 L -50.3723380010874 32.07106781186549 L -52.54006551433479 28.826834323650917 L -53.301270189221924 25.000000000000018 L -52.54006551433479 21.17316567634912 L -50.3723380010874 17.928932188134542 L -47.128104512872824 15.761204674887153 L -43.301270189221924 15.000000000000018 L -39.474435865571024 15.761204674887152 L -36.23020237735645 17.92893218813454 L -34.06247486410906 21.173165676349115 Z" fill="#75d926" stroke="#75d926" stroke-width="1" />
  <path d="M -33.30127018922194 -24.999999999999986 L -34.06247486410907 -21.173165676349086 L -36.23020237735646 -17.92893218813451 L -39.47443586557104 -15.761204674887118 L -43.30127018922194 -14.999999999999986 L -47.12810451287284 -15.761204674887118 L -50.372338001087414 -17.92893218813451 L -52.540065514334806 -21.173165676349086 L -53.30127018922194 -24.999999999999986 L -52.540065514334806 -28.826834323650882 L -50.372338001087414 -32.07106781186546 L -47.12810451287284 -34.23879532511285 L -43.30127018922194 -34.999999999999986 L -39.47443586557104 -34.238795325112854 L -36.23020237735646 -32.07106781186546 L -34.06247486410908 -28.82683432365089 Z" fill="#3cd926" stroke="#3cd926" stroke-width="1" />
  <path d="M 9.999999999999991 -50 L 9.238795325112859 -46.1731656763491 L 7.071067811865467 -42.928932188134524 L 3.826834323650889 -40.76120467488713 L -8.572527594031471e-15 -40 L -3.8268343236509064 -40.76120467488713 L -7.0710678118654835 -42.928932188134524 L -9.238795325112877 -46.1731656763491 L -10.000000000000009 -50 L -9.238795325112877 -53.8268343236509 L -7.071067811865486 -57.071067811865476 L -3.8268343236509126 -59.23879532511286 L -1.1021821192326179e-14 -60 L 3.826834323650891 -59.23879532511287 L 7.071067811865465 -57.071067811865476 L 9.238795325112855 -53.82683432365091 Z" fill="#26d94a" stroke="#26d94a" stroke-width="1" />
  <path d="M 53.30127018922194 -24.999999999999982 L 52.540065514334806 -21.173165676349086 L 50.372338001087414 -17.928932188134507 L 47.12810451287284 -15.761204674887114 L 43.30127018922194 -14.999999999999982 L 39.47443586557104 -15.761204674887114 L 36.23020237735646 -17.928932188134507 L 34.06247486410907 -21.173165676349083 L 33.30127018922194 -24.999999999999982 L 34.06247486410907 -28.82683432365088 L 36.23020237735646 -32.071067811865454 L 39.47443586557104 -34.23879532511285 L 43.30127018922194 -34.999999999999986 L 47.12810451287284 -34.23879532511285 L 50.372338001087414 -32.07106781186546 L 52.5400655143348 -28.826834323650885 Z" fill="#26d983" stroke="#26d983" stroke-width="1" />
</svg>