<svg width="160" height="90" viewBox="95.38461538461539 -13.846153846153847 49.23076923076923 27.692307692307693" xmlns="http://www.w3.org/2000/svg">
  <path d="M 12 0 L 11.769423364838765 2.341083864193539 L 11.08655439013544 4.592201188381077 L 9.977635347630542 6.666842796235226 L 8.485281374238571 8.48528137423857 L 6.666842796235228 9.977635347630542 L 4.592201188381078 11.08655439013544 L 2.34108386419354 11.769423364838765 L 7.347880794884119e-16 12 L -2.3410838641935383 11.769423364838765 L -4.592201188381077 11.08655439013544 L -6.6668427962352235 9.977635347630546 L -8.48528137423857 8.485281374238571 L -9.977635347630544 6.666842796235226 L -11.08655439013544 4.592201188381079 L -11.769423364838765 2.341083864193543 L -12 1.4695761589768238e-15 L -11.769423364838765 -2.34108386419354 L -11.086554390135442 -4.592201188381076 L -9.977635347630546 -6.6668427962352235 L -8.485281374238571 -8.48528137423857 L -6.666842796235226 -9.977635347630542 L -4.592201188381084 -11.086554390135438 L -2.341083864193544 -11.769423364838763 L -2.204364238465236e-15 -12 L 2.3410838641935396 -11.769423364838765 L 4.59220118838108 -11.08655439013544 L 6.666842796235223 -9.977635347630546 L 8.485281374238568 -8.485281374238571 L 9.977635347630542 -6.666842796235226 L 11.086554390135438 -4.592201188381084 L 11.769423364838763 -2.3410838641935445 Z" fill="#6ed926" stroke="#6ed926" stroke-width="1" />
  <path d="M 42 0 L 41.769423364838765 2.341083864193539 L 41.08655439013544 4.592201188381077 L 39.97763534763054 6.666842796235226 L 38.48528137423857 8.48528137423857 L 36.66684279623523 9.977635347630542 L 34.592201188381075 11.08655439013544 L 32.34108386419354 11.769423364838765 L 30 12 L 27.65891613580646 11.769423364838765 L 25.407798811618925 11.08655439013544 L 23.333157203764777 9.977635347630546 L 21.514718625761432 8.485281374238571 L 20.022364652369454 6.666842796235226 L 18.91344560986456 4.592201188381079 L 18.230576635161235 2.341083864193543 L 18 1.4695761589768238e-15 L 18.230576635161235 -2.34108386419354 L 18.91344560986456 -4.592201188381076 L 20.022364652369454 -6.6668427962352235 L 21.51471862576143 -8.48528137423857 L 23.333157203764774 -9.977635347630542 L 25.407798811618918 -11.086554390135438 L 27.658916135806457 -11.769423364838763 L 29.999999999999996 -12 L 32.34108386419354 -11.769423364838765 L 34.59220118838108 -11.08655439013544 L 36.66684279623522 -9.977635347630546 L 38.48528137423857 -8.485281374238571 L 39.97763534763054 -6.666842796235226 L 41.08655439013544 -4.592201188381084 L 41.769423364838765 -2.3410838641935445 Z" fill="#59d926" stroke="#59d926" stroke-width="1" />
  <path d="M 72 0 L 71.76942336483876 2.341083864193539 L 71.08655439013543 4.592201188381077 L 69.97763534763054 6.666842796235226 L 68.48528137423857 8.48528137423857 L 66.66684279623523 9.977635347630542 L 64.59220118838108 11.08655439013544 L 62.34108386419354 11.769423364838765 L 60 12 L 57.658916135806464 11.769423364838765 L 55.407798811618925 11.08655439013544 L 53.33315720376478 9.977635347630546 L 51.51471862576143 8.485281374238571 L 50.022364652369454 6.666842796235226 L 48.91344560986456 4.592201188381079 L 48.230576635161235 2.341083864193543 L 48 1.4695761589768238e-15 L 48.230576635161235 -2.34108386419354 L 48.91344560986456 -4.592201188381076 L 50.022364652369454 -6.6668427962352235 L 51.51471862576143 -8.48528137423857 L 53.33315720376477 -9.977635347630542 L 55.40779881161892 -11.086554390135438 L 57.65891613580646 -11.769423364838763 L 60 -12 L 62.34108386419354 -11.769423364838765 L 64.59220118838108 -11.08655439013544 L 66.66684279623522 -9.977635347630546 L 68.48528137423857 -8.485281374238571 L 69.97763534763054 -6.666842796235226 L 71.08655439013543 -4.592201188381084 L 71.76942336483876 -2.3410838641935445 Z" fill="#45d926" stroke="#45d926" stroke-width="1" />
  <path d="M 102 0 L 101.76942336483876 2.341083864193539 L 101.08655439013543 4.592201188381077 L 99.97763534763054 6.666842796235226 L 98.48528137423857 8.48528137423857 L 96.66684279623523 9.977635347630542 L 94.59220118838108 11.08655439013544 L 92.34108386419354 11.769423364838765 L 90 12 L 87.65891613580646 11.769423364838765 L 85.40779881161892 11.08655439013544 L 83.33315720376477 9.977635347630546 L 81.51471862576143 8.485281374238571 L 80.02236465236946 6.666842796235226 L 78.91344560986457 4.592201188381079 L 78.23057663516124 2.341083864193543 L 78 1.4695761589768238e-15 L 78.23057663516124 -2.34108386419354 L 78.91344560986455 -4.592201188381076 L 80.02236465236945 -6.6668427962352235 L 81.51471862576143 -8.48528137423857 L 83.33315720376477 -9.977635347630542 L 85.40779881161892 -11.086554390135438 L 87.65891613580645 -11.769423364838763 L 90 -12 L 92.34108386419354 -11.769423364838765 L 94.59220118838108 -11.08655439013544 L 96.66684279623522 -9.977635347630546 L 98.48528137423857 -8.485281374238571 L 99.97763534763054 -6.666842796235226 L 101.08655439013543 -4.592201188381084 L 101.76942336483876 -2.3410838641935445 Z" fill="#30d926" stroke="#30d926" stroke-width="1" />
  <path d="M 132 0 L 131.76942336483876 2.341083864193539 L 131.08655439013543 4.592201188381077 L 129.97763534763055 6.666842796235226 L 128.48528137423858 8.48528137423857 L 126.66684279623523 9.977635347630542 L 124.59220118838108 11.08655439013544 L 122.34108386419354 11.769423364838765 L 120 12 L 117.65891613580646 11.769423364838765 L 115.40779881161892 11.08655439013544 L 113.33315720376477 9.977635347630546 L 111.51471862576143 8.485281374238571 L 110.02236465236946 6.666842796235226 L 108.91344560986457 4.592201188381079 L 108.23057663516124 2.341083864193543 L 108 1.4695761589768238e-15 L 108.23057663516124 -2.34108386419354 L 108.91344560986455 -4.592201188381076 L 110.02236465236945 -6.6668427962352235 L 111.51471862576143 -8.48528137423857 L 113.33315720376477 -9.977635347630542 L 115.40779881161892 -11.086554390135438 L 117.65891613580645 -11.769423364838763 L 120 -12 L 122.34108386419354 -11.769423364838765 L 124.59220118838108 -11.08655439013544 L 126.66684279623522 -9.977635347630546 L 128.48528137423858 -8.485281374238571 L 129.97763534763055 -6.666842796235226 L 131.08655439013543 -4.592201188381084 L 131.76942336483876 -2.3410838641935445 Z" fill="#26d930" stroke="#26d930" stroke-width="1" />
  <path d="M 162 0 L 161.76942336483876 2.341083864193539 L 161.08655439013543 4.592201188381077 L 159.97763534763055 6.666842796235226 L 158.48528137423858 8.48528137423857 L 156.66684279623522 9.977635347630542 L 154.59220118838107 11.08655439013544 L 152.34108386419354 11.769423364838765 L 150 12 L 147.65891613580646 11.769423364838765 L 145.40779881161893 11.08655439013544 L 143.33315720376478 9.977635347630546 L 141.51471862576142 8.485281374238571 L 140.02236465236945 6.666842796235226 L 138.91344560986457 4.592201188381079 L 138.23057663516124 2.341083864193543 L 138 1.4695761589768238e-15 L 138.23057663516124 -2.34108386419354 L 138.91344560986457 -4.592201188381076 L 140.02236465236945 -6.6668427962352235 L 141.51471862576142 -8.48528137423857 L 143.33315720376478 -9.977635347630542 L 145.4077988116189 -11.086554390135438 L 147.65891613580646 -11.769423364838763 L 150 -12 L 152.34108386419354 -11.769423364838765 L 154.59220118838107 -11.08655439013544 L 156.66684279623522 -9.977635347630546 L 158.48528137423858 -8.485281374238571 L 159.97763534763055 -6.666842796235226 L 161.08655439013543 -4.592201188381084 L 161.76942336483876 -2.3410838641935445 Z" fill="#26d945" stroke="#26d945" stroke-width="1" />
  <path d="M 192 0 L 191.76942336483876 2.341083864193539 L 191.08655439013543 4.592201188381077 L 189.97763534763055 6.666842796235226 L 188.48528137423858 8.48528137423857 L 186.66684279623522 9.977635347630542 L 184.59220118838107 11.08655439013544 L 182.34108386419354 11.769423364838765 L 180 12 L 177.65891613580646 11.769423364838765 L 175.40779881161893 11.08655439013544 L 173.33315720376478 9.977635347630546 L 171.51471862576142 8.485281374238571 L 170.02236465236945 6.666842796235226 L 168.91344560986457 4.592201188381079 L 168.23057663516124 2.341083864193543 L 168 1.4695761589768238e-15 L 168.23057663516124 -2.34108386419354 L 168.91344560986457 -4.592201188381076 L 170.02236465236945 -6.6668427962352235 L 171.51471862576142 -8.48528137423857 L 173.33315720376478 -9.977635347630542 L 175.4077988116189 -11.086554390135438 L 177.65891613580646 -11.769423364838763 L 180 -12 L 182.34108386419354 -11.769423364838765 L 184.59220118838107 -11.08655439013544 L 186.66684279623522 -9.977635347630546 L 188.48528137423858 -8.485281374238571 L 189.97763534763055 -6.666842796235226 L 191.08655439013543 -4.592201188381084 L 191.76942336483876 -2.3410838641935445 Z" fill="#26d959" stroke="#26d959" stroke-width="1" />
  <path d="M 222 0 L 221.76942336483876 2.341083864193539 L 221.08655439013543 4.592201188381077 L 219.97763534763055 6.666842796235226 L 218.48528137423858 8.48528137423857 L 216.66684279623522 9.977635347630542 L 214.59220118838107 11.08655439013544 L 212.34108386419354 11.769423364838765 L 210 12 L 207.65891613580646 11.769423364838765 L 205.40779881161893 11.08655439013544 L 203.33315720376478 9.977635347630546 L 201.51471862576142 8.485281374238571 L 200.02236465236945 6.666842796235226 L 198.91344560986457 4.592201188381079 L 198.23057663516124 2.341083864193543 L 198 1.4695761589768238e-15 L 198.23057663516124 -2.34108386419354 L 198.91344560986457 -4.592201188381076 L 200.02236465236945 -6.6668427962352235 L 201.51471862576142 -8.48528137423857 L 203.33315720376478 -9.977635347630542 L 205.4077988116189 -11.086554390135438 L 207.65891613580646 -11.769423364838763 L 210 -12 L 212.34108386419354 -11.769423364838765 L 214.59220118838107 -11.08655439013544 L 216.66684279623522 -9.977635347630546 L 218.48528137423858 -8.485281374238571 L 219.97763534763055 -6.666842796235226 L 221.08655439013543 -4.592201188381084 L 221.76942336483876 -2.3410838641935445 Z" fill="#26d96e" stroke="#26d96e" stroke-width="1" />
  <path d="M 252 0 L 251.76942336483876 2.341083864193539 L 251.08655439013543 4.592201188381077 L 249.97763534763055 6.666842796235226 L 248.48528137423858 8.48528137423857 L 246.66684279623522 9.977635347630542 L 244.59220118838107 11.08655439013544 L 242.34108386419354 11.769423364838765 L 240 12 L 237.65891613580646 11.769423364838765 L 235.40779881161893 11.08655439013544 L 233.33315720376478 9.977635347630546 L 231.51471862576142 8.485281374238571 L 230.02236465236945 6.666842796235226 L 228.91344560986457 4.592201188381079 L 228.23057663516124 2.341083864193543 L 228 1.4695761589768238e-15 L 228.23057663516124 -2.34108386419354 L 228.91344560986457 -4.592201188381076 L 230.02236465236945 -6.6668427962352235 L 231.51471862576142 -8.48528137423857 L 233.33315720376478 -9.977635347630542 L 235.4077988116189 -11.086554390135438 L 237.65891613580646 -11.769423364838763 L 240 -12 L 242.34108386419354 -11.769423364838765 L 244.59220118838107 -11.08655439013544 L 246.66684279623522 -9.977635347630546 L 248.48528137423858 -8.485281374238571 L 249.97763534763055 -6.666842796235226 L 251.08655439013543 -4.592201188381084 L 251.76942336483876 -2.3410838641935445 Z" fill="#26d930" stroke="#26d930" stroke-width="1" />
  <path d="M 12 0 L 11.769423364838765 2.341083864193539 L 11.08655439013544 4.592201188381077 L 9.977635347630542 6.666842796235226 L 8.485281374238571 8.48528137423857 L 6.666842796235228 9.977635347630542 L 4.592201188381078 11.08655439013544 L 2.34108386419354 11.769423364838765 L 7.347880794884119e-16 12 L -2.3410838641935383 11.769423364838765 L -4.592201188381077 11.08655439013544 L -6.6668427962352235 9.977635347630546 L -8.48528137423857 8.485281374238571 L -9.977635347630544 6.666842796235226 L -11.08655439013544 4.592201188381079 L -11.769423364838765 2.341083864193543 L -12 1.4695761589768238e-15 L -11.769423364838765 -2.34108386419354 L -11.086554390135442 -4.592201188381076 L -9.977635347630546 -6.6668427962352235 L -8.485281374238571 -8.48528137423857 L -6.666842796235226 -9.977635347630542 L -4.592201188381084 -11.086554390135438 L -2.341083864193544 -11.769423364838763 L -2.204364238465236e-15 -12 L 2.3410838641935396 -11.769423364838765 L 4.59220118838108 -11.08655439013544 L 6.666842796235223 -9.977635347630546 L 8.485281374238568 -8.485281374238571 L 9.977635347630542 -6.666842796235226 L 11.086554390135438 -4.592201188381084 L 11.769423364838763 -2.3410838641935445 Z" fill="#6ed926" stroke="#6ed926" stroke-width="1" />
  <path d="M 42 0 L 41.769423364838765 2.341083864193539 L 41.08655439013544 4.592201188381077 L 39.97763534763054 6.666842796235226 L 38.48528137423857 8.48528137423857 L 36.66684279623523 9.977635347630542 L 34.592201188381075 11.08655439013544 L 32.34108386419354 11.769423364838765 L 30 12 L 27.65891613580646 11.769423364838765 L 25.407798811618925 11.08655439013544 L 23.333157203764777 9.977635347630546 L 21.514718625761432 8.485281374238571 L 20.022364652369454 6.666842796235226 L 18.91344560986456 4.592201188381079 L 18.230576635161235 2.341083864193543 L 18 1.4695761589768238e-15 L 18.230576635161235 -2.34108386419354 L 18.91344560986456 -4.592201188381076 L 20.022364652369454 -6.6668427962352235 L 21.51471862576143 -8.48528137423857 L 23.333157203764774 -9.977635347630542 L 25.407798811618918 -11.086554390135438 L 27.658916135806457 -11.769423364838763 L 29.999999999999996 -12 L 32.34108386419354 -11.769423364838765 L 34.59220118838108 -11.08655439013544 L 36.66684279623522 -9.977635347630546 L 38.48528137423857 -8.485281374238571 L 39.97763534763054 -6.666842796235226 L 41.08655439013544 -4.592201188381084 L 41.769423364838765 -2.3410838641935445 Z" fill="#59d926" stroke="#59d926" stroke-width="1" />
  <path d="M 72 0 L 71.76942336483876 2.341083864193539 L 71.08655439013543 4.592201188381077 L 69.97763534763054 6.666842796235226 L 68.48528137423857 8.48528137423857 L 66.66684279623523 9.977635347630542 L 64.59220118838108 11.08655439013544 L 62.34108386419354 11.769423364838765 L 60 12 L 57.658916135806464 11.769423364838765 L 55.407798811618925 11.08655439013544 L 53.33315720376478 9.977635347630546 L 51.51471862576143 8.485281374238571 L 50.022364652369454 6.666842796235226 L 48.91344560986456 4.592201188381079 L 48.230576635161235 2.341083864193543 L 48 1.4695761589768238e-15 L 48.230576635161235 -2.34108386419354 L 48.91344560986456 -4.592201188381076 L 50.022364652369454 -6.6668427962352235 L 51.51471862576143 -8.48528137423857 L 53.33315720376477 -9.977635347630542 L 55.40779881161892 -11.086554390135438 L 57.65891613580646 -11.769423364838763 L 60 -12 L 62.34108386419354 -11.769423364838765 L 64.59220118838108 -11.08655439013544 L 66.66684279623522 -9.977635347630546 L 68.48528137423857 -8.485281374238571 L 69.97763534763054 -6.666842796235226 L 71.08655439013543 -4.592201188381084 L 71.76942336483876 -2.3410838641935445 Z" fill="#45d926" stroke="#45d926" stroke-width="1" />
  <path d="M 102 0 L 101.76942336483876 2.341083864193539 L 101.08655439013543 4.592201188381077 L 99.97763534763054 6.666842796235226 L 98.48528137423857 8.48528137423857 L 96.66684279623523 9.977635347630542 L 94.59220118838108 11.08655439013544 L 92.34108386419354 11.769423364838765 L 90 12 L 87.65891613580646 11.769423364838765 L 85.40779881161892 11.08655439013544 L 83.33315720376477 9.977635347630546 L 81.51471862576143 8.485281374238571 L 80.02236465236946 6.666842796235226 L 78.91344560986457 4.592201188381079 L 78.23057663516124 2.341083864193543 L 78 1.4695761589768238e-15 L 78.23057663516124 -2.34108386419354 L 78.91344560986455 -4.592201188381076 L 80.02236465236945 -6.6668427962352235 L 81.51471862576143 -8.48528137423857 L 83.33315720376477 -9.977635347630542 L 85.40779881161892 -11.086554390135438 L 87.65891613580645 -11.769423364838763 L 90 -12 L 92.34108386419354 -11.769423364838765 L 94.59220118838108 -11.08655439013544 L 96.66684279623522 -9.977635347630546 L 98.48528137423857 -8.485281374238571 L 99.97763534763054 -6.666842796235226 L 101.08655439013543 -4.592201188381084 L 101.76942336483876 -2.3410838641935445 Z" fill="#30d926" stroke="#30d926" stroke-width="1" />
  <path d="M 132 0 L 131.76942336483876 2.341083864193539 L 131.08655439013543 4.592201188381077 L 129.97763534763055 6.666842796235226 L 128.48528137423858 8.48528137423857 L 126.66684279623523 9.977635347630542 L 124.59220118838108 11.08655439013544 L 122.34108386419354 11.769423364838765 L 120 12 L 117.65891613580646 11.769423364838765 L 115.40779881161892 11.08655439013544 L 113.33315720376477 9.977635347630546 L 111.51471862576143 8.485281374238571 L 110.02236465236946 6.666842796235226 L 108.91344560986457 4.592201188381079 L 108.23057663516124 2.341083864193543 L 108 1.4695761589768238e-15 L 108.23057663516124 -2.34108386419354 L 108.91344560986455 -4.592201188381076 L 110.02236465236945 -6.6668427962352235 L 111.51471862576143 -8.48528137423857 L 113.33315720376477 -9.977635347630542 L 115.40779881161892 -11.086554390135438 L 117.65891613580645 -11.769423364838763 L 120 -12 L 122.34108386419354 -11.769423364838765 L 124.59220118838108 -11.08655439013544 L 126.66684279623522 -9.977635347630546 L 128.48528137423858 -8.485281374238571 L 129.97763534763055 -6.666842796235226 L 131.08655439013543 -4.592201188381084 L 131.76942336483876 -2.3410838641935445 Z" fill="#26d930" stroke="#26d930" stroke-width="1" />
  <path d="M 162 0 L 161.76942336483876 2.341083864193539 L 161.08655439013543 4.592201188381077 L 159.97763534763055 6.666842796235226 L 158.48528137423858 8.48528137423857 L 156.66684279623522 9.977635347630542 L 154.59220118838107 11.08655439013544 L 152.34108386419354 11.769423364838765 L 150 12 L 147.65891613580646 11.769423364838765 L 145.40779881161893 11.08655439013544 L 143.33315720376478 9.977635347630546 L 141.51471862576142 8.485281374238571 L 140.02236465236945 6.666842796235226 L 138.91344560986457 4.592201188381079 L 138.23057663516124 2.341083864193543 L 138 1.4695761589768238e-15 L 138.23057663516124 -2.34108386419354 L 138.91344560986457 -4.592201188381076 L 140.02236465236945 -6.6668427962352235 L 141.51471862576142 -8.48528137423857 L 143.33315720376478 -9.977635347630542 L 145.4077988116189 -11.086554390135438 L 147.65891613580646 -11.769423364838763 L 150 -12 L 152.34108386419354 -11.769423364838765 L 154.59220118838107 -11.08655439013544 L 156.66684279623522 -9.977635347630546 L 158.48528137423858 -8.485281374238571 L 159.97763534763055 -6.666842796235226 L 161.08655439013543 -4.592201188381084 L 161.76942336483876 -2.3410838641935445 Z" fill="#26d945" stroke="#26d945" stroke-width="1" />
  <path d="M 192 0 L 191.76942336483876 2.341083864193539 L 191.08655439013543 4.592201188381077 L 189.97763534763055 6.666842796235226 L 188.48528137423858 8.48528137423857 L 186.66684279623522 9.977635347630542 L 184.59220118838107 11.08655439013544 L 182.34108386419354 11.769423364838765 L 180 12 L 177.65891613580646 11.769423364838765 L 175.40779881161893 11.08655439013544 L 173.33315720376478 9.977635347630546 L 171.51471862576142 8.485281374238571 L 170.02236465236945 6.666842796235226 L 168.91344560986457 4.592201188381079 L 168.23057663516124 2.341083864193543 L 168 1.4695761589768238e-15 L 168.23057663516124 -2.34108386419354 L 168.91344560986457 -4.592201188381076 L 170.02236465236945 -6.6668427962352235 L 171.51471862576142 -8.48528137423857 L 173.33315720376478 -9.977635347630542 L 175.4077988116189 -11.086554390135438 L 177.65891613580646 -11.769423364838763 L 180 -12 L 182.34108386419354 -11.769423364838765 L 184.59220118838107 -11.08655439013544 L 186.66684279623522 -9.977635347630546 L 188.48528137423858 -8.485281374238571 L 189.97763534763055 -6.666842796235226 L 191.08655439013543 -4.592201188381084 L 191.76942336483876 -2.3410838641935445 Z" fill="#26d959" stroke="#26d959" stroke-width="1" />
  <path d="M 222 0 L 221.76942336483876 2.341083864193539 L 221.08655439013543 4.592201188381077 L 219.97763534763055 6.666842796235226 L 218.48528137423858 8.48528137423857 L 216.66684279623522 9.977635347630542 L 214.59220118838107 11.08655439013544 L 212.34108386419354 11.769423364838765 L 210 12 L 207.65891613580646 11.769423364838765 L 205.40779881161893 11.08655439013544 L 203.33315720376478 9.977635347630546 L 201.51471862576142 8.485281374238571 L 200.02236465236945 6.666842796235226 L 198.91344560986457 4.592201188381079 L 198.23057663516124 2.341083864193543 L 198 1.4695761589768238e-15 L 198.23057663516124 -2.34108386419354 L 198.91344560986457 -4.592201188381076 L 200.02236465236945 -6.6668427962352235 L 201.51471862576142 -8.48528137423857 L 203.33315720376478 -9.977635347630542 L 205.4077988116189 -11.086554390135438 L 207.65891613580646 -11.769423364838763 L 210 -12 L 212.34108386419354 -11.769423364838765 L 214.59220118838107 -11.08655439013544 L 216.66684279623522 -9.977635347630546 L 218.48528137423858 -8.485281374238571 L 219.97763534763055 -6.666842796235226 L 221.08655439013543 -4.592201188381084 L 221.76942336483876 -2.3410838641935445 Z" fill="#26d96e" stroke="#26d96e" stroke-width="1" />
  <path d="M 252 0 L 251.76942336483876 2.341083864193539 L 251.08655439013543 4.592201188381077 L 249.97763534763055 6.666842796235226 L 248.48528137423858 8.48528137423857 L 246.66684279623522 9.977635347630542 L 244.59220118838107 11.08655439013544 L 242.34108386419354 11.769423364838765 L 240 12 L 237.65891613580646 11.769423364838765 L 235.40779881161893 11.08655439013544 L 233.33315720376478 9.977635347630546 L 231.51471862576142 8.485281374238571 L 230.02236465236945 6.666842796235226 L 228.91344560986457 4.592201188381079 L 228.23057663516124 2.341083864193543 L 228 1.4695761589768238e-15 L 228.23057663516124 -2.34108386419354 L 228.91344560986457 -4.592201188381076 L 230.02236465236945 -6.6668427962352235 L 231.51471862576142 -8.48528137423857 L 233.33315720376478 -9.977635347630542 L 235.4077988116189 -11.086554390135438 L 237.65891613580646 -11.769423364838763 L 240 -12 L 242.34108386419354 -11.769423364838765 L 244.59220118838107 -11.08655439013544 L 246.66684279623522 -9.977635347630546 L 248.48528137423858 -8.485281374238571 L 249.97763534763055 -6.666842796235226 L 251.08655439013543 -4.592201188381084 L 251.76942336483876 -2.3410838641935445 Z" fill="#26d930" stroke="#26d930" stroke-width="1" />
</svg>