<svg width="160" height="90" viewBox="76.68467652032903 -48.95354638983791 174.05705383053478 97.90709277967582" xmlns="http://www.w3.org/2000/svg">
  <path d="M -30 -30 L 30 -30 L 30 30 L -30 30 Z" fill="#d99126" stroke="#d99126" stroke-width="1" />
  <path d="M 13.786796564403573 -36.742346141747674 L 71.74234614174767 -21.213203435596427 L 56.21320343559643 36.742346141747674 L -1.7423461417476744 21.213203435596427 Z" fill="#d9ca26" stroke="#d9ca26" stroke-width="1" />
  <path d="M 59.01923788646684 -40.98076211353316 L 110.98076211353316 -10.980762113533162 L 80.98076211353316 40.98076211353316 L 29.01923788646684 10.980762113533162 Z" fill="#aed926" stroke="#aed926" stroke-width="1" />
  <path d="M 105 -42.42640687119285 L 147.42640687119285 -3.552713678800501e-15 L 105 42.42640687119285 L 62.57359312880715 3.552713678800501e-15 Z" fill="#75d926" stroke="#75d926" stroke-width="1" />
  <path d="M 150.98076211353316 -40.98076211353316 L 180.98076211353316 10.980762113533153 L 129.01923788646684 40.98076211353316 L 99.01923788646684 -10.980762113533153 Z" fill="#3cd926" stroke="#3cd926" stroke-width="1" />
  <path d="M 145 -30 L 205 -30 L 205 30 L 145 30 Z" fill="#26d94a" stroke="#26d94a" stroke-width="1" />
  <path d="M 220.98076211353316 -40.98076211353316 L 250.98076211353316 10.980762113533153 L 199.01923788646684 40.98076211353316 L 169.01923788646684 -10.980762113533153 Z" fill="#26d983" stroke="#26d983" stroke-width="1" />
  <path d="M 234.01923788646684 -40.98076211353316 L 285.98076211353316 -10.980762113533162 L 255.98076211353316 40.98076211353316 L 204.01923788646684 10.980762113533162 Z" fill="#26d9bc" stroke="#26d9bc" stroke-width="1" />
  <path d="M 258.7867965644036 -36.742346141747674 L 316.7423461417477 -21.213203435596427 L 301.2132034355964 36.742346141747674 L 243.25765385825233 21.213203435596427 Z" fill="#26bcd9" stroke="#26bcd9" stroke-width="1" />
  <path d="M 315 -42.42640687119285 L 357.42640687119285 -3.552713678800501e-15 L 315 42.42640687119285 L 272.57359312880715 3.552713678800501e-15 Z" fill="#2683d9" stroke="#2683d9" stroke-width="1" />
  <path d="M -30 -30 L 30 -30 L 30 30 L -30 30 Z" fill="#264ad9" stroke="#264ad9" stroke-width="1" />
  <path d="M 13.786796564403573 -36.742346141747674 L 71.74234614174767 -21.213203435596427 L 56.21320343559643 36.742346141747674 L -1.7423461417476744 21.213203435596427 Z" fill="#3c26d9" stroke="#3c26d9" stroke-width="1" />
  <path d="M 59.01923788646684 -40.98076211353316 L 110.98076211353316 -10.980762113533162 L 80.98076211353316 40.98076211353316 L 29.01923788646684 10.980762113533162 Z" fill="#7526d9" stroke="#7526d9" stroke-width="1" />
  <path d="M 105 -42.42640687119285 L 147.42640687119285 -3.552713678800501e-15 L 105 42.42640687119285 L 62.57359312880715 3.552713678800501e-15 Z" fill="#ae26d9" stroke="#ae26d9" stroke-width="1" />
  <path d="M 150.98076211353316 -40.98076211353316 L 180.98076211353316 10.980762113533153 L 129.01923788646684 40.98076211353316 L 99.01923788646684 -10.980762113533153 Z" fill="#d926ca" stroke="#d926ca" stroke-width="1" />
  <path d="M 145 -30 L 205 -30 L 205 30 L 145 30 Z" fill="#d92691" stroke="#d92691" stroke-width="1" />
  <path d="M 220.98076211353316 -40.98076211353316 L 250.98076211353316 10.980762113533153 L 199.01923788646684 40.98076211353316 L 169.01923788646684 -10.980762113533153 Z" fill="#d99126" stroke="#d99126" stroke-width="1" />
  <path d="M 234.01923788646684 -40.98076211353316 L 285.98076211353316 -10.980762113533162 L 255.98076211353316 40.98076211353316 L 204.01923788646684 10.980762113533162 Z" fill="#d9ca26" stroke="#d9ca26" stroke-width="1" />
  <path d="M 258.7867965644036 -36.742346141747674 L 316.7423461417477 -21.213203435596427 L 301.2132034355964 36.742346141747674 L 243.25765385825233 21.213203435596427 Z" fill="#aed926" stroke="#aed926" stroke-width="1" />
  <path d="M 315 -42.42640687119285 L 357.42640687119285 -3.552713678800501e-15 L 315 42.42640687119285 L 272.57359312880715 3.552713678800501e-15 Z" fill="#75d926" stroke="#75d926" stroke-width="1" />
</svg>