<svg width="160" height="90" viewBox="-6.486486486486484 31.351351351351354 172.97297297297297 97.29729729729729" xmlns="http://www.w3.org/2000/svg">
  <path d="M 0 0 L 26.666666666666668 0 L 26.666666666666668 26.666666666666668 L 0 26.666666666666668 Z" fill="#999" stroke="#000" stroke-width="1" />
  <path d="M 40 0 L 26.666666666666668 26.666666666666668 L 53.333333333333336 26.666666666666668 Z" fill="#333" stroke="#000" stroke-width="1" />
  <path d="M 26.666666666666668 0 L 40 0 L 26.666666666666668 26.666666666666668 Z" fill="#999" stroke="#000" stroke-width="1" />
  <path d="M 40 0 L 53.333333333333336 0 L 53.333333333333336 26.666666666666668 Z" fill="#999" stroke="#000" stroke-width="1" />
  <path d="M 53.333333333333336 0 L 80 0 L 80 26.666666666666668 L 53.333333333333336 26.666666666666668 Z" fill="#999" stroke="#000" stroke-width="1" />
  <path d="M 0 40 L 26.666666666666668 26.666666666666668 L 26.666666666666668 53.333333333333336 Z" fill="#333" stroke="#000" stroke-width="1" />
  <path d="M 0 26.666666666666668 L 26.666666666666668 26.666666666666668 L 0 40 Z" fill="#999" stroke="#000" stroke-width="1" />
  <path d="M 0 40 L 26.666666666666668 53.333333333333336 L 0 53.333333333333336 Z" fill="#999" stroke="#000" stroke-width="1" />
  <path d="M 26.666666666666668 26.666666666666668 L 53.333333333333336 26.666666666666668 L 53.333333333333336 53.333333333333336 L 26.666666666666668 53.333333333333336 Z" fill="#333" stroke="#000" stroke-width="1" />
  <path d="M 53.333333333333336 26.666666666666668 L 80 40 L 53.333333333333336 53.333333333333336 Z" fill="#333" stroke="#000" stroke-width="1" />
  <path d="M 53.333333333333336 26.666666666666668 L 80 26.666666666666668 L 80 40 Z" fill="#999" stroke="#000" stroke-width="1" />
  <path d="M 80 40 L 80 53.333333333333336 L 53.333333333333336 53.333333333333336 Z" fill="#999" stroke="#000" stroke-width="1" />
  <path d="M 0 53.333333333333336 L 26.666666666666668 53.333333333333336 L 26.666666666666668 80 L 0 80 Z" fill="#999" stroke="#000" stroke-width="1" />
  <path d="M 26.666666666666668 53.333333333333336 L 53.333333333333336 53.333333333333336 L 40 80 Z" fill="#333" stroke="#000" stroke-width="1" />
  <path d="M 26.666666666666668 53.333333333333336 L 40 80 L 26.666666666666668 80 Z" fill="#999" stroke="#000" stroke-width="1" />
  <path d="M 53.333333333333336 53.333333333333336 L 53.333333333333336 80 L 40 80 Z" fill="#999" stroke="#000" stroke-width="1" />
  <path d="M 53.333333333333336 53.333333333333336 L 80 53.333333333333336 L 80 80 L 53.333333333333336 80 Z" fill="#999" stroke="#000" stroke-width="1" />
  <path d="M 80 0 L 106.66666666666667 0 L 106.66666666666667 26.666666666666668 L 80 26.666666666666668 Z" fill="#999" stroke="#000" stroke-width="1" />
  <path d="M 120 0 L 106.66666666666667 26.666666666666668 L 133.33333333333334 26.666666666666668 Z" fill="#333" stroke="#000" stroke-width="1" />
  <path d="M 106.66666666666667 0 L 120 0 L 106.66666666666667 26.666666666666668 Z" fill="#999" stroke="#000" stroke-width="1" />
  <path d="M 120 0 L 133.33333333333334 0 L 133.33333333333334 26.666666666666668 Z" fill="#999" stroke="#000" stroke-width="1" />
  <path d="M 133.33333333333334 0 L 160 0 L 160 26.666666666666668 L 133.33333333333334 26.666666666666668 Z" fill="#999" stroke="#000" stroke-width="1" />
  <path d="M 80 40 L 106.66666666666667 26.666666666666668 L 106.66666666666667 53.333333333333336 Z" fill="#333" stroke="#000" stroke-width="1" />
  <path d="M 80 26.666666666666668 L 106.66666666666667 26.666666666666668 L 80 40 Z" fill="#999" stroke="#000" stroke-width="1" />
  <path d="M 80 40 L 106.66666666666667 53.333333333333336 L 80 53.333333333333336 Z" fill="#999" stroke="#000" stroke-width="1" />
  <path d="M 106.66666666666667 26.666666666666668 L 133.33333333333334 26.666666666666668 L 133.33333333333334 53.333333333333336 L 106.66666666666667 53.333333333333336 Z" fill="#333" stroke="#000" stroke-width="1" />
  <path d="M 133.33333333333334 26.666666666666668 L 160 40 L 133.33333333333334 53.333333333333336 Z" fill="#333" stroke="#000" stroke-width="1" />
  <path d="M 133.33333333333334 26.666666666666668 L 160 26.666666666666668 L 160 40 Z" fill="#999" stroke="#000" stroke-width="1" />
  <path d="M 160 40 L 160 53.333333333333336 L 133.33333333333334 53.333333333333336 Z" fill="#999" stroke="#000" stroke-width="1" />
  <path d="M 80 53.333333333333336 L 106.66666666666667 53.333333333333336 L 106.66666666666667 80 L 80 80 Z" fill="#999" stroke="#000" stroke-width="1" />
  <path d="M 106.66666666666667 53.333333333333336 L 133.33333333333334 53.333333333333336 L 120 80 Z" fill="#333" stroke="#000" stroke-width="1" />
  <path d="M 106.66666666666667 53.333333333333336 L 120 80 L 106.66666666666667 80 Z" fill="#999" stroke="#000" stroke-width="1" />
  <path d="M 133.33333333333334 53.333333333333336 L 133.33333333333334 80 L 120 80 Z" fill="#999" stroke="#000" stroke-width="1" />
  <path d="M 133.33333333333334 53.333333333333336 L 160 53.333333333333336 L 160 80 L 133.33333333333334 80 Z" fill="#999" stroke="#000" stroke-width="1" />
  <path d="M 0 80 L 26.666666666666668 80 L 26.666666666666668 106.66666666666667 L 0 106.66666666666667 Z" fill="#999" stroke="#000" stroke-width="1" />
  <path d="M 40 80 L 26.666666666666668 106.66666666666667 L 53.333333333333336 106.66666666666667 Z" fill="#333" stroke="#000" stroke-width="1" />
  <path d="M 26.666666666666668 80 L 40 80 L 26.666666666666668 106.66666666666667 Z" fill="#999" stroke="#000" stroke-width="1" />
  <path d="M 40 80 L 53.333333333333336 80 L 53.333333333333336 106.66666666666667 Z" fill="#999" stroke="#000" stroke-width="1" />
  <path d="M 53.333333333333336 80 L 80 80 L 80 106.66666666666667 L 53.333333333333336 106.66666666666667 Z" fill="#999" stroke="#000" stroke-width="1" />
  <path d="M 0 120 L 26.666666666666668 106.66666666666667 L 26.666666666666668 133.33333333333334 Z" fill="#333" stroke="#000" stroke-width="1" />
  <path d="M 0 106.66666666666667 L 26.666666666666668 106.66666666666667 L 0 120 Z" fill="#999" stroke="#000" stroke-width="1" />
  <path d="M 0 120 L 26.666666666666668 133.33333333333334 L 0 133.33333333333334 Z" fill="#999" stroke="#000" stroke-width="1" />
  <path d="M 26.666666666666668 106.66666666666667 L 53.333333333333336 106.66666666666667 L 53.333333333333336 133.33333333333334 L 26.666666666666668 133.33333333333334 Z" fill="#333" stroke="#000" stroke-width="1" />
  <path d="M 53.333333333333336 106.66666666666667 L 80 120 L 53.333333333333336 133.33333333333334 Z" fill="#333" stroke="#000" stroke-width="1" />
  <path d="M 53.333333333333336 106.66666666666667 L 80 106.66666666666667 L 80 120 Z" fill="#999" stroke="#000" stroke-width="1" />
  <path d="M 80 120 L 80 133.33333333333334 L 53.333333333333336 133.33333333333334 Z" fill="#999" stroke="#000" stroke-width="1" />
  <path d="M 0 133.33333333333334 L 26.666666666666668 133.33333333333334 L 26.666666666666668 160 L 0 160 Z" fill="#999" stroke="#000" stroke-width="1" />
  <path d="M 26.666666666666668 133.33333333333334 L 53.333333333333336 133.33333333333334 L 40 160 Z" fill="#333" stroke="#000" stroke-width="1" />
  <path d="M 26.666666666666668 133.33333333333334 L 40 160 L 26.666666666666668 160 Z" fill="#999" stroke="#000" stroke-width="1" />
  <path d="M 53.333333333333336 133.33333333333334 L 53.333333333333336 160 L 40 160 Z" fill="#999" stroke="#000" stroke-width="1" />
  <path d="M 53.333333333333336 133.33333333333334 L 80 133.33333333333334 L 80 160 L 53.333333333333336 160 Z" fill="#999" stroke="#000" stroke-width="1" />
  <path d="M 80 80 L 106.66666666666667 80 L 106.66666666666667 106.66666666666667 L 80 106.66666666666667 Z" fill="#999" stroke="#000" stroke-width="1" />
  <path d="M 120 80 L 106.66666666666667 106.66666666666667 L 133.33333333333334 106.66666666666667 Z" fill="#333" stroke="#000" stroke-width="1" />
  <path d="M 106.66666666666667 80 L 120 80 L 106.66666666666667 106.66666666666667 Z" fill="#999" stroke="#000" stroke-width="1" />
  <path d="M 120 80 L 133.33333333333334 80 L 133.33333333333334 106.66666666666667 Z" fill="#999" stroke="#000" stroke-width="1" />
  <path d="M 133.33333333333334 80 L 160 80 L 160 106.66666666666667 L 133.33333333333334 106.66666666666667 Z" fill="#999" stroke="#000" stroke-width="1" />
  <path d="M 80 120 L 106.66666666666667 106.66666666666667 L 106.66666666666667 133.33333333333334 Z" fill="#333" stroke="#000" stroke-width="1" />
  <path d="M 80 106.66666666666667 L 106.66666666666667 106.66666666666667 L 80 120 Z" fill="#999" stroke="#000" stroke-width="1" />
  <path d="M 80 120 L 106.66666666666667 133.33333333333334 L 80 133.33333333333334 Z" fill="#999" stroke="#000" stroke-width="1" />
  <path d="M 106.66666666666667 106.66666666666667 L 133.33333333333334 106.66666666666667 L 133.33333333333334 133.33333333333334 L 106.66666666666667 133.33333333333334 Z" fill="#333" stroke="#000" stroke-width="1" />
  <path d="M 133.33333333333334 106.66666666666667 L 160 120 L 133.33333333333334 133.33333333333334 Z" fill="#333" stroke="#000" stroke-width="1" />
  <path d="M 133.33333333333334 106.66666666666667 L 160 106.66666666666667 L 160 120 Z" fill="#999" stroke="#000" stroke-width="1" />
  <path d="M 160 120 L 160 133.33333333333334 L 133.33333333333334 133.33333333333334 Z" fill="#999" stroke="#000" stroke-width="1" />
  <path d="M 80 133.33333333333334 L 106.66666666666667 133.33333333333334 L 106.66666666666667 160 L 80 160 Z" fill="#999" stroke="#000" stroke-width="1" />
  <path d="M 106.66666666666667 133.33333333333334 L 133.33333333333334 133.33333333333334 L 120 160 Z" fill="#333" stroke="#000" stroke-width="1" />
  <path d="M 106.66666666666667 133.33333333333334 L 120 160 L 106.66666666666667 160 Z" fill="#999" stroke="#000" stroke-width="1" />
  <path d="M 133.33333333333334 133.33333333333334 L 133.33333333333334 160 L 120 160 Z" fill="#999" stroke="#000" stroke-width="1" />
  <path d="M 133.33333333333334 133.33333333333334 L 160 133.33333333333334 L 160 160 L 133.33333333333334 160 Z" fill="#999" stroke="#000" stroke-width="1" />
</svg>