<svg width="160" height="90" viewBox="-105.10810810810813 96.24878962760872 136.21621621621622 76.62162162162161" xmlns="http://www.w3.org/2000/svg">
  <path d="M -100 80 L -98 80 L -97 81.73205080756888 L -98 83.46410161513776 L -97 85.19615242270665 L -95 85.19615242270665 L -94 83.46410161513776 L -95 81.73205080756888 L -94 80 L -92 80 L -91 81.73205080756888 L -89 81.73205080756888 L -88 80 L -86 80 L -85 81.73205080756888 L -86 83.46410161513776 L -88 83.46410161513776 L -89 85.19615242270665 L -88 86.92820323027553 L -89 88.66025403784441 L -91 88.66025403784441 L -92 86.92820323027553 L -94 86.92820323027553 L -95 88.66025403784441 L -94 90.39230484541329 L -92 90.39230484541329 L -91 92.12435565298217 L -92 93.85640646055106 L -91 95.58845726811994 L -89 95.58845726811994 L -88 93.85640646055106 L -86 93.85640646055106 L -85 95.58845726811994 L -86 97.32050807568882 L -88 97.32050807568882 L -89 99.0525588832577 L -88 100.78460969082658 L -86 100.78460969082658 L -85 102.51666049839547 L -86 104.24871130596435 L -85 105.98076211353323 L -83 105.98076211353323 L -82 104.24871130596435 L -83 102.51666049839547 L -82 100.78460969082658 L -80 100.78460969082658 L -79 99.0525588832577 L -80 97.32050807568882 L -82 97.32050807568882 L -83 95.58845726811994 L -82 93.85640646055106 L -80 93.85640646055106 L -79 95.58845726811994 L -77 95.58845726811994 L -76 93.85640646055106 L -77 92.12435565298217 L -76 90.39230484541329 L -74 90.39230484541329 L -73 88.66025403784441 L -74 86.92820323027553 L -76 86.92820323027553 L -77 88.66025403784441 L -79 88.66025403784441 L -80 86.92820323027553 L -79 85.19615242270665 L -80 83.46410161513776 L -82 83.46410161513776 L -83 81.73205080756888 L -82 80 L -80 80 L -79 81.73205080756888 L -77 81.73205080756888 L -76 80 L -74 80 L -73 81.73205080756888 L -74 83.46410161513776 L -73 85.19615242270665 L -71 85.19615242270665 L -70 83.46410161513776 L -71 81.73205080756888 L -70 80 L -68 80 L -67 81.73205080756888 L -65 81.73205080756888 L -64 80 L -62 80 L -61 81.73205080756888 L -62 83.46410161513776 L -64 83.46410161513776 L -65 85.19615242270665 L -64 86.92820323027553 L -62 86.92820323027553 L -61 88.66025403784441 L -62 90.39230484541329 L -61 92.12435565298217 L -59 92.12435565298217 L -58 90.39230484541329 L -59 88.66025403784441 L -58 86.92820323027553 L -56 86.92820323027553 L -55 85.19615242270665 L -56 83.46410161513776 L -58 83.46410161513776 L -59 81.73205080756888 L -58 80 L -56 80 L -55 81.73205080756888 L -53 81.73205080756888 L -52 80 L -50 80 L -49 81.73205080756888 L -50 83.46410161513776 L -49 85.19615242270665 L -47 85.19615242270665 L -46 83.46410161513776 L -47 81.73205080756888 L -46 80 L -44 80 L -43 81.73205080756888 L -41 81.73205080756888 L -40 80 L -38 80 L -37 81.73205080756888 L -38 83.46410161513776 L -40 83.46410161513776 L -41 85.19615242270665 L -40 86.92820323027553 L -41 88.66025403784441 L -43 88.66025403784441 L -44 86.92820323027553 L -46 86.92820323027553 L -47 88.66025403784441 L -46 90.39230484541329 L -44 90.39230484541329 L -43 92.12435565298217 L -44 93.85640646055106 L -46 93.85640646055106 L -47 95.58845726811994 L -46 97.32050807568882 L -47 99.0525588832577 L -49 99.0525588832577 L -50 97.32050807568882 L -49 95.58845726811994 L -50 93.85640646055106 L -52 93.85640646055106 L -53 95.58845726811994 L -55 95.58845726811994 L -56 93.85640646055106 L -58 93.85640646055106 L -59 95.58845726811994 L -58 97.32050807568882 L -56 97.32050807568882 L -55 99.0525588832577 L -56 100.78460969082658 L -55 102.51666049839547 L -53 102.51666049839547 L -52 100.78460969082658 L -50 100.78460969082658 L -49 102.51666049839547 L -50 104.24871130596435 L -52 104.24871130596435 L -53 105.98076211353323 L -52 107.71281292110211 L -53 109.444863728671 L -55 109.444863728671 L -56 107.71281292110211 L -58 107.71281292110211 L -59 109.444863728671 L -58 111.17691453623988 L -56 111.17691453623988 L -55 112.90896534380876 L -56 114.64101615137764 L -58 114.64101615137764 L -59 116.37306695894652 L -58 118.1051177665154 L -59 119.83716857408429 L -61 119.83716857408429 L -62 118.1051177665154 L -61 116.37306695894652 L -62 114.64101615137764 L -64 114.64101615137764 L -65 112.90896534380876 L -64 111.17691453623988 L -62 111.17691453623988 L -61 109.444863728671 L -62 107.71281292110211 L -64 107.71281292110211 L -65 109.444863728671 L -67 109.444863728671 L -68 107.71281292110211 L -70 107.71281292110211 L -71 109.444863728671 L -70 111.17691453623988 L -71 112.90896534380876 L -73 112.90896534380876 L -74 111.17691453623988 L -73 109.444863728671 L -74 107.71281292110211 L -76 107.71281292110211 L -77 109.444863728671 L -79 109.444863728671 L -80 107.71281292110211 L -82 107.71281292110211 L -83 109.444863728671 L -82 111.17691453623988 L -80 111.17691453623988 L -79 112.90896534380876 L -80 114.64101615137764 L -79 116.37306695894652 L -77 116.37306695894652 L -76 114.64101615137764 L -74 114.64101615137764 L -73 116.37306695894652 L -74 118.1051177665154 L -76 118.1051177665154 L -77 119.83716857408429 L -76 121.56921938165317 L -74 121.56921938165317 L -73 123.30127018922205 L -74 125.03332099679093 L -73 126.76537180435982 L -71 126.76537180435982 L -70 125.03332099679093 L -71 123.30127018922205 L -70 121.56921938165317 L -68 121.56921938165317 L -67 123.30127018922205 L -65 123.30127018922205 L -64 121.56921938165317 L -62 121.56921938165317 L -61 123.30127018922205 L -62 125.03332099679093 L -64 125.03332099679093 L -65 126.76537180435982 L -64 128.4974226119287 L -65 130.22947341949757 L -67 130.22947341949757 L -68 128.4974226119287 L -70 128.4974226119287 L -71 130.22947341949757 L -70 131.96152422706643 L -68 131.96152422706643 L -67 133.6935750346353 L -68 135.42562584220417 L -67 137.15767664977304 L -65 137.15767664977304 L -64 135.42562584220417 L -62 135.42562584220417 L -61 137.15767664977304 L -62 138.8897274573419 L -64 138.8897274573419 L -65 140.62177826491077 L -64 142.35382907247964 L -62 142.35382907247964 L -61 144.0858798800485 L -62 145.81793068761738 L -61 147.54998149518624 L -59 147.54998149518624 L -58 145.81793068761738 L -59 144.0858798800485 L -58 142.35382907247964 L -56 142.35382907247964 L -55 140.62177826491077 L -56 138.8897274573419 L -58 138.8897274573419 L -59 137.15767664977304 L -58 135.42562584220417 L -56 135.42562584220417 L -55 137.15767664977304 L -53 137.15767664977304 L -52 135.42562584220417 L -50 135.42562584220417 L -49 137.15767664977304 L -50 138.8897274573419 L -49 140.62177826491077 L -47 140.62177826491077 L -46 138.8897274573419 L -47 137.15767664977304 L -46 135.42562584220417 L -44 135.42562584220417 L -43 137.15767664977304 L -41 137.15767664977304 L -40 135.42562584220417 L -38 135.42562584220417 L -37 137.15767664977304 L -38 138.8897274573419 L -40 138.8897274573419 L -41 140.62177826491077 L -40 142.35382907247964 L -41 144.0858798800485 L -43 144.0858798800485 L -44 142.35382907247964 L -46 142.35382907247964 L -47 144.0858798800485 L -46 145.81793068761738 L -44 145.81793068761738 L -43 147.54998149518624 L -44 149.2820323027551 L -46 149.2820323027551 L -47 151.01408311032398 L -46 152.74613391789285 L -47 154.47818472546172 L -49 154.47818472546172 L -50 152.74613391789285 L -49 151.01408311032398 L -50 149.2820323027551 L -52 149.2820323027551 L -53 151.01408311032398 L -55 151.01408311032398 L -56 149.2820323027551 L -58 149.2820323027551 L -59 151.01408311032398 L -58 152.74613391789285 L -56 152.74613391789285 L -55 154.47818472546172 L -56 156.21023553303058 L -55 157.94228634059945 L -53 157.94228634059945 L -52 156.21023553303058 L -50 156.21023553303058 L -49 157.94228634059945 L -50 159.67433714816832 L -52 159.67433714816832 L -53 161.4063879557372 L -52 163.13843876330606 L -50 163.13843876330606 L -49 164.87048957087492 L -50 166.6025403784438 L -49 168.33459118601266 L -47 168.33459118601266 L -46 166.6025403784438 L -47 164.87048957087492 L -46 163.13843876330606 L -44 163.13843876330606 L -43 164.87048957087492 L -41 164.87048957087492 L -40 163.13843876330606 L -38 163.13843876330606 L -37 164.87048957087492 L -38 166.6025403784438 L -40 166.6025403784438 L -41 168.33459118601266 L -40 170.06664199358153 L -41 171.7986928011504 L -43 171.7986928011504 L -44 170.06664199358153 L -46 170.06664199358153 L -47 171.7986928011504 L -46 173.53074360871926 L -44 173.53074360871926 L -43 175.26279441628813 L -44 176.994845223857 L -43 178.72689603142587 L -41 178.72689603142587 L -40 176.994845223857 L -38 176.994845223857 L -37 178.72689603142587 L -38 180.45894683899473 L -40 180.45894683899473 L -41 182.1909976465636 L -40 183.92304845413247 L -38 183.92304845413247 L -37 185.65509926170134 L -38 187.3871500692702 L -37 189.11920087683907 L -35 189.11920087683907 L -34 187.3871500692702 L -35 185.65509926170134 L -34 183.92304845413247 L -32 183.92304845413247 L -31 182.1909976465636 L -32 180.45894683899473 L -34 180.45894683899473 L -35 178.72689603142587 L -34 176.994845223857 L -32 176.994845223857 L -31 178.72689603142587 L -29 178.72689603142587 L -28 176.994845223857 L -29 175.26279441628813 L -28 173.53074360871926 L -26 173.53074360871926 L -25 171.7986928011504 L -26 170.06664199358153 L -28 170.06664199358153 L -29.000000000000004 171.7986928011504 L -31.000000000000004 171.7986928011504 L -32 170.06664199358153 L -31 168.33459118601266 L -32 166.6025403784438 L -34 166.6025403784438 L -35 164.87048957087492 L -34 163.13843876330606 L -32 163.13843876330606 L -31 164.87048957087492 L -29 164.87048957087492 L -28 163.13843876330606 L -26 163.13843876330606 L -25 164.87048957087492 L -26 166.6025403784438 L -25 168.33459118601266 L -23 168.33459118601266 L -22 166.6025403784438 L -23 164.87048957087492 L -22 163.13843876330606 L -20 163.13843876330606 L -19 161.4063879557372 L -20 159.67433714816832 L -22 159.67433714816832 L -23 157.94228634059945 L -22 156.21023553303058 L -20 156.21023553303058 L -19 157.94228634059945 L -17 157.94228634059945 L -16 156.21023553303058 L -17 154.47818472546172 L -16 152.74613391789285 L -14 152.74613391789285 L -13 151.01408311032398 L -13.999999999999998 149.2820323027551 L -15.999999999999998 149.2820323027551 L -17 151.01408311032398 L -19 151.01408311032398 L -20 149.2820323027551 L -22 149.2820323027551 L -23.000000000000004 151.01408311032398 L -22.000000000000007 152.74613391789285 L -23.00000000000001 154.47818472546172 L -25.00000000000001 154.47818472546172 L -26.00000000000001 152.74613391789285 L -25.00000000000001 151.01408311032398 L -26.00000000000001 149.2820323027551 L -28.00000000000001 149.2820323027551 L -29.00000000000001 147.54998149518624 L -28.00000000000001 145.81793068761738 L -26.00000000000001 145.81793068761738 L -25.00000000000001 144.0858798800485 L -26.00000000000001 142.35382907247964 L -28.00000000000001 142.35382907247964 L -29.000000000000014 144.0858798800485 L -31.000000000000014 144.0858798800485 L -32.000000000000014 142.35382907247964 L -31.000000000000014 140.62177826491077 L -32.000000000000014 138.8897274573419 L -34.000000000000014 138.8897274573419 L -35.000000000000014 137.15767664977304 L -34.000000000000014 135.42562584220417 L -32.000000000000014 135.42562584220417 L -31.000000000000014 137.15767664977304 L -29.000000000000014 137.15767664977304 L -28.000000000000014 135.42562584220417 L -26.000000000000014 135.42562584220417 L -25.000000000000014 137.15767664977304 L -26.000000000000014 138.8897274573419 L -25.000000000000014 140.62177826491077 L -23.000000000000014 140.62177826491077 L -22.000000000000014 138.8897274573419 L -23.000000000000014 137.15767664977304 L -22.000000000000014 135.42562584220417 L -20.000000000000014 135.42562584220417 L -19.000000000000014 137.15767664977304 L -17.000000000000014 137.15767664977304 L -16.000000000000014 135.42562584220417 L -14.000000000000014 135.42562584220417 L -13.000000000000014 137.15767664977304 L -14.000000000000014 138.8897274573419 L -16.000000000000014 138.8897274573419 L -17.000000000000014 140.62177826491077 L -16.000000000000014 142.35382907247964 L -14.000000000000014 142.35382907247964 L -13.000000000000014 144.0858798800485 L -14.000000000000014 145.81793068761738 L -13.000000000000014 147.54998149518624 L -11.000000000000014 147.54998149518624 L -10.000000000000014 145.81793068761738 L -11.000000000000012 144.0858798800485 L -10.00000000000001 142.35382907247964 L -8.00000000000001 142.35382907247964 L -7.00000000000001 140.62177826491077 L -8.000000000000009 138.8897274573419 L -10.000000000000009 138.8897274573419 L -11.000000000000007 137.15767664977304 L -10.000000000000007 135.42562584220417 L -8.000000000000007 135.42562584220417 L -7.000000000000008 137.15767664977304 L -5.000000000000008 137.15767664977304 L -4.000000000000007 135.42562584220417 L -5.000000000000006 133.6935750346353 L -4.000000000000005 131.96152422706643 L -2.0000000000000053 131.96152422706643 L -1.0000000000000044 130.22947341949757 L -2.000000000000003 128.4974226119287 L -4.0000000000000036 128.4974226119287 L -5.000000000000006 130.22947341949757 L -7.000000000000006 130.22947341949757 L -8.000000000000005 128.4974226119287 L -7.000000000000004 126.76537180435982 L -8.000000000000004 125.03332099679093 L -10.000000000000004 125.03332099679093 L -11.000000000000002 123.30127018922205 L -10 121.56921938165317 L -8 121.56921938165317 L -7.000000000000001 123.30127018922205 L -5.000000000000001 123.30127018922205 L -4 121.56921938165317 L -2 121.56921938165317 L -1.0000000000000004 123.30127018922205 L -2.000000000000001 125.03332099679093 L -1.0000000000000013 126.76537180435982 L 0.9999999999999987 126.76537180435982 L 1.9999999999999996 125.03332099679093 L 1.0000000000000009 123.30127018922205 L 2.0000000000000018 121.56921938165317 L 4.000000000000002 121.56921938165317 L 5.000000000000003 119.83716857408429 L 4.0000000000000036 118.1051177665154 L 2.0000000000000036 118.1051177665154 L 1.0000000000000049 116.37306695894652 L 2.0000000000000058 114.64101615137764 L 4.000000000000005 114.64101615137764 L 5.000000000000004 116.37306695894652 L 7.000000000000004 116.37306695894652 L 8.000000000000005 114.64101615137764 L 7.000000000000006 112.90896534380876 L 8.000000000000007 111.17691453623988 L 10.000000000000007 111.17691453623988 L 11.000000000000007 109.444863728671 L 10.000000000000009 107.71281292110211 L 8.000000000000009 107.71281292110211 L 7.000000000000006 109.444863728671 L 5.000000000000006 109.444863728671 L 4.000000000000007 107.71281292110211 L 2.000000000000007 107.71281292110211 L 1.0000000000000047 109.444863728671 L 2.0000000000000018 111.17691453623988 L 0.9999999999999993 112.90896534380876 L -1.0000000000000007 112.90896534380876 L -1.9999999999999996 111.17691453623988 L -0.9999999999999987 109.444863728671 L -1.9999999999999973 107.71281292110211 L -3.9999999999999973 107.71281292110211 L -5 109.444863728671 L -7 109.444863728671 L -7.999999999999999 107.71281292110211 L -10 107.71281292110211 L -11.000000000000002 109.444863728671 L -10.000000000000005 111.17691453623988 L -8.000000000000005 111.17691453623988 L -7.000000000000008 112.90896534380876 L -8.00000000000001 114.64101615137764 L -10.00000000000001 114.64101615137764 L -11.000000000000012 116.37306695894652 L -10.000000000000016 118.1051177665154 L -11.000000000000018 119.83716857408429 L -13.000000000000018 119.83716857408429 L -14.000000000000016 118.1051177665154 L -13.000000000000014 116.37306695894652 L -14.000000000000012 114.64101615137764 L -16.000000000000014 114.64101615137764 L -17.000000000000014 112.90896534380876 L -16.000000000000014 111.17691453623988 L -14.000000000000014 111.17691453623988 L -13.000000000000014 109.444863728671 L -14.000000000000012 107.71281292110211 L -16.000000000000014 107.71281292110211 L -17.000000000000018 109.444863728671 L -19.000000000000018 109.444863728671 L -20.000000000000018 107.71281292110211 L -19.000000000000018 105.98076211353323 L -20.000000000000018 104.24871130596435 L -22.000000000000018 104.24871130596435 L -23.000000000000018 102.51666049839547 L -22.000000000000018 100.78460969082658 L -20.000000000000018 100.78460969082658 L -19.000000000000018 102.51666049839547 L -17.000000000000018 102.51666049839547 L -16.000000000000018 100.78460969082658 L -17.000000000000018 99.0525588832577 L -16.000000000000018 97.32050807568882 L -14.000000000000018 97.32050807568882 L -13.000000000000018 95.58845726811994 L -14.000000000000016 93.85640646055106 L -16.000000000000014 93.85640646055106 L -17.000000000000018 95.58845726811994 L -19.000000000000018 95.58845726811994 L -20.000000000000018 93.85640646055106 L -22.000000000000018 93.85640646055106 L -23.00000000000002 95.58845726811994 L -22.000000000000025 97.32050807568882 L -23.00000000000003 99.0525588832577 L -25.00000000000003 99.0525588832577 L -26.00000000000003 97.32050807568882 L -25.00000000000003 95.58845726811994 L -26.00000000000003 93.85640646055106 L -28.00000000000003 93.85640646055106 L -29.00000000000003 92.12435565298217 L -28.00000000000003 90.39230484541329 L -26.00000000000003 90.39230484541329 L -25.00000000000003 88.66025403784441 L -26.00000000000003 86.92820323027553 L -28.00000000000003 86.92820323027553 L -29.000000000000032 88.66025403784441 L -31.000000000000032 88.66025403784441 L -32.00000000000003 86.92820323027553 L -31.00000000000003 85.19615242270665 L -32.00000000000003 83.46410161513776 L -34.00000000000003 83.46410161513776 L -35.00000000000003 81.73205080756888 L -34.00000000000003 80 L -32.00000000000003 80 L -31.00000000000003 81.73205080756888 L -29.00000000000003 81.73205080756888 L -28.00000000000003 80 L -26.00000000000003 80 L -25.00000000000003 81.73205080756888 L -26.00000000000003 83.46410161513776 L -25.00000000000003 85.19615242270665 L -23.00000000000003 85.19615242270665 L -22.00000000000003 83.46410161513776 L -23.00000000000003 81.73205080756888 L -22.00000000000003 80 L -20.00000000000003 80 L -19.00000000000003 81.73205080756888 L -17.00000000000003 81.73205080756888 L -16.00000000000003 80 L -14.000000000000028 80 L -13.000000000000028 81.73205080756888 L -14.000000000000028 83.46410161513776 L -16.00000000000003 83.46410161513776 L -17.00000000000003 85.19615242270665 L -16.00000000000003 86.92820323027553 L -14.000000000000028 86.92820323027553 L -13.000000000000028 88.66025403784441 L -14.000000000000028 90.39230484541329 L -13.000000000000028 92.12435565298217 L -11.000000000000028 92.12435565298217 L -10.000000000000028 90.39230484541329 L -11.000000000000027 88.66025403784441 L -10.000000000000025 86.92820323027553 L -8.000000000000025 86.92820323027553 L -7.000000000000024 85.19615242270665 L -8.000000000000023 83.46410161513776 L -10.000000000000023 83.46410161513776 L -11.000000000000021 81.73205080756888 L -10.000000000000021 80 L -8.000000000000021 80 L -7.000000000000022 81.73205080756888 L -5.000000000000022 81.73205080756888 L -4.000000000000021 80 L -2.0000000000000213 80 L -1.0000000000000218 81.73205080756888 L -2.000000000000022 83.46410161513776 L -1.0000000000000226 85.19615242270665 L 0.9999999999999774 85.19615242270665 L 1.9999999999999782 83.46410161513776 L 0.9999999999999795 81.73205080756888 L 1.9999999999999805 80 L 3.9999999999999805 80 L 4.99999999999998 81.73205080756888 L 6.99999999999998 81.73205080756888 L 7.9999999999999805 80 L 9.99999999999998 80 L 10.99999999999998 81.73205080756888 L 9.99999999999998 83.46410161513776 L 7.9999999999999805 83.46410161513776 L 6.9999999999999805 85.19615242270665 L 7.99999999999998 86.92820323027553 L 6.999999999999979 88.66025403784441 L 4.999999999999979 88.66025403784441 L 3.999999999999978 86.92820323027553 L 1.9999999999999778 86.92820323027553 L 0.9999999999999774 88.66025403784441 L 1.999999999999977 90.39230484541329 L 3.999999999999977 90.39230484541329 L 4.999999999999976 92.12435565298217 L 3.9999999999999756 93.85640646055106 L 4.999999999999975 95.58845726811994 L 6.999999999999975 95.58845726811994 L 7.999999999999976 93.85640646055106 L 9.999999999999975 93.85640646055106 L 10.999999999999975 95.58845726811994 L 9.999999999999975 97.32050807568882 L 7.999999999999975 97.32050807568882 L 6.999999999999975 99.0525588832577 L 7.999999999999974 100.78460969082658 L 9.999999999999975 100.78460969082658 L 10.999999999999975 102.51666049839547 L 9.999999999999975 104.24871130596435 L 10.999999999999975 105.98076211353323 L 12.999999999999975 105.98076211353323 L 13.999999999999975 104.24871130596435 L 12.999999999999977 102.51666049839547 L 13.999999999999979 100.78460969082658 L 15.999999999999979 100.78460969082658 L 16.99999999999998 99.0525588832577 L 15.99999999999998 97.32050807568882 L 13.99999999999998 97.32050807568882 L 12.999999999999982 95.58845726811994 L 13.999999999999982 93.85640646055106 L 15.999999999999982 93.85640646055106 L 16.999999999999982 95.58845726811994 L 18.999999999999982 95.58845726811994 L 19.999999999999982 93.85640646055106 L 18.999999999999982 92.12435565298217 L 19.999999999999982 90.39230484541329 L 21.999999999999982 90.39230484541329 L 22.999999999999982 88.66025403784441 L 21.999999999999982 86.92820323027553 L 19.999999999999982 86.92820323027553 L 18.99999999999998 88.66025403784441 L 16.99999999999998 88.66025403784441 L 15.99999999999998 86.92820323027553 L 16.999999999999982 85.19615242270665 L 15.999999999999984 83.46410161513776 L 13.999999999999984 83.46410161513776 L 12.999999999999986 81.73205080756888 L 13.999999999999986 80 L 15.999999999999986 80 L 16.999999999999986 81.73205080756888 L 18.999999999999986 81.73205080756888 L 19.999999999999986 80 L 21.999999999999986 80 L 22.999999999999986 81.73205080756888 L 21.999999999999986 83.46410161513776 L 22.999999999999986 85.19615242270665 L 24.999999999999986 85.19615242270665 L 25.999999999999986 83.46410161513776 L 24.999999999999986 81.73205080756888 L 25.999999999999986 80" fill="#d99126" stroke="#c93" stroke-width="0.5" />
</svg>