<svg width="160" height="90" viewBox="-19.16666666666667 -60 213.33333333333334 120" xmlns="http://www.w3.org/2000/svg">
  <path d="M 12 -40 L 11.769423364838765 -37.658916135806464 L 11.08655439013544 -35.407798811618925 L 9.977635347630542 -33.33315720376477 L 8.485281374238571 -31.514718625761432 L 6.666842796235228 -30.022364652369458 L 4.592201188381078 -28.91344560986456 L 2.34108386419354 -28.230576635161235 L 9.568326844134432e-16 -28 L -2.3410838641935383 -28.230576635161235 L -4.592201188381077 -28.91344560986456 L -6.6668427962352235 -30.022364652369454 L -8.48528137423857 -31.51471862576143 L -9.977635347630544 -33.33315720376477 L -11.08655439013544 -35.40779881161892 L -11.769423364838765 -37.65891613580646 L -12 -40 L -11.769423364838765 -42.34108386419354 L -11.086554390135442 -44.592201188381075 L -9.977635347630546 -46.66684279623522 L -8.485281374238571 -48.48528137423857 L -6.666842796235226 -49.97763534763054 L -4.592201188381084 -51.08655439013544 L -2.3410838641935436 -51.769423364838765 L -1.9823196335402045e-15 -52 L 2.34108386419354 -51.769423364838765 L 4.59220118838108 -51.08655439013544 L 6.666842796235223 -49.977635347630546 L 8.485281374238568 -48.48528137423857 L 9.977635347630542 -46.66684279623523 L 11.086554390135438 -44.59220118838108 L 11.769423364838763 -42.34108386419354 Z" fill="#d93826" stroke="#d93826" stroke-width="1" />
  <path d="M 47 -40 L 46.769423364838765 -37.658916135806464 L 46.08655439013544 -35.407798811618925 L 44.97763534763054 -33.33315720376477 L 43.48528137423857 -31.514718625761432 L 41.66684279623523 -30.022364652369458 L 39.592201188381075 -28.91344560986456 L 37.34108386419354 -28.230576635161235 L 35 -28 L 32.658916135806464 -28.230576635161235 L 30.407798811618925 -28.91344560986456 L 28.333157203764777 -30.022364652369454 L 26.514718625761432 -31.51471862576143 L 25.022364652369454 -33.33315720376477 L 23.91344560986456 -35.40779881161892 L 23.230576635161235 -37.65891613580646 L 23 -40 L 23.230576635161235 -42.34108386419354 L 23.91344560986456 -44.592201188381075 L 25.022364652369454 -46.66684279623522 L 26.51471862576143 -48.48528137423857 L 28.333157203764774 -49.97763534763054 L 30.407798811618918 -51.08655439013544 L 32.65891613580646 -51.769423364838765 L 35 -52 L 37.34108386419354 -51.769423364838765 L 39.59220118838108 -51.08655439013544 L 41.66684279623522 -49.977635347630546 L 43.48528137423857 -48.48528137423857 L 44.97763534763054 -46.66684279623523 L 46.08655439013544 -44.59220118838108 L 46.769423364838765 -42.34108386419354 Z" fill="#d95c26" stroke="#d95c26" stroke-width="1" />
  <path d="M 82 -40 L 81.76942336483876 -37.658916135806464 L 81.08655439013543 -35.407798811618925 L 79.97763534763054 -33.33315720376477 L 78.48528137423857 -31.514718625761432 L 76.66684279623523 -30.022364652369458 L 74.59220118838108 -28.91344560986456 L 72.34108386419354 -28.230576635161235 L 70 -28 L 67.65891613580646 -28.230576635161235 L 65.40779881161892 -28.91344560986456 L 63.33315720376478 -30.022364652369454 L 61.51471862576143 -31.51471862576143 L 60.022364652369454 -33.33315720376477 L 58.91344560986456 -35.40779881161892 L 58.230576635161235 -37.65891613580646 L 58 -40 L 58.230576635161235 -42.34108386419354 L 58.91344560986456 -44.592201188381075 L 60.022364652369454 -46.66684279623522 L 61.51471862576143 -48.48528137423857 L 63.33315720376477 -49.97763534763054 L 65.40779881161892 -51.08655439013544 L 67.65891613580645 -51.769423364838765 L 70 -52 L 72.34108386419354 -51.769423364838765 L 74.59220118838108 -51.08655439013544 L 76.66684279623522 -49.977635347630546 L 78.48528137423857 -48.48528137423857 L 79.97763534763054 -46.66684279623523 L 81.08655439013543 -44.59220118838108 L 81.76942336483876 -42.34108386419354 Z" fill="#d98026" stroke="#d98026" stroke-width="1" />
  <path d="M 117 -40 L 116.76942336483876 -37.658916135806464 L 116.08655439013543 -35.407798811618925 L 114.97763534763054 -33.33315720376477 L 113.48528137423857 -31.514718625761432 L 111.66684279623523 -30.022364652369458 L 109.59220118838108 -28.91344560986456 L 107.34108386419354 -28.230576635161235 L 105 -28 L 102.65891613580646 -28.230576635161235 L 100.40779881161892 -28.91344560986456 L 98.33315720376477 -30.022364652369454 L 96.51471862576143 -31.51471862576143 L 95.02236465236946 -33.33315720376477 L 93.91344560986457 -35.40779881161892 L 93.23057663516124 -37.65891613580646 L 93 -40 L 93.23057663516124 -42.34108386419354 L 93.91344560986455 -44.592201188381075 L 95.02236465236945 -46.66684279623522 L 96.51471862576143 -48.48528137423857 L 98.33315720376477 -49.97763534763054 L 100.40779881161892 -51.08655439013544 L 102.65891613580645 -51.769423364838765 L 105 -52 L 107.34108386419354 -51.769423364838765 L 109.59220118838108 -51.08655439013544 L 111.66684279623522 -49.977635347630546 L 113.48528137423857 -48.48528137423857 L 114.97763534763054 -46.66684279623523 L 116.08655439013543 -44.59220118838108 L 116.76942336483876 -42.34108386419354 Z" fill="#d9a326" stroke="#d9a326" stroke-width="1" />
  <path d="M 152 -40 L 151.76942336483876 -37.658916135806464 L 151.08655439013543 -35.407798811618925 L 149.97763534763055 -33.33315720376477 L 148.48528137423858 -31.514718625761432 L 146.66684279623522 -30.022364652369458 L 144.59220118838107 -28.91344560986456 L 142.34108386419354 -28.230576635161235 L 140 -28 L 137.65891613580646 -28.230576635161235 L 135.40779881161893 -28.91344560986456 L 133.33315720376478 -30.022364652369454 L 131.51471862576142 -31.51471862576143 L 130.02236465236945 -33.33315720376477 L 128.91344560986457 -35.40779881161892 L 128.23057663516124 -37.65891613580646 L 128 -40 L 128.23057663516124 -42.34108386419354 L 128.91344560986457 -44.592201188381075 L 130.02236465236945 -46.66684279623522 L 131.51471862576142 -48.48528137423857 L 133.33315720376478 -49.97763534763054 L 135.4077988116189 -51.08655439013544 L 137.65891613580646 -51.769423364838765 L 140 -52 L 142.34108386419354 -51.769423364838765 L 144.59220118838107 -51.08655439013544 L 146.66684279623522 -49.977635347630546 L 148.48528137423858 -48.48528137423857 L 149.97763534763055 -46.66684279623523 L 151.08655439013543 -44.59220118838108 L 151.76942336483876 -42.34108386419354 Z" fill="#d9c726" stroke="#d9c726" stroke-width="1" />
  <path d="M 187 -40 L 186.76942336483876 -37.658916135806464 L 186.08655439013543 -35.407798811618925 L 184.97763534763055 -33.33315720376477 L 183.48528137423858 -31.514718625761432 L 181.66684279623522 -30.022364652369458 L 179.59220118838107 -28.91344560986456 L 177.34108386419354 -28.230576635161235 L 175 -28 L 172.65891613580646 -28.230576635161235 L 170.40779881161893 -28.91344560986456 L 168.33315720376478 -30.022364652369454 L 166.51471862576142 -31.51471862576143 L 165.02236465236945 -33.33315720376477 L 163.91344560986457 -35.40779881161892 L 163.23057663516124 -37.65891613580646 L 163 -40 L 163.23057663516124 -42.34108386419354 L 163.91344560986457 -44.592201188381075 L 165.02236465236945 -46.66684279623522 L 166.51471862576142 -48.48528137423857 L 168.33315720376478 -49.97763534763054 L 170.4077988116189 -51.08655439013544 L 172.65891613580646 -51.769423364838765 L 175 -52 L 177.34108386419354 -51.769423364838765 L 179.59220118838107 -51.08655439013544 L 181.66684279623522 -49.977635347630546 L 183.48528137423858 -48.48528137423857 L 184.97763534763055 -46.66684279623523 L 186.08655439013543 -44.59220118838108 L 186.76942336483876 -42.34108386419354 Z" fill="#d93826" stroke="#d93826" stroke-width="1" />
  <path d="M 12 -40 L 11.769423364838765 -37.658916135806464 L 11.08655439013544 -35.407798811618925 L 9.977635347630542 -33.33315720376477 L 8.485281374238571 -31.514718625761432 L 6.666842796235228 -30.022364652369458 L 4.592201188381078 -28.91344560986456 L 2.34108386419354 -28.230576635161235 L 9.568326844134432e-16 -28 L -2.3410838641935383 -28.230576635161235 L -4.592201188381077 -28.91344560986456 L -6.6668427962352235 -30.022364652369454 L -8.48528137423857 -31.51471862576143 L -9.977635347630544 -33.33315720376477 L -11.08655439013544 -35.40779881161892 L -11.769423364838765 -37.65891613580646 L -12 -40 L -11.769423364838765 -42.34108386419354 L -11.086554390135442 -44.592201188381075 L -9.977635347630546 -46.66684279623522 L -8.485281374238571 -48.48528137423857 L -6.666842796235226 -49.97763534763054 L -4.592201188381084 -51.08655439013544 L -2.3410838641935436 -51.769423364838765 L -1.9823196335402045e-15 -52 L 2.34108386419354 -51.769423364838765 L 4.59220118838108 -51.08655439013544 L 6.666842796235223 -49.977635347630546 L 8.485281374238568 -48.48528137423857 L 9.977635347630542 -46.66684279623523 L 11.086554390135438 -44.59220118838108 L 11.769423364838763 -42.34108386419354 Z" fill="#d93826" stroke="#d93826" stroke-width="1" />
  <path d="M 47 -40 L 46.769423364838765 -37.658916135806464 L 46.08655439013544 -35.407798811618925 L 44.97763534763054 -33.33315720376477 L 43.48528137423857 -31.514718625761432 L 41.66684279623523 -30.022364652369458 L 39.592201188381075 -28.91344560986456 L 37.34108386419354 -28.230576635161235 L 35 -28 L 32.658916135806464 -28.230576635161235 L 30.407798811618925 -28.91344560986456 L 28.333157203764777 -30.022364652369454 L 26.514718625761432 -31.51471862576143 L 25.022364652369454 -33.33315720376477 L 23.91344560986456 -35.40779881161892 L 23.230576635161235 -37.65891613580646 L 23 -40 L 23.230576635161235 -42.34108386419354 L 23.91344560986456 -44.592201188381075 L 25.022364652369454 -46.66684279623522 L 26.51471862576143 -48.48528137423857 L 28.333157203764774 -49.97763534763054 L 30.407798811618918 -51.08655439013544 L 32.65891613580646 -51.769423364838765 L 35 -52 L 37.34108386419354 -51.769423364838765 L 39.59220118838108 -51.08655439013544 L 41.66684279623522 -49.977635347630546 L 43.48528137423857 -48.48528137423857 L 44.97763534763054 -46.66684279623523 L 46.08655439013544 -44.59220118838108 L 46.769423364838765 -42.34108386419354 Z" fill="#d95c26" stroke="#d95c26" stroke-width="1" />
  <path d="M 82 -40 L 81.76942336483876 -37.658916135806464 L 81.08655439013543 -35.407798811618925 L 79.97763534763054 -33.33315720376477 L 78.48528137423857 -31.514718625761432 L 76.66684279623523 -30.022364652369458 L 74.59220118838108 -28.91344560986456 L 72.34108386419354 -28.230576635161235 L 70 -28 L 67.65891613580646 -28.230576635161235 L 65.40779881161892 -28.91344560986456 L 63.33315720376478 -30.022364652369454 L 61.51471862576143 -31.51471862576143 L 60.022364652369454 -33.33315720376477 L 58.91344560986456 -35.40779881161892 L 58.230576635161235 -37.65891613580646 L 58 -40 L 58.230576635161235 -42.34108386419354 L 58.91344560986456 -44.592201188381075 L 60.022364652369454 -46.66684279623522 L 61.51471862576143 -48.48528137423857 L 63.33315720376477 -49.97763534763054 L 65.40779881161892 -51.08655439013544 L 67.65891613580645 -51.769423364838765 L 70 -52 L 72.34108386419354 -51.769423364838765 L 74.59220118838108 -51.08655439013544 L 76.66684279623522 -49.977635347630546 L 78.48528137423857 -48.48528137423857 L 79.97763534763054 -46.66684279623523 L 81.08655439013543 -44.59220118838108 L 81.76942336483876 -42.34108386419354 Z" fill="#d98026" stroke="#d98026" stroke-width="1" />
  <path d="M 117 -40 L 116.76942336483876 -37.658916135806464 L 116.08655439013543 -35.407798811618925 L 114.97763534763054 -33.33315720376477 L 113.48528137423857 -31.514718625761432 L 111.66684279623523 -30.022364652369458 L 109.59220118838108 -28.91344560986456 L 107.34108386419354 -28.230576635161235 L 105 -28 L 102.65891613580646 -28.230576635161235 L 100.40779881161892 -28.91344560986456 L 98.33315720376477 -30.022364652369454 L 96.51471862576143 -31.51471862576143 L 95.02236465236946 -33.33315720376477 L 93.91344560986457 -35.40779881161892 L 93.23057663516124 -37.65891613580646 L 93 -40 L 93.23057663516124 -42.34108386419354 L 93.91344560986455 -44.592201188381075 L 95.02236465236945 -46.66684279623522 L 96.51471862576143 -48.48528137423857 L 98.33315720376477 -49.97763534763054 L 100.40779881161892 -51.08655439013544 L 102.65891613580645 -51.769423364838765 L 105 -52 L 107.34108386419354 -51.769423364838765 L 109.59220118838108 -51.08655439013544 L 111.66684279623522 -49.977635347630546 L 113.48528137423857 -48.48528137423857 L 114.97763534763054 -46.66684279623523 L 116.08655439013543 -44.59220118838108 L 116.76942336483876 -42.34108386419354 Z" fill="#d9a326" stroke="#d9a326" stroke-width="1" />
  <path d="M 152 -40 L 151.76942336483876 -37.658916135806464 L 151.08655439013543 -35.407798811618925 L 149.97763534763055 -33.33315720376477 L 148.48528137423858 -31.514718625761432 L 146.66684279623522 -30.022364652369458 L 144.59220118838107 -28.91344560986456 L 142.34108386419354 -28.230576635161235 L 140 -28 L 137.65891613580646 -28.230576635161235 L 135.40779881161893 -28.91344560986456 L 133.33315720376478 -30.022364652369454 L 131.51471862576142 -31.51471862576143 L 130.02236465236945 -33.33315720376477 L 128.91344560986457 -35.40779881161892 L 128.23057663516124 -37.65891613580646 L 128 -40 L 128.23057663516124 -42.34108386419354 L 128.91344560986457 -44.592201188381075 L 130.02236465236945 -46.66684279623522 L 131.51471862576142 -48.48528137423857 L 133.33315720376478 -49.97763534763054 L 135.4077988116189 -51.08655439013544 L 137.65891613580646 -51.769423364838765 L 140 -52 L 142.34108386419354 -51.769423364838765 L 144.59220118838107 -51.08655439013544 L 146.66684279623522 -49.977635347630546 L 148.48528137423858 -48.48528137423857 L 149.97763534763055 -46.66684279623523 L 151.08655439013543 -44.59220118838108 L 151.76942336483876 -42.34108386419354 Z" fill="#d9c726" stroke="#d9c726" stroke-width="1" />
  <path d="M 187 -40 L 186.76942336483876 -37.658916135806464 L 186.08655439013543 -35.407798811618925 L 184.97763534763055 -33.33315720376477 L 183.48528137423858 -31.514718625761432 L 181.66684279623522 -30.022364652369458 L 179.59220118838107 -28.91344560986456 L 177.34108386419354 -28.230576635161235 L 175 -28 L 172.65891613580646 -28.230576635161235 L 170.40779881161893 -28.91344560986456 L 168.33315720376478 -30.022364652369454 L 166.51471862576142 -31.51471862576143 L 165.02236465236945 -33.33315720376477 L 163.91344560986457 -35.40779881161892 L 163.23057663516124 -37.65891613580646 L 163 -40 L 163.23057663516124 -42.34108386419354 L 163.91344560986457 -44.592201188381075 L 165.02236465236945 -46.66684279623522 L 166.51471862576142 -48.48528137423857 L 168.33315720376478 -49.97763534763054 L 170.4077988116189 -51.08655439013544 L 172.65891613580646 -51.769423364838765 L 175 -52 L 177.34108386419354 -51.769423364838765 L 179.59220118838107 -51.08655439013544 L 181.66684279623522 -49.977635347630546 L 183.48528137423858 -48.48528137423857 L 184.97763534763055 -46.66684279623523 L 186.08655439013543 -44.59220118838108 L 186.76942336483876 -42.34108386419354 Z" fill="#d93826" stroke="#d93826" stroke-width="1" />
  <path d="M 12 40 L 11.769423364838765 42.341083864193536 L 11.08655439013544 44.592201188381075 L 9.977635347630542 46.66684279623523 L 8.485281374238571 48.48528137423857 L 6.666842796235228 49.97763534763054 L 4.592201188381078 51.08655439013544 L 2.34108386419354 51.769423364838765 L 9.568326844134432e-16 52 L -2.3410838641935383 51.769423364838765 L -4.592201188381077 51.08655439013544 L -6.6668427962352235 49.977635347630546 L -8.48528137423857 48.48528137423857 L -9.977635347630544 46.66684279623523 L -11.08655439013544 44.59220118838108 L -11.769423364838765 42.34108386419354 L -12 40 L -11.769423364838765 37.65891613580646 L -11.086554390135442 35.407798811618925 L -9.977635347630546 33.33315720376478 L -8.485281374238571 31.514718625761432 L -6.666842796235226 30.022364652369458 L -4.592201188381084 28.91344560986456 L -2.3410838641935436 28.230576635161235 L -1.9823196335402045e-15 28 L 2.34108386419354 28.230576635161235 L 4.59220118838108 28.91344560986456 L 6.666842796235223 30.022364652369454 L 8.485281374238568 31.51471862576143 L 9.977635347630542 33.33315720376477 L 11.086554390135438 35.40779881161892 L 11.769423364838763 37.65891613580646 Z" fill="#bf4d40" stroke="#bf4d40" stroke-width="1" />
  <path d="M 47 40 L 46.769423364838765 42.341083864193536 L 46.08655439013544 44.592201188381075 L 44.97763534763054 46.66684279623523 L 43.48528137423857 48.48528137423857 L 41.66684279623523 49.97763534763054 L 39.592201188381075 51.08655439013544 L 37.34108386419354 51.769423364838765 L 35 52 L 32.658916135806464 51.769423364838765 L 30.407798811618925 51.08655439013544 L 28.333157203764777 49.977635347630546 L 26.514718625761432 48.48528137423857 L 25.022364652369454 46.66684279623523 L 23.91344560986456 44.59220118838108 L 23.230576635161235 42.34108386419354 L 23 40 L 23.230576635161235 37.65891613580646 L 23.91344560986456 35.407798811618925 L 25.022364652369454 33.33315720376478 L 26.51471862576143 31.514718625761432 L 28.333157203764774 30.022364652369458 L 30.407798811618918 28.91344560986456 L 32.65891613580646 28.230576635161235 L 35 28 L 37.34108386419354 28.230576635161235 L 39.59220118838108 28.91344560986456 L 41.66684279623522 30.022364652369454 L 43.48528137423857 31.51471862576143 L 44.97763534763054 33.33315720376477 L 46.08655439013544 35.40779881161892 L 46.769423364838765 37.65891613580646 Z" fill="#bf6640" stroke="#bf6640" stroke-width="1" />
  <path d="M 82 40 L 81.76942336483876 42.341083864193536 L 81.08655439013543 44.592201188381075 L 79.97763534763054 46.66684279623523 L 78.48528137423857 48.48528137423857 L 76.66684279623523 49.97763534763054 L 74.59220118838108 51.08655439013544 L 72.34108386419354 51.769423364838765 L 70 52 L 67.65891613580646 51.769423364838765 L 65.40779881161892 51.08655439013544 L 63.33315720376478 49.977635347630546 L 61.51471862576143 48.48528137423857 L 60.022364652369454 46.66684279623523 L 58.91344560986456 44.59220118838108 L 58.230576635161235 42.34108386419354 L 58 40 L 58.230576635161235 37.65891613580646 L 58.91344560986456 35.407798811618925 L 60.022364652369454 33.33315720376478 L 61.51471862576143 31.514718625761432 L 63.33315720376477 30.022364652369458 L 65.40779881161892 28.91344560986456 L 67.65891613580645 28.230576635161235 L 70 28 L 72.34108386419354 28.230576635161235 L 74.59220118838108 28.91344560986456 L 76.66684279623522 30.022364652369454 L 78.48528137423857 31.51471862576143 L 79.97763534763054 33.33315720376477 L 81.08655439013543 35.40779881161892 L 81.76942336483876 37.65891613580646 Z" fill="#bf8040" stroke="#bf8040" stroke-width="1" />
  <path d="M 117 40 L 116.76942336483876 42.341083864193536 L 116.08655439013543 44.592201188381075 L 114.97763534763054 46.66684279623523 L 113.48528137423857 48.48528137423857 L 111.66684279623523 49.97763534763054 L 109.59220118838108 51.08655439013544 L 107.34108386419354 51.769423364838765 L 105 52 L 102.65891613580646 51.769423364838765 L 100.40779881161892 51.08655439013544 L 98.33315720376477 49.977635347630546 L 96.51471862576143 48.48528137423857 L 95.02236465236946 46.66684279623523 L 93.91344560986457 44.59220118838108 L 93.23057663516124 42.34108386419354 L 93 40 L 93.23057663516124 37.65891613580646 L 93.91344560986455 35.407798811618925 L 95.02236465236945 33.33315720376478 L 96.51471862576143 31.514718625761432 L 98.33315720376477 30.022364652369458 L 100.40779881161892 28.91344560986456 L 102.65891613580645 28.230576635161235 L 105 28 L 107.34108386419354 28.230576635161235 L 109.59220118838108 28.91344560986456 L 111.66684279623522 30.022364652369454 L 113.48528137423857 31.51471862576143 L 114.97763534763054 33.33315720376477 L 116.08655439013543 35.40779881161892 L 116.76942336483876 37.65891613580646 Z" fill="#bf9940" stroke="#bf9940" stroke-width="1" />
  <path d="M 152 40 L 151.76942336483876 42.341083864193536 L 151.08655439013543 44.592201188381075 L 149.97763534763055 46.66684279623523 L 148.48528137423858 48.48528137423857 L 146.66684279623522 49.97763534763054 L 144.59220118838107 51.08655439013544 L 142.34108386419354 51.769423364838765 L 140 52 L 137.65891613580646 51.769423364838765 L 135.40779881161893 51.08655439013544 L 133.33315720376478 49.977635347630546 L 131.51471862576142 48.48528137423857 L 130.02236465236945 46.66684279623523 L 128.91344560986457 44.59220118838108 L 128.23057663516124 42.34108386419354 L 128 40 L 128.23057663516124 37.65891613580646 L 128.91344560986457 35.407798811618925 L 130.02236465236945 33.33315720376478 L 131.51471862576142 31.514718625761432 L 133.33315720376478 30.022364652369458 L 135.4077988116189 28.91344560986456 L 137.65891613580646 28.230576635161235 L 140 28 L 142.34108386419354 28.230576635161235 L 144.59220118838107 28.91344560986456 L 146.66684279623522 30.022364652369454 L 148.48528137423858 31.51471862576143 L 149.97763534763055 33.33315720376477 L 151.08655439013543 35.40779881161892 L 151.76942336483876 37.65891613580646 Z" fill="#bfb340" stroke="#bfb340" stroke-width="1" />
  <path d="M 187 40 L 186.76942336483876 42.341083864193536 L 186.08655439013543 44.592201188381075 L 184.97763534763055 46.66684279623523 L 183.48528137423858 48.48528137423857 L 181.66684279623522 49.97763534763054 L 179.59220118838107 51.08655439013544 L 177.34108386419354 51.769423364838765 L 175 52 L 172.65891613580646 51.769423364838765 L 170.40779881161893 51.08655439013544 L 168.33315720376478 49.977635347630546 L 166.51471862576142 48.48528137423857 L 165.02236465236945 46.66684279623523 L 163.91344560986457 44.59220118838108 L 163.23057663516124 42.34108386419354 L 163 40 L 163.23057663516124 37.65891613580646 L 163.91344560986457 35.407798811618925 L 165.02236465236945 33.33315720376478 L 166.51471862576142 31.514718625761432 L 168.33315720376478 30.022364652369458 L 170.4077988116189 28.91344560986456 L 172.65891613580646 28.230576635161235 L 175 28 L 177.34108386419354 28.230576635161235 L 179.59220118838107 28.91344560986456 L 181.66684279623522 30.022364652369454 L 183.48528137423858 31.51471862576143 L 184.97763534763055 33.33315720376477 L 186.08655439013543 35.40779881161892 L 186.76942336483876 37.65891613580646 Z" fill="#bf4d40" stroke="#bf4d40" stroke-width="1" />
  <path d="M 12 40 L 11.769423364838765 42.341083864193536 L 11.08655439013544 44.592201188381075 L 9.977635347630542 46.66684279623523 L 8.485281374238571 48.48528137423857 L 6.666842796235228 49.97763534763054 L 4.592201188381078 51.08655439013544 L 2.34108386419354 51.769423364838765 L 9.568326844134432e-16 52 L -2.3410838641935383 51.769423364838765 L -4.592201188381077 51.08655439013544 L -6.6668427962352235 49.977635347630546 L -8.48528137423857 48.48528137423857 L -9.977635347630544 46.66684279623523 L -11.08655439013544 44.59220118838108 L -11.769423364838765 42.34108386419354 L -12 40 L -11.769423364838765 37.65891613580646 L -11.086554390135442 35.407798811618925 L -9.977635347630546 33.33315720376478 L -8.485281374238571 31.514718625761432 L -6.666842796235226 30.022364652369458 L -4.592201188381084 28.91344560986456 L -2.3410838641935436 28.230576635161235 L -1.9823196335402045e-15 28 L 2.34108386419354 28.230576635161235 L 4.59220118838108 28.91344560986456 L 6.666842796235223 30.022364652369454 L 8.485281374238568 31.51471862576143 L 9.977635347630542 33.33315720376477 L 11.086554390135438 35.40779881161892 L 11.769423364838763 37.65891613580646 Z" fill="#bf4d40" stroke="#bf4d40" stroke-width="1" />
  <path d="M 47 40 L 46.769423364838765 42.341083864193536 L 46.08655439013544 44.592201188381075 L 44.97763534763054 46.66684279623523 L 43.48528137423857 48.48528137423857 L 41.66684279623523 49.97763534763054 L 39.592201188381075 51.08655439013544 L 37.34108386419354 51.769423364838765 L 35 52 L 32.658916135806464 51.769423364838765 L 30.407798811618925 51.08655439013544 L 28.333157203764777 49.977635347630546 L 26.514718625761432 48.48528137423857 L 25.022364652369454 46.66684279623523 L 23.91344560986456 44.59220118838108 L 23.230576635161235 42.34108386419354 L 23 40 L 23.230576635161235 37.65891613580646 L 23.91344560986456 35.407798811618925 L 25.022364652369454 33.33315720376478 L 26.51471862576143 31.514718625761432 L 28.333157203764774 30.022364652369458 L 30.407798811618918 28.91344560986456 L 32.65891613580646 28.230576635161235 L 35 28 L 37.34108386419354 28.230576635161235 L 39.59220118838108 28.91344560986456 L 41.66684279623522 30.022364652369454 L 43.48528137423857 31.51471862576143 L 44.97763534763054 33.33315720376477 L 46.08655439013544 35.40779881161892 L 46.769423364838765 37.65891613580646 Z" fill="#bf6640" stroke="#bf6640" stroke-width="1" />
  <path d="M 82 40 L 81.76942336483876 42.341083864193536 L 81.08655439013543 44.592201188381075 L 79.97763534763054 46.66684279623523 L 78.48528137423857 48.48528137423857 L 76.66684279623523 49.97763534763054 L 74.59220118838108 51.08655439013544 L 72.34108386419354 51.769423364838765 L 70 52 L 67.65891613580646 51.769423364838765 L 65.40779881161892 51.08655439013544 L 63.33315720376478 49.977635347630546 L 61.51471862576143 48.48528137423857 L 60.022364652369454 46.66684279623523 L 58.91344560986456 44.59220118838108 L 58.230576635161235 42.34108386419354 L 58 40 L 58.230576635161235 37.65891613580646 L 58.91344560986456 35.407798811618925 L 60.022364652369454 33.33315720376478 L 61.51471862576143 31.514718625761432 L 63.33315720376477 30.022364652369458 L 65.40779881161892 28.91344560986456 L 67.65891613580645 28.230576635161235 L 70 28 L 72.34108386419354 28.230576635161235 L 74.59220118838108 28.91344560986456 L 76.66684279623522 30.022364652369454 L 78.48528137423857 31.51471862576143 L 79.97763534763054 33.33315720376477 L 81.08655439013543 35.40779881161892 L 81.76942336483876 37.65891613580646 Z" fill="#bf8040" stroke="#bf8040" stroke-width="1" />
  <path d="M 117 40 L 116.76942336483876 42.341083864193536 L 116.08655439013543 44.592201188381075 L 114.97763534763054 46.66684279623523 L 113.48528137423857 48.48528137423857 L 111.66684279623523 49.97763534763054 L 109.59220118838108 51.08655439013544 L 107.34108386419354 51.769423364838765 L 105 52 L 102.65891613580646 51.769423364838765 L 100.40779881161892 51.08655439013544 L 98.33315720376477 49.977635347630546 L 96.51471862576143 48.48528137423857 L 95.02236465236946 46.66684279623523 L 93.91344560986457 44.59220118838108 L 93.23057663516124 42.34108386419354 L 93 40 L 93.23057663516124 37.65891613580646 L 93.91344560986455 35.407798811618925 L 95.02236465236945 33.33315720376478 L 96.51471862576143 31.514718625761432 L 98.33315720376477 30.022364652369458 L 100.40779881161892 28.91344560986456 L 102.65891613580645 28.230576635161235 L 105 28 L 107.34108386419354 28.230576635161235 L 109.59220118838108 28.91344560986456 L 111.66684279623522 30.022364652369454 L 113.48528137423857 31.51471862576143 L 114.97763534763054 33.33315720376477 L 116.08655439013543 35.40779881161892 L 116.76942336483876 37.65891613580646 Z" fill="#bf9940" stroke="#bf9940" stroke-width="1" />
  <path d="M 152 40 L 151.76942336483876 42.341083864193536 L 151.08655439013543 44.592201188381075 L 149.97763534763055 46.66684279623523 L 148.48528137423858 48.48528137423857 L 146.66684279623522 49.97763534763054 L 144.59220118838107 51.08655439013544 L 142.34108386419354 51.769423364838765 L 140 52 L 137.65891613580646 51.769423364838765 L 135.40779881161893 51.08655439013544 L 133.33315720376478 49.977635347630546 L 131.51471862576142 48.48528137423857 L 130.02236465236945 46.66684279623523 L 128.91344560986457 44.59220118838108 L 128.23057663516124 42.34108386419354 L 128 40 L 128.23057663516124 37.65891613580646 L 128.91344560986457 35.407798811618925 L 130.02236465236945 33.33315720376478 L 131.51471862576142 31.514718625761432 L 133.33315720376478 30.022364652369458 L 135.4077988116189 28.91344560986456 L 137.65891613580646 28.230576635161235 L 140 28 L 142.34108386419354 28.230576635161235 L 144.59220118838107 28.91344560986456 L 146.66684279623522 30.022364652369454 L 148.48528137423858 31.51471862576143 L 149.97763534763055 33.33315720376477 L 151.08655439013543 35.40779881161892 L 151.76942336483876 37.65891613580646 Z" fill="#bfb340" stroke="#bfb340" stroke-width="1" />
  <path d="M 187 40 L 186.76942336483876 42.341083864193536 L 186.08655439013543 44.592201188381075 L 184.97763534763055 46.66684279623523 L 183.48528137423858 48.48528137423857 L 181.66684279623522 49.97763534763054 L 179.59220118838107 51.08655439013544 L 177.34108386419354 51.769423364838765 L 175 52 L 172.65891613580646 51.769423364838765 L 170.40779881161893 51.08655439013544 L 168.33315720376478 49.977635347630546 L 166.51471862576142 48.48528137423857 L 165.02236465236945 46.66684279623523 L 163.91344560986457 44.59220118838108 L 163.23057663516124 42.34108386419354 L 163 40 L 163.23057663516124 37.65891613580646 L 163.91344560986457 35.407798811618925 L 165.02236465236945 33.33315720376478 L 166.51471862576142 31.514718625761432 L 168.33315720376478 30.022364652369458 L 170.4077988116189 28.91344560986456 L 172.65891613580646 28.230576635161235 L 175 28 L 177.34108386419354 28.230576635161235 L 179.59220118838107 28.91344560986456 L 181.66684279623522 30.022364652369454 L 183.48528137423858 31.51471862576143 L 184.97763534763055 33.33315720376477 L 186.08655439013543 35.40779881161892 L 186.76942336483876 37.65891613580646 Z" fill="#bf4d40" stroke="#bf4d40" stroke-width="1" />
</svg>