<svg width="160" height="90" viewBox="59.24648780186787 -9.369013414859909 36.50702439626426 20.535201222898646" xmlns="http://www.w3.org/2000/svg">
  <path d="M 18 0 L 17.846282243225843 1.560722576129026 L 17.391036260090296 3.0614674589207183 L 16.651756898420363 4.444561864156817 L 15.65685424949238 5.65685424949238 L 14.444561864156817 6.651756898420362 L 13.061467458920719 7.391036260090294 L 11.560722576129027 7.8462822432258434 L 10 8 L 8.439277423870974 7.8462822432258434 L 6.938532541079282 7.391036260090294 L 5.555438135843184 6.651756898420364 L 4.34314575050762 5.656854249492381 L 3.3482431015796372 4.444561864156817 L 2.608963739909706 3.061467458920719 L 2.1537177567741566 1.5607225761290289 L 2 9.797174393178826e-16 L 2.1537177567741566 -1.5607225761290269 L 2.608963739909705 -3.0614674589207174 L 3.3482431015796363 -4.444561864156816 L 4.3431457505076185 -5.65685424949238 L 5.555438135843183 -6.651756898420362 L 6.938532541079278 -7.391036260090292 L 8.439277423870971 -7.846282243225843 L 9.999999999999998 -8 L 11.560722576129027 -7.8462822432258434 L 13.06146745892072 -7.391036260090293 L 14.444561864156814 -6.651756898420364 L 15.65685424949238 -5.6568542494923815 L 16.651756898420363 -4.444561864156817 L 17.391036260090292 -3.061467458920723 L 17.846282243225843 -1.5607225761290298 Z" fill="#d99126" stroke="#d99126" stroke-width="1" />
  <path d="M 33 0 L 32.84628224322584 1.560722576129026 L 32.391036260090296 3.0614674589207183 L 31.651756898420363 4.444561864156817 L 30.65685424949238 5.65685424949238 L 29.444561864156817 6.651756898420362 L 28.061467458920717 7.391036260090294 L 26.560722576129027 7.8462822432258434 L 25 8 L 23.439277423870976 7.8462822432258434 L 21.938532541079283 7.391036260090294 L 20.555438135843183 6.651756898420364 L 19.34314575050762 5.656854249492381 L 18.348243101579637 4.444561864156817 L 17.608963739909704 3.061467458920719 L 17.153717756774157 1.5607225761290289 L 17 9.797174393178826e-16 L 17.153717756774157 -1.5607225761290269 L 17.608963739909704 -3.0614674589207174 L 18.348243101579637 -4.444561864156816 L 19.343145750507617 -5.65685424949238 L 20.555438135843183 -6.651756898420362 L 21.938532541079276 -7.391036260090292 L 23.43927742387097 -7.846282243225843 L 25 -8 L 26.560722576129027 -7.8462822432258434 L 28.06146745892072 -7.391036260090293 L 29.444561864156814 -6.651756898420364 L 30.65685424949238 -5.6568542494923815 L 31.651756898420363 -4.444561864156817 L 32.39103626009029 -3.061467458920723 L 32.84628224322584 -1.5607225761290298 Z" fill="#d9ca26" stroke="#d9ca26" stroke-width="1" />
  <path d="M 53 0 L 52.84628224322584 1.560722576129026 L 52.391036260090296 3.0614674589207183 L 51.65175689842036 4.444561864156817 L 50.65685424949238 5.65685424949238 L 49.44456186415682 6.651756898420362 L 48.06146745892072 7.391036260090294 L 46.560722576129024 7.8462822432258434 L 45 8 L 43.439277423870976 7.8462822432258434 L 41.93853254107928 7.391036260090294 L 40.55543813584318 6.651756898420364 L 39.34314575050762 5.656854249492381 L 38.34824310157964 4.444561864156817 L 37.608963739909704 3.061467458920719 L 37.15371775677416 1.5607225761290289 L 37 9.797174393178826e-16 L 37.15371775677416 -1.5607225761290269 L 37.608963739909704 -3.0614674589207174 L 38.348243101579634 -4.444561864156816 L 39.34314575050762 -5.65685424949238 L 40.55543813584318 -6.651756898420362 L 41.938532541079276 -7.391036260090292 L 43.43927742387097 -7.846282243225843 L 45 -8 L 46.560722576129024 -7.8462822432258434 L 48.06146745892072 -7.391036260090293 L 49.44456186415682 -6.651756898420364 L 50.656854249492376 -5.6568542494923815 L 51.65175689842036 -4.444561864156817 L 52.39103626009029 -3.061467458920723 L 52.84628224322584 -1.5607225761290298 Z" fill="#aed926" stroke="#aed926" stroke-width="1" />
  <path d="M 63 0 L 62.84628224322584 1.560722576129026 L 62.391036260090296 3.0614674589207183 L 61.65175689842036 4.444561864156817 L 60.65685424949238 5.65685424949238 L 59.44456186415682 6.651756898420362 L 58.06146745892072 7.391036260090294 L 56.560722576129024 7.8462822432258434 L 55 8 L 53.439277423870976 7.8462822432258434 L 51.93853254107928 7.391036260090294 L 50.55543813584318 6.651756898420364 L 49.34314575050762 5.656854249492381 L 48.34824310157964 4.444561864156817 L 47.608963739909704 3.061467458920719 L 47.15371775677416 1.5607225761290289 L 47 9.797174393178826e-16 L 47.15371775677416 -1.5607225761290269 L 47.608963739909704 -3.0614674589207174 L 48.348243101579634 -4.444561864156816 L 49.34314575050762 -5.65685424949238 L 50.55543813584318 -6.651756898420362 L 51.938532541079276 -7.391036260090292 L 53.43927742387097 -7.846282243225843 L 55 -8 L 56.560722576129024 -7.8462822432258434 L 58.06146745892072 -7.391036260090293 L 59.44456186415682 -6.651756898420364 L 60.656854249492376 -5.6568542494923815 L 61.65175689842036 -4.444561864156817 L 62.39103626009029 -3.061467458920723 L 62.84628224322584 -1.5607225761290298 Z" fill="#75d926" stroke="#75d926" stroke-width="1" />
  <path d="M 78 0 L 77.84628224322584 1.560722576129026 L 77.39103626009029 3.0614674589207183 L 76.65175689842036 4.444561864156817 L 75.65685424949238 5.65685424949238 L 74.44456186415682 6.651756898420362 L 73.06146745892072 7.391036260090294 L 71.56072257612902 7.8462822432258434 L 70 8 L 68.43927742387098 7.8462822432258434 L 66.93853254107928 7.391036260090294 L 65.55543813584319 6.651756898420364 L 64.34314575050762 5.656854249492381 L 63.34824310157964 4.444561864156817 L 62.608963739909704 3.061467458920719 L 62.15371775677416 1.5607225761290289 L 62 9.797174393178826e-16 L 62.15371775677416 -1.5607225761290269 L 62.608963739909704 -3.0614674589207174 L 63.348243101579634 -4.444561864156816 L 64.34314575050762 -5.65685424949238 L 65.55543813584319 -6.651756898420362 L 66.93853254107928 -7.391036260090292 L 68.43927742387098 -7.846282243225843 L 70 -8 L 71.56072257612902 -7.8462822432258434 L 73.06146745892072 -7.391036260090293 L 74.44456186415681 -6.651756898420364 L 75.65685424949238 -5.6568542494923815 L 76.65175689842036 -4.444561864156817 L 77.39103626009029 -3.061467458920723 L 77.84628224322584 -1.5607225761290298 Z" fill="#3cd926" stroke="#3cd926" stroke-width="1" />
  <path d="M 98 0 L 97.84628224322584 1.560722576129026 L 97.39103626009029 3.0614674589207183 L 96.65175689842036 4.444561864156817 L 95.65685424949238 5.65685424949238 L 94.44456186415682 6.651756898420362 L 93.06146745892072 7.391036260090294 L 91.56072257612902 7.8462822432258434 L 90 8 L 88.43927742387098 7.8462822432258434 L 86.93853254107928 7.391036260090294 L 85.55543813584319 6.651756898420364 L 84.34314575050762 5.656854249492381 L 83.34824310157964 4.444561864156817 L 82.60896373990971 3.061467458920719 L 82.15371775677416 1.5607225761290289 L 82 9.797174393178826e-16 L 82.15371775677416 -1.5607225761290269 L 82.60896373990971 -3.0614674589207174 L 83.34824310157964 -4.444561864156816 L 84.34314575050762 -5.65685424949238 L 85.55543813584319 -6.651756898420362 L 86.93853254107928 -7.391036260090292 L 88.43927742387098 -7.846282243225843 L 90 -8 L 91.56072257612902 -7.8462822432258434 L 93.06146745892072 -7.391036260090293 L 94.44456186415681 -6.651756898420364 L 95.65685424949238 -5.6568542494923815 L 96.65175689842036 -4.444561864156817 L 97.39103626009029 -3.061467458920723 L 97.84628224322584 -1.5607225761290298 Z" fill="#26d94a" stroke="#26d94a" stroke-width="1" />
  <path d="M 108 0 L 107.84628224322584 1.560722576129026 L 107.39103626009029 3.0614674589207183 L 106.65175689842036 4.444561864156817 L 105.65685424949238 5.65685424949238 L 104.44456186415682 6.651756898420362 L 103.06146745892072 7.391036260090294 L 101.56072257612902 7.8462822432258434 L 100 8 L 98.43927742387098 7.8462822432258434 L 96.93853254107928 7.391036260090294 L 95.55543813584319 6.651756898420364 L 94.34314575050762 5.656854249492381 L 93.34824310157964 4.444561864156817 L 92.60896373990971 3.061467458920719 L 92.15371775677416 1.5607225761290289 L 92 9.797174393178826e-16 L 92.15371775677416 -1.5607225761290269 L 92.60896373990971 -3.0614674589207174 L 93.34824310157964 -4.444561864156816 L 94.34314575050762 -5.65685424949238 L 95.55543813584319 -6.651756898420362 L 96.93853254107928 -7.391036260090292 L 98.43927742387098 -7.846282243225843 L 100 -8 L 101.56072257612902 -7.8462822432258434 L 103.06146745892072 -7.391036260090293 L 104.44456186415681 -6.651756898420364 L 105.65685424949238 -5.6568542494923815 L 106.65175689842036 -4.444561864156817 L 107.39103626009029 -3.061467458920723 L 107.84628224322584 -1.5607225761290298 Z" fill="#26d983" stroke="#26d983" stroke-width="1" />
  <path d="M 123 0 L 122.84628224322584 1.560722576129026 L 122.39103626009029 3.0614674589207183 L 121.65175689842036 4.444561864156817 L 120.65685424949238 5.65685424949238 L 119.44456186415682 6.651756898420362 L 118.06146745892072 7.391036260090294 L 116.56072257612902 7.8462822432258434 L 115 8 L 113.43927742387098 7.8462822432258434 L 111.93853254107928 7.391036260090294 L 110.55543813584319 6.651756898420364 L 109.34314575050762 5.656854249492381 L 108.34824310157964 4.444561864156817 L 107.60896373990971 3.061467458920719 L 107.15371775677416 1.5607225761290289 L 107 9.797174393178826e-16 L 107.15371775677416 -1.5607225761290269 L 107.60896373990971 -3.0614674589207174 L 108.34824310157964 -4.444561864156816 L 109.34314575050762 -5.65685424949238 L 110.55543813584319 -6.651756898420362 L 111.93853254107928 -7.391036260090292 L 113.43927742387098 -7.846282243225843 L 115 -8 L 116.56072257612902 -7.8462822432258434 L 118.06146745892072 -7.391036260090293 L 119.44456186415681 -6.651756898420364 L 120.65685424949238 -5.6568542494923815 L 121.65175689842036 -4.444561864156817 L 122.39103626009029 -3.061467458920723 L 122.84628224322584 -1.5607225761290298 Z" fill="#26d9bc" stroke="#26d9bc" stroke-width="1" />
  <path d="M 143 0 L 142.84628224322586 1.560722576129026 L 142.3910362600903 3.0614674589207183 L 141.65175689842036 4.444561864156817 L 140.65685424949237 5.65685424949238 L 139.4445618641568 6.651756898420362 L 138.06146745892073 7.391036260090294 L 136.56072257612902 7.8462822432258434 L 135 8 L 133.43927742387098 7.8462822432258434 L 131.93853254107927 7.391036260090294 L 130.5554381358432 6.651756898420364 L 129.34314575050763 5.656854249492381 L 128.34824310157964 4.444561864156817 L 127.60896373990971 3.061467458920719 L 127.15371775677416 1.5607225761290289 L 127 9.797174393178826e-16 L 127.15371775677416 -1.5607225761290269 L 127.60896373990971 -3.0614674589207174 L 128.34824310157964 -4.444561864156816 L 129.34314575050763 -5.65685424949238 L 130.5554381358432 -6.651756898420362 L 131.93853254107927 -7.391036260090292 L 133.43927742387098 -7.846282243225843 L 135 -8 L 136.56072257612902 -7.8462822432258434 L 138.06146745892073 -7.391036260090293 L 139.4445618641568 -6.651756898420364 L 140.65685424949237 -5.6568542494923815 L 141.65175689842036 -4.444561864156817 L 142.3910362600903 -3.061467458920723 L 142.84628224322583 -1.5607225761290298 Z" fill="#26bcd9" stroke="#26bcd9" stroke-width="1" />
  <path d="M 153 0 L 152.84628224322586 1.560722576129026 L 152.3910362600903 3.0614674589207183 L 151.65175689842036 4.444561864156817 L 150.65685424949237 5.65685424949238 L 149.4445618641568 6.651756898420362 L 148.06146745892073 7.391036260090294 L 146.56072257612902 7.8462822432258434 L 145 8 L 143.43927742387098 7.8462822432258434 L 141.93853254107927 7.391036260090294 L 140.5554381358432 6.651756898420364 L 139.34314575050763 5.656854249492381 L 138.34824310157964 4.444561864156817 L 137.6089637399097 3.061467458920719 L 137.15371775677414 1.5607225761290289 L 137 9.797174393178826e-16 L 137.15371775677414 -1.5607225761290269 L 137.6089637399097 -3.0614674589207174 L 138.34824310157964 -4.444561864156816 L 139.34314575050763 -5.65685424949238 L 140.5554381358432 -6.651756898420362 L 141.93853254107927 -7.391036260090292 L 143.43927742387098 -7.846282243225843 L 145 -8 L 146.56072257612902 -7.8462822432258434 L 148.06146745892073 -7.391036260090293 L 149.4445618641568 -6.651756898420364 L 150.65685424949237 -5.6568542494923815 L 151.65175689842036 -4.444561864156817 L 152.3910362600903 -3.061467458920723 L 152.84628224322583 -1.5607225761290298 Z" fill="#2683d9" stroke="#2683d9" stroke-width="1" />
  <path d="M 18 0 L 17.846282243225843 1.560722576129026 L 17.391036260090296 3.0614674589207183 L 16.651756898420363 4.444561864156817 L 15.65685424949238 5.65685424949238 L 14.444561864156817 6.651756898420362 L 13.061467458920719 7.391036260090294 L 11.560722576129027 7.8462822432258434 L 10 8 L 8.439277423870974 7.8462822432258434 L 6.938532541079282 7.391036260090294 L 5.555438135843184 6.651756898420364 L 4.34314575050762 5.656854249492381 L 3.3482431015796372 4.444561864156817 L 2.608963739909706 3.061467458920719 L 2.1537177567741566 1.5607225761290289 L 2 9.797174393178826e-16 L 2.1537177567741566 -1.5607225761290269 L 2.608963739909705 -3.0614674589207174 L 3.3482431015796363 -4.444561864156816 L 4.3431457505076185 -5.65685424949238 L 5.555438135843183 -6.651756898420362 L 6.938532541079278 -7.391036260090292 L 8.439277423870971 -7.846282243225843 L 9.999999999999998 -8 L 11.560722576129027 -7.8462822432258434 L 13.06146745892072 -7.391036260090293 L 14.444561864156814 -6.651756898420364 L 15.65685424949238 -5.6568542494923815 L 16.651756898420363 -4.444561864156817 L 17.391036260090292 -3.061467458920723 L 17.846282243225843 -1.5607225761290298 Z" fill="#264ad9" stroke="#264ad9" stroke-width="1" />
  <path d="M 33 0 L 32.84628224322584 1.560722576129026 L 32.391036260090296 3.0614674589207183 L 31.651756898420363 4.444561864156817 L 30.65685424949238 5.65685424949238 L 29.444561864156817 6.651756898420362 L 28.061467458920717 7.391036260090294 L 26.560722576129027 7.8462822432258434 L 25 8 L 23.439277423870976 7.8462822432258434 L 21.938532541079283 7.391036260090294 L 20.555438135843183 6.651756898420364 L 19.34314575050762 5.656854249492381 L 18.348243101579637 4.444561864156817 L 17.608963739909704 3.061467458920719 L 17.153717756774157 1.5607225761290289 L 17 9.797174393178826e-16 L 17.153717756774157 -1.5607225761290269 L 17.608963739909704 -3.0614674589207174 L 18.348243101579637 -4.444561864156816 L 19.343145750507617 -5.65685424949238 L 20.555438135843183 -6.651756898420362 L 21.938532541079276 -7.391036260090292 L 23.43927742387097 -7.846282243225843 L 25 -8 L 26.560722576129027 -7.8462822432258434 L 28.06146745892072 -7.391036260090293 L 29.444561864156814 -6.651756898420364 L 30.65685424949238 -5.6568542494923815 L 31.651756898420363 -4.444561864156817 L 32.39103626009029 -3.061467458920723 L 32.84628224322584 -1.5607225761290298 Z" fill="#3c26d9" stroke="#3c26d9" stroke-width="1" />
  <path d="M 53 0 L 52.84628224322584 1.560722576129026 L 52.391036260090296 3.0614674589207183 L 51.65175689842036 4.444561864156817 L 50.65685424949238 5.65685424949238 L 49.44456186415682 6.651756898420362 L 48.06146745892072 7.391036260090294 L 46.560722576129024 7.8462822432258434 L 45 8 L 43.439277423870976 7.8462822432258434 L 41.93853254107928 7.391036260090294 L 40.55543813584318 6.651756898420364 L 39.34314575050762 5.656854249492381 L 38.34824310157964 4.444561864156817 L 37.608963739909704 3.061467458920719 L 37.15371775677416 1.5607225761290289 L 37 9.797174393178826e-16 L 37.15371775677416 -1.5607225761290269 L 37.608963739909704 -3.0614674589207174 L 38.348243101579634 -4.444561864156816 L 39.34314575050762 -5.65685424949238 L 40.55543813584318 -6.651756898420362 L 41.938532541079276 -7.391036260090292 L 43.43927742387097 -7.846282243225843 L 45 -8 L 46.560722576129024 -7.8462822432258434 L 48.06146745892072 -7.391036260090293 L 49.44456186415682 -6.651756898420364 L 50.656854249492376 -5.6568542494923815 L 51.65175689842036 -4.444561864156817 L 52.39103626009029 -3.061467458920723 L 52.84628224322584 -1.5607225761290298 Z" fill="#7526d9" stroke="#7526d9" stroke-width="1" />
  <path d="M 63 0 L 62.84628224322584 1.560722576129026 L 62.391036260090296 3.0614674589207183 L 61.65175689842036 4.444561864156817 L 60.65685424949238 5.65685424949238 L 59.44456186415682 6.651756898420362 L 58.06146745892072 7.391036260090294 L 56.560722576129024 7.8462822432258434 L 55 8 L 53.439277423870976 7.8462822432258434 L 51.93853254107928 7.391036260090294 L 50.55543813584318 6.651756898420364 L 49.34314575050762 5.656854249492381 L 48.34824310157964 4.444561864156817 L 47.608963739909704 3.061467458920719 L 47.15371775677416 1.5607225761290289 L 47 9.797174393178826e-16 L 47.15371775677416 -1.5607225761290269 L 47.608963739909704 -3.0614674589207174 L 48.348243101579634 -4.444561864156816 L 49.34314575050762 -5.65685424949238 L 50.55543813584318 -6.651756898420362 L 51.938532541079276 -7.391036260090292 L 53.43927742387097 -7.846282243225843 L 55 -8 L 56.560722576129024 -7.8462822432258434 L 58.06146745892072 -7.391036260090293 L 59.44456186415682 -6.651756898420364 L 60.656854249492376 -5.6568542494923815 L 61.65175689842036 -4.444561864156817 L 62.39103626009029 -3.061467458920723 L 62.84628224322584 -1.5607225761290298 Z" fill="#ae26d9" stroke="#ae26d9" stroke-width="1" />
  <path d="M 78 0 L 77.84628224322584 1.560722576129026 L 77.39103626009029 3.0614674589207183 L 76.65175689842036 4.444561864156817 L 75.65685424949238 5.65685424949238 L 74.44456186415682 6.651756898420362 L 73.06146745892072 7.391036260090294 L 71.56072257612902 7.8462822432258434 L 70 8 L 68.43927742387098 7.8462822432258434 L 66.93853254107928 7.391036260090294 L 65.55543813584319 6.651756898420364 L 64.34314575050762 5.656854249492381 L 63.34824310157964 4.444561864156817 L 62.608963739909704 3.061467458920719 L 62.15371775677416 1.5607225761290289 L 62 9.797174393178826e-16 L 62.15371775677416 -1.5607225761290269 L 62.608963739909704 -3.0614674589207174 L 63.348243101579634 -4.444561864156816 L 64.34314575050762 -5.65685424949238 L 65.55543813584319 -6.651756898420362 L 66.93853254107928 -7.391036260090292 L 68.43927742387098 -7.846282243225843 L 70 -8 L 71.56072257612902 -7.8462822432258434 L 73.06146745892072 -7.391036260090293 L 74.44456186415681 -6.651756898420364 L 75.65685424949238 -5.6568542494923815 L 76.65175689842036 -4.444561864156817 L 77.39103626009029 -3.061467458920723 L 77.84628224322584 -1.5607225761290298 Z" fill="#d926ca" stroke="#d926ca" stroke-width="1" />
  <path d="M 98 0 L 97.84628224322584 1.560722576129026 L 97.39103626009029 3.0614674589207183 L 96.65175689842036 4.444561864156817 L 95.65685424949238 5.65685424949238 L 94.44456186415682 6.651756898420362 L 93.06146745892072 7.391036260090294 L 91.56072257612902 7.8462822432258434 L 90 8 L 88.43927742387098 7.8462822432258434 L 86.93853254107928 7.391036260090294 L 85.55543813584319 6.651756898420364 L 84.34314575050762 5.656854249492381 L 83.34824310157964 4.444561864156817 L 82.60896373990971 3.061467458920719 L 82.15371775677416 1.5607225761290289 L 82 9.797174393178826e-16 L 82.15371775677416 -1.5607225761290269 L 82.60896373990971 -3.0614674589207174 L 83.34824310157964 -4.444561864156816 L 84.34314575050762 -5.65685424949238 L 85.55543813584319 -6.651756898420362 L 86.93853254107928 -7.391036260090292 L 88.43927742387098 -7.846282243225843 L 90 -8 L 91.56072257612902 -7.8462822432258434 L 93.06146745892072 -7.391036260090293 L 94.44456186415681 -6.651756898420364 L 95.65685424949238 -5.6568542494923815 L 96.65175689842036 -4.444561864156817 L 97.39103626009029 -3.061467458920723 L 97.84628224322584 -1.5607225761290298 Z" fill="#d92691" stroke="#d92691" stroke-width="1" />
  <path d="M 108 0 L 107.84628224322584 1.560722576129026 L 107.39103626009029 3.0614674589207183 L 106.65175689842036 4.444561864156817 L 105.65685424949238 5.65685424949238 L 104.44456186415682 6.651756898420362 L 103.06146745892072 7.391036260090294 L 101.56072257612902 7.8462822432258434 L 100 8 L 98.43927742387098 7.8462822432258434 L 96.93853254107928 7.391036260090294 L 95.55543813584319 6.651756898420364 L 94.34314575050762 5.656854249492381 L 93.34824310157964 4.444561864156817 L 92.60896373990971 3.061467458920719 L 92.15371775677416 1.5607225761290289 L 92 9.797174393178826e-16 L 92.15371775677416 -1.5607225761290269 L 92.60896373990971 -3.0614674589207174 L 93.34824310157964 -4.444561864156816 L 94.34314575050762 -5.65685424949238 L 95.55543813584319 -6.651756898420362 L 96.93853254107928 -7.391036260090292 L 98.43927742387098 -7.846282243225843 L 100 -8 L 101.56072257612902 -7.8462822432258434 L 103.06146745892072 -7.391036260090293 L 104.44456186415681 -6.651756898420364 L 105.65685424949238 -5.6568542494923815 L 106.65175689842036 -4.444561864156817 L 107.39103626009029 -3.061467458920723 L 107.84628224322584 -1.5607225761290298 Z" fill="#d99126" stroke="#d99126" stroke-width="1" />
  <path d="M 123 0 L 122.84628224322584 1.560722576129026 L 122.39103626009029 3.0614674589207183 L 121.65175689842036 4.444561864156817 L 120.65685424949238 5.65685424949238 L 119.44456186415682 6.651756898420362 L 118.06146745892072 7.391036260090294 L 116.56072257612902 7.8462822432258434 L 115 8 L 113.43927742387098 7.8462822432258434 L 111.93853254107928 7.391036260090294 L 110.55543813584319 6.651756898420364 L 109.34314575050762 5.656854249492381 L 108.34824310157964 4.444561864156817 L 107.60896373990971 3.061467458920719 L 107.15371775677416 1.5607225761290289 L 107 9.797174393178826e-16 L 107.15371775677416 -1.5607225761290269 L 107.60896373990971 -3.0614674589207174 L 108.34824310157964 -4.444561864156816 L 109.34314575050762 -5.65685424949238 L 110.55543813584319 -6.651756898420362 L 111.93853254107928 -7.391036260090292 L 113.43927742387098 -7.846282243225843 L 115 -8 L 116.56072257612902 -7.8462822432258434 L 118.06146745892072 -7.391036260090293 L 119.44456186415681 -6.651756898420364 L 120.65685424949238 -5.6568542494923815 L 121.65175689842036 -4.444561864156817 L 122.39103626009029 -3.061467458920723 L 122.84628224322584 -1.5607225761290298 Z" fill="#d9ca26" stroke="#d9ca26" stroke-width="1" />
  <path d="M 143 0 L 142.84628224322586 1.560722576129026 L 142.3910362600903 3.0614674589207183 L 141.65175689842036 4.444561864156817 L 140.65685424949237 5.65685424949238 L 139.4445618641568 6.651756898420362 L 138.06146745892073 7.391036260090294 L 136.56072257612902 7.8462822432258434 L 135 8 L 133.43927742387098 7.8462822432258434 L 131.93853254107927 7.391036260090294 L 130.5554381358432 6.651756898420364 L 129.34314575050763 5.656854249492381 L 128.34824310157964 4.444561864156817 L 127.60896373990971 3.061467458920719 L 127.15371775677416 1.5607225761290289 L 127 9.797174393178826e-16 L 127.15371775677416 -1.5607225761290269 L 127.60896373990971 -3.0614674589207174 L 128.34824310157964 -4.444561864156816 L 129.34314575050763 -5.65685424949238 L 130.5554381358432 -6.651756898420362 L 131.93853254107927 -7.391036260090292 L 133.43927742387098 -7.846282243225843 L 135 -8 L 136.56072257612902 -7.8462822432258434 L 138.06146745892073 -7.391036260090293 L 139.4445618641568 -6.651756898420364 L 140.65685424949237 -5.6568542494923815 L 141.65175689842036 -4.444561864156817 L 142.3910362600903 -3.061467458920723 L 142.84628224322583 -1.5607225761290298 Z" fill="#aed926" stroke="#aed926" stroke-width="1" />
  <path d="M 153 0 L 152.84628224322586 1.560722576129026 L 152.3910362600903 3.0614674589207183 L 151.65175689842036 4.444561864156817 L 150.65685424949237 5.65685424949238 L 149.4445618641568 6.651756898420362 L 148.06146745892073 7.391036260090294 L 146.56072257612902 7.8462822432258434 L 145 8 L 143.43927742387098 7.8462822432258434 L 141.93853254107927 7.391036260090294 L 140.5554381358432 6.651756898420364 L 139.34314575050763 5.656854249492381 L 138.34824310157964 4.444561864156817 L 137.6089637399097 3.061467458920719 L 137.15371775677414 1.5607225761290289 L 137 9.797174393178826e-16 L 137.15371775677414 -1.5607225761290269 L 137.6089637399097 -3.0614674589207174 L 138.34824310157964 -4.444561864156816 L 139.34314575050763 -5.65685424949238 L 140.5554381358432 -6.651756898420362 L 141.93853254107927 -7.391036260090292 L 143.43927742387098 -7.846282243225843 L 145 -8 L 146.56072257612902 -7.8462822432258434 L 148.06146745892073 -7.391036260090293 L 149.4445618641568 -6.651756898420364 L 150.65685424949237 -5.6568542494923815 L 151.65175689842036 -4.444561864156817 L 152.3910362600903 -3.061467458920723 L 152.84628224322583 -1.5607225761290298 Z" fill="#75d926" stroke="#75d926" stroke-width="1" />
</svg>