<svg width="160" height="90" viewBox="-54.054054054054056 -30.405405405405407 108.10810810810811 60.810810810810814" xmlns="http://www.w3.org/2000/svg">
  <path d="M 50 0 L 49.039264020161525 9.754516100806413 L 46.19397662556434 19.134171618254488 L 41.57348061512726 27.778511650980107 L 35.35533905932738 35.35533905932737 L 27.778511650980114 41.57348061512726 L 19.13417161825449 46.19397662556434 L 9.754516100806416 49.039264020161525 L 3.061616997868383e-15 50 L -9.75451610080641 49.039264020161525 L -19.134171618254488 46.19397662556434 L -27.778511650980096 41.57348061512727 L -35.35533905932737 35.35533905932738 L -41.573480615127266 27.778511650980107 L -46.19397662556434 19.134171618254495 L -49.039264020161525 9.75451610080643 L -50 6.123233995736766e-15 L -49.039264020161525 -9.754516100806418 L -46.19397662556434 -19.134171618254484 L -41.57348061512727 -27.778511650980096 L -35.355339059327385 -35.35533905932737 L -27.778511650980107 -41.57348061512726 L -19.134171618254516 -46.193976625564325 L -9.754516100806434 -49.03926402016152 L -9.184850993605149e-15 -50 L 9.754516100806415 -49.039264020161525 L 19.1341716182545 -46.19397662556433 L 27.778511650980093 -41.57348061512727 L 35.35533905932737 -35.355339059327385 L 41.57348061512726 -27.778511650980107 L 46.193976625564325 -19.13417161825452 L 49.03926402016152 -9.754516100806436 Z" fill="#d99126" stroke="#d99126" stroke-width="1" />
</svg>