<svg width="160" height="90" viewBox="69.23076923076923 -17.307692307692307 61.53846153846153 34.61538461538461" xmlns="http://www.w3.org/2000/svg">
  <path d="M 15 0 L 14.711779206048456 2.9263548302419236 L 13.858192987669302 5.740251485476347 L 12.472044184538179 8.333553495294034 L 10.606601717798213 10.606601717798211 L 8.333553495294034 12.472044184538179 L 5.740251485476348 13.858192987669302 L 2.926354830241925 14.711779206048456 L 9.18485099360515e-16 15 L -2.926354830241923 14.711779206048456 L -5.740251485476346 13.858192987669302 L -8.33355349529403 12.472044184538182 L -10.606601717798211 10.606601717798213 L -12.47204418453818 8.333553495294034 L -13.858192987669302 5.740251485476349 L -14.711779206048456 2.9263548302419293 L -15 1.83697019872103e-15 L -14.711779206048456 -2.9263548302419253 L -13.858192987669304 -5.740251485476345 L -12.472044184538182 -8.33355349529403 L -10.606601717798215 -10.606601717798211 L -8.333553495294034 -12.472044184538179 L -5.740251485476355 -13.858192987669298 L -2.9263548302419298 -14.711779206048455 L -2.7554552980815444e-15 -15 L 2.9263548302419244 -14.711779206048456 L 5.7402514854763504 -13.8581929876693 L 8.333553495294028 -12.472044184538182 L 10.60660171779821 -10.606601717798215 L 12.472044184538179 -8.333553495294034 L 13.858192987669298 -5.740251485476356 L 14.711779206048455 -2.9263548302419307 Z" fill="#d99126" stroke="#d99126" stroke-width="1" />
  <path d="M 55 0 L 54.711779206048455 2.9263548302419236 L 53.8581929876693 5.740251485476347 L 52.47204418453818 8.333553495294034 L 50.60660171779821 10.606601717798211 L 48.333553495294034 12.472044184538179 L 45.74025148547635 13.858192987669302 L 42.92635483024193 14.711779206048456 L 40 15 L 37.07364516975808 14.711779206048456 L 34.25974851452365 13.858192987669302 L 31.66644650470597 12.472044184538182 L 29.393398282201787 10.606601717798213 L 27.52795581546182 8.333553495294034 L 26.1418070123307 5.740251485476349 L 25.288220793951545 2.9263548302419293 L 25 1.83697019872103e-15 L 25.288220793951545 -2.9263548302419253 L 26.141807012330695 -5.740251485476345 L 27.527955815461816 -8.33355349529403 L 29.393398282201787 -10.606601717798211 L 31.666446504705966 -12.472044184538179 L 34.25974851452364 -13.858192987669298 L 37.07364516975807 -14.711779206048455 L 40 -15 L 42.92635483024193 -14.711779206048456 L 45.74025148547635 -13.8581929876693 L 48.33355349529403 -12.472044184538182 L 50.60660171779821 -10.606601717798215 L 52.47204418453818 -8.333553495294034 L 53.8581929876693 -5.740251485476356 L 54.711779206048455 -2.9263548302419307 Z" fill="#d9ca26" stroke="#d9ca26" stroke-width="1" />
  <path d="M 95 0 L 94.71177920604846 2.9263548302419236 L 93.8581929876693 5.740251485476347 L 92.47204418453818 8.333553495294034 L 90.60660171779821 10.606601717798211 L 88.33355349529404 12.472044184538179 L 85.74025148547635 13.858192987669302 L 82.92635483024192 14.711779206048456 L 80 15 L 77.07364516975808 14.711779206048456 L 74.25974851452365 13.858192987669302 L 71.66644650470597 12.472044184538182 L 69.39339828220179 10.606601717798213 L 67.52795581546182 8.333553495294034 L 66.1418070123307 5.740251485476349 L 65.28822079395154 2.9263548302419293 L 65 1.83697019872103e-15 L 65.28822079395154 -2.9263548302419253 L 66.1418070123307 -5.740251485476345 L 67.52795581546182 -8.33355349529403 L 69.39339828220179 -10.606601717798211 L 71.66644650470596 -12.472044184538179 L 74.25974851452365 -13.858192987669298 L 77.07364516975807 -14.711779206048455 L 80 -15 L 82.92635483024192 -14.711779206048456 L 85.74025148547635 -13.8581929876693 L 88.33355349529403 -12.472044184538182 L 90.60660171779821 -10.606601717798215 L 92.47204418453818 -8.333553495294034 L 93.8581929876693 -5.740251485476356 L 94.71177920604845 -2.9263548302419307 Z" fill="#aed926" stroke="#aed926" stroke-width="1" />
  <path d="M 135 0 L 134.71177920604845 2.9263548302419236 L 133.8581929876693 5.740251485476347 L 132.4720441845382 8.333553495294034 L 130.6066017177982 10.606601717798211 L 128.33355349529404 12.472044184538179 L 125.74025148547635 13.858192987669302 L 122.92635483024192 14.711779206048456 L 120 15 L 117.07364516975808 14.711779206048456 L 114.25974851452365 13.858192987669302 L 111.66644650470597 12.472044184538182 L 109.39339828220179 10.606601717798213 L 107.52795581546182 8.333553495294034 L 106.1418070123307 5.740251485476349 L 105.28822079395154 2.9263548302419293 L 105 1.83697019872103e-15 L 105.28822079395154 -2.9263548302419253 L 106.1418070123307 -5.740251485476345 L 107.52795581546182 -8.33355349529403 L 109.39339828220179 -10.606601717798211 L 111.66644650470596 -12.472044184538179 L 114.25974851452365 -13.858192987669298 L 117.07364516975807 -14.711779206048455 L 120 -15 L 122.92635483024192 -14.711779206048456 L 125.74025148547635 -13.8581929876693 L 128.33355349529404 -12.472044184538182 L 130.6066017177982 -10.606601717798215 L 132.4720441845382 -8.333553495294034 L 133.8581929876693 -5.740251485476356 L 134.71177920604845 -2.9263548302419307 Z" fill="#75d926" stroke="#75d926" stroke-width="1" />
  <path d="M 175 0 L 174.71177920604845 2.9263548302419236 L 173.8581929876693 5.740251485476347 L 172.4720441845382 8.333553495294034 L 170.6066017177982 10.606601717798211 L 168.33355349529404 12.472044184538179 L 165.74025148547634 13.858192987669302 L 162.92635483024193 14.711779206048456 L 160 15 L 157.07364516975807 14.711779206048456 L 154.25974851452366 13.858192987669302 L 151.66644650470596 12.472044184538182 L 149.3933982822018 10.606601717798213 L 147.5279558154618 8.333553495294034 L 146.1418070123307 5.740251485476349 L 145.28822079395155 2.9263548302419293 L 145 1.83697019872103e-15 L 145.28822079395155 -2.9263548302419253 L 146.1418070123307 -5.740251485476345 L 147.5279558154618 -8.33355349529403 L 149.3933982822018 -10.606601717798211 L 151.66644650470596 -12.472044184538179 L 154.25974851452364 -13.858192987669298 L 157.07364516975807 -14.711779206048455 L 160 -15 L 162.92635483024193 -14.711779206048456 L 165.74025148547636 -13.8581929876693 L 168.33355349529404 -12.472044184538182 L 170.6066017177982 -10.606601717798215 L 172.4720441845382 -8.333553495294034 L 173.8581929876693 -5.740251485476356 L 174.71177920604845 -2.9263548302419307 Z" fill="#3cd926" stroke="#3cd926" stroke-width="1" />
  <path d="M 215 0 L 214.71177920604845 2.9263548302419236 L 213.8581929876693 5.740251485476347 L 212.4720441845382 8.333553495294034 L 210.6066017177982 10.606601717798211 L 208.33355349529404 12.472044184538179 L 205.74025148547634 13.858192987669302 L 202.92635483024193 14.711779206048456 L 200 15 L 197.07364516975807 14.711779206048456 L 194.25974851452366 13.858192987669302 L 191.66644650470596 12.472044184538182 L 189.3933982822018 10.606601717798213 L 187.5279558154618 8.333553495294034 L 186.1418070123307 5.740251485476349 L 185.28822079395155 2.9263548302419293 L 185 1.83697019872103e-15 L 185.28822079395155 -2.9263548302419253 L 186.1418070123307 -5.740251485476345 L 187.5279558154618 -8.33355349529403 L 189.3933982822018 -10.606601717798211 L 191.66644650470596 -12.472044184538179 L 194.25974851452364 -13.858192987669298 L 197.07364516975807 -14.711779206048455 L 200 -15 L 202.92635483024193 -14.711779206048456 L 205.74025148547636 -13.8581929876693 L 208.33355349529404 -12.472044184538182 L 210.6066017177982 -10.606601717798215 L 212.4720441845382 -8.333553495294034 L 213.8581929876693 -5.740251485476356 L 214.71177920604845 -2.9263548302419307 Z" fill="#26d94a" stroke="#26d94a" stroke-width="1" />
  <path d="M 15 0 L 14.711779206048456 2.9263548302419236 L 13.858192987669302 5.740251485476347 L 12.472044184538179 8.333553495294034 L 10.606601717798213 10.606601717798211 L 8.333553495294034 12.472044184538179 L 5.740251485476348 13.858192987669302 L 2.926354830241925 14.711779206048456 L 9.18485099360515e-16 15 L -2.926354830241923 14.711779206048456 L -5.740251485476346 13.858192987669302 L -8.33355349529403 12.472044184538182 L -10.606601717798211 10.606601717798213 L -12.47204418453818 8.333553495294034 L -13.858192987669302 5.740251485476349 L -14.711779206048456 2.9263548302419293 L -15 1.83697019872103e-15 L -14.711779206048456 -2.9263548302419253 L -13.858192987669304 -5.740251485476345 L -12.472044184538182 -8.33355349529403 L -10.606601717798215 -10.606601717798211 L -8.333553495294034 -12.472044184538179 L -5.740251485476355 -13.858192987669298 L -2.9263548302419298 -14.711779206048455 L -2.7554552980815444e-15 -15 L 2.9263548302419244 -14.711779206048456 L 5.7402514854763504 -13.8581929876693 L 8.333553495294028 -12.472044184538182 L 10.60660171779821 -10.606601717798215 L 12.472044184538179 -8.333553495294034 L 13.858192987669298 -5.740251485476356 L 14.711779206048455 -2.9263548302419307 Z" fill="#26d983" stroke="#26d983" stroke-width="1" />
  <path d="M 55 0 L 54.711779206048455 2.9263548302419236 L 53.8581929876693 5.740251485476347 L 52.47204418453818 8.333553495294034 L 50.60660171779821 10.606601717798211 L 48.333553495294034 12.472044184538179 L 45.74025148547635 13.858192987669302 L 42.92635483024193 14.711779206048456 L 40 15 L 37.07364516975808 14.711779206048456 L 34.25974851452365 13.858192987669302 L 31.66644650470597 12.472044184538182 L 29.393398282201787 10.606601717798213 L 27.52795581546182 8.333553495294034 L 26.1418070123307 5.740251485476349 L 25.288220793951545 2.9263548302419293 L 25 1.83697019872103e-15 L 25.288220793951545 -2.9263548302419253 L 26.141807012330695 -5.740251485476345 L 27.527955815461816 -8.33355349529403 L 29.393398282201787 -10.606601717798211 L 31.666446504705966 -12.472044184538179 L 34.25974851452364 -13.858192987669298 L 37.07364516975807 -14.711779206048455 L 40 -15 L 42.92635483024193 -14.711779206048456 L 45.74025148547635 -13.8581929876693 L 48.33355349529403 -12.472044184538182 L 50.60660171779821 -10.606601717798215 L 52.47204418453818 -8.333553495294034 L 53.8581929876693 -5.740251485476356 L 54.711779206048455 -2.9263548302419307 Z" fill="#26d9bc" stroke="#26d9bc" stroke-width="1" />
  <path d="M 95 0 L 94.71177920604846 2.9263548302419236 L 93.8581929876693 5.740251485476347 L 92.47204418453818 8.333553495294034 L 90.60660171779821 10.606601717798211 L 88.33355349529404 12.472044184538179 L 85.74025148547635 13.858192987669302 L 82.92635483024192 14.711779206048456 L 80 15 L 77.07364516975808 14.711779206048456 L 74.25974851452365 13.858192987669302 L 71.66644650470597 12.472044184538182 L 69.39339828220179 10.606601717798213 L 67.52795581546182 8.333553495294034 L 66.1418070123307 5.740251485476349 L 65.28822079395154 2.9263548302419293 L 65 1.83697019872103e-15 L 65.28822079395154 -2.9263548302419253 L 66.1418070123307 -5.740251485476345 L 67.52795581546182 -8.33355349529403 L 69.39339828220179 -10.606601717798211 L 71.66644650470596 -12.472044184538179 L 74.25974851452365 -13.858192987669298 L 77.07364516975807 -14.711779206048455 L 80 -15 L 82.92635483024192 -14.711779206048456 L 85.74025148547635 -13.8581929876693 L 88.33355349529403 -12.472044184538182 L 90.60660171779821 -10.606601717798215 L 92.47204418453818 -8.333553495294034 L 93.8581929876693 -5.740251485476356 L 94.71177920604845 -2.9263548302419307 Z" fill="#26bcd9" stroke="#26bcd9" stroke-width="1" />
  <path d="M 135 0 L 134.71177920604845 2.9263548302419236 L 133.8581929876693 5.740251485476347 L 132.4720441845382 8.333553495294034 L 130.6066017177982 10.606601717798211 L 128.33355349529404 12.472044184538179 L 125.74025148547635 13.858192987669302 L 122.92635483024192 14.711779206048456 L 120 15 L 117.07364516975808 14.711779206048456 L 114.25974851452365 13.858192987669302 L 111.66644650470597 12.472044184538182 L 109.39339828220179 10.606601717798213 L 107.52795581546182 8.333553495294034 L 106.1418070123307 5.740251485476349 L 105.28822079395154 2.9263548302419293 L 105 1.83697019872103e-15 L 105.28822079395154 -2.9263548302419253 L 106.1418070123307 -5.740251485476345 L 107.52795581546182 -8.33355349529403 L 109.39339828220179 -10.606601717798211 L 111.66644650470596 -12.472044184538179 L 114.25974851452365 -13.858192987669298 L 117.07364516975807 -14.711779206048455 L 120 -15 L 122.92635483024192 -14.711779206048456 L 125.74025148547635 -13.8581929876693 L 128.33355349529404 -12.472044184538182 L 130.6066017177982 -10.606601717798215 L 132.4720441845382 -8.333553495294034 L 133.8581929876693 -5.740251485476356 L 134.71177920604845 -2.9263548302419307 Z" fill="#2683d9" stroke="#2683d9" stroke-width="1" />
  <path d="M 175 0 L 174.71177920604845 2.9263548302419236 L 173.8581929876693 5.740251485476347 L 172.4720441845382 8.333553495294034 L 170.6066017177982 10.606601717798211 L 168.33355349529404 12.472044184538179 L 165.74025148547634 13.858192987669302 L 162.92635483024193 14.711779206048456 L 160 15 L 157.07364516975807 14.711779206048456 L 154.25974851452366 13.858192987669302 L 151.66644650470596 12.472044184538182 L 149.3933982822018 10.606601717798213 L 147.5279558154618 8.333553495294034 L 146.1418070123307 5.740251485476349 L 145.28822079395155 2.9263548302419293 L 145 1.83697019872103e-15 L 145.28822079395155 -2.9263548302419253 L 146.1418070123307 -5.740251485476345 L 147.5279558154618 -8.33355349529403 L 149.3933982822018 -10.606601717798211 L 151.66644650470596 -12.472044184538179 L 154.25974851452364 -13.858192987669298 L 157.07364516975807 -14.711779206048455 L 160 -15 L 162.92635483024193 -14.711779206048456 L 165.74025148547636 -13.8581929876693 L 168.33355349529404 -12.472044184538182 L 170.6066017177982 -10.606601717798215 L 172.4720441845382 -8.333553495294034 L 173.8581929876693 -5.740251485476356 L 174.71177920604845 -2.9263548302419307 Z" fill="#264ad9" stroke="#264ad9" stroke-width="1" />
  <path d="M 215 0 L 214.71177920604845 2.9263548302419236 L 213.8581929876693 5.740251485476347 L 212.4720441845382 8.333553495294034 L 210.6066017177982 10.606601717798211 L 208.33355349529404 12.472044184538179 L 205.74025148547634 13.858192987669302 L 202.92635483024193 14.711779206048456 L 200 15 L 197.07364516975807 14.711779206048456 L 194.25974851452366 13.858192987669302 L 191.66644650470596 12.472044184538182 L 189.3933982822018 10.606601717798213 L 187.5279558154618 8.333553495294034 L 186.1418070123307 5.740251485476349 L 185.28822079395155 2.9263548302419293 L 185 1.83697019872103e-15 L 185.28822079395155 -2.9263548302419253 L 186.1418070123307 -5.740251485476345 L 187.5279558154618 -8.33355349529403 L 189.3933982822018 -10.606601717798211 L 191.66644650470596 -12.472044184538179 L 194.25974851452364 -13.858192987669298 L 197.07364516975807 -14.711779206048455 L 200 -15 L 202.92635483024193 -14.711779206048456 L 205.74025148547636 -13.8581929876693 L 208.33355349529404 -12.472044184538182 L 210.6066017177982 -10.606601717798215 L 212.4720441845382 -8.333553495294034 L 213.8581929876693 -5.740251485476356 L 214.71177920604845 -2.9263548302419307 Z" fill="#3c26d9" stroke="#3c26d9" stroke-width="1" />
</svg>