<svg width="160" height="90" viewBox="-34.59130151689496 50.52231389587561 389.18260303378986 218.9152142065068" xmlns="http://www.w3.org/2000/svg">
  <path d="M 17.230608046228667 10.149619224882496 L 4.024050406951311 12.4225250527956 L -13.20655763927735 2.272905827913103 L -17.230608046228667 -10.149619224882496 L -4.02405040695132 -12.422525052795603 L 13.206557639277356 -2.2729058279130987 Z" fill="#bf4640" stroke="#bf4640" stroke-width="1" />
  <path d="M 59.99314649951115 0.2617694830787315 L 49.54317520519218 8.788171126619652 L 29.550028705681036 8.526401643540924 L 20.006853500488866 -0.26176948307873027 L 30.456824794807822 -8.788171126619652 L 50.44997129431898 -8.526401643540922 Z" fill="#bf7940" stroke="#bf7940" stroke-width="1" />
  <path d="M 97.1836880286212 10.22327227203727 L 83.87054659715237 12.382367051053613 L 66.68685856853116 2.1590947790163453 L 62.816311971378795 -10.22327227203727 L 76.12945340284763 -12.382367051053613 L 93.31314143146884 -2.1590947790163435 Z" fill="#4073bf" stroke="#4073bf" stroke-width="1" />
  <path d="M 139.9969539031278 0.17452406437283513 L 129.69619240492673 8.746197071393958 L 109.6992385017989 8.571673007021124 L 100.00304609687217 -0.1745240643728339 L 110.30380759507327 -8.746197071393956 L 130.3007614982011 -8.571673007021122 Z" fill="#7340bf" stroke="#7340bf" stroke-width="1" />
  <path d="M 177.18368802862125 10.223272272037285 L 163.87054659715236 12.382367051053599 L 146.68685856853116 2.1590947790163453 L 142.81631197137875 -10.223272272037285 L 156.12945340284764 -12.382367051053599 L 173.31314143146884 -2.1590947790163435 Z" fill="#bf4640" stroke="#bf4640" stroke-width="1" />
  <path d="M 219.9969539031278 0.17452406437283513 L 209.69619240492676 8.746197071393958 L 189.6992385017989 8.571673007021124 L 180.0030460968722 -0.1745240643728339 L 190.30380759507324 -8.746197071393956 L 210.3007614982011 -8.571673007021122 Z" fill="#7340bf" stroke="#7340bf" stroke-width="1" />
  <path d="M 257.18368802862125 10.223272272037285 L 243.87054659715236 12.382367051053599 L 226.68685856853116 2.1590947790163453 L 222.81631197137875 -10.223272272037285 L 236.12945340284764 -12.382367051053599 L 253.31314143146884 -2.1590947790163435 Z" fill="#bf7940" stroke="#bf7940" stroke-width="1" />
  <path d="M 299.9969539031278 0.17452406437283513 L 289.69619240492665 8.746197071393958 L 269.6992385017989 8.571673007021124 L 260.0030460968721 -0.1745240643728339 L 270.30380759507324 -8.746197071393956 L 290.300761498201 -8.571673007021122 Z" fill="#4073bf" stroke="#4073bf" stroke-width="1" />
  <path d="M 337.1836880286212 10.223272272037256 L 323.8705465971523 12.382367051053599 L 306.68685856853114 2.1590947790163453 L 302.8163119713788 -10.223272272037256 L 316.1294534028477 -12.382367051053599 L 333.31314143146886 -2.1590947790163435 Z" fill="#7340bf" stroke="#7340bf" stroke-width="1" />
  <path d="M 19.996953903127825 40.17452406437283 L 9.696192404926743 48.74619707139395 L -10.30076149820108 48.571673007021126 L -19.996953903127825 39.82547593562717 L -9.69619240492675 31.253802928606046 L 10.300761498201085 31.428326992978878 Z" fill="#bf4640" stroke="#bf4640" stroke-width="1" />
  <path d="M 57.18368802862122 50.22327227203727 L 43.87054659715238 52.382367051053606 L 26.686858568531168 42.15909477901634 L 22.8163119713788 29.77672772796273 L 36.12945340284762 27.61763294894638 L 53.31314143146885 37.84090522098366 Z" fill="#bf7940" stroke="#bf7940" stroke-width="1" />
  <path d="M 99.99695390312783 40.17452406437283 L 89.69619240492673 48.74619707139395 L 69.6992385017989 48.571673007021126 L 60.00304609687217 39.82547593562717 L 70.30380759507327 31.253802928606046 L 90.3007614982011 31.428326992978878 Z" fill="#4073bf" stroke="#4073bf" stroke-width="1" />
  <path d="M 137.23060804622864 50.149619224882485 L 124.0240504069513 52.422525052795585 L 106.79344236072262 42.27290582791309 L 102.76939195377133 29.8503807751175 L 115.9759495930487 27.577474947204408 L 133.20655763927738 37.72709417208691 Z" fill="#bf4640" stroke="#bf4640" stroke-width="1" />
  <path d="M 179.99314649951117 40.26176948307873 L 169.54317520519214 48.788171126619645 L 149.55002870568103 48.52640164354092 L 140.00685350048883 39.73823051692127 L 150.45682479480786 31.21182887338035 L 170.44997129431897 31.473598356459078 Z" fill="#bf7940" stroke="#bf7940" stroke-width="1" />
  <path d="M 217.23060804622864 50.149619224882485 L 204.02405040695132 52.4225250527956 L 186.79344236072262 42.27290582791309 L 182.76939195377136 29.850380775117515 L 195.97594959304865 27.577474947204394 L 213.20655763927738 37.72709417208691 Z" fill="#7340bf" stroke="#7340bf" stroke-width="1" />
  <path d="M 259.99314649951117 40.26176948307873 L 249.54317520519214 48.788171126619645 L 229.55002870568103 48.52640164354092 L 220.00685350048883 39.73823051692127 L 230.45682479480786 31.21182887338035 L 250.44997129431897 31.473598356459078 Z" fill="#4073bf" stroke="#4073bf" stroke-width="1" />
  <path d="M 297.2306080462286 50.149619224882514 L 284.02405040695123 52.42252505279557 L 266.7934423607226 42.27290582791312 L 262.7693919537712 29.850380775117486 L 275.97594959304865 27.577474947204422 L 293.20655763927726 37.72709417208688 Z" fill="#4073bf" stroke="#4073bf" stroke-width="1" />
  <path d="M 339.9931464995111 40.26176948307873 L 329.54317520519214 48.788171126619645 L 309.55002870568103 48.52640164354092 L 300.0068535004889 39.73823051692127 L 310.45682479480786 31.21182887338035 L 330.44997129431897 31.473598356459078 Z" fill="#bf7940" stroke="#bf7940" stroke-width="1" />
  <path d="M 17.18368802862121 90.22327227203728 L 3.8705465971523716 92.3823670510536 L -13.313141431468843 82.15909477901634 L -17.18368802862121 69.77672772796272 L -3.870546597152378 67.6176329489464 L 13.313141431468846 77.84090522098366 Z" fill="#bf4640" stroke="#bf4640" stroke-width="1" />
  <path d="M 59.99695390312783 80.17452406437283 L 49.696192404926734 88.74619707139395 L 29.699238501798916 88.57167300702112 L 20.003046096872175 79.82547593562717 L 30.303807595073238 71.25380292860605 L 50.300761498201084 71.42832699297888 Z" fill="#7340bf" stroke="#7340bf" stroke-width="1" />
  <path d="M 97.23060804622867 90.14961922488249 L 84.0240504069513 92.42252505279558 L 66.79344236072262 82.27290582791308 L 62.76939195377132 69.85038077511749 L 75.97594959304868 67.57747494720441 L 93.20655763927736 77.72709417208691 Z" fill="#bf4640" stroke="#bf4640" stroke-width="1" />
  <path d="M 139.99314649951117 80.26176948307874 L 129.54317520519217 88.78817112661964 L 109.55002870568103 88.52640164354092 L 100.00685350048886 79.73823051692126 L 110.45682479480783 71.21182887338036 L 130.44997129431897 71.47359835645908 Z" fill="#4073bf" stroke="#4073bf" stroke-width="1" />
  <path d="M 177.18368802862122 90.22327227203729 L 163.87054659715236 92.38236705105359 L 146.68685856853116 82.15909477901634 L 142.81631197137878 69.77672772796271 L 156.12945340284764 67.61763294894641 L 173.31314143146884 77.84090522098366 Z" fill="#7340bf" stroke="#7340bf" stroke-width="1" />
  <path d="M 219.9969539031278 80.17452406437283 L 209.69619240492676 88.74619707139395 L 189.6992385017989 88.57167300702112 L 180.0030460968722 79.82547593562717 L 190.30380759507324 71.25380292860605 L 210.3007614982011 71.42832699297888 Z" fill="#bf7940" stroke="#bf7940" stroke-width="1" />
  <path d="M 257.18368802862125 90.22327227203729 L 243.87054659715236 92.38236705105359 L 226.68685856853116 82.15909477901634 L 222.81631197137878 69.77672772796271 L 236.12945340284764 67.61763294894641 L 253.31314143146884 77.84090522098366 Z" fill="#bf7940" stroke="#bf7940" stroke-width="1" />
  <path d="M 299.9969539031278 80.17452406437283 L 289.69619240492665 88.74619707139395 L 269.6992385017989 88.57167300702112 L 260.0030460968721 79.82547593562717 L 270.30380759507324 71.25380292860605 L 290.300761498201 71.42832699297888 Z" fill="#bf4640" stroke="#bf4640" stroke-width="1" />
  <path d="M 337.2306080462286 90.14961922488251 L 324.02405040695123 92.42252505279558 L 306.7934423607226 82.27290582791312 L 302.7693919537712 69.85038077511749 L 315.97594959304865 67.57747494720442 L 333.20655763927726 77.72709417208688 Z" fill="#7340bf" stroke="#7340bf" stroke-width="1" />
  <path d="M 19.993146499511145 120.26176948307874 L 9.54317520519217 128.78817112661966 L -10.449971294318972 128.52640164354094 L -19.993146499511145 119.73823051692126 L -9.543175205192176 111.21182887338036 L 10.44997129431898 111.47359835645908 Z" fill="#4073bf" stroke="#4073bf" stroke-width="1" />
  <path d="M 57.18368802862121 130.22327227203726 L 43.87054659715237 132.38236705105362 L 26.68685856853116 122.15909477901636 L 22.816311971378802 109.77672772796272 L 36.12945340284762 107.61763294894638 L 53.31314143146885 117.84090522098366 Z" fill="#4073bf" stroke="#4073bf" stroke-width="1" />
  <path d="M 99.99695390312783 120.17452406437283 L 89.69619240492673 128.74619707139396 L 69.6992385017989 128.57167300702113 L 60.00304609687217 119.82547593562717 L 70.30380759507327 111.25380292860605 L 90.3007614982011 111.42832699297888 Z" fill="#7340bf" stroke="#7340bf" stroke-width="1" />
  <path d="M 137.23060804622867 130.14961922488249 L 124.0240504069513 132.4225250527956 L 106.79344236072264 122.2729058279131 L 102.76939195377133 109.8503807751175 L 115.9759495930487 107.57747494720442 L 133.20655763927738 117.72709417208691 Z" fill="#bf7940" stroke="#bf7940" stroke-width="1" />
  <path d="M 179.99314649951117 120.26176948307874 L 169.54317520519214 128.78817112661966 L 149.55002870568103 128.52640164354094 L 140.00685350048883 119.73823051692126 L 150.45682479480786 111.21182887338036 L 170.44997129431897 111.47359835645908 Z" fill="#bf4640" stroke="#bf4640" stroke-width="1" />
  <path d="M 217.23060804622867 130.14961922488249 L 204.02405040695135 132.4225250527956 L 186.79344236072262 122.2729058279131 L 182.76939195377136 109.85038077511751 L 195.97594959304868 107.5774749472044 L 213.20655763927738 117.72709417208691 Z" fill="#bf4640" stroke="#bf4640" stroke-width="1" />
  <path d="M 259.99314649951117 120.26176948307874 L 249.54317520519214 128.78817112661966 L 229.55002870568103 128.52640164354094 L 220.00685350048883 119.73823051692126 L 230.45682479480786 111.21182887338036 L 250.44997129431897 111.47359835645908 Z" fill="#bf7940" stroke="#bf7940" stroke-width="1" />
  <path d="M 297.23060804622867 130.1496192248825 L 284.02405040695123 132.42252505279558 L 266.7934423607226 122.27290582791314 L 262.7693919537713 109.85038077511749 L 275.97594959304865 107.57747494720442 L 293.20655763927726 117.72709417208688 Z" fill="#4073bf" stroke="#4073bf" stroke-width="1" />
  <path d="M 339.9931464995111 120.26176948307874 L 329.54317520519214 128.78817112661966 L 309.55002870568103 128.52640164354094 L 300.0068535004889 119.73823051692126 L 310.45682479480786 111.21182887338036 L 330.44997129431897 111.47359835645908 Z" fill="#7340bf" stroke="#7340bf" stroke-width="1" />
  <path d="M 17.23060804622868 170.14961922488249 L 4.024050406951321 172.4225250527956 L -13.206557639277342 162.27290582791312 L -17.230608046228653 149.85038077511751 L -4.024050406951302 147.5774749472044 L 13.206557639277374 157.7270941720869 Z" fill="#bf7940" stroke="#bf7940" stroke-width="1" />
  <path d="M 59.99314649951115 160.26176948307872 L 49.54317520519218 168.78817112661966 L 29.550028705681036 168.52640164354094 L 20.006853500488866 159.73823051692128 L 30.456824794807822 151.21182887338034 L 50.44997129431898 151.47359835645906 Z" fill="#bf4640" stroke="#bf4640" stroke-width="1" />
  <path d="M 97.2306080462287 170.14961922488249 L 84.02405040695132 172.4225250527956 L 66.79344236072265 162.2729058279131 L 62.76939195377135 149.8503807751175 L 75.97594959304871 147.5774749472044 L 93.20655763927739 157.7270941720869 Z" fill="#4073bf" stroke="#4073bf" stroke-width="1" />
  <path d="M 139.99314649951117 160.26176948307872 L 129.54317520519217 168.78817112661966 L 109.55002870568103 168.52640164354094 L 100.00685350048886 159.73823051692128 L 110.45682479480783 151.21182887338034 L 130.44997129431897 151.47359835645906 Z" fill="#7340bf" stroke="#7340bf" stroke-width="1" />
  <path d="M 177.18368802862125 170.22327227203726 L 163.87054659715233 172.38236705105362 L 146.68685856853116 162.15909477901636 L 142.81631197137875 149.77672772796274 L 156.12945340284767 147.61763294894638 L 173.31314143146884 157.84090522098364 Z" fill="#bf4640" stroke="#bf4640" stroke-width="1" />
  <path d="M 219.9969539031278 160.17452406437283 L 209.69619240492676 168.74619707139396 L 189.6992385017989 168.57167300702113 L 180.0030460968722 159.82547593562717 L 190.30380759507324 151.25380292860604 L 210.3007614982011 151.42832699297887 Z" fill="#4073bf" stroke="#4073bf" stroke-width="1" />
  <path d="M 257.18368802862125 170.22327227203726 L 243.87054659715233 172.38236705105362 L 226.68685856853116 162.15909477901636 L 222.81631197137875 149.77672772796274 L 236.12945340284767 147.61763294894638 L 253.31314143146884 157.84090522098364 Z" fill="#bf7940" stroke="#bf7940" stroke-width="1" />
  <path d="M 299.9969539031278 160.17452406437283 L 289.69619240492665 168.74619707139396 L 269.6992385017989 168.57167300702113 L 260.0030460968721 159.82547593562717 L 270.30380759507324 151.25380292860604 L 290.300761498201 151.42832699297887 Z" fill="#7340bf" stroke="#7340bf" stroke-width="1" />
  <path d="M 337.23060804622867 170.1496192248825 L 324.02405040695123 172.42252505279558 L 306.7934423607226 162.27290582791312 L 302.7693919537713 149.8503807751175 L 315.97594959304865 147.57747494720442 L 333.20655763927726 157.72709417208688 Z" fill="#bf7940" stroke="#bf7940" stroke-width="1" />
  <path d="M 19.993146499511145 200.26176948307872 L 9.543175205192169 208.78817112661966 L -10.449971294318974 208.52640164354094 L -19.993146499511145 199.73823051692128 L -9.543175205192176 191.21182887338034 L 10.44997129431898 191.47359835645906 Z" fill="#4073bf" stroke="#4073bf" stroke-width="1" />
  <path d="M 57.18368802862122 210.22327227203726 L 43.87054659715237 212.38236705105362 L 26.68685856853116 202.15909477901636 L 22.816311971378795 189.77672772796274 L 36.12945340284763 187.61763294894638 L 53.31314143146885 197.84090522098364 Z" fill="#bf4640" stroke="#bf4640" stroke-width="1" />
  <path d="M 99.99695390312783 200.17452406437283 L 89.69619240492673 208.74619707139396 L 69.6992385017989 208.57167300702113 L 60.00304609687217 199.82547593562717 L 70.30380759507327 191.25380292860604 L 90.3007614982011 191.42832699297887 Z" fill="#7340bf" stroke="#7340bf" stroke-width="1" />
  <path d="M 137.18368802862125 210.22327227203726 L 123.87054659715237 212.38236705105362 L 106.68685856853115 202.15909477901636 L 102.8163119713788 189.77672772796274 L 116.12945340284763 187.61763294894638 L 133.31314143146886 197.84090522098364 Z" fill="#bf7940" stroke="#bf7940" stroke-width="1" />
  <path d="M 179.9969539031278 200.17452406437283 L 169.69619240492676 208.74619707139396 L 149.6992385017989 208.57167300702113 L 140.0030460968722 199.82547593562717 L 150.30380759507324 191.25380292860604 L 170.3007614982011 191.42832699297887 Z" fill="#4073bf" stroke="#4073bf" stroke-width="1" />
  <path d="M 217.23060804622864 210.14961922488249 L 204.02405040695132 212.4225250527956 L 186.79344236072262 202.2729058279131 L 182.76939195377136 189.85038077511751 L 195.97594959304868 187.5774749472044 L 213.20655763927738 197.7270941720869 Z" fill="#7340bf" stroke="#7340bf" stroke-width="1" />
  <path d="M 259.99314649951117 200.26176948307872 L 249.54317520519214 208.78817112661966 L 229.55002870568103 208.52640164354094 L 220.00685350048883 199.73823051692128 L 230.45682479480786 191.21182887338034 L 250.44997129431897 191.47359835645906 Z" fill="#bf4640" stroke="#bf4640" stroke-width="1" />
  <path d="M 297.23060804622867 210.1496192248825 L 284.02405040695123 212.42252505279558 L 266.7934423607226 202.27290582791312 L 262.7693919537712 189.8503807751175 L 275.97594959304865 187.57747494720442 L 293.20655763927726 197.72709417208688 Z" fill="#bf7940" stroke="#bf7940" stroke-width="1" />
  <path d="M 339.9931464995111 200.26176948307872 L 329.54317520519214 208.78817112661966 L 309.55002870568103 208.52640164354094 L 300.0068535004889 199.73823051692128 L 310.45682479480786 191.21182887338034 L 330.44997129431897 191.47359835645906 Z" fill="#bf4640" stroke="#bf4640" stroke-width="1" />
  <path d="M 17.230608046228667 250.14961922488249 L 4.024050406951307 252.4225250527956 L -13.206557639277356 242.27290582791312 L -17.230608046228667 229.85038077511751 L -4.024050406951316 227.5774749472044 L 13.20655763927736 237.72709417208688 Z" fill="#7340bf" stroke="#7340bf" stroke-width="1" />
  <path d="M 59.99314649951115 240.26176948307872 L 49.54317520519218 248.78817112661966 L 29.550028705681036 248.52640164354094 L 20.006853500488866 239.73823051692128 L 30.456824794807822 231.21182887338034 L 50.44997129431898 231.47359835645906 Z" fill="#4073bf" stroke="#4073bf" stroke-width="1" />
  <path d="M 97.18368802862119 250.22327227203726 L 83.87054659715236 252.38236705105362 L 66.68685856853114 242.15909477901636 L 62.816311971378774 229.77672772796274 L 76.12945340284762 227.61763294894638 L 93.31314143146884 237.84090522098364 Z" fill="#bf4640" stroke="#bf4640" stroke-width="1" />
  <path d="M 139.9969539031278 240.17452406437283 L 129.69619240492673 248.74619707139396 L 109.6992385017989 248.57167300702113 L 100.00304609687217 239.82547593562717 L 110.30380759507327 231.25380292860604 L 130.3007614982011 231.42832699297887 Z" fill="#4073bf" stroke="#4073bf" stroke-width="1" />
  <path d="M 177.18368802862122 250.22327227203726 L 163.87054659715233 252.3823670510536 L 146.68685856853114 242.15909477901636 L 142.81631197137875 229.7767277279627 L 156.12945340284764 227.61763294894638 L 173.31314143146884 237.84090522098364 Z" fill="#bf7940" stroke="#bf7940" stroke-width="1" />
  <path d="M 219.9969539031278 240.17452406437283 L 209.69619240492676 248.74619707139396 L 189.6992385017989 248.57167300702113 L 180.0030460968722 239.82547593562717 L 190.30380759507324 231.25380292860604 L 210.3007614982011 231.42832699297887 Z" fill="#7340bf" stroke="#7340bf" stroke-width="1" />
  <path d="M 257.18368802862125 250.22327227203726 L 243.87054659715233 252.3823670510536 L 226.68685856853114 242.15909477901636 L 222.81631197137875 229.7767277279627 L 236.12945340284764 227.61763294894638 L 253.31314143146884 237.84090522098364 Z" fill="#4073bf" stroke="#4073bf" stroke-width="1" />
  <path d="M 299.9969539031278 240.17452406437283 L 289.69619240492665 248.74619707139396 L 269.6992385017989 248.57167300702113 L 260.0030460968721 239.82547593562717 L 270.30380759507324 231.25380292860604 L 290.300761498201 231.42832699297887 Z" fill="#bf4640" stroke="#bf4640" stroke-width="1" />
  <path d="M 337.23060804622867 250.1496192248825 L 324.02405040695123 252.42252505279558 L 306.7934423607226 242.27290582791312 L 302.7693919537712 229.8503807751175 L 315.97594959304865 227.57747494720442 L 333.20655763927726 237.72709417208688 Z" fill="#7340bf" stroke="#7340bf" stroke-width="1" />
  <path d="M 19.993146499511145 280.26176948307875 L 9.54317520519217 288.78817112661966 L -10.449971294318972 288.5264016435409 L -19.993146499511145 279.73823051692125 L -9.543175205192178 271.21182887338034 L 10.449971294318978 271.4735983564591 Z" fill="#bf7940" stroke="#bf7940" stroke-width="1" />
  <path d="M 57.23060804622865 290.14961922488254 L 44.0240504069513 292.4225250527956 L 26.793442360722654 282.27290582791306 L 22.769391953771347 269.85038077511746 L 35.975949593048675 267.5774749472044 L 53.20655763927734 277.72709417208694 Z" fill="#bf4640" stroke="#bf4640" stroke-width="1" />
  <path d="M 99.99314649951114 280.26176948307875 L 89.54317520519217 288.78817112661966 L 69.55002870568103 288.5264016435409 L 60.00685350048886 279.73823051692125 L 70.45682479480783 271.21182887338034 L 90.44997129431897 271.4735983564591 Z" fill="#4073bf" stroke="#4073bf" stroke-width="1" />
  <path d="M 137.18368802862122 290.2232722720373 L 123.87054659715237 292.3823670510536 L 106.68685856853116 282.1590947790163 L 102.81631197137881 269.7767277279627 L 116.12945340284763 267.6176329489464 L 133.31314143146884 277.84090522098364 Z" fill="#bf7940" stroke="#bf7940" stroke-width="1" />
  <path d="M 179.9969539031278 280.17452406437286 L 169.69619240492676 288.74619707139396 L 149.6992385017989 288.5716730070211 L 140.0030460968722 279.82547593562714 L 150.30380759507324 271.25380292860604 L 170.3007614982011 271.4283269929789 Z" fill="#7340bf" stroke="#7340bf" stroke-width="1" />
  <path d="M 217.18368802862122 290.2232722720373 L 203.87054659715233 292.3823670510536 L 186.68685856853116 282.15909477901636 L 182.81631197137878 269.7767277279627 L 196.12945340284767 267.6176329489464 L 213.31314143146884 277.84090522098364 Z" fill="#7340bf" stroke="#7340bf" stroke-width="1" />
  <path d="M 259.9969539031278 280.17452406437286 L 249.69619240492676 288.74619707139396 L 229.6992385017989 288.5716730070211 L 220.0030460968722 279.82547593562714 L 230.30380759507324 271.25380292860604 L 250.3007614982011 271.4283269929789 Z" fill="#bf7940" stroke="#bf7940" stroke-width="1" />
  <path d="M 297.1836880286212 290.22327227203726 L 283.8705465971523 292.3823670510536 L 266.6868585685312 282.15909477901636 L 262.8163119713788 269.77672772796274 L 276.1294534028477 267.6176329489464 L 293.3131414314688 277.84090522098364 Z" fill="#bf4640" stroke="#bf4640" stroke-width="1" />
  <path d="M 339.9969539031278 280.17452406437286 L 329.69619240492665 288.74619707139396 L 309.6992385017989 288.5716730070211 L 300.0030460968721 279.82547593562714 L 310.30380759507324 271.25380292860604 L 330.300761498201 271.4283269929789 Z" fill="#4073bf" stroke="#4073bf" stroke-width="1" />
  <path d="M 17.1836880286212 330.22327227203726 L 3.8705465971523645 332.3823670510536 L -13.313141431468836 322.15909477901636 L -17.1836880286212 309.77672772796274 L -3.8705465971523707 307.6176329489464 L 13.31314143146884 317.8409052209837 Z" fill="#bf4640" stroke="#bf4640" stroke-width="1" />
  <path d="M 59.99695390312783 320.17452406437286 L 49.696192404926734 328.74619707139396 L 29.699238501798916 328.5716730070211 L 20.003046096872175 319.82547593562714 L 30.303807595073238 311.25380292860604 L 50.300761498201084 311.4283269929789 Z" fill="#4073bf" stroke="#4073bf" stroke-width="1" />
  <path d="M 97.18368802862119 330.22327227203726 L 83.87054659715237 332.3823670510536 L 66.68685856853116 322.15909477901636 L 62.8163119713788 309.77672772796274 L 76.12945340284763 307.6176329489464 L 93.31314143146884 317.84090522098364 Z" fill="#7340bf" stroke="#7340bf" stroke-width="1" />
  <path d="M 139.9969539031278 320.17452406437286 L 129.69619240492673 328.74619707139396 L 109.6992385017989 328.5716730070211 L 100.00304609687217 319.82547593562714 L 110.30380759507327 311.25380292860604 L 130.3007614982011 311.4283269929789 Z" fill="#bf7940" stroke="#bf7940" stroke-width="1" />
  <path d="M 177.18368802862122 330.2232722720373 L 163.87054659715233 332.3823670510536 L 146.68685856853116 322.15909477901636 L 142.81631197137878 309.7767277279627 L 156.12945340284767 307.6176329489464 L 173.31314143146884 317.84090522098364 Z" fill="#bf4640" stroke="#bf4640" stroke-width="1" />
  <path d="M 219.9969539031278 320.17452406437286 L 209.69619240492676 328.74619707139396 L 189.6992385017989 328.5716730070211 L 180.0030460968722 319.82547593562714 L 190.30380759507324 311.25380292860604 L 210.3007614982011 311.4283269929789 Z" fill="#7340bf" stroke="#7340bf" stroke-width="1" />
  <path d="M 257.18368802862125 330.2232722720373 L 243.87054659715233 332.3823670510536 L 226.68685856853116 322.15909477901636 L 222.81631197137878 309.7767277279627 L 236.12945340284767 307.6176329489464 L 253.31314143146884 317.84090522098364 Z" fill="#bf7940" stroke="#bf7940" stroke-width="1" />
  <path d="M 299.9969539031278 320.17452406437286 L 289.69619240492665 328.74619707139396 L 269.6992385017989 328.5716730070211 L 260.0030460968721 319.82547593562714 L 270.30380759507324 311.25380292860604 L 290.300761498201 311.4283269929789 Z" fill="#4073bf" stroke="#4073bf" stroke-width="1" />
  <path d="M 337.1836880286212 330.22327227203726 L 323.8705465971523 332.3823670510536 L 306.6868585685312 322.15909477901636 L 302.8163119713788 309.77672772796274 L 316.1294534028477 307.6176329489464 L 333.3131414314688 317.84090522098364 Z" fill="#7340bf" stroke="#7340bf" stroke-width="1" />
  <path d="M 17.230608046228667 10.149619224882496 L 4.024050406951311 12.4225250527956 L -13.20655763927735 2.272905827913103 L -17.230608046228667 -10.149619224882496 L -4.02405040695132 -12.422525052795603 L 13.206557639277356 -2.2729058279130987 Z" fill="#bf4640" stroke="#bf4640" stroke-width="1" />
  <path d="M 59.99314649951115 0.2617694830787315 L 49.54317520519218 8.788171126619652 L 29.550028705681036 8.526401643540924 L 20.006853500488866 -0.26176948307873027 L 30.456824794807822 -8.788171126619652 L 50.44997129431898 -8.526401643540922 Z" fill="#bf7940" stroke="#bf7940" stroke-width="1" />
  <path d="M 97.1836880286212 10.22327227203727 L 83.87054659715237 12.382367051053613 L 66.68685856853116 2.1590947790163453 L 62.816311971378795 -10.22327227203727 L 76.12945340284763 -12.382367051053613 L 93.31314143146884 -2.1590947790163435 Z" fill="#4073bf" stroke="#4073bf" stroke-width="1" />
  <path d="M 139.9969539031278 0.17452406437283513 L 129.69619240492673 8.746197071393958 L 109.6992385017989 8.571673007021124 L 100.00304609687217 -0.1745240643728339 L 110.30380759507327 -8.746197071393956 L 130.3007614982011 -8.571673007021122 Z" fill="#7340bf" stroke="#7340bf" stroke-width="1" />
  <path d="M 177.18368802862125 10.223272272037285 L 163.87054659715236 12.382367051053599 L 146.68685856853116 2.1590947790163453 L 142.81631197137875 -10.223272272037285 L 156.12945340284764 -12.382367051053599 L 173.31314143146884 -2.1590947790163435 Z" fill="#bf4640" stroke="#bf4640" stroke-width="1" />
  <path d="M 219.9969539031278 0.17452406437283513 L 209.69619240492676 8.746197071393958 L 189.6992385017989 8.571673007021124 L 180.0030460968722 -0.1745240643728339 L 190.30380759507324 -8.746197071393956 L 210.3007614982011 -8.571673007021122 Z" fill="#7340bf" stroke="#7340bf" stroke-width="1" />
  <path d="M 257.18368802862125 10.223272272037285 L 243.87054659715236 12.382367051053599 L 226.68685856853116 2.1590947790163453 L 222.81631197137875 -10.223272272037285 L 236.12945340284764 -12.382367051053599 L 253.31314143146884 -2.1590947790163435 Z" fill="#bf7940" stroke="#bf7940" stroke-width="1" />
  <path d="M 299.9969539031278 0.17452406437283513 L 289.69619240492665 8.746197071393958 L 269.6992385017989 8.571673007021124 L 260.0030460968721 -0.1745240643728339 L 270.30380759507324 -8.746197071393956 L 290.300761498201 -8.571673007021122 Z" fill="#4073bf" stroke="#4073bf" stroke-width="1" />
  <path d="M 337.1836880286212 10.223272272037256 L 323.8705465971523 12.382367051053599 L 306.68685856853114 2.1590947790163453 L 302.8163119713788 -10.223272272037256 L 316.1294534028477 -12.382367051053599 L 333.31314143146886 -2.1590947790163435 Z" fill="#7340bf" stroke="#7340bf" stroke-width="1" />
  <path d="M 19.996953903127825 40.17452406437283 L 9.696192404926743 48.74619707139395 L -10.30076149820108 48.571673007021126 L -19.996953903127825 39.82547593562717 L -9.69619240492675 31.253802928606046 L 10.300761498201085 31.428326992978878 Z" fill="#bf4640" stroke="#bf4640" stroke-width="1" />
  <path d="M 57.18368802862122 50.22327227203727 L 43.87054659715238 52.382367051053606 L 26.686858568531168 42.15909477901634 L 22.8163119713788 29.77672772796273 L 36.12945340284762 27.61763294894638 L 53.31314143146885 37.84090522098366 Z" fill="#bf7940" stroke="#bf7940" stroke-width="1" />
  <path d="M 99.99695390312783 40.17452406437283 L 89.69619240492673 48.74619707139395 L 69.6992385017989 48.571673007021126 L 60.00304609687217 39.82547593562717 L 70.30380759507327 31.253802928606046 L 90.3007614982011 31.428326992978878 Z" fill="#4073bf" stroke="#4073bf" stroke-width="1" />
  <path d="M 137.23060804622864 50.149619224882485 L 124.0240504069513 52.422525052795585 L 106.79344236072262 42.27290582791309 L 102.76939195377133 29.8503807751175 L 115.9759495930487 27.577474947204408 L 133.20655763927738 37.72709417208691 Z" fill="#bf4640" stroke="#bf4640" stroke-width="1" />
  <path d="M 179.99314649951117 40.26176948307873 L 169.54317520519214 48.788171126619645 L 149.55002870568103 48.52640164354092 L 140.00685350048883 39.73823051692127 L 150.45682479480786 31.21182887338035 L 170.44997129431897 31.473598356459078 Z" fill="#bf7940" stroke="#bf7940" stroke-width="1" />
  <path d="M 217.23060804622864 50.149619224882485 L 204.02405040695132 52.4225250527956 L 186.79344236072262 42.27290582791309 L 182.76939195377136 29.850380775117515 L 195.97594959304865 27.577474947204394 L 213.20655763927738 37.72709417208691 Z" fill="#7340bf" stroke="#7340bf" stroke-width="1" />
  <path d="M 259.99314649951117 40.26176948307873 L 249.54317520519214 48.788171126619645 L 229.55002870568103 48.52640164354092 L 220.00685350048883 39.73823051692127 L 230.45682479480786 31.21182887338035 L 250.44997129431897 31.473598356459078 Z" fill="#4073bf" stroke="#4073bf" stroke-width="1" />
  <path d="M 297.2306080462286 50.149619224882514 L 284.02405040695123 52.42252505279557 L 266.7934423607226 42.27290582791312 L 262.7693919537712 29.850380775117486 L 275.97594959304865 27.577474947204422 L 293.20655763927726 37.72709417208688 Z" fill="#4073bf" stroke="#4073bf" stroke-width="1" />
  <path d="M 339.9931464995111 40.26176948307873 L 329.54317520519214 48.788171126619645 L 309.55002870568103 48.52640164354092 L 300.0068535004889 39.73823051692127 L 310.45682479480786 31.21182887338035 L 330.44997129431897 31.473598356459078 Z" fill="#bf7940" stroke="#bf7940" stroke-width="1" />
  <path d="M 17.18368802862121 90.22327227203728 L 3.8705465971523716 92.3823670510536 L -13.313141431468843 82.15909477901634 L -17.18368802862121 69.77672772796272 L -3.870546597152378 67.6176329489464 L 13.313141431468846 77.84090522098366 Z" fill="#bf4640" stroke="#bf4640" stroke-width="1" />
  <path d="M 59.99695390312783 80.17452406437283 L 49.696192404926734 88.74619707139395 L 29.699238501798916 88.57167300702112 L 20.003046096872175 79.82547593562717 L 30.303807595073238 71.25380292860605 L 50.300761498201084 71.42832699297888 Z" fill="#7340bf" stroke="#7340bf" stroke-width="1" />
  <path d="M 97.23060804622867 90.14961922488249 L 84.0240504069513 92.42252505279558 L 66.79344236072262 82.27290582791308 L 62.76939195377132 69.85038077511749 L 75.97594959304868 67.57747494720441 L 93.20655763927736 77.72709417208691 Z" fill="#bf4640" stroke="#bf4640" stroke-width="1" />
  <path d="M 139.99314649951117 80.26176948307874 L 129.54317520519217 88.78817112661964 L 109.55002870568103 88.52640164354092 L 100.00685350048886 79.73823051692126 L 110.45682479480783 71.21182887338036 L 130.44997129431897 71.47359835645908 Z" fill="#4073bf" stroke="#4073bf" stroke-width="1" />
  <path d="M 177.18368802862122 90.22327227203729 L 163.87054659715236 92.38236705105359 L 146.68685856853116 82.15909477901634 L 142.81631197137878 69.77672772796271 L 156.12945340284764 67.61763294894641 L 173.31314143146884 77.84090522098366 Z" fill="#7340bf" stroke="#7340bf" stroke-width="1" />
  <path d="M 219.9969539031278 80.17452406437283 L 209.69619240492676 88.74619707139395 L 189.6992385017989 88.57167300702112 L 180.0030460968722 79.82547593562717 L 190.30380759507324 71.25380292860605 L 210.3007614982011 71.42832699297888 Z" fill="#bf7940" stroke="#bf7940" stroke-width="1" />
  <path d="M 257.18368802862125 90.22327227203729 L 243.87054659715236 92.38236705105359 L 226.68685856853116 82.15909477901634 L 222.81631197137878 69.77672772796271 L 236.12945340284764 67.61763294894641 L 253.31314143146884 77.84090522098366 Z" fill="#bf7940" stroke="#bf7940" stroke-width="1" />
  <path d="M 299.9969539031278 80.17452406437283 L 289.69619240492665 88.74619707139395 L 269.6992385017989 88.57167300702112 L 260.0030460968721 79.82547593562717 L 270.30380759507324 71.25380292860605 L 290.300761498201 71.42832699297888 Z" fill="#bf4640" stroke="#bf4640" stroke-width="1" />
  <path d="M 337.2306080462286 90.14961922488251 L 324.02405040695123 92.42252505279558 L 306.7934423607226 82.27290582791312 L 302.7693919537712 69.85038077511749 L 315.97594959304865 67.57747494720442 L 333.20655763927726 77.72709417208688 Z" fill="#7340bf" stroke="#7340bf" stroke-width="1" />
  <path d="M 19.993146499511145 120.26176948307874 L 9.54317520519217 128.78817112661966 L -10.449971294318972 128.52640164354094 L -19.993146499511145 119.73823051692126 L -9.543175205192176 111.21182887338036 L 10.44997129431898 111.47359835645908 Z" fill="#4073bf" stroke="#4073bf" stroke-width="1" />
  <path d="M 57.18368802862121 130.22327227203726 L 43.87054659715237 132.38236705105362 L 26.68685856853116 122.15909477901636 L 22.816311971378802 109.77672772796272 L 36.12945340284762 107.61763294894638 L 53.31314143146885 117.84090522098366 Z" fill="#4073bf" stroke="#4073bf" stroke-width="1" />
  <path d="M 99.99695390312783 120.17452406437283 L 89.69619240492673 128.74619707139396 L 69.6992385017989 128.57167300702113 L 60.00304609687217 119.82547593562717 L 70.30380759507327 111.25380292860605 L 90.3007614982011 111.42832699297888 Z" fill="#7340bf" stroke="#7340bf" stroke-width="1" />
  <path d="M 137.23060804622867 130.14961922488249 L 124.0240504069513 132.4225250527956 L 106.79344236072264 122.2729058279131 L 102.76939195377133 109.8503807751175 L 115.9759495930487 107.57747494720442 L 133.20655763927738 117.72709417208691 Z" fill="#bf7940" stroke="#bf7940" stroke-width="1" />
  <path d="M 179.99314649951117 120.26176948307874 L 169.54317520519214 128.78817112661966 L 149.55002870568103 128.52640164354094 L 140.00685350048883 119.73823051692126 L 150.45682479480786 111.21182887338036 L 170.44997129431897 111.47359835645908 Z" fill="#bf4640" stroke="#bf4640" stroke-width="1" />
  <path d="M 217.23060804622867 130.14961922488249 L 204.02405040695135 132.4225250527956 L 186.79344236072262 122.2729058279131 L 182.76939195377136 109.85038077511751 L 195.97594959304868 107.5774749472044 L 213.20655763927738 117.72709417208691 Z" fill="#bf4640" stroke="#bf4640" stroke-width="1" />
  <path d="M 259.99314649951117 120.26176948307874 L 249.54317520519214 128.78817112661966 L 229.55002870568103 128.52640164354094 L 220.00685350048883 119.73823051692126 L 230.45682479480786 111.21182887338036 L 250.44997129431897 111.47359835645908 Z" fill="#bf7940" stroke="#bf7940" stroke-width="1" />
  <path d="M 297.23060804622867 130.1496192248825 L 284.02405040695123 132.42252505279558 L 266.7934423607226 122.27290582791314 L 262.7693919537713 109.85038077511749 L 275.97594959304865 107.57747494720442 L 293.20655763927726 117.72709417208688 Z" fill="#4073bf" stroke="#4073bf" stroke-width="1" />
  <path d="M 339.9931464995111 120.26176948307874 L 329.54317520519214 128.78817112661966 L 309.55002870568103 128.52640164354094 L 300.0068535004889 119.73823051692126 L 310.45682479480786 111.21182887338036 L 330.44997129431897 111.47359835645908 Z" fill="#7340bf" stroke="#7340bf" stroke-width="1" />
  <path d="M 17.23060804622868 170.14961922488249 L 4.024050406951321 172.4225250527956 L -13.206557639277342 162.27290582791312 L -17.230608046228653 149.85038077511751 L -4.024050406951302 147.5774749472044 L 13.206557639277374 157.7270941720869 Z" fill="#bf7940" stroke="#bf7940" stroke-width="1" />
  <path d="M 59.99314649951115 160.26176948307872 L 49.54317520519218 168.78817112661966 L 29.550028705681036 168.52640164354094 L 20.006853500488866 159.73823051692128 L 30.456824794807822 151.21182887338034 L 50.44997129431898 151.47359835645906 Z" fill="#bf4640" stroke="#bf4640" stroke-width="1" />
  <path d="M 97.2306080462287 170.14961922488249 L 84.02405040695132 172.4225250527956 L 66.79344236072265 162.2729058279131 L 62.76939195377135 149.8503807751175 L 75.97594959304871 147.5774749472044 L 93.20655763927739 157.7270941720869 Z" fill="#4073bf" stroke="#4073bf" stroke-width="1" />
  <path d="M 139.99314649951117 160.26176948307872 L 129.54317520519217 168.78817112661966 L 109.55002870568103 168.52640164354094 L 100.00685350048886 159.73823051692128 L 110.45682479480783 151.21182887338034 L 130.44997129431897 151.47359835645906 Z" fill="#7340bf" stroke="#7340bf" stroke-width="1" />
  <path d="M 177.18368802862125 170.22327227203726 L 163.87054659715233 172.38236705105362 L 146.68685856853116 162.15909477901636 L 142.81631197137875 149.77672772796274 L 156.12945340284767 147.61763294894638 L 173.31314143146884 157.84090522098364 Z" fill="#bf4640" stroke="#bf4640" stroke-width="1" />
  <path d="M 219.9969539031278 160.17452406437283 L 209.69619240492676 168.74619707139396 L 189.6992385017989 168.57167300702113 L 180.0030460968722 159.82547593562717 L 190.30380759507324 151.25380292860604 L 210.3007614982011 151.42832699297887 Z" fill="#4073bf" stroke="#4073bf" stroke-width="1" />
  <path d="M 257.18368802862125 170.22327227203726 L 243.87054659715233 172.38236705105362 L 226.68685856853116 162.15909477901636 L 222.81631197137875 149.77672772796274 L 236.12945340284767 147.61763294894638 L 253.31314143146884 157.84090522098364 Z" fill="#bf7940" stroke="#bf7940" stroke-width="1" />
  <path d="M 299.9969539031278 160.17452406437283 L 289.69619240492665 168.74619707139396 L 269.6992385017989 168.57167300702113 L 260.0030460968721 159.82547593562717 L 270.30380759507324 151.25380292860604 L 290.300761498201 151.42832699297887 Z" fill="#7340bf" stroke="#7340bf" stroke-width="1" />
  <path d="M 337.23060804622867 170.1496192248825 L 324.02405040695123 172.42252505279558 L 306.7934423607226 162.27290582791312 L 302.7693919537713 149.8503807751175 L 315.97594959304865 147.57747494720442 L 333.20655763927726 157.72709417208688 Z" fill="#bf7940" stroke="#bf7940" stroke-width="1" />
  <path d="M 19.993146499511145 200.26176948307872 L 9.543175205192169 208.78817112661966 L -10.449971294318974 208.52640164354094 L -19.993146499511145 199.73823051692128 L -9.543175205192176 191.21182887338034 L 10.44997129431898 191.47359835645906 Z" fill="#4073bf" stroke="#4073bf" stroke-width="1" />
  <path d="M 57.18368802862122 210.22327227203726 L 43.87054659715237 212.38236705105362 L 26.68685856853116 202.15909477901636 L 22.816311971378795 189.77672772796274 L 36.12945340284763 187.61763294894638 L 53.31314143146885 197.84090522098364 Z" fill="#bf4640" stroke="#bf4640" stroke-width="1" />
  <path d="M 99.99695390312783 200.17452406437283 L 89.69619240492673 208.74619707139396 L 69.6992385017989 208.57167300702113 L 60.00304609687217 199.82547593562717 L 70.30380759507327 191.25380292860604 L 90.3007614982011 191.42832699297887 Z" fill="#7340bf" stroke="#7340bf" stroke-width="1" />
  <path d="M 137.18368802862125 210.22327227203726 L 123.87054659715237 212.38236705105362 L 106.68685856853115 202.15909477901636 L 102.8163119713788 189.77672772796274 L 116.12945340284763 187.61763294894638 L 133.31314143146886 197.84090522098364 Z" fill="#bf7940" stroke="#bf7940" stroke-width="1" />
  <path d="M 179.9969539031278 200.17452406437283 L 169.69619240492676 208.74619707139396 L 149.6992385017989 208.57167300702113 L 140.0030460968722 199.82547593562717 L 150.30380759507324 191.25380292860604 L 170.3007614982011 191.42832699297887 Z" fill="#4073bf" stroke="#4073bf" stroke-width="1" />
  <path d="M 217.23060804622864 210.14961922488249 L 204.02405040695132 212.4225250527956 L 186.79344236072262 202.2729058279131 L 182.76939195377136 189.85038077511751 L 195.97594959304868 187.5774749472044 L 213.20655763927738 197.7270941720869 Z" fill="#7340bf" stroke="#7340bf" stroke-width="1" />
  <path d="M 259.99314649951117 200.26176948307872 L 249.54317520519214 208.78817112661966 L 229.55002870568103 208.52640164354094 L 220.00685350048883 199.73823051692128 L 230.45682479480786 191.21182887338034 L 250.44997129431897 191.47359835645906 Z" fill="#bf4640" stroke="#bf4640" stroke-width="1" />
  <path d="M 297.23060804622867 210.1496192248825 L 284.02405040695123 212.42252505279558 L 266.7934423607226 202.27290582791312 L 262.7693919537712 189.8503807751175 L 275.97594959304865 187.57747494720442 L 293.20655763927726 197.72709417208688 Z" fill="#bf7940" stroke="#bf7940" stroke-width="1" />
  <path d="M 339.9931464995111 200.26176948307872 L 329.54317520519214 208.78817112661966 L 309.55002870568103 208.52640164354094 L 300.0068535004889 199.73823051692128 L 310.45682479480786 191.21182887338034 L 330.44997129431897 191.47359835645906 Z" fill="#bf4640" stroke="#bf4640" stroke-width="1" />
  <path d="M 17.230608046228667 250.14961922488249 L 4.024050406951307 252.4225250527956 L -13.206557639277356 242.27290582791312 L -17.230608046228667 229.85038077511751 L -4.024050406951316 227.5774749472044 L 13.20655763927736 237.72709417208688 Z" fill="#7340bf" stroke="#7340bf" stroke-width="1" />
  <path d="M 59.99314649951115 240.26176948307872 L 49.54317520519218 248.78817112661966 L 29.550028705681036 248.52640164354094 L 20.006853500488866 239.73823051692128 L 30.456824794807822 231.21182887338034 L 50.44997129431898 231.47359835645906 Z" fill="#4073bf" stroke="#4073bf" stroke-width="1" />
  <path d="M 97.18368802862119 250.22327227203726 L 83.87054659715236 252.38236705105362 L 66.68685856853114 242.15909477901636 L 62.816311971378774 229.77672772796274 L 76.12945340284762 227.61763294894638 L 93.31314143146884 237.84090522098364 Z" fill="#bf4640" stroke="#bf4640" stroke-width="1" />
  <path d="M 139.9969539031278 240.17452406437283 L 129.69619240492673 248.74619707139396 L 109.6992385017989 248.57167300702113 L 100.00304609687217 239.82547593562717 L 110.30380759507327 231.25380292860604 L 130.3007614982011 231.42832699297887 Z" fill="#4073bf" stroke="#4073bf" stroke-width="1" />
  <path d="M 177.18368802862122 250.22327227203726 L 163.87054659715233 252.3823670510536 L 146.68685856853114 242.15909477901636 L 142.81631197137875 229.7767277279627 L 156.12945340284764 227.61763294894638 L 173.31314143146884 237.84090522098364 Z" fill="#bf7940" stroke="#bf7940" stroke-width="1" />
  <path d="M 219.9969539031278 240.17452406437283 L 209.69619240492676 248.74619707139396 L 189.6992385017989 248.57167300702113 L 180.0030460968722 239.82547593562717 L 190.30380759507324 231.25380292860604 L 210.3007614982011 231.42832699297887 Z" fill="#7340bf" stroke="#7340bf" stroke-width="1" />
  <path d="M 257.18368802862125 250.22327227203726 L 243.87054659715233 252.3823670510536 L 226.68685856853114 242.15909477901636 L 222.81631197137875 229.7767277279627 L 236.12945340284764 227.61763294894638 L 253.31314143146884 237.84090522098364 Z" fill="#4073bf" stroke="#4073bf" stroke-width="1" />
  <path d="M 299.9969539031278 240.17452406437283 L 289.69619240492665 248.74619707139396 L 269.6992385017989 248.57167300702113 L 260.0030460968721 239.82547593562717 L 270.30380759507324 231.25380292860604 L 290.300761498201 231.42832699297887 Z" fill="#bf4640" stroke="#bf4640" stroke-width="1" />
  <path d="M 337.23060804622867 250.1496192248825 L 324.02405040695123 252.42252505279558 L 306.7934423607226 242.27290582791312 L 302.7693919537712 229.8503807751175 L 315.97594959304865 227.57747494720442 L 333.20655763927726 237.72709417208688 Z" fill="#7340bf" stroke="#7340bf" stroke-width="1" />
  <path d="M 19.993146499511145 280.26176948307875 L 9.54317520519217 288.78817112661966 L -10.449971294318972 288.5264016435409 L -19.993146499511145 279.73823051692125 L -9.543175205192178 271.21182887338034 L 10.449971294318978 271.4735983564591 Z" fill="#bf7940" stroke="#bf7940" stroke-width="1" />
  <path d="M 57.23060804622865 290.14961922488254 L 44.0240504069513 292.4225250527956 L 26.793442360722654 282.27290582791306 L 22.769391953771347 269.85038077511746 L 35.975949593048675 267.5774749472044 L 53.20655763927734 277.72709417208694 Z" fill="#bf4640" stroke="#bf4640" stroke-width="1" />
  <path d="M 99.99314649951114 280.26176948307875 L 89.54317520519217 288.78817112661966 L 69.55002870568103 288.5264016435409 L 60.00685350048886 279.73823051692125 L 70.45682479480783 271.21182887338034 L 90.44997129431897 271.4735983564591 Z" fill="#4073bf" stroke="#4073bf" stroke-width="1" />
  <path d="M 137.18368802862122 290.2232722720373 L 123.87054659715237 292.3823670510536 L 106.68685856853116 282.1590947790163 L 102.81631197137881 269.7767277279627 L 116.12945340284763 267.6176329489464 L 133.31314143146884 277.84090522098364 Z" fill="#bf7940" stroke="#bf7940" stroke-width="1" />
  <path d="M 179.9969539031278 280.17452406437286 L 169.69619240492676 288.74619707139396 L 149.6992385017989 288.5716730070211 L 140.0030460968722 279.82547593562714 L 150.30380759507324 271.25380292860604 L 170.3007614982011 271.4283269929789 Z" fill="#7340bf" stroke="#7340bf" stroke-width="1" />
  <path d="M 217.18368802862122 290.2232722720373 L 203.87054659715233 292.3823670510536 L 186.68685856853116 282.15909477901636 L 182.81631197137878 269.7767277279627 L 196.12945340284767 267.6176329489464 L 213.31314143146884 277.84090522098364 Z" fill="#7340bf" stroke="#7340bf" stroke-width="1" />
  <path d="M 259.9969539031278 280.17452406437286 L 249.69619240492676 288.74619707139396 L 229.6992385017989 288.5716730070211 L 220.0030460968722 279.82547593562714 L 230.30380759507324 271.25380292860604 L 250.3007614982011 271.4283269929789 Z" fill="#bf7940" stroke="#bf7940" stroke-width="1" />
  <path d="M 297.1836880286212 290.22327227203726 L 283.8705465971523 292.3823670510536 L 266.6868585685312 282.15909477901636 L 262.8163119713788 269.77672772796274 L 276.1294534028477 267.6176329489464 L 293.3131414314688 277.84090522098364 Z" fill="#bf4640" stroke="#bf4640" stroke-width="1" />
  <path d="M 339.9969539031278 280.17452406437286 L 329.69619240492665 288.74619707139396 L 309.6992385017989 288.5716730070211 L 300.0030460968721 279.82547593562714 L 310.30380759507324 271.25380292860604 L 330.300761498201 271.4283269929789 Z" fill="#4073bf" stroke="#4073bf" stroke-width="1" />
  <path d="M 17.1836880286212 330.22327227203726 L 3.8705465971523645 332.3823670510536 L -13.313141431468836 322.15909477901636 L -17.1836880286212 309.77672772796274 L -3.8705465971523707 307.6176329489464 L 13.31314143146884 317.8409052209837 Z" fill="#bf4640" stroke="#bf4640" stroke-width="1" />
  <path d="M 59.99695390312783 320.17452406437286 L 49.696192404926734 328.74619707139396 L 29.699238501798916 328.5716730070211 L 20.003046096872175 319.82547593562714 L 30.303807595073238 311.25380292860604 L 50.300761498201084 311.4283269929789 Z" fill="#4073bf" stroke="#4073bf" stroke-width="1" />
  <path d="M 97.18368802862119 330.22327227203726 L 83.87054659715237 332.3823670510536 L 66.68685856853116 322.15909477901636 L 62.8163119713788 309.77672772796274 L 76.12945340284763 307.6176329489464 L 93.31314143146884 317.84090522098364 Z" fill="#7340bf" stroke="#7340bf" stroke-width="1" />
  <path d="M 139.9969539031278 320.17452406437286 L 129.69619240492673 328.74619707139396 L 109.6992385017989 328.5716730070211 L 100.00304609687217 319.82547593562714 L 110.30380759507327 311.25380292860604 L 130.3007614982011 311.4283269929789 Z" fill="#bf7940" stroke="#bf7940" stroke-width="1" />
  <path d="M 177.18368802862122 330.2232722720373 L 163.87054659715233 332.3823670510536 L 146.68685856853116 322.15909477901636 L 142.81631197137878 309.7767277279627 L 156.12945340284767 307.6176329489464 L 173.31314143146884 317.84090522098364 Z" fill="#bf4640" stroke="#bf4640" stroke-width="1" />
  <path d="M 219.9969539031278 320.17452406437286 L 209.69619240492676 328.74619707139396 L 189.6992385017989 328.5716730070211 L 180.0030460968722 319.82547593562714 L 190.30380759507324 311.25380292860604 L 210.3007614982011 311.4283269929789 Z" fill="#7340bf" stroke="#7340bf" stroke-width="1" />
  <path d="M 257.18368802862125 330.2232722720373 L 243.87054659715233 332.3823670510536 L 226.68685856853116 322.15909477901636 L 222.81631197137878 309.7767277279627 L 236.12945340284767 307.6176329489464 L 253.31314143146884 317.84090522098364 Z" fill="#bf7940" stroke="#bf7940" stroke-width="1" />
  <path d="M 299.9969539031278 320.17452406437286 L 289.69619240492665 328.74619707139396 L 269.6992385017989 328.5716730070211 L 260.0030460968721 319.82547593562714 L 270.30380759507324 311.25380292860604 L 290.300761498201 311.4283269929789 Z" fill="#4073bf" stroke="#4073bf" stroke-width="1" />
  <path d="M 337.1836880286212 330.22327227203726 L 323.8705465971523 332.3823670510536 L 306.6868585685312 322.15909477901636 L 302.8163119713788 309.77672772796274 L 316.1294534028477 307.6176329489464 L 333.3131414314688 317.84090522098364 Z" fill="#7340bf" stroke="#7340bf" stroke-width="1" />
  <path d="M 17.230608046228667 10.149619224882496 L 4.024050406951311 12.4225250527956 L -13.20655763927735 2.272905827913103 L -17.230608046228667 -10.149619224882496 L -4.02405040695132 -12.422525052795603 L 13.206557639277356 -2.2729058279130987 Z" fill="#bf4640" stroke="#bf4640" stroke-width="1" />
  <path d="M 59.99314649951115 0.2617694830787315 L 49.54317520519218 8.788171126619652 L 29.550028705681036 8.526401643540924 L 20.006853500488866 -0.26176948307873027 L 30.456824794807822 -8.788171126619652 L 50.44997129431898 -8.526401643540922 Z" fill="#bf7940" stroke="#bf7940" stroke-width="1" />
  <path d="M 97.1836880286212 10.22327227203727 L 83.87054659715237 12.382367051053613 L 66.68685856853116 2.1590947790163453 L 62.816311971378795 -10.22327227203727 L 76.12945340284763 -12.382367051053613 L 93.31314143146884 -2.1590947790163435 Z" fill="#4073bf" stroke="#4073bf" stroke-width="1" />
  <path d="M 139.9969539031278 0.17452406437283513 L 129.69619240492673 8.746197071393958 L 109.6992385017989 8.571673007021124 L 100.00304609687217 -0.1745240643728339 L 110.30380759507327 -8.746197071393956 L 130.3007614982011 -8.571673007021122 Z" fill="#7340bf" stroke="#7340bf" stroke-width="1" />
  <path d="M 177.18368802862125 10.223272272037285 L 163.87054659715236 12.382367051053599 L 146.68685856853116 2.1590947790163453 L 142.81631197137875 -10.223272272037285 L 156.12945340284764 -12.382367051053599 L 173.31314143146884 -2.1590947790163435 Z" fill="#bf4640" stroke="#bf4640" stroke-width="1" />
  <path d="M 219.9969539031278 0.17452406437283513 L 209.69619240492676 8.746197071393958 L 189.6992385017989 8.571673007021124 L 180.0030460968722 -0.1745240643728339 L 190.30380759507324 -8.746197071393956 L 210.3007614982011 -8.571673007021122 Z" fill="#7340bf" stroke="#7340bf" stroke-width="1" />
  <path d="M 257.18368802862125 10.223272272037285 L 243.87054659715236 12.382367051053599 L 226.68685856853116 2.1590947790163453 L 222.81631197137875 -10.223272272037285 L 236.12945340284764 -12.382367051053599 L 253.31314143146884 -2.1590947790163435 Z" fill="#bf7940" stroke="#bf7940" stroke-width="1" />
  <path d="M 299.9969539031278 0.17452406437283513 L 289.69619240492665 8.746197071393958 L 269.6992385017989 8.571673007021124 L 260.0030460968721 -0.1745240643728339 L 270.30380759507324 -8.746197071393956 L 290.300761498201 -8.571673007021122 Z" fill="#4073bf" stroke="#4073bf" stroke-width="1" />
  <path d="M 337.1836880286212 10.223272272037256 L 323.8705465971523 12.382367051053599 L 306.68685856853114 2.1590947790163453 L 302.8163119713788 -10.223272272037256 L 316.1294534028477 -12.382367051053599 L 333.31314143146886 -2.1590947790163435 Z" fill="#7340bf" stroke="#7340bf" stroke-width="1" />
  <path d="M 19.996953903127825 40.17452406437283 L 9.696192404926743 48.74619707139395 L -10.30076149820108 48.571673007021126 L -19.996953903127825 39.82547593562717 L -9.69619240492675 31.253802928606046 L 10.300761498201085 31.428326992978878 Z" fill="#bf4640" stroke="#bf4640" stroke-width="1" />
  <path d="M 57.18368802862122 50.22327227203727 L 43.87054659715238 52.382367051053606 L 26.686858568531168 42.15909477901634 L 22.8163119713788 29.77672772796273 L 36.12945340284762 27.61763294894638 L 53.31314143146885 37.84090522098366 Z" fill="#bf7940" stroke="#bf7940" stroke-width="1" />
  <path d="M 99.99695390312783 40.17452406437283 L 89.69619240492673 48.74619707139395 L 69.6992385017989 48.571673007021126 L 60.00304609687217 39.82547593562717 L 70.30380759507327 31.253802928606046 L 90.3007614982011 31.428326992978878 Z" fill="#4073bf" stroke="#4073bf" stroke-width="1" />
  <path d="M 137.23060804622864 50.149619224882485 L 124.0240504069513 52.422525052795585 L 106.79344236072262 42.27290582791309 L 102.76939195377133 29.8503807751175 L 115.9759495930487 27.577474947204408 L 133.20655763927738 37.72709417208691 Z" fill="#bf4640" stroke="#bf4640" stroke-width="1" />
  <path d="M 179.99314649951117 40.26176948307873 L 169.54317520519214 48.788171126619645 L 149.55002870568103 48.52640164354092 L 140.00685350048883 39.73823051692127 L 150.45682479480786 31.21182887338035 L 170.44997129431897 31.473598356459078 Z" fill="#bf7940" stroke="#bf7940" stroke-width="1" />
  <path d="M 217.23060804622864 50.149619224882485 L 204.02405040695132 52.4225250527956 L 186.79344236072262 42.27290582791309 L 182.76939195377136 29.850380775117515 L 195.97594959304865 27.577474947204394 L 213.20655763927738 37.72709417208691 Z" fill="#7340bf" stroke="#7340bf" stroke-width="1" />
  <path d="M 259.99314649951117 40.26176948307873 L 249.54317520519214 48.788171126619645 L 229.55002870568103 48.52640164354092 L 220.00685350048883 39.73823051692127 L 230.45682479480786 31.21182887338035 L 250.44997129431897 31.473598356459078 Z" fill="#4073bf" stroke="#4073bf" stroke-width="1" />
  <path d="M 297.2306080462286 50.149619224882514 L 284.02405040695123 52.42252505279557 L 266.7934423607226 42.27290582791312 L 262.7693919537712 29.850380775117486 L 275.97594959304865 27.577474947204422 L 293.20655763927726 37.72709417208688 Z" fill="#4073bf" stroke="#4073bf" stroke-width="1" />
  <path d="M 339.9931464995111 40.26176948307873 L 329.54317520519214 48.788171126619645 L 309.55002870568103 48.52640164354092 L 300.0068535004889 39.73823051692127 L 310.45682479480786 31.21182887338035 L 330.44997129431897 31.473598356459078 Z" fill="#bf7940" stroke="#bf7940" stroke-width="1" />
  <path d="M 17.18368802862121 90.22327227203728 L 3.8705465971523716 92.3823670510536 L -13.313141431468843 82.15909477901634 L -17.18368802862121 69.77672772796272 L -3.870546597152378 67.6176329489464 L 13.313141431468846 77.84090522098366 Z" fill="#bf4640" stroke="#bf4640" stroke-width="1" />
  <path d="M 59.99695390312783 80.17452406437283 L 49.696192404926734 88.74619707139395 L 29.699238501798916 88.57167300702112 L 20.003046096872175 79.82547593562717 L 30.303807595073238 71.25380292860605 L 50.300761498201084 71.42832699297888 Z" fill="#7340bf" stroke="#7340bf" stroke-width="1" />
  <path d="M 97.23060804622867 90.14961922488249 L 84.0240504069513 92.42252505279558 L 66.79344236072262 82.27290582791308 L 62.76939195377132 69.85038077511749 L 75.97594959304868 67.57747494720441 L 93.20655763927736 77.72709417208691 Z" fill="#bf4640" stroke="#bf4640" stroke-width="1" />
  <path d="M 139.99314649951117 80.26176948307874 L 129.54317520519217 88.78817112661964 L 109.55002870568103 88.52640164354092 L 100.00685350048886 79.73823051692126 L 110.45682479480783 71.21182887338036 L 130.44997129431897 71.47359835645908 Z" fill="#4073bf" stroke="#4073bf" stroke-width="1" />
  <path d="M 177.18368802862122 90.22327227203729 L 163.87054659715236 92.38236705105359 L 146.68685856853116 82.15909477901634 L 142.81631197137878 69.77672772796271 L 156.12945340284764 67.61763294894641 L 173.31314143146884 77.84090522098366 Z" fill="#7340bf" stroke="#7340bf" stroke-width="1" />
  <path d="M 219.9969539031278 80.17452406437283 L 209.69619240492676 88.74619707139395 L 189.6992385017989 88.57167300702112 L 180.0030460968722 79.82547593562717 L 190.30380759507324 71.25380292860605 L 210.3007614982011 71.42832699297888 Z" fill="#bf7940" stroke="#bf7940" stroke-width="1" />
  <path d="M 257.18368802862125 90.22327227203729 L 243.87054659715236 92.38236705105359 L 226.68685856853116 82.15909477901634 L 222.81631197137878 69.77672772796271 L 236.12945340284764 67.61763294894641 L 253.31314143146884 77.84090522098366 Z" fill="#bf7940" stroke="#bf7940" stroke-width="1" />
  <path d="M 299.9969539031278 80.17452406437283 L 289.69619240492665 88.74619707139395 L 269.6992385017989 88.57167300702112 L 260.0030460968721 79.82547593562717 L 270.30380759507324 71.25380292860605 L 290.300761498201 71.42832699297888 Z" fill="#bf4640" stroke="#bf4640" stroke-width="1" />
  <path d="M 337.2306080462286 90.14961922488251 L 324.02405040695123 92.42252505279558 L 306.7934423607226 82.27290582791312 L 302.7693919537712 69.85038077511749 L 315.97594959304865 67.57747494720442 L 333.20655763927726 77.72709417208688 Z" fill="#7340bf" stroke="#7340bf" stroke-width="1" />
  <path d="M 19.993146499511145 120.26176948307874 L 9.54317520519217 128.78817112661966 L -10.449971294318972 128.52640164354094 L -19.993146499511145 119.73823051692126 L -9.543175205192176 111.21182887338036 L 10.44997129431898 111.47359835645908 Z" fill="#4073bf" stroke="#4073bf" stroke-width="1" />
  <path d="M 57.18368802862121 130.22327227203726 L 43.87054659715237 132.38236705105362 L 26.68685856853116 122.15909477901636 L 22.816311971378802 109.77672772796272 L 36.12945340284762 107.61763294894638 L 53.31314143146885 117.84090522098366 Z" fill="#4073bf" stroke="#4073bf" stroke-width="1" />
  <path d="M 99.99695390312783 120.17452406437283 L 89.69619240492673 128.74619707139396 L 69.6992385017989 128.57167300702113 L 60.00304609687217 119.82547593562717 L 70.30380759507327 111.25380292860605 L 90.3007614982011 111.42832699297888 Z" fill="#7340bf" stroke="#7340bf" stroke-width="1" />
  <path d="M 137.23060804622867 130.14961922488249 L 124.0240504069513 132.4225250527956 L 106.79344236072264 122.2729058279131 L 102.76939195377133 109.8503807751175 L 115.9759495930487 107.57747494720442 L 133.20655763927738 117.72709417208691 Z" fill="#bf7940" stroke="#bf7940" stroke-width="1" />
  <path d="M 179.99314649951117 120.26176948307874 L 169.54317520519214 128.78817112661966 L 149.55002870568103 128.52640164354094 L 140.00685350048883 119.73823051692126 L 150.45682479480786 111.21182887338036 L 170.44997129431897 111.47359835645908 Z" fill="#bf4640" stroke="#bf4640" stroke-width="1" />
  <path d="M 217.23060804622867 130.14961922488249 L 204.02405040695135 132.4225250527956 L 186.79344236072262 122.2729058279131 L 182.76939195377136 109.85038077511751 L 195.97594959304868 107.5774749472044 L 213.20655763927738 117.72709417208691 Z" fill="#bf4640" stroke="#bf4640" stroke-width="1" />
  <path d="M 259.99314649951117 120.26176948307874 L 249.54317520519214 128.78817112661966 L 229.55002870568103 128.52640164354094 L 220.00685350048883 119.73823051692126 L 230.45682479480786 111.21182887338036 L 250.44997129431897 111.47359835645908 Z" fill="#bf7940" stroke="#bf7940" stroke-width="1" />
  <path d="M 297.23060804622867 130.1496192248825 L 284.02405040695123 132.42252505279558 L 266.7934423607226 122.27290582791314 L 262.7693919537713 109.85038077511749 L 275.97594959304865 107.57747494720442 L 293.20655763927726 117.72709417208688 Z" fill="#4073bf" stroke="#4073bf" stroke-width="1" />
  <path d="M 339.9931464995111 120.26176948307874 L 329.54317520519214 128.78817112661966 L 309.55002870568103 128.52640164354094 L 300.0068535004889 119.73823051692126 L 310.45682479480786 111.21182887338036 L 330.44997129431897 111.47359835645908 Z" fill="#7340bf" stroke="#7340bf" stroke-width="1" />
  <path d="M 17.23060804622868 170.14961922488249 L 4.024050406951321 172.4225250527956 L -13.206557639277342 162.27290582791312 L -17.230608046228653 149.85038077511751 L -4.024050406951302 147.5774749472044 L 13.206557639277374 157.7270941720869 Z" fill="#bf7940" stroke="#bf7940" stroke-width="1" />
  <path d="M 59.99314649951115 160.26176948307872 L 49.54317520519218 168.78817112661966 L 29.550028705681036 168.52640164354094 L 20.006853500488866 159.73823051692128 L 30.456824794807822 151.21182887338034 L 50.44997129431898 151.47359835645906 Z" fill="#bf4640" stroke="#bf4640" stroke-width="1" />
  <path d="M 97.2306080462287 170.14961922488249 L 84.02405040695132 172.4225250527956 L 66.79344236072265 162.2729058279131 L 62.76939195377135 149.8503807751175 L 75.97594959304871 147.5774749472044 L 93.20655763927739 157.7270941720869 Z" fill="#4073bf" stroke="#4073bf" stroke-width="1" />
  <path d="M 139.99314649951117 160.26176948307872 L 129.54317520519217 168.78817112661966 L 109.55002870568103 168.52640164354094 L 100.00685350048886 159.73823051692128 L 110.45682479480783 151.21182887338034 L 130.44997129431897 151.47359835645906 Z" fill="#7340bf" stroke="#7340bf" stroke-width="1" />
  <path d="M 177.18368802862125 170.22327227203726 L 163.87054659715233 172.38236705105362 L 146.68685856853116 162.15909477901636 L 142.81631197137875 149.77672772796274 L 156.12945340284767 147.61763294894638 L 173.31314143146884 157.84090522098364 Z" fill="#bf4640" stroke="#bf4640" stroke-width="1" />
  <path d="M 219.9969539031278 160.17452406437283 L 209.69619240492676 168.74619707139396 L 189.6992385017989 168.57167300702113 L 180.0030460968722 159.82547593562717 L 190.30380759507324 151.25380292860604 L 210.3007614982011 151.42832699297887 Z" fill="#4073bf" stroke="#4073bf" stroke-width="1" />
  <path d="M 257.18368802862125 170.22327227203726 L 243.87054659715233 172.38236705105362 L 226.68685856853116 162.15909477901636 L 222.81631197137875 149.77672772796274 L 236.12945340284767 147.61763294894638 L 253.31314143146884 157.84090522098364 Z" fill="#bf7940" stroke="#bf7940" stroke-width="1" />
  <path d="M 299.9969539031278 160.17452406437283 L 289.69619240492665 168.74619707139396 L 269.6992385017989 168.57167300702113 L 260.0030460968721 159.82547593562717 L 270.30380759507324 151.25380292860604 L 290.300761498201 151.42832699297887 Z" fill="#7340bf" stroke="#7340bf" stroke-width="1" />
  <path d="M 337.23060804622867 170.1496192248825 L 324.02405040695123 172.42252505279558 L 306.7934423607226 162.27290582791312 L 302.7693919537713 149.8503807751175 L 315.97594959304865 147.57747494720442 L 333.20655763927726 157.72709417208688 Z" fill="#bf7940" stroke="#bf7940" stroke-width="1" />
  <path d="M 19.993146499511145 200.26176948307872 L 9.543175205192169 208.78817112661966 L -10.449971294318974 208.52640164354094 L -19.993146499511145 199.73823051692128 L -9.543175205192176 191.21182887338034 L 10.44997129431898 191.47359835645906 Z" fill="#4073bf" stroke="#4073bf" stroke-width="1" />
  <path d="M 57.18368802862122 210.22327227203726 L 43.87054659715237 212.38236705105362 L 26.68685856853116 202.15909477901636 L 22.816311971378795 189.77672772796274 L 36.12945340284763 187.61763294894638 L 53.31314143146885 197.84090522098364 Z" fill="#bf4640" stroke="#bf4640" stroke-width="1" />
  <path d="M 99.99695390312783 200.17452406437283 L 89.69619240492673 208.74619707139396 L 69.6992385017989 208.57167300702113 L 60.00304609687217 199.82547593562717 L 70.30380759507327 191.25380292860604 L 90.3007614982011 191.42832699297887 Z" fill="#7340bf" stroke="#7340bf" stroke-width="1" />
  <path d="M 137.18368802862125 210.22327227203726 L 123.87054659715237 212.38236705105362 L 106.68685856853115 202.15909477901636 L 102.8163119713788 189.77672772796274 L 116.12945340284763 187.61763294894638 L 133.31314143146886 197.84090522098364 Z" fill="#bf7940" stroke="#bf7940" stroke-width="1" />
  <path d="M 179.9969539031278 200.17452406437283 L 169.69619240492676 208.74619707139396 L 149.6992385017989 208.57167300702113 L 140.0030460968722 199.82547593562717 L 150.30380759507324 191.25380292860604 L 170.3007614982011 191.42832699297887 Z" fill="#4073bf" stroke="#4073bf" stroke-width="1" />
  <path d="M 217.23060804622864 210.14961922488249 L 204.02405040695132 212.4225250527956 L 186.79344236072262 202.2729058279131 L 182.76939195377136 189.85038077511751 L 195.97594959304868 187.5774749472044 L 213.20655763927738 197.7270941720869 Z" fill="#7340bf" stroke="#7340bf" stroke-width="1" />
  <path d="M 259.99314649951117 200.26176948307872 L 249.54317520519214 208.78817112661966 L 229.55002870568103 208.52640164354094 L 220.00685350048883 199.73823051692128 L 230.45682479480786 191.21182887338034 L 250.44997129431897 191.47359835645906 Z" fill="#bf4640" stroke="#bf4640" stroke-width="1" />
  <path d="M 297.23060804622867 210.1496192248825 L 284.02405040695123 212.42252505279558 L 266.7934423607226 202.27290582791312 L 262.7693919537712 189.8503807751175 L 275.97594959304865 187.57747494720442 L 293.20655763927726 197.72709417208688 Z" fill="#bf7940" stroke="#bf7940" stroke-width="1" />
  <path d="M 339.9931464995111 200.26176948307872 L 329.54317520519214 208.78817112661966 L 309.55002870568103 208.52640164354094 L 300.0068535004889 199.73823051692128 L 310.45682479480786 191.21182887338034 L 330.44997129431897 191.47359835645906 Z" fill="#bf4640" stroke="#bf4640" stroke-width="1" />
  <path d="M 17.230608046228667 250.14961922488249 L 4.024050406951307 252.4225250527956 L -13.206557639277356 242.27290582791312 L -17.230608046228667 229.85038077511751 L -4.024050406951316 227.5774749472044 L 13.20655763927736 237.72709417208688 Z" fill="#7340bf" stroke="#7340bf" stroke-width="1" />
  <path d="M 59.99314649951115 240.26176948307872 L 49.54317520519218 248.78817112661966 L 29.550028705681036 248.52640164354094 L 20.006853500488866 239.73823051692128 L 30.456824794807822 231.21182887338034 L 50.44997129431898 231.47359835645906 Z" fill="#4073bf" stroke="#4073bf" stroke-width="1" />
  <path d="M 97.18368802862119 250.22327227203726 L 83.87054659715236 252.38236705105362 L 66.68685856853114 242.15909477901636 L 62.816311971378774 229.77672772796274 L 76.12945340284762 227.61763294894638 L 93.31314143146884 237.84090522098364 Z" fill="#bf4640" stroke="#bf4640" stroke-width="1" />
  <path d="M 139.9969539031278 240.17452406437283 L 129.69619240492673 248.74619707139396 L 109.6992385017989 248.57167300702113 L 100.00304609687217 239.82547593562717 L 110.30380759507327 231.25380292860604 L 130.3007614982011 231.42832699297887 Z" fill="#4073bf" stroke="#4073bf" stroke-width="1" />
  <path d="M 177.18368802862122 250.22327227203726 L 163.87054659715233 252.3823670510536 L 146.68685856853114 242.15909477901636 L 142.81631197137875 229.7767277279627 L 156.12945340284764 227.61763294894638 L 173.31314143146884 237.84090522098364 Z" fill="#bf7940" stroke="#bf7940" stroke-width="1" />
  <path d="M 219.9969539031278 240.17452406437283 L 209.69619240492676 248.74619707139396 L 189.6992385017989 248.57167300702113 L 180.0030460968722 239.82547593562717 L 190.30380759507324 231.25380292860604 L 210.3007614982011 231.42832699297887 Z" fill="#7340bf" stroke="#7340bf" stroke-width="1" />
  <path d="M 257.18368802862125 250.22327227203726 L 243.87054659715233 252.3823670510536 L 226.68685856853114 242.15909477901636 L 222.81631197137875 229.7767277279627 L 236.12945340284764 227.61763294894638 L 253.31314143146884 237.84090522098364 Z" fill="#4073bf" stroke="#4073bf" stroke-width="1" />
  <path d="M 299.9969539031278 240.17452406437283 L 289.69619240492665 248.74619707139396 L 269.6992385017989 248.57167300702113 L 260.0030460968721 239.82547593562717 L 270.30380759507324 231.25380292860604 L 290.300761498201 231.42832699297887 Z" fill="#bf4640" stroke="#bf4640" stroke-width="1" />
  <path d="M 337.23060804622867 250.1496192248825 L 324.02405040695123 252.42252505279558 L 306.7934423607226 242.27290582791312 L 302.7693919537712 229.8503807751175 L 315.97594959304865 227.57747494720442 L 333.20655763927726 237.72709417208688 Z" fill="#7340bf" stroke="#7340bf" stroke-width="1" />
  <path d="M 19.993146499511145 280.26176948307875 L 9.54317520519217 288.78817112661966 L -10.449971294318972 288.5264016435409 L -19.993146499511145 279.73823051692125 L -9.543175205192178 271.21182887338034 L 10.449971294318978 271.4735983564591 Z" fill="#bf7940" stroke="#bf7940" stroke-width="1" />
  <path d="M 57.23060804622865 290.14961922488254 L 44.0240504069513 292.4225250527956 L 26.793442360722654 282.27290582791306 L 22.769391953771347 269.85038077511746 L 35.975949593048675 267.5774749472044 L 53.20655763927734 277.72709417208694 Z" fill="#bf4640" stroke="#bf4640" stroke-width="1" />
  <path d="M 99.99314649951114 280.26176948307875 L 89.54317520519217 288.78817112661966 L 69.55002870568103 288.5264016435409 L 60.00685350048886 279.73823051692125 L 70.45682479480783 271.21182887338034 L 90.44997129431897 271.4735983564591 Z" fill="#4073bf" stroke="#4073bf" stroke-width="1" />
  <path d="M 137.18368802862122 290.2232722720373 L 123.87054659715237 292.3823670510536 L 106.68685856853116 282.1590947790163 L 102.81631197137881 269.7767277279627 L 116.12945340284763 267.6176329489464 L 133.31314143146884 277.84090522098364 Z" fill="#bf7940" stroke="#bf7940" stroke-width="1" />
  <path d="M 179.9969539031278 280.17452406437286 L 169.69619240492676 288.74619707139396 L 149.6992385017989 288.5716730070211 L 140.0030460968722 279.82547593562714 L 150.30380759507324 271.25380292860604 L 170.3007614982011 271.4283269929789 Z" fill="#7340bf" stroke="#7340bf" stroke-width="1" />
  <path d="M 217.18368802862122 290.2232722720373 L 203.87054659715233 292.3823670510536 L 186.68685856853116 282.15909477901636 L 182.81631197137878 269.7767277279627 L 196.12945340284767 267.6176329489464 L 213.31314143146884 277.84090522098364 Z" fill="#7340bf" stroke="#7340bf" stroke-width="1" />
  <path d="M 259.9969539031278 280.17452406437286 L 249.69619240492676 288.74619707139396 L 229.6992385017989 288.5716730070211 L 220.0030460968722 279.82547593562714 L 230.30380759507324 271.25380292860604 L 250.3007614982011 271.4283269929789 Z" fill="#bf7940" stroke="#bf7940" stroke-width="1" />
  <path d="M 297.1836880286212 290.22327227203726 L 283.8705465971523 292.3823670510536 L 266.6868585685312 282.15909477901636 L 262.8163119713788 269.77672772796274 L 276.1294534028477 267.6176329489464 L 293.3131414314688 277.84090522098364 Z" fill="#bf4640" stroke="#bf4640" stroke-width="1" />
  <path d="M 339.9969539031278 280.17452406437286 L 329.69619240492665 288.74619707139396 L 309.6992385017989 288.5716730070211 L 300.0030460968721 279.82547593562714 L 310.30380759507324 271.25380292860604 L 330.300761498201 271.4283269929789 Z" fill="#4073bf" stroke="#4073bf" stroke-width="1" />
  <path d="M 17.1836880286212 330.22327227203726 L 3.8705465971523645 332.3823670510536 L -13.313141431468836 322.15909477901636 L -17.1836880286212 309.77672772796274 L -3.8705465971523707 307.6176329489464 L 13.31314143146884 317.8409052209837 Z" fill="#bf4640" stroke="#bf4640" stroke-width="1" />
  <path d="M 59.99695390312783 320.17452406437286 L 49.696192404926734 328.74619707139396 L 29.699238501798916 328.5716730070211 L 20.003046096872175 319.82547593562714 L 30.303807595073238 311.25380292860604 L 50.300761498201084 311.4283269929789 Z" fill="#4073bf" stroke="#4073bf" stroke-width="1" />
  <path d="M 97.18368802862119 330.22327227203726 L 83.87054659715237 332.3823670510536 L 66.68685856853116 322.15909477901636 L 62.8163119713788 309.77672772796274 L 76.12945340284763 307.6176329489464 L 93.31314143146884 317.84090522098364 Z" fill="#7340bf" stroke="#7340bf" stroke-width="1" />
  <path d="M 139.9969539031278 320.17452406437286 L 129.69619240492673 328.74619707139396 L 109.6992385017989 328.5716730070211 L 100.00304609687217 319.82547593562714 L 110.30380759507327 311.25380292860604 L 130.3007614982011 311.4283269929789 Z" fill="#bf7940" stroke="#bf7940" stroke-width="1" />
  <path d="M 177.18368802862122 330.2232722720373 L 163.87054659715233 332.3823670510536 L 146.68685856853116 322.15909477901636 L 142.81631197137878 309.7767277279627 L 156.12945340284767 307.6176329489464 L 173.31314143146884 317.84090522098364 Z" fill="#bf4640" stroke="#bf4640" stroke-width="1" />
  <path d="M 219.9969539031278 320.17452406437286 L 209.69619240492676 328.74619707139396 L 189.6992385017989 328.5716730070211 L 180.0030460968722 319.82547593562714 L 190.30380759507324 311.25380292860604 L 210.3007614982011 311.4283269929789 Z" fill="#7340bf" stroke="#7340bf" stroke-width="1" />
  <path d="M 257.18368802862125 330.2232722720373 L 243.87054659715233 332.3823670510536 L 226.68685856853116 322.15909477901636 L 222.81631197137878 309.7767277279627 L 236.12945340284767 307.6176329489464 L 253.31314143146884 317.84090522098364 Z" fill="#bf7940" stroke="#bf7940" stroke-width="1" />
  <path d="M 299.9969539031278 320.17452406437286 L 289.69619240492665 328.74619707139396 L 269.6992385017989 328.5716730070211 L 260.0030460968721 319.82547593562714 L 270.30380759507324 311.25380292860604 L 290.300761498201 311.4283269929789 Z" fill="#4073bf" stroke="#4073bf" stroke-width="1" />
  <path d="M 337.1836880286212 330.22327227203726 L 323.8705465971523 332.3823670510536 L 306.6868585685312 322.15909477901636 L 302.8163119713788 309.77672772796274 L 316.1294534028477 307.6176329489464 L 333.3131414314688 317.84090522098364 Z" fill="#7340bf" stroke="#7340bf" stroke-width="1" />
  <path d="M 17.230608046228667 10.149619224882496 L 4.024050406951311 12.4225250527956 L -13.20655763927735 2.272905827913103 L -17.230608046228667 -10.149619224882496 L -4.02405040695132 -12.422525052795603 L 13.206557639277356 -2.2729058279130987 Z" fill="#bf4640" stroke="#bf4640" stroke-width="1" />
  <path d="M 59.99314649951115 0.2617694830787315 L 49.54317520519218 8.788171126619652 L 29.550028705681036 8.526401643540924 L 20.006853500488866 -0.26176948307873027 L 30.456824794807822 -8.788171126619652 L 50.44997129431898 -8.526401643540922 Z" fill="#bf7940" stroke="#bf7940" stroke-width="1" />
  <path d="M 97.1836880286212 10.22327227203727 L 83.87054659715237 12.382367051053613 L 66.68685856853116 2.1590947790163453 L 62.816311971378795 -10.22327227203727 L 76.12945340284763 -12.382367051053613 L 93.31314143146884 -2.1590947790163435 Z" fill="#4073bf" stroke="#4073bf" stroke-width="1" />
  <path d="M 139.9969539031278 0.17452406437283513 L 129.69619240492673 8.746197071393958 L 109.6992385017989 8.571673007021124 L 100.00304609687217 -0.1745240643728339 L 110.30380759507327 -8.746197071393956 L 130.3007614982011 -8.571673007021122 Z" fill="#7340bf" stroke="#7340bf" stroke-width="1" />
  <path d="M 177.18368802862125 10.223272272037285 L 163.87054659715236 12.382367051053599 L 146.68685856853116 2.1590947790163453 L 142.81631197137875 -10.223272272037285 L 156.12945340284764 -12.382367051053599 L 173.31314143146884 -2.1590947790163435 Z" fill="#bf4640" stroke="#bf4640" stroke-width="1" />
  <path d="M 219.9969539031278 0.17452406437283513 L 209.69619240492676 8.746197071393958 L 189.6992385017989 8.571673007021124 L 180.0030460968722 -0.1745240643728339 L 190.30380759507324 -8.746197071393956 L 210.3007614982011 -8.571673007021122 Z" fill="#7340bf" stroke="#7340bf" stroke-width="1" />
  <path d="M 257.18368802862125 10.223272272037285 L 243.87054659715236 12.382367051053599 L 226.68685856853116 2.1590947790163453 L 222.81631197137875 -10.223272272037285 L 236.12945340284764 -12.382367051053599 L 253.31314143146884 -2.1590947790163435 Z" fill="#bf7940" stroke="#bf7940" stroke-width="1" />
  <path d="M 299.9969539031278 0.17452406437283513 L 289.69619240492665 8.746197071393958 L 269.6992385017989 8.571673007021124 L 260.0030460968721 -0.1745240643728339 L 270.30380759507324 -8.746197071393956 L 290.300761498201 -8.571673007021122 Z" fill="#4073bf" stroke="#4073bf" stroke-width="1" />
  <path d="M 337.1836880286212 10.223272272037256 L 323.8705465971523 12.382367051053599 L 306.68685856853114 2.1590947790163453 L 302.8163119713788 -10.223272272037256 L 316.1294534028477 -12.382367051053599 L 333.31314143146886 -2.1590947790163435 Z" fill="#7340bf" stroke="#7340bf" stroke-width="1" />
  <path d="M 19.996953903127825 40.17452406437283 L 9.696192404926743 48.74619707139395 L -10.30076149820108 48.571673007021126 L -19.996953903127825 39.82547593562717 L -9.69619240492675 31.253802928606046 L 10.300761498201085 31.428326992978878 Z" fill="#bf4640" stroke="#bf4640" stroke-width="1" />
  <path d="M 57.18368802862122 50.22327227203727 L 43.87054659715238 52.382367051053606 L 26.686858568531168 42.15909477901634 L 22.8163119713788 29.77672772796273 L 36.12945340284762 27.61763294894638 L 53.31314143146885 37.84090522098366 Z" fill="#bf7940" stroke="#bf7940" stroke-width="1" />
  <path d="M 99.99695390312783 40.17452406437283 L 89.69619240492673 48.74619707139395 L 69.6992385017989 48.571673007021126 L 60.00304609687217 39.82547593562717 L 70.30380759507327 31.253802928606046 L 90.3007614982011 31.428326992978878 Z" fill="#4073bf" stroke="#4073bf" stroke-width="1" />
  <path d="M 137.23060804622864 50.149619224882485 L 124.0240504069513 52.422525052795585 L 106.79344236072262 42.27290582791309 L 102.76939195377133 29.8503807751175 L 115.9759495930487 27.577474947204408 L 133.20655763927738 37.72709417208691 Z" fill="#bf4640" stroke="#bf4640" stroke-width="1" />
  <path d="M 179.99314649951117 40.26176948307873 L 169.54317520519214 48.788171126619645 L 149.55002870568103 48.52640164354092 L 140.00685350048883 39.73823051692127 L 150.45682479480786 31.21182887338035 L 170.44997129431897 31.473598356459078 Z" fill="#bf7940" stroke="#bf7940" stroke-width="1" />
  <path d="M 217.23060804622864 50.149619224882485 L 204.02405040695132 52.4225250527956 L 186.79344236072262 42.27290582791309 L 182.76939195377136 29.850380775117515 L 195.97594959304865 27.577474947204394 L 213.20655763927738 37.72709417208691 Z" fill="#7340bf" stroke="#7340bf" stroke-width="1" />
  <path d="M 259.99314649951117 40.26176948307873 L 249.54317520519214 48.788171126619645 L 229.55002870568103 48.52640164354092 L 220.00685350048883 39.73823051692127 L 230.45682479480786 31.21182887338035 L 250.44997129431897 31.473598356459078 Z" fill="#4073bf" stroke="#4073bf" stroke-width="1" />
  <path d="M 297.2306080462286 50.149619224882514 L 284.02405040695123 52.42252505279557 L 266.7934423607226 42.27290582791312 L 262.7693919537712 29.850380775117486 L 275.97594959304865 27.577474947204422 L 293.20655763927726 37.72709417208688 Z" fill="#4073bf" stroke="#4073bf" stroke-width="1" />
  <path d="M 339.9931464995111 40.26176948307873 L 329.54317520519214 48.788171126619645 L 309.55002870568103 48.52640164354092 L 300.0068535004889 39.73823051692127 L 310.45682479480786 31.21182887338035 L 330.44997129431897 31.473598356459078 Z" fill="#bf7940" stroke="#bf7940" stroke-width="1" />
  <path d="M 17.18368802862121 90.22327227203728 L 3.8705465971523716 92.3823670510536 L -13.313141431468843 82.15909477901634 L -17.18368802862121 69.77672772796272 L -3.870546597152378 67.6176329489464 L 13.313141431468846 77.84090522098366 Z" fill="#bf4640" stroke="#bf4640" stroke-width="1" />
  <path d="M 59.99695390312783 80.17452406437283 L 49.696192404926734 88.74619707139395 L 29.699238501798916 88.57167300702112 L 20.003046096872175 79.82547593562717 L 30.303807595073238 71.25380292860605 L 50.300761498201084 71.42832699297888 Z" fill="#7340bf" stroke="#7340bf" stroke-width="1" />
  <path d="M 97.23060804622867 90.14961922488249 L 84.0240504069513 92.42252505279558 L 66.79344236072262 82.27290582791308 L 62.76939195377132 69.85038077511749 L 75.97594959304868 67.57747494720441 L 93.20655763927736 77.72709417208691 Z" fill="#bf4640" stroke="#bf4640" stroke-width="1" />
  <path d="M 139.99314649951117 80.26176948307874 L 129.54317520519217 88.78817112661964 L 109.55002870568103 88.52640164354092 L 100.00685350048886 79.73823051692126 L 110.45682479480783 71.21182887338036 L 130.44997129431897 71.47359835645908 Z" fill="#4073bf" stroke="#4073bf" stroke-width="1" />
  <path d="M 177.18368802862122 90.22327227203729 L 163.87054659715236 92.38236705105359 L 146.68685856853116 82.15909477901634 L 142.81631197137878 69.77672772796271 L 156.12945340284764 67.61763294894641 L 173.31314143146884 77.84090522098366 Z" fill="#7340bf" stroke="#7340bf" stroke-width="1" />
  <path d="M 219.9969539031278 80.17452406437283 L 209.69619240492676 88.74619707139395 L 189.6992385017989 88.57167300702112 L 180.0030460968722 79.82547593562717 L 190.30380759507324 71.25380292860605 L 210.3007614982011 71.42832699297888 Z" fill="#bf7940" stroke="#bf7940" stroke-width="1" />
  <path d="M 257.18368802862125 90.22327227203729 L 243.87054659715236 92.38236705105359 L 226.68685856853116 82.15909477901634 L 222.81631197137878 69.77672772796271 L 236.12945340284764 67.61763294894641 L 253.31314143146884 77.84090522098366 Z" fill="#bf7940" stroke="#bf7940" stroke-width="1" />
  <path d="M 299.9969539031278 80.17452406437283 L 289.69619240492665 88.74619707139395 L 269.6992385017989 88.57167300702112 L 260.0030460968721 79.82547593562717 L 270.30380759507324 71.25380292860605 L 290.300761498201 71.42832699297888 Z" fill="#bf4640" stroke="#bf4640" stroke-width="1" />
  <path d="M 337.2306080462286 90.14961922488251 L 324.02405040695123 92.42252505279558 L 306.7934423607226 82.27290582791312 L 302.7693919537712 69.85038077511749 L 315.97594959304865 67.57747494720442 L 333.20655763927726 77.72709417208688 Z" fill="#7340bf" stroke="#7340bf" stroke-width="1" />
  <path d="M 19.993146499511145 120.26176948307874 L 9.54317520519217 128.78817112661966 L -10.449971294318972 128.52640164354094 L -19.993146499511145 119.73823051692126 L -9.543175205192176 111.21182887338036 L 10.44997129431898 111.47359835645908 Z" fill="#4073bf" stroke="#4073bf" stroke-width="1" />
  <path d="M 57.18368802862121 130.22327227203726 L 43.87054659715237 132.38236705105362 L 26.68685856853116 122.15909477901636 L 22.816311971378802 109.77672772796272 L 36.12945340284762 107.61763294894638 L 53.31314143146885 117.84090522098366 Z" fill="#4073bf" stroke="#4073bf" stroke-width="1" />
  <path d="M 99.99695390312783 120.17452406437283 L 89.69619240492673 128.74619707139396 L 69.6992385017989 128.57167300702113 L 60.00304609687217 119.82547593562717 L 70.30380759507327 111.25380292860605 L 90.3007614982011 111.42832699297888 Z" fill="#7340bf" stroke="#7340bf" stroke-width="1" />
  <path d="M 137.23060804622867 130.14961922488249 L 124.0240504069513 132.4225250527956 L 106.79344236072264 122.2729058279131 L 102.76939195377133 109.8503807751175 L 115.9759495930487 107.57747494720442 L 133.20655763927738 117.72709417208691 Z" fill="#bf7940" stroke="#bf7940" stroke-width="1" />
  <path d="M 179.99314649951117 120.26176948307874 L 169.54317520519214 128.78817112661966 L 149.55002870568103 128.52640164354094 L 140.00685350048883 119.73823051692126 L 150.45682479480786 111.21182887338036 L 170.44997129431897 111.47359835645908 Z" fill="#bf4640" stroke="#bf4640" stroke-width="1" />
  <path d="M 217.23060804622867 130.14961922488249 L 204.02405040695135 132.4225250527956 L 186.79344236072262 122.2729058279131 L 182.76939195377136 109.85038077511751 L 195.97594959304868 107.5774749472044 L 213.20655763927738 117.72709417208691 Z" fill="#bf4640" stroke="#bf4640" stroke-width="1" />
  <path d="M 259.99314649951117 120.26176948307874 L 249.54317520519214 128.78817112661966 L 229.55002870568103 128.52640164354094 L 220.00685350048883 119.73823051692126 L 230.45682479480786 111.21182887338036 L 250.44997129431897 111.47359835645908 Z" fill="#bf7940" stroke="#bf7940" stroke-width="1" />
  <path d="M 297.23060804622867 130.1496192248825 L 284.02405040695123 132.42252505279558 L 266.7934423607226 122.27290582791314 L 262.7693919537713 109.85038077511749 L 275.97594959304865 107.57747494720442 L 293.20655763927726 117.72709417208688 Z" fill="#4073bf" stroke="#4073bf" stroke-width="1" />
  <path d="M 339.9931464995111 120.26176948307874 L 329.54317520519214 128.78817112661966 L 309.55002870568103 128.52640164354094 L 300.0068535004889 119.73823051692126 L 310.45682479480786 111.21182887338036 L 330.44997129431897 111.47359835645908 Z" fill="#7340bf" stroke="#7340bf" stroke-width="1" />
  <path d="M 17.23060804622868 170.14961922488249 L 4.024050406951321 172.4225250527956 L -13.206557639277342 162.27290582791312 L -17.230608046228653 149.85038077511751 L -4.024050406951302 147.5774749472044 L 13.206557639277374 157.7270941720869 Z" fill="#bf7940" stroke="#bf7940" stroke-width="1" />
  <path d="M 59.99314649951115 160.26176948307872 L 49.54317520519218 168.78817112661966 L 29.550028705681036 168.52640164354094 L 20.006853500488866 159.73823051692128 L 30.456824794807822 151.21182887338034 L 50.44997129431898 151.47359835645906 Z" fill="#bf4640" stroke="#bf4640" stroke-width="1" />
  <path d="M 97.2306080462287 170.14961922488249 L 84.02405040695132 172.4225250527956 L 66.79344236072265 162.2729058279131 L 62.76939195377135 149.8503807751175 L 75.97594959304871 147.5774749472044 L 93.20655763927739 157.7270941720869 Z" fill="#4073bf" stroke="#4073bf" stroke-width="1" />
  <path d="M 139.99314649951117 160.26176948307872 L 129.54317520519217 168.78817112661966 L 109.55002870568103 168.52640164354094 L 100.00685350048886 159.73823051692128 L 110.45682479480783 151.21182887338034 L 130.44997129431897 151.47359835645906 Z" fill="#7340bf" stroke="#7340bf" stroke-width="1" />
  <path d="M 177.18368802862125 170.22327227203726 L 163.87054659715233 172.38236705105362 L 146.68685856853116 162.15909477901636 L 142.81631197137875 149.77672772796274 L 156.12945340284767 147.61763294894638 L 173.31314143146884 157.84090522098364 Z" fill="#bf4640" stroke="#bf4640" stroke-width="1" />
  <path d="M 219.9969539031278 160.17452406437283 L 209.69619240492676 168.74619707139396 L 189.6992385017989 168.57167300702113 L 180.0030460968722 159.82547593562717 L 190.30380759507324 151.25380292860604 L 210.3007614982011 151.42832699297887 Z" fill="#4073bf" stroke="#4073bf" stroke-width="1" />
  <path d="M 257.18368802862125 170.22327227203726 L 243.87054659715233 172.38236705105362 L 226.68685856853116 162.15909477901636 L 222.81631197137875 149.77672772796274 L 236.12945340284767 147.61763294894638 L 253.31314143146884 157.84090522098364 Z" fill="#bf7940" stroke="#bf7940" stroke-width="1" />
  <path d="M 299.9969539031278 160.17452406437283 L 289.69619240492665 168.74619707139396 L 269.6992385017989 168.57167300702113 L 260.0030460968721 159.82547593562717 L 270.30380759507324 151.25380292860604 L 290.300761498201 151.42832699297887 Z" fill="#7340bf" stroke="#7340bf" stroke-width="1" />
  <path d="M 337.23060804622867 170.1496192248825 L 324.02405040695123 172.42252505279558 L 306.7934423607226 162.27290582791312 L 302.7693919537713 149.8503807751175 L 315.97594959304865 147.57747494720442 L 333.20655763927726 157.72709417208688 Z" fill="#bf7940" stroke="#bf7940" stroke-width="1" />
  <path d="M 19.993146499511145 200.26176948307872 L 9.543175205192169 208.78817112661966 L -10.449971294318974 208.52640164354094 L -19.993146499511145 199.73823051692128 L -9.543175205192176 191.21182887338034 L 10.44997129431898 191.47359835645906 Z" fill="#4073bf" stroke="#4073bf" stroke-width="1" />
  <path d="M 57.18368802862122 210.22327227203726 L 43.87054659715237 212.38236705105362 L 26.68685856853116 202.15909477901636 L 22.816311971378795 189.77672772796274 L 36.12945340284763 187.61763294894638 L 53.31314143146885 197.84090522098364 Z" fill="#bf4640" stroke="#bf4640" stroke-width="1" />
  <path d="M 99.99695390312783 200.17452406437283 L 89.69619240492673 208.74619707139396 L 69.6992385017989 208.57167300702113 L 60.00304609687217 199.82547593562717 L 70.30380759507327 191.25380292860604 L 90.3007614982011 191.42832699297887 Z" fill="#7340bf" stroke="#7340bf" stroke-width="1" />
  <path d="M 137.18368802862125 210.22327227203726 L 123.87054659715237 212.38236705105362 L 106.68685856853115 202.15909477901636 L 102.8163119713788 189.77672772796274 L 116.12945340284763 187.61763294894638 L 133.31314143146886 197.84090522098364 Z" fill="#bf7940" stroke="#bf7940" stroke-width="1" />
  <path d="M 179.9969539031278 200.17452406437283 L 169.69619240492676 208.74619707139396 L 149.6992385017989 208.57167300702113 L 140.0030460968722 199.82547593562717 L 150.30380759507324 191.25380292860604 L 170.3007614982011 191.42832699297887 Z" fill="#4073bf" stroke="#4073bf" stroke-width="1" />
  <path d="M 217.23060804622864 210.14961922488249 L 204.02405040695132 212.4225250527956 L 186.79344236072262 202.2729058279131 L 182.76939195377136 189.85038077511751 L 195.97594959304868 187.5774749472044 L 213.20655763927738 197.7270941720869 Z" fill="#7340bf" stroke="#7340bf" stroke-width="1" />
  <path d="M 259.99314649951117 200.26176948307872 L 249.54317520519214 208.78817112661966 L 229.55002870568103 208.52640164354094 L 220.00685350048883 199.73823051692128 L 230.45682479480786 191.21182887338034 L 250.44997129431897 191.47359835645906 Z" fill="#bf4640" stroke="#bf4640" stroke-width="1" />
  <path d="M 297.23060804622867 210.1496192248825 L 284.02405040695123 212.42252505279558 L 266.7934423607226 202.27290582791312 L 262.7693919537712 189.8503807751175 L 275.97594959304865 187.57747494720442 L 293.20655763927726 197.72709417208688 Z" fill="#bf7940" stroke="#bf7940" stroke-width="1" />
  <path d="M 339.9931464995111 200.26176948307872 L 329.54317520519214 208.78817112661966 L 309.55002870568103 208.52640164354094 L 300.0068535004889 199.73823051692128 L 310.45682479480786 191.21182887338034 L 330.44997129431897 191.47359835645906 Z" fill="#bf4640" stroke="#bf4640" stroke-width="1" />
  <path d="M 17.230608046228667 250.14961922488249 L 4.024050406951307 252.4225250527956 L -13.206557639277356 242.27290582791312 L -17.230608046228667 229.85038077511751 L -4.024050406951316 227.5774749472044 L 13.20655763927736 237.72709417208688 Z" fill="#7340bf" stroke="#7340bf" stroke-width="1" />
  <path d="M 59.99314649951115 240.26176948307872 L 49.54317520519218 248.78817112661966 L 29.550028705681036 248.52640164354094 L 20.006853500488866 239.73823051692128 L 30.456824794807822 231.21182887338034 L 50.44997129431898 231.47359835645906 Z" fill="#4073bf" stroke="#4073bf" stroke-width="1" />
  <path d="M 97.18368802862119 250.22327227203726 L 83.87054659715236 252.38236705105362 L 66.68685856853114 242.15909477901636 L 62.816311971378774 229.77672772796274 L 76.12945340284762 227.61763294894638 L 93.31314143146884 237.84090522098364 Z" fill="#bf4640" stroke="#bf4640" stroke-width="1" />
  <path d="M 139.9969539031278 240.17452406437283 L 129.69619240492673 248.74619707139396 L 109.6992385017989 248.57167300702113 L 100.00304609687217 239.82547593562717 L 110.30380759507327 231.25380292860604 L 130.3007614982011 231.42832699297887 Z" fill="#4073bf" stroke="#4073bf" stroke-width="1" />
  <path d="M 177.18368802862122 250.22327227203726 L 163.87054659715233 252.3823670510536 L 146.68685856853114 242.15909477901636 L 142.81631197137875 229.7767277279627 L 156.12945340284764 227.61763294894638 L 173.31314143146884 237.84090522098364 Z" fill="#bf7940" stroke="#bf7940" stroke-width="1" />
  <path d="M 219.9969539031278 240.17452406437283 L 209.69619240492676 248.74619707139396 L 189.6992385017989 248.57167300702113 L 180.0030460968722 239.82547593562717 L 190.30380759507324 231.25380292860604 L 210.3007614982011 231.42832699297887 Z" fill="#7340bf" stroke="#7340bf" stroke-width="1" />
  <path d="M 257.18368802862125 250.22327227203726 L 243.87054659715233 252.3823670510536 L 226.68685856853114 242.15909477901636 L 222.81631197137875 229.7767277279627 L 236.12945340284764 227.61763294894638 L 253.31314143146884 237.84090522098364 Z" fill="#4073bf" stroke="#4073bf" stroke-width="1" />
  <path d="M 299.9969539031278 240.17452406437283 L 289.69619240492665 248.74619707139396 L 269.6992385017989 248.57167300702113 L 260.0030460968721 239.82547593562717 L 270.30380759507324 231.25380292860604 L 290.300761498201 231.42832699297887 Z" fill="#bf4640" stroke="#bf4640" stroke-width="1" />
  <path d="M 337.23060804622867 250.1496192248825 L 324.02405040695123 252.42252505279558 L 306.7934423607226 242.27290582791312 L 302.7693919537712 229.8503807751175 L 315.97594959304865 227.57747494720442 L 333.20655763927726 237.72709417208688 Z" fill="#7340bf" stroke="#7340bf" stroke-width="1" />
  <path d="M 19.993146499511145 280.26176948307875 L 9.54317520519217 288.78817112661966 L -10.449971294318972 288.5264016435409 L -19.993146499511145 279.73823051692125 L -9.543175205192178 271.21182887338034 L 10.449971294318978 271.4735983564591 Z" fill="#bf7940" stroke="#bf7940" stroke-width="1" />
  <path d="M 57.23060804622865 290.14961922488254 L 44.0240504069513 292.4225250527956 L 26.793442360722654 282.27290582791306 L 22.769391953771347 269.85038077511746 L 35.975949593048675 267.5774749472044 L 53.20655763927734 277.72709417208694 Z" fill="#bf4640" stroke="#bf4640" stroke-width="1" />
  <path d="M 99.99314649951114 280.26176948307875 L 89.54317520519217 288.78817112661966 L 69.55002870568103 288.5264016435409 L 60.00685350048886 279.73823051692125 L 70.45682479480783 271.21182887338034 L 90.44997129431897 271.4735983564591 Z" fill="#4073bf" stroke="#4073bf" stroke-width="1" />
  <path d="M 137.18368802862122 290.2232722720373 L 123.87054659715237 292.3823670510536 L 106.68685856853116 282.1590947790163 L 102.81631197137881 269.7767277279627 L 116.12945340284763 267.6176329489464 L 133.31314143146884 277.84090522098364 Z" fill="#bf7940" stroke="#bf7940" stroke-width="1" />
  <path d="M 179.9969539031278 280.17452406437286 L 169.69619240492676 288.74619707139396 L 149.6992385017989 288.5716730070211 L 140.0030460968722 279.82547593562714 L 150.30380759507324 271.25380292860604 L 170.3007614982011 271.4283269929789 Z" fill="#7340bf" stroke="#7340bf" stroke-width="1" />
  <path d="M 217.18368802862122 290.2232722720373 L 203.87054659715233 292.3823670510536 L 186.68685856853116 282.15909477901636 L 182.81631197137878 269.7767277279627 L 196.12945340284767 267.6176329489464 L 213.31314143146884 277.84090522098364 Z" fill="#7340bf" stroke="#7340bf" stroke-width="1" />
  <path d="M 259.9969539031278 280.17452406437286 L 249.69619240492676 288.74619707139396 L 229.6992385017989 288.5716730070211 L 220.0030460968722 279.82547593562714 L 230.30380759507324 271.25380292860604 L 250.3007614982011 271.4283269929789 Z" fill="#bf7940" stroke="#bf7940" stroke-width="1" />
  <path d="M 297.1836880286212 290.22327227203726 L 283.8705465971523 292.3823670510536 L 266.6868585685312 282.15909477901636 L 262.8163119713788 269.77672772796274 L 276.1294534028477 267.6176329489464 L 293.3131414314688 277.84090522098364 Z" fill="#bf4640" stroke="#bf4640" stroke-width="1" />
  <path d="M 339.9969539031278 280.17452406437286 L 329.69619240492665 288.74619707139396 L 309.6992385017989 288.5716730070211 L 300.0030460968721 279.82547593562714 L 310.30380759507324 271.25380292860604 L 330.300761498201 271.4283269929789 Z" fill="#4073bf" stroke="#4073bf" stroke-width="1" />
  <path d="M 17.1836880286212 330.22327227203726 L 3.8705465971523645 332.3823670510536 L -13.313141431468836 322.15909477901636 L -17.1836880286212 309.77672772796274 L -3.8705465971523707 307.6176329489464 L 13.31314143146884 317.8409052209837 Z" fill="#bf4640" stroke="#bf4640" stroke-width="1" />
  <path d="M 59.99695390312783 320.17452406437286 L 49.696192404926734 328.74619707139396 L 29.699238501798916 328.5716730070211 L 20.003046096872175 319.82547593562714 L 30.303807595073238 311.25380292860604 L 50.300761498201084 311.4283269929789 Z" fill="#4073bf" stroke="#4073bf" stroke-width="1" />
  <path d="M 97.18368802862119 330.22327227203726 L 83.87054659715237 332.3823670510536 L 66.68685856853116 322.15909477901636 L 62.8163119713788 309.77672772796274 L 76.12945340284763 307.6176329489464 L 93.31314143146884 317.84090522098364 Z" fill="#7340bf" stroke="#7340bf" stroke-width="1" />
  <path d="M 139.9969539031278 320.17452406437286 L 129.69619240492673 328.74619707139396 L 109.6992385017989 328.5716730070211 L 100.00304609687217 319.82547593562714 L 110.30380759507327 311.25380292860604 L 130.3007614982011 311.4283269929789 Z" fill="#bf7940" stroke="#bf7940" stroke-width="1" />
  <path d="M 177.18368802862122 330.2232722720373 L 163.87054659715233 332.3823670510536 L 146.68685856853116 322.15909477901636 L 142.81631197137878 309.7767277279627 L 156.12945340284767 307.6176329489464 L 173.31314143146884 317.84090522098364 Z" fill="#bf4640" stroke="#bf4640" stroke-width="1" />
  <path d="M 219.9969539031278 320.17452406437286 L 209.69619240492676 328.74619707139396 L 189.6992385017989 328.5716730070211 L 180.0030460968722 319.82547593562714 L 190.30380759507324 311.25380292860604 L 210.3007614982011 311.4283269929789 Z" fill="#7340bf" stroke="#7340bf" stroke-width="1" />
  <path d="M 257.18368802862125 330.2232722720373 L 243.87054659715233 332.3823670510536 L 226.68685856853116 322.15909477901636 L 222.81631197137878 309.7767277279627 L 236.12945340284767 307.6176329489464 L 253.31314143146884 317.84090522098364 Z" fill="#bf7940" stroke="#bf7940" stroke-width="1" />
  <path d="M 299.9969539031278 320.17452406437286 L 289.69619240492665 328.74619707139396 L 269.6992385017989 328.5716730070211 L 260.0030460968721 319.82547593562714 L 270.30380759507324 311.25380292860604 L 290.300761498201 311.4283269929789 Z" fill="#4073bf" stroke="#4073bf" stroke-width="1" />
  <path d="M 337.1836880286212 330.22327227203726 L 323.8705465971523 332.3823670510536 L 306.6868585685312 322.15909477901636 L 302.8163119713788 309.77672772796274 L 316.1294534028477 307.6176329489464 L 333.3131414314688 317.84090522098364 Z" fill="#7340bf" stroke="#7340bf" stroke-width="1" />
</svg>