<svg width="160" height="90" viewBox="-14.45945945945946 11.554054054054056 118.91891891891892 66.89189189189189" xmlns="http://www.w3.org/2000/svg">
  <path d="M 10 -8.465450562766819e-16 L 9.807852804032304 1.9509032201612815 L 9.238795325112868 3.826834323650897 L 8.314696123025453 5.555702330196021 L 7.0710678118654755 7.071067811865474 L 5.555702330196023 8.314696123025453 L 3.8268343236508984 9.238795325112868 L 1.9509032201612835 9.807852804032304 L 7.788568532674501e-16 10 L -1.9509032201612817 9.807852804032304 L -3.826834323650897 9.238795325112868 L -5.55570233019602 8.314696123025454 L -7.071067811865475 7.071067811865475 L -8.314696123025453 5.555702330196021 L -9.238795325112868 3.826834323650898 L -9.807852804032304 1.9509032201612853 L -10 3.781017428706714e-16 L -9.807852804032304 -1.9509032201612846 L -9.238795325112868 -3.8268343236508975 L -8.314696123025454 -5.555702330196021 L -7.071067811865477 -7.0710678118654755 L -5.555702330196022 -8.314696123025453 L -3.8268343236509033 -9.238795325112864 L -1.9509032201612864 -9.807852804032303 L -1.6704367450272561e-15 -10 L 1.9509032201612833 -9.807852804032304 L 3.8268343236509 -9.238795325112866 L 5.555702330196018 -8.314696123025454 L 7.071067811865474 -7.071067811865478 L 8.314696123025453 -5.555702330196023 L 9.238795325112864 -3.826834323650905 L 9.807852804032303 -1.9509032201612881 Z" fill="#d99126" stroke="#c93" stroke-width="1" />
  <path d="M 40 -8.465450562766819e-16 L 39.80785280403231 1.9509032201612815 L 39.23879532511287 3.826834323650897 L 38.314696123025456 5.555702330196021 L 37.071067811865476 7.071067811865474 L 35.55570233019602 8.314696123025453 L 33.8268343236509 9.238795325112868 L 31.950903220161283 9.807852804032304 L 30 10 L 28.049096779838717 9.807852804032304 L 26.173165676349104 9.238795325112868 L 24.44429766980398 8.314696123025454 L 22.928932188134524 7.071067811865475 L 21.685303876974547 5.555702330196021 L 20.761204674887132 3.826834323650898 L 20.192147195967696 1.9509032201612853 L 20 3.781017428706714e-16 L 20.192147195967696 -1.9509032201612846 L 20.761204674887132 -3.8268343236508975 L 21.685303876974544 -5.555702330196021 L 22.928932188134524 -7.0710678118654755 L 24.44429766980398 -8.314696123025453 L 26.173165676349097 -9.238795325112864 L 28.049096779838713 -9.807852804032303 L 29.999999999999996 -10 L 31.950903220161283 -9.807852804032304 L 33.8268343236509 -9.238795325112866 L 35.55570233019602 -8.314696123025454 L 37.071067811865476 -7.071067811865478 L 38.314696123025456 -5.555702330196023 L 39.23879532511286 -3.826834323650905 L 39.8078528040323 -1.9509032201612881 Z" fill="#d9ca26" stroke="#c93" stroke-width="1" />
  <path d="M 70 -8.465450562766819e-16 L 69.80785280403231 1.9509032201612815 L 69.23879532511287 3.826834323650897 L 68.31469612302546 5.555702330196021 L 67.07106781186548 7.071067811865474 L 65.55570233019603 8.314696123025453 L 63.8268343236509 9.238795325112868 L 61.95090322016128 9.807852804032304 L 60 10 L 58.04909677983872 9.807852804032304 L 56.1731656763491 9.238795325112868 L 54.44429766980398 8.314696123025454 L 52.928932188134524 7.071067811865475 L 51.685303876974544 5.555702330196021 L 50.76120467488713 3.826834323650898 L 50.19214719596769 1.9509032201612853 L 50 3.781017428706714e-16 L 50.19214719596769 -1.9509032201612846 L 50.76120467488713 -3.8268343236508975 L 51.685303876974544 -5.555702330196021 L 52.928932188134524 -7.0710678118654755 L 54.44429766980398 -8.314696123025453 L 56.1731656763491 -9.238795325112864 L 58.04909677983871 -9.807852804032303 L 60 -10 L 61.95090322016128 -9.807852804032304 L 63.8268343236509 -9.238795325112866 L 65.55570233019601 -8.314696123025454 L 67.07106781186548 -7.071067811865478 L 68.31469612302546 -5.555702330196023 L 69.23879532511286 -3.826834323650905 L 69.80785280403231 -1.9509032201612881 Z" fill="#aed926" stroke="#c93" stroke-width="1" />
  <path d="M 100 -8.465450562766819e-16 L 99.80785280403231 1.9509032201612815 L 99.23879532511287 3.826834323650897 L 98.31469612302546 5.555702330196021 L 97.07106781186548 7.071067811865474 L 95.55570233019603 8.314696123025453 L 93.8268343236509 9.238795325112868 L 91.95090322016128 9.807852804032304 L 90 10 L 88.04909677983872 9.807852804032304 L 86.1731656763491 9.238795325112868 L 84.44429766980397 8.314696123025454 L 82.92893218813452 7.071067811865475 L 81.68530387697454 5.555702330196021 L 80.76120467488713 3.826834323650898 L 80.19214719596769 1.9509032201612853 L 80 3.781017428706714e-16 L 80.19214719596769 -1.9509032201612846 L 80.76120467488713 -3.8268343236508975 L 81.68530387697454 -5.555702330196021 L 82.92893218813452 -7.0710678118654755 L 84.44429766980397 -8.314696123025453 L 86.1731656763491 -9.238795325112864 L 88.04909677983872 -9.807852804032303 L 90 -10 L 91.95090322016128 -9.807852804032304 L 93.8268343236509 -9.238795325112866 L 95.55570233019601 -8.314696123025454 L 97.07106781186548 -7.071067811865478 L 98.31469612302546 -5.555702330196023 L 99.23879532511286 -3.826834323650905 L 99.80785280403231 -1.9509032201612881 Z" fill="#75d926" stroke="#c93" stroke-width="1" />
  <path d="M 10 30 L 9.807852804032304 31.950903220161283 L 9.238795325112868 33.8268343236509 L 8.314696123025453 35.55570233019602 L 7.0710678118654755 37.071067811865476 L 5.555702330196023 38.314696123025456 L 3.8268343236508984 39.23879532511287 L 1.9509032201612835 39.80785280403231 L 7.788568532674501e-16 40 L -1.9509032201612817 39.80785280403231 L -3.826834323650897 39.23879532511287 L -5.55570233019602 38.314696123025456 L -7.071067811865475 37.071067811865476 L -8.314696123025453 35.55570233019602 L -9.238795325112868 33.8268343236509 L -9.807852804032304 31.950903220161287 L -10 30 L -9.807852804032304 28.049096779838717 L -9.238795325112868 26.173165676349104 L -8.314696123025454 24.44429766980398 L -7.071067811865477 22.928932188134524 L -5.555702330196022 21.685303876974547 L -3.8268343236509033 20.761204674887136 L -1.9509032201612864 20.1921471959677 L -1.6704367450272561e-15 20 L 1.9509032201612833 20.192147195967696 L 3.8268343236509 20.761204674887132 L 5.555702330196018 21.685303876974544 L 7.071067811865474 22.928932188134524 L 8.314696123025453 24.44429766980398 L 9.238795325112864 26.173165676349097 L 9.807852804032303 28.049096779838713 Z" fill="#3cd926" stroke="#c93" stroke-width="1" />
  <path d="M 40 30 L 39.80785280403231 31.950903220161283 L 39.23879532511287 33.8268343236509 L 38.314696123025456 35.55570233019602 L 37.071067811865476 37.071067811865476 L 35.55570233019602 38.314696123025456 L 33.8268343236509 39.23879532511287 L 31.950903220161283 39.80785280403231 L 30 40 L 28.049096779838717 39.80785280403231 L 26.173165676349104 39.23879532511287 L 24.44429766980398 38.314696123025456 L 22.928932188134524 37.071067811865476 L 21.685303876974547 35.55570233019602 L 20.761204674887132 33.8268343236509 L 20.192147195967696 31.950903220161287 L 20 30 L 20.192147195967696 28.049096779838717 L 20.761204674887132 26.173165676349104 L 21.685303876974544 24.44429766980398 L 22.928932188134524 22.928932188134524 L 24.44429766980398 21.685303876974547 L 26.173165676349097 20.761204674887136 L 28.049096779838713 20.1921471959677 L 29.999999999999996 20 L 31.950903220161283 20.192147195967696 L 33.8268343236509 20.761204674887132 L 35.55570233019602 21.685303876974544 L 37.071067811865476 22.928932188134524 L 38.314696123025456 24.44429766980398 L 39.23879532511286 26.173165676349097 L 39.8078528040323 28.049096779838713 Z" fill="#26d94a" stroke="#c93" stroke-width="1" />
  <path d="M 70 30 L 69.80785280403231 31.950903220161283 L 69.23879532511287 33.8268343236509 L 68.31469612302546 35.55570233019602 L 67.07106781186548 37.071067811865476 L 65.55570233019603 38.314696123025456 L 63.8268343236509 39.23879532511287 L 61.95090322016128 39.80785280403231 L 60 40 L 58.04909677983872 39.80785280403231 L 56.1731656763491 39.23879532511287 L 54.44429766980398 38.314696123025456 L 52.928932188134524 37.071067811865476 L 51.685303876974544 35.55570233019602 L 50.76120467488713 33.8268343236509 L 50.19214719596769 31.950903220161287 L 50 30 L 50.19214719596769 28.049096779838717 L 50.76120467488713 26.173165676349104 L 51.685303876974544 24.44429766980398 L 52.928932188134524 22.928932188134524 L 54.44429766980398 21.685303876974547 L 56.1731656763491 20.761204674887136 L 58.04909677983871 20.1921471959677 L 60 20 L 61.95090322016128 20.192147195967696 L 63.8268343236509 20.761204674887132 L 65.55570233019601 21.685303876974544 L 67.07106781186548 22.928932188134524 L 68.31469612302546 24.44429766980398 L 69.23879532511286 26.173165676349097 L 69.80785280403231 28.049096779838713 Z" fill="#26d983" stroke="#c93" stroke-width="1" />
  <path d="M 100 30 L 99.80785280403231 31.950903220161283 L 99.23879532511287 33.8268343236509 L 98.31469612302546 35.55570233019602 L 97.07106781186548 37.071067811865476 L 95.55570233019603 38.314696123025456 L 93.8268343236509 39.23879532511287 L 91.95090322016128 39.80785280403231 L 90 40 L 88.04909677983872 39.80785280403231 L 86.1731656763491 39.23879532511287 L 84.44429766980397 38.314696123025456 L 82.92893218813452 37.071067811865476 L 81.68530387697454 35.55570233019602 L 80.76120467488713 33.8268343236509 L 80.19214719596769 31.950903220161287 L 80 30 L 80.19214719596769 28.049096779838717 L 80.76120467488713 26.173165676349104 L 81.68530387697454 24.44429766980398 L 82.92893218813452 22.928932188134524 L 84.44429766980397 21.685303876974547 L 86.1731656763491 20.761204674887136 L 88.04909677983872 20.1921471959677 L 90 20 L 91.95090322016128 20.192147195967696 L 93.8268343236509 20.761204674887132 L 95.55570233019601 21.685303876974544 L 97.07106781186548 22.928932188134524 L 98.31469612302546 24.44429766980398 L 99.23879532511286 26.173165676349097 L 99.80785280403231 28.049096779838713 Z" fill="#26d9bc" stroke="#c93" stroke-width="1" />
  <path d="M 10 60 L 9.807852804032304 61.95090322016128 L 9.238795325112868 63.8268343236509 L 8.314696123025453 65.55570233019603 L 7.0710678118654755 67.07106781186548 L 5.555702330196023 68.31469612302546 L 3.8268343236508984 69.23879532511287 L 1.9509032201612835 69.80785280403231 L 7.788568532674501e-16 70 L -1.9509032201612817 69.80785280403231 L -3.826834323650897 69.23879532511287 L -5.55570233019602 68.31469612302546 L -7.071067811865475 67.07106781186548 L -8.314696123025453 65.55570233019603 L -9.238795325112868 63.8268343236509 L -9.807852804032304 61.95090322016129 L -10 60 L -9.807852804032304 58.04909677983871 L -9.238795325112868 56.1731656763491 L -8.314696123025454 54.44429766980398 L -7.071067811865477 52.928932188134524 L -5.555702330196022 51.685303876974544 L -3.8268343236509033 50.76120467488714 L -1.9509032201612864 50.1921471959677 L -1.6704367450272561e-15 50 L 1.9509032201612833 50.19214719596769 L 3.8268343236509 50.76120467488713 L 5.555702330196018 51.685303876974544 L 7.071067811865474 52.928932188134524 L 8.314696123025453 54.44429766980398 L 9.238795325112864 56.17316567634909 L 9.807852804032303 58.04909677983871 Z" fill="#26bcd9" stroke="#c93" stroke-width="1" />
  <path d="M 40 60 L 39.80785280403231 61.95090322016128 L 39.23879532511287 63.8268343236509 L 38.314696123025456 65.55570233019603 L 37.071067811865476 67.07106781186548 L 35.55570233019602 68.31469612302546 L 33.8268343236509 69.23879532511287 L 31.950903220161283 69.80785280403231 L 30 70 L 28.049096779838717 69.80785280403231 L 26.173165676349104 69.23879532511287 L 24.44429766980398 68.31469612302546 L 22.928932188134524 67.07106781186548 L 21.685303876974547 65.55570233019603 L 20.761204674887132 63.8268343236509 L 20.192147195967696 61.95090322016129 L 20 60 L 20.192147195967696 58.04909677983871 L 20.761204674887132 56.1731656763491 L 21.685303876974544 54.44429766980398 L 22.928932188134524 52.928932188134524 L 24.44429766980398 51.685303876974544 L 26.173165676349097 50.76120467488714 L 28.049096779838713 50.1921471959677 L 29.999999999999996 50 L 31.950903220161283 50.19214719596769 L 33.8268343236509 50.76120467488713 L 35.55570233019602 51.685303876974544 L 37.071067811865476 52.928932188134524 L 38.314696123025456 54.44429766980398 L 39.23879532511286 56.17316567634909 L 39.8078528040323 58.04909677983871 Z" fill="#2683d9" stroke="#c93" stroke-width="1" />
  <path d="M 70 60 L 69.80785280403231 61.95090322016128 L 69.23879532511287 63.8268343236509 L 68.31469612302546 65.55570233019603 L 67.07106781186548 67.07106781186548 L 65.55570233019603 68.31469612302546 L 63.8268343236509 69.23879532511287 L 61.95090322016128 69.80785280403231 L 60 70 L 58.04909677983872 69.80785280403231 L 56.1731656763491 69.23879532511287 L 54.44429766980398 68.31469612302546 L 52.928932188134524 67.07106781186548 L 51.685303876974544 65.55570233019603 L 50.76120467488713 63.8268343236509 L 50.19214719596769 61.95090322016129 L 50 60 L 50.19214719596769 58.04909677983871 L 50.76120467488713 56.1731656763491 L 51.685303876974544 54.44429766980398 L 52.928932188134524 52.928932188134524 L 54.44429766980398 51.685303876974544 L 56.1731656763491 50.76120467488714 L 58.04909677983871 50.1921471959677 L 60 50 L 61.95090322016128 50.19214719596769 L 63.8268343236509 50.76120467488713 L 65.55570233019601 51.685303876974544 L 67.07106781186548 52.928932188134524 L 68.31469612302546 54.44429766980398 L 69.23879532511286 56.17316567634909 L 69.80785280403231 58.04909677983871 Z" fill="#264ad9" stroke="#c93" stroke-width="1" />
  <path d="M 100 60 L 99.80785280403231 61.95090322016128 L 99.23879532511287 63.8268343236509 L 98.31469612302546 65.55570233019603 L 97.07106781186548 67.07106781186548 L 95.55570233019603 68.31469612302546 L 93.8268343236509 69.23879532511287 L 91.95090322016128 69.80785280403231 L 90 70 L 88.04909677983872 69.80785280403231 L 86.1731656763491 69.23879532511287 L 84.44429766980397 68.31469612302546 L 82.92893218813452 67.07106781186548 L 81.68530387697454 65.55570233019603 L 80.76120467488713 63.8268343236509 L 80.19214719596769 61.95090322016129 L 80 60 L 80.19214719596769 58.04909677983871 L 80.76120467488713 56.1731656763491 L 81.68530387697454 54.44429766980398 L 82.92893218813452 52.928932188134524 L 84.44429766980397 51.685303876974544 L 86.1731656763491 50.76120467488714 L 88.04909677983872 50.1921471959677 L 90 50 L 91.95090322016128 50.19214719596769 L 93.8268343236509 50.76120467488713 L 95.55570233019601 51.685303876974544 L 97.07106781186548 52.928932188134524 L 98.31469612302546 54.44429766980398 L 99.23879532511286 56.17316567634909 L 99.80785280403231 58.04909677983871 Z" fill="#3c26d9" stroke="#c93" stroke-width="1" />
  <path d="M 10 90 L 9.807852804032304 91.95090322016128 L 9.238795325112868 93.8268343236509 L 8.314696123025453 95.55570233019603 L 7.0710678118654755 97.07106781186548 L 5.555702330196023 98.31469612302546 L 3.8268343236508984 99.23879532511287 L 1.9509032201612835 99.80785280403231 L 7.788568532674501e-16 100 L -1.9509032201612817 99.80785280403231 L -3.826834323650897 99.23879532511287 L -5.55570233019602 98.31469612302546 L -7.071067811865475 97.07106781186548 L -8.314696123025453 95.55570233019603 L -9.238795325112868 93.8268343236509 L -9.807852804032304 91.95090322016128 L -10 90 L -9.807852804032304 88.04909677983872 L -9.238795325112868 86.1731656763491 L -8.314696123025454 84.44429766980397 L -7.071067811865477 82.92893218813452 L -5.555702330196022 81.68530387697454 L -3.8268343236509033 80.76120467488714 L -1.9509032201612864 80.19214719596769 L -1.6704367450272561e-15 80 L 1.9509032201612833 80.19214719596769 L 3.8268343236509 80.76120467488714 L 5.555702330196018 81.68530387697454 L 7.071067811865474 82.92893218813452 L 8.314696123025453 84.44429766980397 L 9.238795325112864 86.1731656763491 L 9.807852804032303 88.0490967798387 Z" fill="#7526d9" stroke="#c93" stroke-width="1" />
  <path d="M 40 90 L 39.80785280403231 91.95090322016128 L 39.23879532511287 93.8268343236509 L 38.314696123025456 95.55570233019603 L 37.071067811865476 97.07106781186548 L 35.55570233019602 98.31469612302546 L 33.8268343236509 99.23879532511287 L 31.950903220161283 99.80785280403231 L 30 100 L 28.049096779838717 99.80785280403231 L 26.173165676349104 99.23879532511287 L 24.44429766980398 98.31469612302546 L 22.928932188134524 97.07106781186548 L 21.685303876974547 95.55570233019603 L 20.761204674887132 93.8268343236509 L 20.192147195967696 91.95090322016128 L 20 90 L 20.192147195967696 88.04909677983872 L 20.761204674887132 86.1731656763491 L 21.685303876974544 84.44429766980397 L 22.928932188134524 82.92893218813452 L 24.44429766980398 81.68530387697454 L 26.173165676349097 80.76120467488714 L 28.049096779838713 80.19214719596769 L 29.999999999999996 80 L 31.950903220161283 80.19214719596769 L 33.8268343236509 80.76120467488714 L 35.55570233019602 81.68530387697454 L 37.071067811865476 82.92893218813452 L 38.314696123025456 84.44429766980397 L 39.23879532511286 86.1731656763491 L 39.8078528040323 88.0490967798387 Z" fill="#ae26d9" stroke="#c93" stroke-width="1" />
  <path d="M 70 90 L 69.80785280403231 91.95090322016128 L 69.23879532511287 93.8268343236509 L 68.31469612302546 95.55570233019603 L 67.07106781186548 97.07106781186548 L 65.55570233019603 98.31469612302546 L 63.8268343236509 99.23879532511287 L 61.95090322016128 99.80785280403231 L 60 100 L 58.04909677983872 99.80785280403231 L 56.1731656763491 99.23879532511287 L 54.44429766980398 98.31469612302546 L 52.928932188134524 97.07106781186548 L 51.685303876974544 95.55570233019603 L 50.76120467488713 93.8268343236509 L 50.19214719596769 91.95090322016128 L 50 90 L 50.19214719596769 88.04909677983872 L 50.76120467488713 86.1731656763491 L 51.685303876974544 84.44429766980397 L 52.928932188134524 82.92893218813452 L 54.44429766980398 81.68530387697454 L 56.1731656763491 80.76120467488714 L 58.04909677983871 80.19214719596769 L 60 80 L 61.95090322016128 80.19214719596769 L 63.8268343236509 80.76120467488714 L 65.55570233019601 81.68530387697454 L 67.07106781186548 82.92893218813452 L 68.31469612302546 84.44429766980397 L 69.23879532511286 86.1731656763491 L 69.80785280403231 88.0490967798387 Z" fill="#d926ca" stroke="#c93" stroke-width="1" />
  <path d="M 100 90 L 99.80785280403231 91.95090322016128 L 99.23879532511287 93.8268343236509 L 98.31469612302546 95.55570233019603 L 97.07106781186548 97.07106781186548 L 95.55570233019603 98.31469612302546 L 93.8268343236509 99.23879532511287 L 91.95090322016128 99.80785280403231 L 90 100 L 88.04909677983872 99.80785280403231 L 86.1731656763491 99.23879532511287 L 84.44429766980397 98.31469612302546 L 82.92893218813452 97.07106781186548 L 81.68530387697454 95.55570233019603 L 80.76120467488713 93.8268343236509 L 80.19214719596769 91.95090322016128 L 80 90 L 80.19214719596769 88.04909677983872 L 80.76120467488713 86.1731656763491 L 81.68530387697454 84.44429766980397 L 82.92893218813452 82.92893218813452 L 84.44429766980397 81.68530387697454 L 86.1731656763491 80.76120467488714 L 88.04909677983872 80.19214719596769 L 90 80 L 91.95090322016128 80.19214719596769 L 93.8268343236509 80.76120467488714 L 95.55570233019601 81.68530387697454 L 97.07106781186548 82.92893218813452 L 98.31469612302546 84.44429766980397 L 99.23879532511286 86.1731656763491 L 99.80785280403231 88.0490967798387 Z" fill="#d92691" stroke="#c93" stroke-width="1" />
</svg>