<svg width="160" height="90" viewBox="-37.79213452869425 -19.811245755624526 270.4399849088872 152.12249151124905" xmlns="http://www.w3.org/2000/svg">
  <path d="M 21.65063509461097 12.499999999999998 L 1.5308084989341915e-15 25" fill="none" stroke="#39c" stroke-width="0.5" />
  <path d="M 21.65063509461097 12.499999999999998 L 21.65063509461097 -12.499999999999991" fill="none" stroke="#39c" stroke-width="0.5" />
  <path d="M 21.65063509461097 12.499999999999998 L 43.30127018922193 25" fill="none" stroke="#39c" stroke-width="0.5" />
  <path d="M 21.65063509461097 12.499999999999998 L -3.552713678800501e-15 25.000000000000007" fill="none" stroke="#39c" stroke-width="0.5" />
  <path d="M 1.5308084989341915e-15 25 L -21.650635094610962 12.500000000000009" fill="none" stroke="#39c" stroke-width="0.5" />
  <path d="M 1.5308084989341915e-15 25 L 3.552713678800501e-15 50.00000000000001" fill="none" stroke="#39c" stroke-width="0.5" />
  <path d="M 1.5308084989341915e-15 25 L -3.552713678800501e-15 25.000000000000007" fill="none" stroke="#39c" stroke-width="0.5" />
  <path d="M 1.5308084989341915e-15 25 L -4.592425496802574e-15 50" fill="none" stroke="#39c" stroke-width="0.5" />
  <path d="M -21.650635094610962 12.500000000000009 L -21.65063509461097 -12.499999999999993" fill="none" stroke="#39c" stroke-width="0.5" />
  <path d="M -21.650635094610962 12.500000000000009 L -3.552713678800501e-15 25.000000000000007" fill="none" stroke="#39c" stroke-width="0.5" />
  <path d="M -21.65063509461097 -12.499999999999993 L -4.592425496802574e-15 -25" fill="none" stroke="#39c" stroke-width="0.5" />
  <path d="M -4.592425496802574e-15 -25 L 21.65063509461097 -12.499999999999991" fill="none" stroke="#39c" stroke-width="0.5" />
  <path d="M 21.65063509461097 -12.499999999999991 L 43.301270189221924 -25" fill="none" stroke="#39c" stroke-width="0.5" />
  <path d="M 64.9519052838329 12.499999999999998 L 43.30127018922193 25" fill="none" stroke="#39c" stroke-width="0.5" />
  <path d="M 64.9519052838329 12.499999999999998 L 64.9519052838329 -12.499999999999991" fill="none" stroke="#39c" stroke-width="0.5" />
  <path d="M 64.9519052838329 12.499999999999998 L 86.60254037844386 25" fill="none" stroke="#39c" stroke-width="0.5" />
  <path d="M 43.30127018922193 25 L 43.30127018922194 50" fill="none" stroke="#39c" stroke-width="0.5" />
  <path d="M 43.301270189221924 -25 L 64.9519052838329 -12.499999999999991" fill="none" stroke="#39c" stroke-width="0.5" />
  <path d="M 64.9519052838329 -12.499999999999991 L 86.60254037844386 -25" fill="none" stroke="#39c" stroke-width="0.5" />
  <path d="M 108.25317547305482 12.499999999999998 L 86.60254037844386 25" fill="none" stroke="#39c" stroke-width="0.5" />
  <path d="M 108.25317547305482 12.499999999999998 L 108.25317547305482 -12.499999999999991" fill="none" stroke="#39c" stroke-width="0.5" />
  <path d="M 108.25317547305482 12.499999999999998 L 129.9038105676658 25" fill="none" stroke="#39c" stroke-width="0.5" />
  <path d="M 86.60254037844386 25 L 86.60254037844388 50" fill="none" stroke="#39c" stroke-width="0.5" />
  <path d="M 86.60254037844386 -25 L 108.25317547305482 -12.499999999999991" fill="none" stroke="#39c" stroke-width="0.5" />
  <path d="M 108.25317547305482 -12.499999999999991 L 129.9038105676658 -25" fill="none" stroke="#39c" stroke-width="0.5" />
  <path d="M 151.55444566227678 12.499999999999998 L 129.9038105676658 25" fill="none" stroke="#39c" stroke-width="0.5" />
  <path d="M 151.55444566227678 12.499999999999998 L 151.55444566227678 -12.499999999999991" fill="none" stroke="#39c" stroke-width="0.5" />
  <path d="M 151.55444566227678 12.499999999999998 L 173.20508075688772 25" fill="none" stroke="#39c" stroke-width="0.5" />
  <path d="M 129.9038105676658 25 L 129.9038105676658 50" fill="none" stroke="#39c" stroke-width="0.5" />
  <path d="M 129.9038105676658 -25 L 151.55444566227678 -12.499999999999991" fill="none" stroke="#39c" stroke-width="0.5" />
  <path d="M 151.55444566227678 -12.499999999999991 L 173.20508075688772 -25" fill="none" stroke="#39c" stroke-width="0.5" />
  <path d="M 194.8557158514987 12.499999999999998 L 173.20508075688772 25" fill="none" stroke="#39c" stroke-width="0.5" />
  <path d="M 194.8557158514987 12.499999999999998 L 194.8557158514987 -12.499999999999991" fill="none" stroke="#39c" stroke-width="0.5" />
  <path d="M 194.8557158514987 12.499999999999998 L 216.50635094610968 25.000000000000007" fill="none" stroke="#39c" stroke-width="0.5" />
  <path d="M 173.20508075688772 25 L 173.20508075688775 50" fill="none" stroke="#39c" stroke-width="0.5" />
  <path d="M 173.20508075688772 -25 L 194.8557158514987 -12.499999999999991" fill="none" stroke="#39c" stroke-width="0.5" />
  <path d="M 43.30127018922194 50 L 21.650635094610966 62.5" fill="none" stroke="#39c" stroke-width="0.5" />
  <path d="M 43.30127018922194 50 L 64.9519052838329 62.5" fill="none" stroke="#39c" stroke-width="0.5" />
  <path d="M 21.650635094610966 62.5 L 3.552713678800501e-15 50.00000000000001" fill="none" stroke="#39c" stroke-width="0.5" />
  <path d="M 21.650635094610966 62.5 L 21.65063509461097 87.5" fill="none" stroke="#39c" stroke-width="0.5" />
  <path d="M 21.650635094610966 62.5 L -4.592425496802574e-15 50" fill="none" stroke="#39c" stroke-width="0.5" />
  <path d="M 3.552713678800501e-15 50.00000000000001 L -3.552713678800501e-15 25.000000000000007" fill="none" stroke="#39c" stroke-width="0.5" />
  <path d="M 3.552713678800501e-15 50.00000000000001 L -21.65063509461097 62.50000000000001" fill="none" stroke="#39c" stroke-width="0.5" />
  <path d="M 3.552713678800501e-15 50.00000000000001 L -4.592425496802574e-15 50" fill="none" stroke="#39c" stroke-width="0.5" />
  <path d="M -3.552713678800501e-15 25.000000000000007 L -4.592425496802574e-15 50" fill="none" stroke="#39c" stroke-width="0.5" />
  <path d="M 86.60254037844388 50 L 64.9519052838329 62.5" fill="none" stroke="#39c" stroke-width="0.5" />
  <path d="M 86.60254037844388 50 L 108.25317547305482 62.5" fill="none" stroke="#39c" stroke-width="0.5" />
  <path d="M 64.9519052838329 62.5 L 64.9519052838329 87.5" fill="none" stroke="#39c" stroke-width="0.5" />
  <path d="M 129.9038105676658 50 L 108.25317547305482 62.5" fill="none" stroke="#39c" stroke-width="0.5" />
  <path d="M 129.9038105676658 50 L 151.55444566227678 62.5" fill="none" stroke="#39c" stroke-width="0.5" />
  <path d="M 108.25317547305482 62.5 L 108.25317547305482 87.5" fill="none" stroke="#39c" stroke-width="0.5" />
  <path d="M 173.20508075688775 50 L 151.55444566227678 62.5" fill="none" stroke="#39c" stroke-width="0.5" />
  <path d="M 173.20508075688775 50 L 194.8557158514987 62.5" fill="none" stroke="#39c" stroke-width="0.5" />
  <path d="M 151.55444566227678 62.5 L 151.55444566227678 87.5" fill="none" stroke="#39c" stroke-width="0.5" />
  <path d="M 216.50635094610968 50 L 194.8557158514987 62.5" fill="none" stroke="#39c" stroke-width="0.5" />
  <path d="M 216.50635094610968 50 L 216.50635094610968 25.000000000000007" fill="none" stroke="#39c" stroke-width="0.5" />
  <path d="M 194.8557158514987 62.5 L 194.8557158514987 87.5" fill="none" stroke="#39c" stroke-width="0.5" />
  <path d="M 21.65063509461097 87.5 L 1.5308084989341915e-15 100" fill="none" stroke="#39c" stroke-width="0.5" />
  <path d="M 21.65063509461097 87.5 L 43.30127018922193 100" fill="none" stroke="#39c" stroke-width="0.5" />
  <path d="M 21.65063509461097 87.5 L -3.552713678800501e-15 100" fill="none" stroke="#39c" stroke-width="0.5" />
  <path d="M 1.5308084989341915e-15 100 L -21.650635094610962 87.50000000000001" fill="none" stroke="#39c" stroke-width="0.5" />
  <path d="M 1.5308084989341915e-15 100 L 3.552713678800501e-15 125.00000000000001" fill="none" stroke="#39c" stroke-width="0.5" />
  <path d="M 1.5308084989341915e-15 100 L -3.552713678800501e-15 100" fill="none" stroke="#39c" stroke-width="0.5" />
  <path d="M -21.650635094610962 87.50000000000001 L -21.65063509461097 62.50000000000001" fill="none" stroke="#39c" stroke-width="0.5" />
  <path d="M -21.650635094610962 87.50000000000001 L -3.552713678800501e-15 100" fill="none" stroke="#39c" stroke-width="0.5" />
  <path d="M -21.65063509461097 62.50000000000001 L -4.592425496802574e-15 50" fill="none" stroke="#39c" stroke-width="0.5" />
  <path d="M 64.9519052838329 87.5 L 43.30127018922193 100" fill="none" stroke="#39c" stroke-width="0.5" />
  <path d="M 64.9519052838329 87.5 L 86.60254037844386 100" fill="none" stroke="#39c" stroke-width="0.5" />
  <path d="M 43.30127018922193 100 L 43.30127018922194 125" fill="none" stroke="#39c" stroke-width="0.5" />
  <path d="M 108.25317547305482 87.5 L 86.60254037844386 100" fill="none" stroke="#39c" stroke-width="0.5" />
  <path d="M 108.25317547305482 87.5 L 129.9038105676658 100" fill="none" stroke="#39c" stroke-width="0.5" />
  <path d="M 86.60254037844386 100 L 86.60254037844388 125" fill="none" stroke="#39c" stroke-width="0.5" />
  <path d="M 151.55444566227678 87.5 L 129.9038105676658 100" fill="none" stroke="#39c" stroke-width="0.5" />
  <path d="M 151.55444566227678 87.5 L 173.20508075688772 100" fill="none" stroke="#39c" stroke-width="0.5" />
  <path d="M 129.9038105676658 100 L 129.9038105676658 125" fill="none" stroke="#39c" stroke-width="0.5" />
  <path d="M 194.8557158514987 87.5 L 173.20508075688772 100" fill="none" stroke="#39c" stroke-width="0.5" />
  <path d="M 194.8557158514987 87.5 L 216.50635094610968 100.00000000000001" fill="none" stroke="#39c" stroke-width="0.5" />
  <path d="M 173.20508075688772 100 L 173.20508075688775 125" fill="none" stroke="#39c" stroke-width="0.5" />
  <path d="M 43.30127018922194 125 L 21.650635094610966 137.5" fill="none" stroke="#39c" stroke-width="0.5" />
  <path d="M 43.30127018922194 125 L 64.9519052838329 137.5" fill="none" stroke="#39c" stroke-width="0.5" />
  <path d="M 21.650635094610966 137.5 L 3.552713678800501e-15 125.00000000000001" fill="none" stroke="#39c" stroke-width="0.5" />
  <path d="M 3.552713678800501e-15 125.00000000000001 L -3.552713678800501e-15 100" fill="none" stroke="#39c" stroke-width="0.5" />
  <path d="M 86.60254037844388 125 L 64.9519052838329 137.5" fill="none" stroke="#39c" stroke-width="0.5" />
  <path d="M 86.60254037844388 125 L 108.25317547305482 137.5" fill="none" stroke="#39c" stroke-width="0.5" />
  <path d="M 129.9038105676658 125 L 108.25317547305482 137.5" fill="none" stroke="#39c" stroke-width="0.5" />
  <path d="M 129.9038105676658 125 L 151.55444566227678 137.5" fill="none" stroke="#39c" stroke-width="0.5" />
  <path d="M 173.20508075688775 125 L 151.55444566227678 137.5" fill="none" stroke="#39c" stroke-width="0.5" />
  <path d="M 173.20508075688775 125 L 194.8557158514987 137.5" fill="none" stroke="#39c" stroke-width="0.5" />
  <path d="M 216.50635094610968 125 L 194.8557158514987 137.5" fill="none" stroke="#39c" stroke-width="0.5" />
  <path d="M 216.50635094610968 125 L 216.50635094610968 100.00000000000001" fill="none" stroke="#39c" stroke-width="0.5" />
  <path d="M 27.65063509461097 12.499999999999998 L 27.53534677703035 13.670541932096768 L 27.19391228967869 14.796100594190538 L 26.63945276842624 15.833421398117611 L 25.893275781730253 16.742640687119284 L 24.984056492728584 17.48881767381527 L 23.946735688801507 18.043277195067716 L 22.82117702670774 18.38471168241938 L 21.65063509461097 18.5 L 20.4800931625142 18.38471168241938 L 19.35453450042043 18.043277195067716 L 18.317213696493358 17.48881767381527 L 17.407994407491685 16.742640687119284 L 16.661817420795696 15.833421398117611 L 16.10735789954325 14.796100594190538 L 15.765923412191587 13.67054193209677 L 15.65063509461097 12.499999999999998 L 15.765923412191587 11.329458067903229 L 16.10735789954325 10.20389940580946 L 16.661817420795696 9.166578601882387 L 17.407994407491685 8.257359312880713 L 18.317213696493354 7.511182326184727 L 19.354534500420428 6.956722804932279 L 20.480093162514198 6.6152883175806165 L 21.65063509461097 6.499999999999998 L 22.82117702670774 6.615288317580616 L 23.94673568880151 6.956722804932278 L 24.98405649272858 7.511182326184725 L 25.893275781730253 8.257359312880713 L 26.63945276842624 9.166578601882385 L 27.19391228967869 10.203899405809455 L 27.53534677703035 11.329458067903225 Z" fill="#d99126" stroke="#c93" stroke-width="1" />
  <path d="M 6.000000000000002 25 L 5.884711682419384 26.170541932096768 L 5.543277195067722 27.296100594190538 L 4.988817673815273 28.333421398117615 L 4.242640687119287 29.242640687119284 L 3.3334213981176157 29.98881767381527 L 2.296100594190541 30.54327719506772 L 1.1705419320967716 30.884711682419383 L 2.0092248411409132e-15 31 L -1.1705419320967676 30.884711682419383 L -2.296100594190537 30.54327719506772 L -3.33342139811761 29.988817673815273 L -4.242640687119283 29.242640687119284 L -4.98881767381527 28.333421398117615 L -5.543277195067718 27.29610059419054 L -5.884711682419381 26.17054193209677 L -5.999999999999998 25 L -5.884711682419381 23.82945806790323 L -5.543277195067719 22.703899405809462 L -4.988817673815271 21.66657860188239 L -4.242640687119284 20.757359312880716 L -3.3334213981176113 20.01118232618473 L -2.2961005941905404 19.45672280493228 L -1.1705419320967705 19.115288317580617 L 5.396486821640893e-16 19 L 1.1705419320967714 19.115288317580617 L 2.2961005941905417 19.45672280493228 L 3.333421398117613 20.011182326184727 L 4.242640687119286 20.757359312880716 L 4.988817673815273 21.666578601882385 L 5.543277195067721 22.70389940580946 L 5.8847116824193835 23.82945806790323 Z" fill="#d9ca26" stroke="#c93" stroke-width="1" />
  <path d="M -15.650635094610962 12.500000000000009 L -15.76592341219158 13.670541932096778 L -16.107357899543242 14.796100594190548 L -16.661817420795693 15.833421398117622 L -17.407994407491678 16.742640687119295 L -18.317213696493347 17.48881767381528 L -19.354534500420424 18.04327719506773 L -20.48009316251419 18.384711682419393 L -21.650635094610962 18.500000000000007 L -22.82117702670773 18.384711682419393 L -23.9467356888015 18.04327719506773 L -24.984056492728573 17.488817673815284 L -25.893275781730246 16.742640687119295 L -26.639452768426235 15.833421398117622 L -27.193912289678682 14.796100594190548 L -27.535346777030345 13.67054193209678 L -27.650635094610962 12.500000000000009 L -27.535346777030345 11.32945806790324 L -27.193912289678682 10.203899405809471 L -26.639452768426235 9.166578601882398 L -25.893275781730246 8.257359312880723 L -24.984056492728577 7.511182326184738 L -23.946735688801503 6.95672280493229 L -22.821177026707733 6.615288317580627 L -21.650635094610962 6.500000000000009 L -20.48009316251419 6.615288317580626 L -19.35453450042042 6.956722804932289 L -18.31721369649335 7.511182326184736 L -17.407994407491678 8.257359312880723 L -16.661817420795693 9.166578601882396 L -16.107357899543242 10.203899405809466 L -15.76592341219158 11.329458067903236 Z" fill="#aed926" stroke="#c93" stroke-width="1" />
  <path d="M -15.65063509461097 -12.499999999999993 L -15.765923412191587 -11.329458067903223 L -16.10735789954325 -10.203899405809455 L -16.6618174207957 -9.16657860188238 L -17.407994407491685 -8.257359312880709 L -18.317213696493354 -7.511182326184722 L -19.35453450042043 -6.956722804932273 L -20.480093162514198 -6.61528831758061 L -21.65063509461097 -6.499999999999993 L -22.821177026707737 -6.61528831758061 L -23.946735688801507 -6.956722804932273 L -24.98405649272858 -7.51118232618472 L -25.893275781730253 -8.257359312880707 L -26.639452768426242 -9.16657860188238 L -27.19391228967869 -10.203899405809453 L -27.53534677703035 -11.329458067903222 L -27.65063509461097 -12.499999999999993 L -27.53534677703035 -13.670541932096762 L -27.19391228967869 -14.79610059419053 L -26.639452768426242 -15.833421398117604 L -25.893275781730253 -16.742640687119277 L -24.984056492728584 -17.488817673815262 L -23.94673568880151 -18.043277195067713 L -22.82117702670774 -18.384711682419375 L -21.65063509461097 -18.499999999999993 L -20.480093162514198 -18.384711682419375 L -19.354534500420428 -18.043277195067713 L -18.317213696493358 -17.488817673815266 L -17.407994407491685 -16.742640687119277 L -16.6618174207957 -15.833421398117606 L -16.10735789954325 -14.796100594190534 L -15.765923412191587 -13.670541932096764 Z" fill="#75d926" stroke="#c93" stroke-width="1" />
  <path d="M 5.999999999999996 -25 L 5.884711682419378 -23.829458067903232 L 5.5432771950677155 -22.703899405809462 L 4.988817673815267 -21.666578601882385 L 4.242640687119281 -20.757359312880716 L 3.3334213981176095 -20.01118232618473 L 2.2961005941905346 -19.45672280493228 L 1.1705419320967656 -19.115288317580617 L -4.1140091545958525e-15 -19 L -1.1705419320967736 -19.115288317580617 L -2.296100594190543 -19.45672280493228 L -3.333421398117616 -20.011182326184727 L -4.242640687119289 -20.757359312880716 L -4.9888176738152765 -21.666578601882385 L -5.543277195067724 -22.70389940580946 L -5.884711682419387 -23.82945806790323 L -6.000000000000004 -25 L -5.884711682419387 -26.17054193209677 L -5.543277195067725 -27.296100594190538 L -4.988817673815277 -28.33342139811761 L -4.24264068711929 -29.242640687119284 L -3.3334213981176175 -29.98881767381527 L -2.2961005941905466 -30.54327719506772 L -1.1705419320967765 -30.884711682419383 L -5.583585313572677e-15 -31 L 1.1705419320967654 -30.884711682419383 L 2.2961005941905355 -30.54327719506772 L 3.333421398117607 -29.988817673815273 L 4.242640687119279 -29.242640687119284 L 4.988817673815267 -28.333421398117615 L 5.543277195067715 -27.29610059419054 L 5.884711682419377 -26.17054193209677 Z" fill="#3cd926" stroke="#c93" stroke-width="1" />
  <path d="M 27.65063509461097 -12.499999999999991 L 27.53534677703035 -11.329458067903222 L 27.19391228967869 -10.203899405809452 L 26.63945276842624 -9.166578601882378 L 25.893275781730253 -8.257359312880705 L 24.984056492728584 -7.51118232618472 L 23.946735688801507 -6.956722804932271 L 22.82117702670774 -6.6152883175806085 L 21.65063509461097 -6.499999999999991 L 20.4800931625142 -6.6152883175806085 L 19.35453450042043 -6.956722804932271 L 18.317213696493358 -7.511182326184718 L 17.407994407491685 -8.257359312880705 L 16.661817420795696 -9.166578601882378 L 16.10735789954325 -10.203899405809452 L 15.765923412191587 -11.32945806790322 L 15.65063509461097 -12.499999999999991 L 15.765923412191587 -13.67054193209676 L 16.10735789954325 -14.796100594190529 L 16.661817420795696 -15.833421398117602 L 17.407994407491685 -16.742640687119277 L 18.317213696493354 -17.488817673815262 L 19.354534500420428 -18.04327719506771 L 20.480093162514198 -18.384711682419372 L 21.65063509461097 -18.499999999999993 L 22.82117702670774 -18.384711682419372 L 23.94673568880151 -18.04327719506771 L 24.98405649272858 -17.488817673815262 L 25.893275781730253 -16.742640687119277 L 26.63945276842624 -15.833421398117604 L 27.19391228967869 -14.796100594190534 L 27.53534677703035 -13.670541932096764 Z" fill="#26d94a" stroke="#c93" stroke-width="1" />
  <path d="M 70.9519052838329 12.499999999999998 L 70.83661696625228 13.670541932096768 L 70.49518247890062 14.796100594190538 L 69.94072295764818 15.833421398117611 L 69.19454597095219 16.742640687119284 L 68.28532668195051 17.48881767381527 L 67.24800587802343 18.043277195067716 L 66.12244721592967 18.38471168241938 L 64.9519052838329 18.5 L 63.78136335173613 18.38471168241938 L 62.65580468964236 18.043277195067716 L 61.618483885715285 17.48881767381527 L 60.709264596713616 16.742640687119284 L 59.96308761001763 15.833421398117611 L 59.408628088765184 14.796100594190538 L 59.06719360141352 13.67054193209677 L 58.9519052838329 12.499999999999998 L 59.06719360141352 11.329458067903229 L 59.40862808876518 10.20389940580946 L 59.963087610017624 9.166578601882387 L 60.709264596713616 8.257359312880713 L 61.618483885715285 7.511182326184727 L 62.65580468964236 6.956722804932279 L 63.781363351736125 6.6152883175806165 L 64.9519052838329 6.499999999999998 L 66.12244721592967 6.615288317580616 L 67.24800587802343 6.956722804932278 L 68.28532668195051 7.511182326184725 L 69.19454597095219 8.257359312880713 L 69.94072295764818 9.166578601882385 L 70.49518247890062 10.203899405809455 L 70.83661696625228 11.329458067903225 Z" fill="#26d983" stroke="#c93" stroke-width="1" />
  <path d="M 49.30127018922193 25 L 49.18598187164132 26.170541932096768 L 48.844547384289655 27.296100594190538 L 48.2900878630372 28.333421398117615 L 47.543910876341215 29.242640687119284 L 46.634691587339546 29.98881767381527 L 45.59737078341247 30.54327719506772 L 44.4718121213187 30.884711682419383 L 43.30127018922193 31 L 42.13072825712516 30.884711682419383 L 41.00516959503139 30.54327719506772 L 39.967848791104316 29.988817673815273 L 39.05862950210265 29.242640687119284 L 38.31245251540666 28.333421398117615 L 37.75799299415421 27.29610059419054 L 37.416558506802545 26.17054193209677 L 37.30127018922193 25 L 37.416558506802545 23.82945806790323 L 37.75799299415421 22.703899405809462 L 38.31245251540666 21.66657860188239 L 39.05862950210265 20.757359312880716 L 39.967848791104316 20.01118232618473 L 41.00516959503139 19.45672280493228 L 42.130728257125156 19.115288317580617 L 43.30127018922193 19 L 44.4718121213187 19.115288317580617 L 45.59737078341247 19.45672280493228 L 46.634691587339546 20.011182326184727 L 47.543910876341215 20.757359312880716 L 48.2900878630372 21.666578601882385 L 48.84454738428965 22.70389940580946 L 49.18598187164131 23.82945806790323 Z" fill="#26d9bc" stroke="#c93" stroke-width="1" />
  <path d="M 49.301270189221924 -25 L 49.1859818716413 -23.829458067903232 L 48.84454738428964 -22.703899405809462 L 48.29008786303719 -21.666578601882385 L 47.54391087634121 -20.757359312880716 L 46.63469158733954 -20.01118232618473 L 45.597370783412465 -19.45672280493228 L 44.47181212131869 -19.115288317580617 L 43.301270189221924 -19 L 42.130728257125156 -19.115288317580617 L 41.00516959503138 -19.45672280493228 L 39.96784879110431 -20.011182326184727 L 39.05862950210264 -20.757359312880716 L 38.312452515406655 -21.666578601882385 L 37.75799299415421 -22.70389940580946 L 37.416558506802545 -23.82945806790323 L 37.301270189221924 -25 L 37.416558506802545 -26.17054193209677 L 37.7579929941542 -27.296100594190538 L 38.31245251540665 -28.33342139811761 L 39.05862950210264 -29.242640687119284 L 39.96784879110431 -29.98881767381527 L 41.00516959503138 -30.54327719506772 L 42.13072825712515 -30.884711682419383 L 43.301270189221924 -31 L 44.47181212131869 -30.884711682419383 L 45.597370783412465 -30.54327719506772 L 46.63469158733953 -29.988817673815273 L 47.54391087634121 -29.242640687119284 L 48.29008786303719 -28.333421398117615 L 48.84454738428964 -27.29610059419054 L 49.1859818716413 -26.17054193209677 Z" fill="#26bcd9" stroke="#c93" stroke-width="1" />
  <path d="M 70.9519052838329 -12.499999999999991 L 70.83661696625228 -11.329458067903222 L 70.49518247890062 -10.203899405809452 L 69.94072295764818 -9.166578601882378 L 69.19454597095219 -8.257359312880705 L 68.28532668195051 -7.51118232618472 L 67.24800587802343 -6.956722804932271 L 66.12244721592967 -6.6152883175806085 L 64.9519052838329 -6.499999999999991 L 63.78136335173613 -6.6152883175806085 L 62.65580468964236 -6.956722804932271 L 61.618483885715285 -7.511182326184718 L 60.709264596713616 -8.257359312880705 L 59.96308761001763 -9.166578601882378 L 59.408628088765184 -10.203899405809452 L 59.06719360141352 -11.32945806790322 L 58.9519052838329 -12.499999999999991 L 59.06719360141352 -13.67054193209676 L 59.40862808876518 -14.796100594190529 L 59.963087610017624 -15.833421398117602 L 60.709264596713616 -16.742640687119277 L 61.618483885715285 -17.488817673815262 L 62.65580468964236 -18.04327719506771 L 63.781363351736125 -18.384711682419372 L 64.9519052838329 -18.499999999999993 L 66.12244721592967 -18.384711682419372 L 67.24800587802343 -18.04327719506771 L 68.28532668195051 -17.488817673815262 L 69.19454597095219 -16.742640687119277 L 69.94072295764818 -15.833421398117604 L 70.49518247890062 -14.796100594190534 L 70.83661696625228 -13.670541932096764 Z" fill="#2683d9" stroke="#c93" stroke-width="1" />
  <path d="M 114.25317547305482 12.499999999999998 L 114.1378871554742 13.670541932096768 L 113.79645266812254 14.796100594190538 L 113.2419931468701 15.833421398117611 L 112.49581616017412 16.742640687119284 L 111.58659687117243 17.48881767381527 L 110.54927606724536 18.043277195067716 L 109.42371740515159 18.38471168241938 L 108.25317547305482 18.5 L 107.08263354095806 18.38471168241938 L 105.95707487886429 18.043277195067716 L 104.91975407493722 17.48881767381527 L 104.01053478593553 16.742640687119284 L 103.26435779923955 15.833421398117611 L 102.70989827798711 14.796100594190538 L 102.36846379063545 13.67054193209677 L 102.25317547305482 12.499999999999998 L 102.36846379063545 11.329458067903229 L 102.70989827798711 10.20389940580946 L 103.26435779923955 9.166578601882387 L 104.01053478593553 8.257359312880713 L 104.91975407493722 7.511182326184727 L 105.95707487886428 6.956722804932279 L 107.08263354095806 6.6152883175806165 L 108.25317547305482 6.499999999999998 L 109.42371740515159 6.615288317580616 L 110.54927606724536 6.956722804932278 L 111.58659687117243 7.511182326184725 L 112.49581616017412 8.257359312880713 L 113.2419931468701 9.166578601882385 L 113.79645266812254 10.203899405809455 L 114.1378871554742 11.329458067903225 Z" fill="#264ad9" stroke="#c93" stroke-width="1" />
  <path d="M 92.60254037844386 25 L 92.48725206086324 26.170541932096768 L 92.14581757351158 27.296100594190538 L 91.59135805225914 28.333421398117615 L 90.84518106556315 29.242640687119284 L 89.93596177656147 29.98881767381527 L 88.8986409726344 30.54327719506772 L 87.77308231054063 30.884711682419383 L 86.60254037844386 31 L 85.4319984463471 30.884711682419383 L 84.30643978425333 30.54327719506772 L 83.26911898032625 29.988817673815273 L 82.35989969132457 29.242640687119284 L 81.61372270462859 28.333421398117615 L 81.05926318337615 27.29610059419054 L 80.71782869602448 26.17054193209677 L 80.60254037844386 25 L 80.71782869602448 23.82945806790323 L 81.05926318337615 22.703899405809462 L 81.61372270462859 21.66657860188239 L 82.35989969132457 20.757359312880716 L 83.26911898032625 20.01118232618473 L 84.30643978425331 19.45672280493228 L 85.4319984463471 19.115288317580617 L 86.60254037844386 19 L 87.77308231054063 19.115288317580617 L 88.8986409726344 19.45672280493228 L 89.93596177656147 20.011182326184727 L 90.84518106556314 20.757359312880716 L 91.59135805225914 21.666578601882385 L 92.14581757351158 22.70389940580946 L 92.48725206086324 23.82945806790323 Z" fill="#3c26d9" stroke="#c93" stroke-width="1" />
  <path d="M 92.60254037844386 -25 L 92.48725206086324 -23.829458067903232 L 92.14581757351158 -22.703899405809462 L 91.59135805225914 -21.666578601882385 L 90.84518106556315 -20.757359312880716 L 89.93596177656147 -20.01118232618473 L 88.8986409726344 -19.45672280493228 L 87.77308231054063 -19.115288317580617 L 86.60254037844386 -19 L 85.4319984463471 -19.115288317580617 L 84.30643978425333 -19.45672280493228 L 83.26911898032625 -20.011182326184727 L 82.35989969132457 -20.757359312880716 L 81.61372270462859 -21.666578601882385 L 81.05926318337615 -22.70389940580946 L 80.71782869602448 -23.82945806790323 L 80.60254037844386 -25 L 80.71782869602448 -26.17054193209677 L 81.05926318337615 -27.296100594190538 L 81.61372270462859 -28.33342139811761 L 82.35989969132457 -29.242640687119284 L 83.26911898032625 -29.98881767381527 L 84.30643978425331 -30.54327719506772 L 85.4319984463471 -30.884711682419383 L 86.60254037844386 -31 L 87.77308231054063 -30.884711682419383 L 88.8986409726344 -30.54327719506772 L 89.93596177656147 -29.988817673815273 L 90.84518106556314 -29.242640687119284 L 91.59135805225914 -28.333421398117615 L 92.14581757351158 -27.29610059419054 L 92.48725206086324 -26.17054193209677 Z" fill="#7526d9" stroke="#c93" stroke-width="1" />
  <path d="M 114.25317547305482 -12.499999999999991 L 114.1378871554742 -11.329458067903222 L 113.79645266812254 -10.203899405809452 L 113.2419931468701 -9.166578601882378 L 112.49581616017412 -8.257359312880705 L 111.58659687117243 -7.51118232618472 L 110.54927606724536 -6.956722804932271 L 109.42371740515159 -6.6152883175806085 L 108.25317547305482 -6.499999999999991 L 107.08263354095806 -6.6152883175806085 L 105.95707487886429 -6.956722804932271 L 104.91975407493722 -7.511182326184718 L 104.01053478593553 -8.257359312880705 L 103.26435779923955 -9.166578601882378 L 102.70989827798711 -10.203899405809452 L 102.36846379063545 -11.32945806790322 L 102.25317547305482 -12.499999999999991 L 102.36846379063545 -13.67054193209676 L 102.70989827798711 -14.796100594190529 L 103.26435779923955 -15.833421398117602 L 104.01053478593553 -16.742640687119277 L 104.91975407493722 -17.488817673815262 L 105.95707487886428 -18.04327719506771 L 107.08263354095806 -18.384711682419372 L 108.25317547305482 -18.499999999999993 L 109.42371740515159 -18.384711682419372 L 110.54927606724536 -18.04327719506771 L 111.58659687117243 -17.488817673815262 L 112.49581616017412 -16.742640687119277 L 113.2419931468701 -15.833421398117604 L 113.79645266812254 -14.796100594190534 L 114.1378871554742 -13.670541932096764 Z" fill="#ae26d9" stroke="#c93" stroke-width="1" />
  <path d="M 157.55444566227678 12.499999999999998 L 157.43915734469616 13.670541932096768 L 157.0977228573445 14.796100594190538 L 156.54326333609205 15.833421398117611 L 155.79708634939607 16.742640687119284 L 154.8878670603944 17.48881767381527 L 153.8505462564673 18.043277195067716 L 152.72498759437354 18.38471168241938 L 151.55444566227678 18.5 L 150.38390373018 18.38471168241938 L 149.25834506808624 18.043277195067716 L 148.22102426415915 17.48881767381527 L 147.3118049751575 16.742640687119284 L 146.5656279884615 15.833421398117611 L 146.01116846720905 14.796100594190538 L 145.6697339798574 13.67054193209677 L 145.55444566227678 12.499999999999998 L 145.6697339798574 11.329458067903229 L 146.01116846720905 10.20389940580946 L 146.5656279884615 9.166578601882387 L 147.3118049751575 8.257359312880713 L 148.22102426415915 7.511182326184727 L 149.25834506808624 6.956722804932279 L 150.38390373018 6.6152883175806165 L 151.55444566227678 6.499999999999998 L 152.72498759437354 6.615288317580616 L 153.8505462564673 6.956722804932278 L 154.8878670603944 7.511182326184725 L 155.79708634939607 8.257359312880713 L 156.54326333609205 9.166578601882385 L 157.0977228573445 10.203899405809455 L 157.43915734469616 11.329458067903225 Z" fill="#d926ca" stroke="#c93" stroke-width="1" />
  <path d="M 135.9038105676658 25 L 135.78852225008518 26.170541932096768 L 135.44708776273353 27.296100594190538 L 134.89262824148108 28.333421398117615 L 134.1464512547851 29.242640687119284 L 133.23723196578342 29.98881767381527 L 132.19991116185633 30.54327719506772 L 131.07435249976257 30.884711682419383 L 129.9038105676658 31 L 128.73326863556903 30.884711682419383 L 127.60770997347527 30.54327719506772 L 126.57038916954819 29.988817673815273 L 125.66116988054651 29.242640687119284 L 124.91499289385052 28.333421398117615 L 124.36053337259808 27.29610059419054 L 124.01909888524642 26.17054193209677 L 123.9038105676658 25 L 124.01909888524642 23.82945806790323 L 124.36053337259808 22.703899405809462 L 124.91499289385052 21.66657860188239 L 125.66116988054651 20.757359312880716 L 126.57038916954819 20.01118232618473 L 127.60770997347525 19.45672280493228 L 128.73326863556903 19.115288317580617 L 129.9038105676658 19 L 131.07435249976257 19.115288317580617 L 132.19991116185633 19.45672280493228 L 133.23723196578342 20.011182326184727 L 134.1464512547851 20.757359312880716 L 134.89262824148108 21.666578601882385 L 135.44708776273353 22.70389940580946 L 135.78852225008518 23.82945806790323 Z" fill="#d92691" stroke="#c93" stroke-width="1" />
  <path d="M 135.9038105676658 -25 L 135.78852225008518 -23.829458067903232 L 135.44708776273353 -22.703899405809462 L 134.89262824148108 -21.666578601882385 L 134.1464512547851 -20.757359312880716 L 133.23723196578342 -20.01118232618473 L 132.19991116185633 -19.45672280493228 L 131.07435249976257 -19.115288317580617 L 129.9038105676658 -19 L 128.73326863556903 -19.115288317580617 L 127.60770997347527 -19.45672280493228 L 126.57038916954819 -20.011182326184727 L 125.66116988054651 -20.757359312880716 L 124.91499289385052 -21.666578601882385 L 124.36053337259808 -22.70389940580946 L 124.01909888524642 -23.82945806790323 L 123.9038105676658 -25 L 124.01909888524642 -26.17054193209677 L 124.36053337259808 -27.296100594190538 L 124.91499289385052 -28.33342139811761 L 125.66116988054651 -29.242640687119284 L 126.57038916954819 -29.98881767381527 L 127.60770997347525 -30.54327719506772 L 128.73326863556903 -30.884711682419383 L 129.9038105676658 -31 L 131.07435249976257 -30.884711682419383 L 132.19991116185633 -30.54327719506772 L 133.23723196578342 -29.988817673815273 L 134.1464512547851 -29.242640687119284 L 134.89262824148108 -28.333421398117615 L 135.44708776273353 -27.29610059419054 L 135.78852225008518 -26.17054193209677 Z" fill="#d99126" stroke="#c93" stroke-width="1" />
  <path d="M 157.55444566227678 -12.499999999999991 L 157.43915734469616 -11.329458067903222 L 157.0977228573445 -10.203899405809452 L 156.54326333609205 -9.166578601882378 L 155.79708634939607 -8.257359312880705 L 154.8878670603944 -7.51118232618472 L 153.8505462564673 -6.956722804932271 L 152.72498759437354 -6.6152883175806085 L 151.55444566227678 -6.499999999999991 L 150.38390373018 -6.6152883175806085 L 149.25834506808624 -6.956722804932271 L 148.22102426415915 -7.511182326184718 L 147.3118049751575 -8.257359312880705 L 146.5656279884615 -9.166578601882378 L 146.01116846720905 -10.203899405809452 L 145.6697339798574 -11.32945806790322 L 145.55444566227678 -12.499999999999991 L 145.6697339798574 -13.67054193209676 L 146.01116846720905 -14.796100594190529 L 146.5656279884615 -15.833421398117602 L 147.3118049751575 -16.742640687119277 L 148.22102426415915 -17.488817673815262 L 149.25834506808624 -18.04327719506771 L 150.38390373018 -18.384711682419372 L 151.55444566227678 -18.499999999999993 L 152.72498759437354 -18.384711682419372 L 153.8505462564673 -18.04327719506771 L 154.8878670603944 -17.488817673815262 L 155.79708634939607 -16.742640687119277 L 156.54326333609205 -15.833421398117604 L 157.0977228573445 -14.796100594190534 L 157.43915734469616 -13.670541932096764 Z" fill="#d9ca26" stroke="#c93" stroke-width="1" />
  <path d="M 200.8557158514987 12.499999999999998 L 200.74042753391808 13.670541932096768 L 200.39899304656643 14.796100594190538 L 199.84453352531398 15.833421398117611 L 199.098356538618 16.742640687119284 L 198.18913724961632 17.48881767381527 L 197.15181644568924 18.043277195067716 L 196.02625778359547 18.38471168241938 L 194.8557158514987 18.5 L 193.68517391940193 18.38471168241938 L 192.55961525730817 18.043277195067716 L 191.52229445338108 17.48881767381527 L 190.6130751643794 16.742640687119284 L 189.86689817768342 15.833421398117611 L 189.31243865643097 14.796100594190538 L 188.97100416907932 13.67054193209677 L 188.8557158514987 12.499999999999998 L 188.97100416907932 11.329458067903229 L 189.31243865643097 10.20389940580946 L 189.86689817768342 9.166578601882387 L 190.6130751643794 8.257359312880713 L 191.52229445338108 7.511182326184727 L 192.55961525730817 6.956722804932279 L 193.68517391940193 6.6152883175806165 L 194.8557158514987 6.499999999999998 L 196.02625778359547 6.615288317580616 L 197.15181644568924 6.956722804932278 L 198.18913724961632 7.511182326184725 L 199.098356538618 8.257359312880713 L 199.84453352531398 9.166578601882385 L 200.39899304656643 10.203899405809455 L 200.74042753391808 11.329458067903225 Z" fill="#aed926" stroke="#c93" stroke-width="1" />
  <path d="M 179.20508075688772 25 L 179.0897924393071 26.170541932096768 L 178.74835795195546 27.296100594190538 L 178.193898430703 28.333421398117615 L 177.44772144400702 29.242640687119284 L 176.53850215500535 29.98881767381527 L 175.50118135107826 30.54327719506772 L 174.3756226889845 30.884711682419383 L 173.20508075688772 31 L 172.03453882479096 30.884711682419383 L 170.9089801626972 30.54327719506772 L 169.8716593587701 29.988817673815273 L 168.96244006976843 29.242640687119284 L 168.21626308307245 28.333421398117615 L 167.66180356182 27.29610059419054 L 167.32036907446835 26.17054193209677 L 167.20508075688772 25 L 167.32036907446835 23.82945806790323 L 167.66180356182 22.703899405809462 L 168.21626308307245 21.66657860188239 L 168.96244006976843 20.757359312880716 L 169.8716593587701 20.01118232618473 L 170.9089801626972 19.45672280493228 L 172.03453882479096 19.115288317580617 L 173.20508075688772 19 L 174.3756226889845 19.115288317580617 L 175.50118135107826 19.45672280493228 L 176.53850215500535 20.011182326184727 L 177.44772144400702 20.757359312880716 L 178.193898430703 21.666578601882385 L 178.74835795195546 22.70389940580946 L 179.0897924393071 23.82945806790323 Z" fill="#75d926" stroke="#c93" stroke-width="1" />
  <path d="M 179.20508075688772 -25 L 179.0897924393071 -23.829458067903232 L 178.74835795195546 -22.703899405809462 L 178.193898430703 -21.666578601882385 L 177.44772144400702 -20.757359312880716 L 176.53850215500535 -20.01118232618473 L 175.50118135107826 -19.45672280493228 L 174.3756226889845 -19.115288317580617 L 173.20508075688772 -19 L 172.03453882479096 -19.115288317580617 L 170.9089801626972 -19.45672280493228 L 169.8716593587701 -20.011182326184727 L 168.96244006976843 -20.757359312880716 L 168.21626308307245 -21.666578601882385 L 167.66180356182 -22.70389940580946 L 167.32036907446835 -23.82945806790323 L 167.20508075688772 -25 L 167.32036907446835 -26.17054193209677 L 167.66180356182 -27.296100594190538 L 168.21626308307245 -28.33342139811761 L 168.96244006976843 -29.242640687119284 L 169.8716593587701 -29.98881767381527 L 170.9089801626972 -30.54327719506772 L 172.03453882479096 -30.884711682419383 L 173.20508075688772 -31 L 174.3756226889845 -30.884711682419383 L 175.50118135107826 -30.54327719506772 L 176.53850215500535 -29.988817673815273 L 177.44772144400702 -29.242640687119284 L 178.193898430703 -28.333421398117615 L 178.74835795195546 -27.29610059419054 L 179.0897924393071 -26.17054193209677 Z" fill="#3cd926" stroke="#c93" stroke-width="1" />
  <path d="M 200.8557158514987 -12.499999999999991 L 200.74042753391808 -11.329458067903222 L 200.39899304656643 -10.203899405809452 L 199.84453352531398 -9.166578601882378 L 199.098356538618 -8.257359312880705 L 198.18913724961632 -7.51118232618472 L 197.15181644568924 -6.956722804932271 L 196.02625778359547 -6.6152883175806085 L 194.8557158514987 -6.499999999999991 L 193.68517391940193 -6.6152883175806085 L 192.55961525730817 -6.956722804932271 L 191.52229445338108 -7.511182326184718 L 190.6130751643794 -8.257359312880705 L 189.86689817768342 -9.166578601882378 L 189.31243865643097 -10.203899405809452 L 188.97100416907932 -11.32945806790322 L 188.8557158514987 -12.499999999999991 L 188.97100416907932 -13.67054193209676 L 189.31243865643097 -14.796100594190529 L 189.86689817768342 -15.833421398117602 L 190.6130751643794 -16.742640687119277 L 191.52229445338108 -17.488817673815262 L 192.55961525730817 -18.04327719506771 L 193.68517391940193 -18.384711682419372 L 194.8557158514987 -18.499999999999993 L 196.02625778359547 -18.384711682419372 L 197.15181644568924 -18.04327719506771 L 198.18913724961632 -17.488817673815262 L 199.098356538618 -16.742640687119277 L 199.84453352531398 -15.833421398117604 L 200.39899304656643 -14.796100594190534 L 200.74042753391808 -13.670541932096764 Z" fill="#26d94a" stroke="#c93" stroke-width="1" />
  <path d="M 49.30127018922194 50 L 49.18598187164132 51.17054193209677 L 48.844547384289655 52.29610059419054 L 48.29008786303721 53.333421398117615 L 47.54391087634122 54.242640687119284 L 46.63469158733955 54.98881767381527 L 45.59737078341248 55.543277195067716 L 44.471812121318706 55.88471168241938 L 43.30127018922194 56 L 42.13072825712517 55.88471168241938 L 41.0051695950314 55.543277195067716 L 39.96784879110432 54.98881767381528 L 39.058629502102654 54.242640687119284 L 38.31245251540667 53.333421398117615 L 37.75799299415422 52.29610059419054 L 37.41655850680256 51.170541932096775 L 37.30127018922194 50 L 37.41655850680256 48.82945806790323 L 37.757992994154215 47.70389940580946 L 38.31245251540666 46.666578601882385 L 39.058629502102654 45.757359312880716 L 39.96784879110432 45.01118232618473 L 41.0051695950314 44.456722804932284 L 42.13072825712516 44.11528831758062 L 43.30127018922194 44 L 44.471812121318706 44.11528831758062 L 45.59737078341248 44.456722804932284 L 46.634691587339546 45.01118232618472 L 47.54391087634122 45.757359312880716 L 48.29008786303721 46.666578601882385 L 48.844547384289655 47.70389940580946 L 49.18598187164132 48.829458067903225 Z" fill="#26d983" stroke="#c93" stroke-width="1" />
  <path d="M 27.650635094610966 62.5 L 27.535346777030348 63.67054193209677 L 27.193912289678686 64.79610059419053 L 26.63945276842624 65.83342139811761 L 25.893275781730253 66.74264068711929 L 24.98405649272858 67.48881767381528 L 23.946735688801503 68.04327719506772 L 22.821177026707737 68.38471168241938 L 21.650635094610966 68.5 L 20.480093162514198 68.38471168241938 L 19.354534500420428 68.04327719506772 L 18.317213696493354 67.48881767381528 L 17.40799440749168 66.74264068711929 L 16.661817420795693 65.83342139811761 L 16.107357899543246 64.79610059419053 L 15.765923412191583 63.670541932096775 L 15.650635094610966 62.5 L 15.765923412191583 61.32945806790323 L 16.107357899543246 60.20389940580946 L 16.661817420795693 59.166578601882385 L 17.407994407491678 58.257359312880716 L 18.317213696493354 57.51118232618473 L 19.354534500420424 56.956722804932284 L 20.480093162514194 56.61528831758062 L 21.650635094610966 56.5 L 22.821177026707737 56.61528831758062 L 23.946735688801507 56.956722804932284 L 24.984056492728577 57.51118232618472 L 25.89327578173025 58.257359312880716 L 26.63945276842624 59.166578601882385 L 27.193912289678686 60.20389940580946 L 27.535346777030348 61.329458067903225 Z" fill="#26d9bc" stroke="#c93" stroke-width="1" />
  <path d="M 6.0000000000000036 50.00000000000001 L 5.884711682419386 51.170541932096775 L 5.5432771950677235 52.29610059419055 L 4.988817673815275 53.33342139811762 L 4.242640687119289 54.24264068711929 L 3.3334213981176175 54.98881767381528 L 2.2961005941905426 55.54327719506773 L 1.1705419320967736 55.88471168241939 L 4.031130021007223e-15 56.00000000000001 L -1.1705419320967656 55.88471168241939 L -2.296100594190535 55.54327719506773 L -3.333421398117608 54.98881767381528 L -4.242640687119281 54.24264068711929 L -4.9888176738152685 53.33342139811762 L -5.543277195067716 52.29610059419055 L -5.884711682419379 51.17054193209678 L -5.9999999999999964 50.00000000000001 L -5.884711682419379 48.82945806790324 L -5.543277195067717 47.703899405809466 L -4.988817673815269 46.66657860188239 L -4.242640687119282 45.75735931288072 L -3.3334213981176095 45.01118232618474 L -2.2961005941905386 44.45672280493229 L -1.1705419320967683 44.11528831758063 L 2.5615538620303987e-15 44.00000000000001 L 1.1705419320967736 44.11528831758062 L 2.2961005941905435 44.456722804932284 L 3.333421398117615 45.01118232618474 L 4.242640687119287 45.75735931288072 L 4.988817673815275 46.66657860188239 L 5.543277195067723 47.703899405809466 L 5.884711682419385 48.82945806790323 Z" fill="#26bcd9" stroke="#c93" stroke-width="1" />
  <path d="M 5.9999999999999964 25.000000000000007 L 5.884711682419379 26.170541932096775 L 5.543277195067716 27.296100594190545 L 4.988817673815268 28.333421398117622 L 4.242640687119282 29.24264068711929 L 3.3334213981176104 29.988817673815277 L 2.2961005941905355 30.543277195067727 L 1.1705419320967665 30.88471168241939 L -3.0742973365937794e-15 31.000000000000007 L -1.1705419320967727 30.88471168241939 L -2.296100594190542 30.543277195067727 L -3.3334213981176153 29.98881767381528 L -4.242640687119288 29.24264068711929 L -4.988817673815276 28.333421398117622 L -5.5432771950677235 27.29610059419055 L -5.884711682419386 26.17054193209678 L -6.0000000000000036 25.000000000000007 L -5.884711682419386 23.829458067903236 L -5.543277195067724 22.70389940580947 L -4.9888176738152765 21.666578601882396 L -4.242640687119289 20.757359312880723 L -3.3334213981176166 20.011182326184738 L -2.2961005941905457 19.456722804932287 L -1.1705419320967754 19.115288317580625 L -4.543873495570603e-15 19.000000000000007 L 1.1705419320967665 19.115288317580625 L 2.2961005941905364 19.456722804932287 L 3.3334213981176077 20.011182326184734 L 4.24264068711928 20.757359312880723 L 4.988817673815268 21.666578601882392 L 5.5432771950677155 22.703899405809466 L 5.884711682419378 23.829458067903236 Z" fill="#2683d9" stroke="#c93" stroke-width="1" />
  <path d="M 92.60254037844388 50 L 92.48725206086326 51.17054193209677 L 92.1458175735116 52.29610059419054 L 91.59135805225915 53.333421398117615 L 90.84518106556317 54.242640687119284 L 89.93596177656148 54.98881767381527 L 88.89864097263441 55.543277195067716 L 87.77308231054064 55.88471168241938 L 86.60254037844388 56 L 85.43199844634711 55.88471168241938 L 84.30643978425334 55.543277195067716 L 83.26911898032627 54.98881767381528 L 82.35989969132459 54.242640687119284 L 81.6137227046286 53.333421398117615 L 81.05926318337616 52.29610059419054 L 80.7178286960245 51.170541932096775 L 80.60254037844388 50 L 80.7178286960245 48.82945806790323 L 81.05926318337616 47.70389940580946 L 81.6137227046286 46.666578601882385 L 82.35989969132459 45.757359312880716 L 83.26911898032627 45.01118232618473 L 84.30643978425333 44.456722804932284 L 85.43199844634711 44.11528831758062 L 86.60254037844388 44 L 87.77308231054064 44.11528831758062 L 88.89864097263441 44.456722804932284 L 89.93596177656148 45.01118232618472 L 90.84518106556317 45.757359312880716 L 91.59135805225915 46.666578601882385 L 92.1458175735116 47.70389940580946 L 92.48725206086326 48.829458067903225 Z" fill="#264ad9" stroke="#c93" stroke-width="1" />
  <path d="M 70.9519052838329 62.5 L 70.83661696625228 63.67054193209677 L 70.49518247890062 64.79610059419053 L 69.94072295764818 65.83342139811761 L 69.19454597095219 66.74264068711929 L 68.28532668195051 67.48881767381528 L 67.24800587802343 68.04327719506772 L 66.12244721592967 68.38471168241938 L 64.9519052838329 68.5 L 63.78136335173613 68.38471168241938 L 62.65580468964236 68.04327719506772 L 61.618483885715285 67.48881767381528 L 60.709264596713616 66.74264068711929 L 59.96308761001763 65.83342139811761 L 59.408628088765184 64.79610059419053 L 59.06719360141352 63.670541932096775 L 58.9519052838329 62.5 L 59.06719360141352 61.32945806790323 L 59.40862808876518 60.20389940580946 L 59.963087610017624 59.166578601882385 L 60.709264596713616 58.257359312880716 L 61.618483885715285 57.51118232618473 L 62.65580468964236 56.956722804932284 L 63.781363351736125 56.61528831758062 L 64.9519052838329 56.5 L 66.12244721592967 56.61528831758062 L 67.24800587802343 56.956722804932284 L 68.28532668195051 57.51118232618472 L 69.19454597095219 58.257359312880716 L 69.94072295764818 59.166578601882385 L 70.49518247890062 60.20389940580946 L 70.83661696625228 61.329458067903225 Z" fill="#3c26d9" stroke="#c93" stroke-width="1" />
  <path d="M 135.9038105676658 50 L 135.78852225008518 51.17054193209677 L 135.44708776273353 52.29610059419054 L 134.89262824148108 53.333421398117615 L 134.1464512547851 54.242640687119284 L 133.23723196578342 54.98881767381527 L 132.19991116185633 55.543277195067716 L 131.07435249976257 55.88471168241938 L 129.9038105676658 56 L 128.73326863556903 55.88471168241938 L 127.60770997347527 55.543277195067716 L 126.57038916954819 54.98881767381528 L 125.66116988054651 54.242640687119284 L 124.91499289385052 53.333421398117615 L 124.36053337259808 52.29610059419054 L 124.01909888524642 51.170541932096775 L 123.9038105676658 50 L 124.01909888524642 48.82945806790323 L 124.36053337259808 47.70389940580946 L 124.91499289385052 46.666578601882385 L 125.66116988054651 45.757359312880716 L 126.57038916954819 45.01118232618473 L 127.60770997347525 44.456722804932284 L 128.73326863556903 44.11528831758062 L 129.9038105676658 44 L 131.07435249976257 44.11528831758062 L 132.19991116185633 44.456722804932284 L 133.23723196578342 45.01118232618472 L 134.1464512547851 45.757359312880716 L 134.89262824148108 46.666578601882385 L 135.44708776273353 47.70389940580946 L 135.78852225008518 48.829458067903225 Z" fill="#7526d9" stroke="#c93" stroke-width="1" />
  <path d="M 114.25317547305482 62.5 L 114.1378871554742 63.67054193209677 L 113.79645266812254 64.79610059419053 L 113.2419931468701 65.83342139811761 L 112.49581616017412 66.74264068711929 L 111.58659687117243 67.48881767381528 L 110.54927606724536 68.04327719506772 L 109.42371740515159 68.38471168241938 L 108.25317547305482 68.5 L 107.08263354095806 68.38471168241938 L 105.95707487886429 68.04327719506772 L 104.91975407493722 67.48881767381528 L 104.01053478593553 66.74264068711929 L 103.26435779923955 65.83342139811761 L 102.70989827798711 64.79610059419053 L 102.36846379063545 63.670541932096775 L 102.25317547305482 62.5 L 102.36846379063545 61.32945806790323 L 102.70989827798711 60.20389940580946 L 103.26435779923955 59.166578601882385 L 104.01053478593553 58.257359312880716 L 104.91975407493722 57.51118232618473 L 105.95707487886428 56.956722804932284 L 107.08263354095806 56.61528831758062 L 108.25317547305482 56.5 L 109.42371740515159 56.61528831758062 L 110.54927606724536 56.956722804932284 L 111.58659687117243 57.51118232618472 L 112.49581616017412 58.257359312880716 L 113.2419931468701 59.166578601882385 L 113.79645266812254 60.20389940580946 L 114.1378871554742 61.329458067903225 Z" fill="#ae26d9" stroke="#c93" stroke-width="1" />
  <path d="M 179.20508075688775 50 L 179.08979243930713 51.17054193209677 L 178.74835795195548 52.29610059419054 L 178.19389843070303 53.333421398117615 L 177.44772144400704 54.242640687119284 L 176.53850215500538 54.98881767381527 L 175.5011813510783 55.543277195067716 L 174.37562268898452 55.88471168241938 L 173.20508075688775 56 L 172.03453882479099 55.88471168241938 L 170.90898016269722 55.543277195067716 L 169.87165935877013 54.98881767381528 L 168.96244006976846 54.242640687119284 L 168.21626308307248 53.333421398117615 L 167.66180356182002 52.29610059419054 L 167.32036907446837 51.170541932096775 L 167.20508075688775 50 L 167.32036907446837 48.82945806790323 L 167.66180356182002 47.70389940580946 L 168.21626308307248 46.666578601882385 L 168.96244006976846 45.757359312880716 L 169.87165935877013 45.01118232618473 L 170.90898016269722 44.456722804932284 L 172.03453882479099 44.11528831758062 L 173.20508075688775 44 L 174.37562268898452 44.11528831758062 L 175.5011813510783 44.456722804932284 L 176.53850215500538 45.01118232618472 L 177.44772144400704 45.757359312880716 L 178.19389843070303 46.666578601882385 L 178.74835795195548 47.70389940580946 L 179.08979243930713 48.829458067903225 Z" fill="#d926ca" stroke="#c93" stroke-width="1" />
  <path d="M 157.55444566227678 62.5 L 157.43915734469616 63.67054193209677 L 157.0977228573445 64.79610059419053 L 156.54326333609205 65.83342139811761 L 155.79708634939607 66.74264068711929 L 154.8878670603944 67.48881767381528 L 153.8505462564673 68.04327719506772 L 152.72498759437354 68.38471168241938 L 151.55444566227678 68.5 L 150.38390373018 68.38471168241938 L 149.25834506808624 68.04327719506772 L 148.22102426415915 67.48881767381528 L 147.3118049751575 66.74264068711929 L 146.5656279884615 65.83342139811761 L 146.01116846720905 64.79610059419053 L 145.6697339798574 63.670541932096775 L 145.55444566227678 62.5 L 145.6697339798574 61.32945806790323 L 146.01116846720905 60.20389940580946 L 146.5656279884615 59.166578601882385 L 147.3118049751575 58.257359312880716 L 148.22102426415915 57.51118232618473 L 149.25834506808624 56.956722804932284 L 150.38390373018 56.61528831758062 L 151.55444566227678 56.5 L 152.72498759437354 56.61528831758062 L 153.8505462564673 56.956722804932284 L 154.8878670603944 57.51118232618472 L 155.79708634939607 58.257359312880716 L 156.54326333609205 59.166578601882385 L 157.0977228573445 60.20389940580946 L 157.43915734469616 61.329458067903225 Z" fill="#d92691" stroke="#c93" stroke-width="1" />
  <path d="M 222.50635094610968 50 L 222.39106262852906 51.17054193209677 L 222.0496281411774 52.29610059419054 L 221.49516861992495 53.333421398117615 L 220.74899163322897 54.242640687119284 L 219.8397723442273 54.98881767381527 L 218.8024515403002 55.543277195067716 L 217.67689287820644 55.88471168241938 L 216.50635094610968 56 L 215.3358090140129 55.88471168241938 L 214.21025035191914 55.543277195067716 L 213.17292954799206 54.98881767381528 L 212.2637102589904 54.242640687119284 L 211.5175332722944 53.333421398117615 L 210.96307375104195 52.29610059419054 L 210.6216392636903 51.170541932096775 L 210.50635094610968 50 L 210.6216392636903 48.82945806790323 L 210.96307375104195 47.70389940580946 L 211.5175332722944 46.666578601882385 L 212.2637102589904 45.757359312880716 L 213.17292954799206 45.01118232618473 L 214.21025035191914 44.456722804932284 L 215.3358090140129 44.11528831758062 L 216.50635094610968 44 L 217.67689287820644 44.11528831758062 L 218.8024515403002 44.456722804932284 L 219.8397723442273 45.01118232618472 L 220.74899163322897 45.757359312880716 L 221.49516861992495 46.666578601882385 L 222.0496281411774 47.70389940580946 L 222.39106262852906 48.829458067903225 Z" fill="#d99126" stroke="#c93" stroke-width="1" />
  <path d="M 200.8557158514987 62.5 L 200.74042753391808 63.67054193209677 L 200.39899304656643 64.79610059419053 L 199.84453352531398 65.83342139811761 L 199.098356538618 66.74264068711929 L 198.18913724961632 67.48881767381528 L 197.15181644568924 68.04327719506772 L 196.02625778359547 68.38471168241938 L 194.8557158514987 68.5 L 193.68517391940193 68.38471168241938 L 192.55961525730817 68.04327719506772 L 191.52229445338108 67.48881767381528 L 190.6130751643794 66.74264068711929 L 189.86689817768342 65.83342139811761 L 189.31243865643097 64.79610059419053 L 188.97100416907932 63.670541932096775 L 188.8557158514987 62.5 L 188.97100416907932 61.32945806790323 L 189.31243865643097 60.20389940580946 L 189.86689817768342 59.166578601882385 L 190.6130751643794 58.257359312880716 L 191.52229445338108 57.51118232618473 L 192.55961525730817 56.956722804932284 L 193.68517391940193 56.61528831758062 L 194.8557158514987 56.5 L 196.02625778359547 56.61528831758062 L 197.15181644568924 56.956722804932284 L 198.18913724961632 57.51118232618472 L 199.098356538618 58.257359312880716 L 199.84453352531398 59.166578601882385 L 200.39899304656643 60.20389940580946 L 200.74042753391808 61.329458067903225 Z" fill="#d9ca26" stroke="#c93" stroke-width="1" />
  <path d="M 222.50635094610968 25.000000000000007 L 222.39106262852906 26.170541932096775 L 222.0496281411774 27.296100594190545 L 221.49516861992495 28.333421398117622 L 220.74899163322897 29.24264068711929 L 219.8397723442273 29.988817673815277 L 218.8024515403002 30.543277195067727 L 217.67689287820644 30.88471168241939 L 216.50635094610968 31.000000000000007 L 215.3358090140129 30.88471168241939 L 214.21025035191914 30.543277195067727 L 213.17292954799206 29.98881767381528 L 212.2637102589904 29.24264068711929 L 211.5175332722944 28.333421398117622 L 210.96307375104195 27.29610059419055 L 210.6216392636903 26.17054193209678 L 210.50635094610968 25.000000000000007 L 210.6216392636903 23.829458067903236 L 210.96307375104195 22.70389940580947 L 211.5175332722944 21.666578601882396 L 212.2637102589904 20.757359312880723 L 213.17292954799206 20.011182326184738 L 214.21025035191914 19.456722804932287 L 215.3358090140129 19.115288317580625 L 216.50635094610968 19.000000000000007 L 217.67689287820644 19.115288317580625 L 218.8024515403002 19.456722804932287 L 219.8397723442273 20.011182326184734 L 220.74899163322897 20.757359312880723 L 221.49516861992495 21.666578601882392 L 222.0496281411774 22.703899405809466 L 222.39106262852906 23.829458067903236 Z" fill="#aed926" stroke="#c93" stroke-width="1" />
  <path d="M 27.65063509461097 87.5 L 27.53534677703035 88.67054193209677 L 27.19391228967869 89.79610059419053 L 26.63945276842624 90.83342139811761 L 25.893275781730253 91.74264068711929 L 24.984056492728584 92.48881767381528 L 23.946735688801507 93.04327719506772 L 22.82117702670774 93.38471168241938 L 21.65063509461097 93.5 L 20.4800931625142 93.38471168241938 L 19.35453450042043 93.04327719506772 L 18.317213696493358 92.48881767381528 L 17.407994407491685 91.74264068711929 L 16.661817420795696 90.83342139811761 L 16.10735789954325 89.79610059419053 L 15.765923412191587 88.67054193209677 L 15.65063509461097 87.5 L 15.765923412191587 86.32945806790323 L 16.10735789954325 85.20389940580947 L 16.661817420795696 84.16657860188239 L 17.407994407491685 83.25735931288071 L 18.317213696493354 82.51118232618472 L 19.354534500420428 81.95672280493228 L 20.480093162514198 81.61528831758062 L 21.65063509461097 81.5 L 22.82117702670774 81.61528831758062 L 23.94673568880151 81.95672280493228 L 24.98405649272858 82.51118232618472 L 25.893275781730253 83.25735931288071 L 26.63945276842624 84.16657860188239 L 27.19391228967869 85.20389940580945 L 27.53534677703035 86.32945806790323 Z" fill="#75d926" stroke="#c93" stroke-width="1" />
  <path d="M 6.000000000000002 100 L 5.884711682419384 101.17054193209677 L 5.543277195067722 102.29610059419053 L 4.988817673815273 103.33342139811761 L 4.242640687119287 104.24264068711929 L 3.3334213981176157 104.98881767381528 L 2.296100594190541 105.54327719506772 L 1.1705419320967716 105.88471168241938 L 2.0092248411409132e-15 106 L -1.1705419320967676 105.88471168241938 L -2.296100594190537 105.54327719506772 L -3.33342139811761 104.98881767381528 L -4.242640687119283 104.24264068711929 L -4.98881767381527 103.33342139811761 L -5.543277195067718 102.29610059419053 L -5.884711682419381 101.17054193209677 L -5.999999999999998 100 L -5.884711682419381 98.82945806790323 L -5.543277195067719 97.70389940580947 L -4.988817673815271 96.66657860188239 L -4.242640687119284 95.75735931288071 L -3.3334213981176113 95.01118232618472 L -2.2961005941905404 94.45672280493228 L -1.1705419320967705 94.11528831758062 L 5.396486821640893e-16 94 L 1.1705419320967714 94.11528831758062 L 2.2961005941905417 94.45672280493228 L 3.333421398117613 95.01118232618472 L 4.242640687119286 95.75735931288071 L 4.988817673815273 96.66657860188239 L 5.543277195067721 97.70389940580945 L 5.8847116824193835 98.82945806790323 Z" fill="#3cd926" stroke="#c93" stroke-width="1" />
  <path d="M -15.650635094610962 87.50000000000001 L -15.76592341219158 88.67054193209678 L -16.107357899543242 89.79610059419055 L -16.661817420795693 90.83342139811762 L -17.407994407491678 91.7426406871193 L -18.317213696493347 92.48881767381529 L -19.354534500420424 93.04327719506773 L -20.48009316251419 93.3847116824194 L -21.650635094610962 93.50000000000001 L -22.82117702670773 93.3847116824194 L -23.9467356888015 93.04327719506773 L -24.984056492728573 92.48881767381529 L -25.893275781730246 91.7426406871193 L -26.639452768426235 90.83342139811762 L -27.193912289678682 89.79610059419055 L -27.535346777030345 88.67054193209678 L -27.650635094610962 87.50000000000001 L -27.535346777030345 86.32945806790325 L -27.193912289678682 85.20389940580948 L -26.639452768426235 84.1665786018824 L -25.893275781730246 83.25735931288072 L -24.984056492728577 82.51118232618474 L -23.946735688801503 81.9567228049323 L -22.821177026707733 81.61528831758064 L -21.650635094610962 81.50000000000001 L -20.48009316251419 81.61528831758064 L -19.35453450042042 81.9567228049323 L -18.31721369649335 82.51118232618474 L -17.407994407491678 83.25735931288072 L -16.661817420795693 84.1665786018824 L -16.107357899543242 85.20389940580947 L -15.76592341219158 86.32945806790325 Z" fill="#26d94a" stroke="#c93" stroke-width="1" />
  <path d="M -15.65063509461097 62.50000000000001 L -15.765923412191587 63.670541932096775 L -16.10735789954325 64.79610059419055 L -16.6618174207957 65.83342139811762 L -17.407994407491685 66.74264068711929 L -18.317213696493354 67.48881767381528 L -19.35453450042043 68.04327719506773 L -20.480093162514198 68.3847116824194 L -21.65063509461097 68.5 L -22.821177026707737 68.3847116824194 L -23.946735688801507 68.04327719506773 L -24.98405649272858 67.48881767381528 L -25.893275781730253 66.74264068711929 L -26.639452768426242 65.83342139811762 L -27.19391228967869 64.79610059419055 L -27.53534677703035 63.67054193209678 L -27.65063509461097 62.50000000000001 L -27.53534677703035 61.32945806790324 L -27.19391228967869 60.203899405809466 L -26.639452768426242 59.16657860188239 L -25.893275781730253 58.25735931288072 L -24.984056492728584 57.51118232618474 L -23.94673568880151 56.95672280493229 L -22.82117702670774 56.61528831758063 L -21.65063509461097 56.50000000000001 L -20.480093162514198 56.61528831758062 L -19.354534500420428 56.956722804932284 L -18.317213696493358 57.51118232618474 L -17.407994407491685 58.25735931288072 L -16.6618174207957 59.16657860188239 L -16.10735789954325 60.203899405809466 L -15.765923412191587 61.32945806790323 Z" fill="#26d983" stroke="#c93" stroke-width="1" />
  <path d="M 5.999999999999996 50 L 5.884711682419378 51.17054193209677 L 5.5432771950677155 52.29610059419054 L 4.988817673815267 53.333421398117615 L 4.242640687119281 54.242640687119284 L 3.3334213981176095 54.98881767381527 L 2.2961005941905346 55.543277195067716 L 1.1705419320967656 55.88471168241938 L -4.1140091545958525e-15 56 L -1.1705419320967736 55.88471168241938 L -2.296100594190543 55.543277195067716 L -3.333421398117616 54.98881767381528 L -4.242640687119289 54.242640687119284 L -4.9888176738152765 53.333421398117615 L -5.543277195067724 52.29610059419054 L -5.884711682419387 51.170541932096775 L -6.000000000000004 50 L -5.884711682419387 48.82945806790323 L -5.543277195067725 47.70389940580946 L -4.988817673815277 46.666578601882385 L -4.24264068711929 45.757359312880716 L -3.3334213981176175 45.01118232618473 L -2.2961005941905466 44.456722804932284 L -1.1705419320967765 44.11528831758062 L -5.583585313572677e-15 44 L 1.1705419320967654 44.11528831758062 L 2.2961005941905355 44.456722804932284 L 3.333421398117607 45.01118232618472 L 4.242640687119279 45.757359312880716 L 4.988817673815267 46.666578601882385 L 5.543277195067715 47.70389940580946 L 5.884711682419377 48.829458067903225 Z" fill="#26d9bc" stroke="#c93" stroke-width="1" />
  <path d="M 70.9519052838329 87.5 L 70.83661696625228 88.67054193209677 L 70.49518247890062 89.79610059419053 L 69.94072295764818 90.83342139811761 L 69.19454597095219 91.74264068711929 L 68.28532668195051 92.48881767381528 L 67.24800587802343 93.04327719506772 L 66.12244721592967 93.38471168241938 L 64.9519052838329 93.5 L 63.78136335173613 93.38471168241938 L 62.65580468964236 93.04327719506772 L 61.618483885715285 92.48881767381528 L 60.709264596713616 91.74264068711929 L 59.96308761001763 90.83342139811761 L 59.408628088765184 89.79610059419053 L 59.06719360141352 88.67054193209677 L 58.9519052838329 87.5 L 59.06719360141352 86.32945806790323 L 59.40862808876518 85.20389940580947 L 59.963087610017624 84.16657860188239 L 60.709264596713616 83.25735931288071 L 61.618483885715285 82.51118232618472 L 62.65580468964236 81.95672280493228 L 63.781363351736125 81.61528831758062 L 64.9519052838329 81.5 L 66.12244721592967 81.61528831758062 L 67.24800587802343 81.95672280493228 L 68.28532668195051 82.51118232618472 L 69.19454597095219 83.25735931288071 L 69.94072295764818 84.16657860188239 L 70.49518247890062 85.20389940580945 L 70.83661696625228 86.32945806790323 Z" fill="#26bcd9" stroke="#c93" stroke-width="1" />
  <path d="M 49.30127018922193 100 L 49.18598187164132 101.17054193209677 L 48.844547384289655 102.29610059419053 L 48.2900878630372 103.33342139811761 L 47.543910876341215 104.24264068711929 L 46.634691587339546 104.98881767381528 L 45.59737078341247 105.54327719506772 L 44.4718121213187 105.88471168241938 L 43.30127018922193 106 L 42.13072825712516 105.88471168241938 L 41.00516959503139 105.54327719506772 L 39.967848791104316 104.98881767381528 L 39.05862950210265 104.24264068711929 L 38.31245251540666 103.33342139811761 L 37.75799299415421 102.29610059419053 L 37.416558506802545 101.17054193209677 L 37.30127018922193 100 L 37.416558506802545 98.82945806790323 L 37.75799299415421 97.70389940580947 L 38.31245251540666 96.66657860188239 L 39.05862950210265 95.75735931288071 L 39.967848791104316 95.01118232618472 L 41.00516959503139 94.45672280493228 L 42.130728257125156 94.11528831758062 L 43.30127018922193 94 L 44.4718121213187 94.11528831758062 L 45.59737078341247 94.45672280493228 L 46.634691587339546 95.01118232618472 L 47.543910876341215 95.75735931288071 L 48.2900878630372 96.66657860188239 L 48.84454738428965 97.70389940580945 L 49.18598187164131 98.82945806790323 Z" fill="#2683d9" stroke="#c93" stroke-width="1" />
  <path d="M 114.25317547305482 87.5 L 114.1378871554742 88.67054193209677 L 113.79645266812254 89.79610059419053 L 113.2419931468701 90.83342139811761 L 112.49581616017412 91.74264068711929 L 111.58659687117243 92.48881767381528 L 110.54927606724536 93.04327719506772 L 109.42371740515159 93.38471168241938 L 108.25317547305482 93.5 L 107.08263354095806 93.38471168241938 L 105.95707487886429 93.04327719506772 L 104.91975407493722 92.48881767381528 L 104.01053478593553 91.74264068711929 L 103.26435779923955 90.83342139811761 L 102.70989827798711 89.79610059419053 L 102.36846379063545 88.67054193209677 L 102.25317547305482 87.5 L 102.36846379063545 86.32945806790323 L 102.70989827798711 85.20389940580947 L 103.26435779923955 84.16657860188239 L 104.01053478593553 83.25735931288071 L 104.91975407493722 82.51118232618472 L 105.95707487886428 81.95672280493228 L 107.08263354095806 81.61528831758062 L 108.25317547305482 81.5 L 109.42371740515159 81.61528831758062 L 110.54927606724536 81.95672280493228 L 111.58659687117243 82.51118232618472 L 112.49581616017412 83.25735931288071 L 113.2419931468701 84.16657860188239 L 113.79645266812254 85.20389940580945 L 114.1378871554742 86.32945806790323 Z" fill="#264ad9" stroke="#c93" stroke-width="1" />
  <path d="M 92.60254037844386 100 L 92.48725206086324 101.17054193209677 L 92.14581757351158 102.29610059419053 L 91.59135805225914 103.33342139811761 L 90.84518106556315 104.24264068711929 L 89.93596177656147 104.98881767381528 L 88.8986409726344 105.54327719506772 L 87.77308231054063 105.88471168241938 L 86.60254037844386 106 L 85.4319984463471 105.88471168241938 L 84.30643978425333 105.54327719506772 L 83.26911898032625 104.98881767381528 L 82.35989969132457 104.24264068711929 L 81.61372270462859 103.33342139811761 L 81.05926318337615 102.29610059419053 L 80.71782869602448 101.17054193209677 L 80.60254037844386 100 L 80.71782869602448 98.82945806790323 L 81.05926318337615 97.70389940580947 L 81.61372270462859 96.66657860188239 L 82.35989969132457 95.75735931288071 L 83.26911898032625 95.01118232618472 L 84.30643978425331 94.45672280493228 L 85.4319984463471 94.11528831758062 L 86.60254037844386 94 L 87.77308231054063 94.11528831758062 L 88.8986409726344 94.45672280493228 L 89.93596177656147 95.01118232618472 L 90.84518106556314 95.75735931288071 L 91.59135805225914 96.66657860188239 L 92.14581757351158 97.70389940580945 L 92.48725206086324 98.82945806790323 Z" fill="#3c26d9" stroke="#c93" stroke-width="1" />
  <path d="M 157.55444566227678 87.5 L 157.43915734469616 88.67054193209677 L 157.0977228573445 89.79610059419053 L 156.54326333609205 90.83342139811761 L 155.79708634939607 91.74264068711929 L 154.8878670603944 92.48881767381528 L 153.8505462564673 93.04327719506772 L 152.72498759437354 93.38471168241938 L 151.55444566227678 93.5 L 150.38390373018 93.38471168241938 L 149.25834506808624 93.04327719506772 L 148.22102426415915 92.48881767381528 L 147.3118049751575 91.74264068711929 L 146.5656279884615 90.83342139811761 L 146.01116846720905 89.79610059419053 L 145.6697339798574 88.67054193209677 L 145.55444566227678 87.5 L 145.6697339798574 86.32945806790323 L 146.01116846720905 85.20389940580947 L 146.5656279884615 84.16657860188239 L 147.3118049751575 83.25735931288071 L 148.22102426415915 82.51118232618472 L 149.25834506808624 81.95672280493228 L 150.38390373018 81.61528831758062 L 151.55444566227678 81.5 L 152.72498759437354 81.61528831758062 L 153.8505462564673 81.95672280493228 L 154.8878670603944 82.51118232618472 L 155.79708634939607 83.25735931288071 L 156.54326333609205 84.16657860188239 L 157.0977228573445 85.20389940580945 L 157.43915734469616 86.32945806790323 Z" fill="#7526d9" stroke="#c93" stroke-width="1" />
  <path d="M 135.9038105676658 100 L 135.78852225008518 101.17054193209677 L 135.44708776273353 102.29610059419053 L 134.89262824148108 103.33342139811761 L 134.1464512547851 104.24264068711929 L 133.23723196578342 104.98881767381528 L 132.19991116185633 105.54327719506772 L 131.07435249976257 105.88471168241938 L 129.9038105676658 106 L 128.73326863556903 105.88471168241938 L 127.60770997347527 105.54327719506772 L 126.57038916954819 104.98881767381528 L 125.66116988054651 104.24264068711929 L 124.91499289385052 103.33342139811761 L 124.36053337259808 102.29610059419053 L 124.01909888524642 101.17054193209677 L 123.9038105676658 100 L 124.01909888524642 98.82945806790323 L 124.36053337259808 97.70389940580947 L 124.91499289385052 96.66657860188239 L 125.66116988054651 95.75735931288071 L 126.57038916954819 95.01118232618472 L 127.60770997347525 94.45672280493228 L 128.73326863556903 94.11528831758062 L 129.9038105676658 94 L 131.07435249976257 94.11528831758062 L 132.19991116185633 94.45672280493228 L 133.23723196578342 95.01118232618472 L 134.1464512547851 95.75735931288071 L 134.89262824148108 96.66657860188239 L 135.44708776273353 97.70389940580945 L 135.78852225008518 98.82945806790323 Z" fill="#ae26d9" stroke="#c93" stroke-width="1" />
  <path d="M 200.8557158514987 87.5 L 200.74042753391808 88.67054193209677 L 200.39899304656643 89.79610059419053 L 199.84453352531398 90.83342139811761 L 199.098356538618 91.74264068711929 L 198.18913724961632 92.48881767381528 L 197.15181644568924 93.04327719506772 L 196.02625778359547 93.38471168241938 L 194.8557158514987 93.5 L 193.68517391940193 93.38471168241938 L 192.55961525730817 93.04327719506772 L 191.52229445338108 92.48881767381528 L 190.6130751643794 91.74264068711929 L 189.86689817768342 90.83342139811761 L 189.31243865643097 89.79610059419053 L 188.97100416907932 88.67054193209677 L 188.8557158514987 87.5 L 188.97100416907932 86.32945806790323 L 189.31243865643097 85.20389940580947 L 189.86689817768342 84.16657860188239 L 190.6130751643794 83.25735931288071 L 191.52229445338108 82.51118232618472 L 192.55961525730817 81.95672280493228 L 193.68517391940193 81.61528831758062 L 194.8557158514987 81.5 L 196.02625778359547 81.61528831758062 L 197.15181644568924 81.95672280493228 L 198.18913724961632 82.51118232618472 L 199.098356538618 83.25735931288071 L 199.84453352531398 84.16657860188239 L 200.39899304656643 85.20389940580945 L 200.74042753391808 86.32945806790323 Z" fill="#d926ca" stroke="#c93" stroke-width="1" />
  <path d="M 179.20508075688772 100 L 179.0897924393071 101.17054193209677 L 178.74835795195546 102.29610059419053 L 178.193898430703 103.33342139811761 L 177.44772144400702 104.24264068711929 L 176.53850215500535 104.98881767381528 L 175.50118135107826 105.54327719506772 L 174.3756226889845 105.88471168241938 L 173.20508075688772 106 L 172.03453882479096 105.88471168241938 L 170.9089801626972 105.54327719506772 L 169.8716593587701 104.98881767381528 L 168.96244006976843 104.24264068711929 L 168.21626308307245 103.33342139811761 L 167.66180356182 102.29610059419053 L 167.32036907446835 101.17054193209677 L 167.20508075688772 100 L 167.32036907446835 98.82945806790323 L 167.66180356182 97.70389940580947 L 168.21626308307245 96.66657860188239 L 168.96244006976843 95.75735931288071 L 169.8716593587701 95.01118232618472 L 170.9089801626972 94.45672280493228 L 172.03453882479096 94.11528831758062 L 173.20508075688772 94 L 174.3756226889845 94.11528831758062 L 175.50118135107826 94.45672280493228 L 176.53850215500535 95.01118232618472 L 177.44772144400702 95.75735931288071 L 178.193898430703 96.66657860188239 L 178.74835795195546 97.70389940580945 L 179.0897924393071 98.82945806790323 Z" fill="#d92691" stroke="#c93" stroke-width="1" />
  <path d="M 49.30127018922194 125 L 49.18598187164132 126.17054193209677 L 48.844547384289655 127.29610059419053 L 48.29008786303721 128.33342139811762 L 47.54391087634122 129.2426406871193 L 46.63469158733955 129.98881767381528 L 45.59737078341248 130.54327719506773 L 44.471812121318706 130.88471168241938 L 43.30127018922194 131 L 42.13072825712517 130.88471168241938 L 41.0051695950314 130.54327719506773 L 39.96784879110432 129.98881767381528 L 39.058629502102654 129.2426406871193 L 38.31245251540667 128.33342139811762 L 37.75799299415422 127.29610059419053 L 37.41655850680256 126.17054193209677 L 37.30127018922194 125 L 37.41655850680256 123.82945806790323 L 37.757992994154215 122.70389940580947 L 38.31245251540666 121.66657860188239 L 39.058629502102654 120.75735931288071 L 39.96784879110432 120.01118232618472 L 41.0051695950314 119.45672280493228 L 42.13072825712516 119.11528831758062 L 43.30127018922194 119 L 44.471812121318706 119.11528831758062 L 45.59737078341248 119.45672280493228 L 46.634691587339546 120.01118232618472 L 47.54391087634122 120.75735931288071 L 48.29008786303721 121.66657860188239 L 48.844547384289655 122.70389940580945 L 49.18598187164132 123.82945806790323 Z" fill="#d99126" stroke="#c93" stroke-width="1" />
  <path d="M 27.650635094610966 137.5 L 27.535346777030348 138.67054193209677 L 27.193912289678686 139.79610059419053 L 26.63945276842624 140.83342139811762 L 25.893275781730253 141.7426406871193 L 24.98405649272858 142.48881767381528 L 23.946735688801503 143.04327719506773 L 22.821177026707737 143.38471168241938 L 21.650635094610966 143.5 L 20.480093162514198 143.38471168241938 L 19.354534500420428 143.04327719506773 L 18.317213696493354 142.48881767381528 L 17.40799440749168 141.7426406871193 L 16.661817420795693 140.83342139811762 L 16.107357899543246 139.79610059419053 L 15.765923412191583 138.67054193209677 L 15.650635094610966 137.5 L 15.765923412191583 136.32945806790323 L 16.107357899543246 135.20389940580947 L 16.661817420795693 134.16657860188238 L 17.407994407491678 133.2573593128807 L 18.317213696493354 132.51118232618472 L 19.354534500420424 131.95672280493227 L 20.480093162514194 131.61528831758062 L 21.650635094610966 131.5 L 22.821177026707737 131.61528831758062 L 23.946735688801507 131.95672280493227 L 24.984056492728577 132.51118232618472 L 25.89327578173025 133.2573593128807 L 26.63945276842624 134.16657860188238 L 27.193912289678686 135.20389940580947 L 27.535346777030348 136.32945806790323 Z" fill="#d9ca26" stroke="#c93" stroke-width="1" />
  <path d="M 6.0000000000000036 125.00000000000001 L 5.884711682419386 126.17054193209678 L 5.5432771950677235 127.29610059419055 L 4.988817673815275 128.33342139811762 L 4.242640687119289 129.2426406871193 L 3.3334213981176175 129.98881767381528 L 2.2961005941905426 130.54327719506773 L 1.1705419320967736 130.8847116824194 L 4.031130021007223e-15 131 L -1.1705419320967656 130.8847116824194 L -2.296100594190535 130.54327719506773 L -3.333421398117608 129.98881767381528 L -4.242640687119281 129.2426406871193 L -4.9888176738152685 128.33342139811762 L -5.543277195067716 127.29610059419055 L -5.884711682419379 126.17054193209678 L -5.9999999999999964 125.00000000000001 L -5.884711682419379 123.82945806790325 L -5.543277195067717 122.70389940580948 L -4.988817673815269 121.6665786018824 L -4.242640687119282 120.75735931288072 L -3.3334213981176095 120.01118232618474 L -2.2961005941905386 119.4567228049323 L -1.1705419320967683 119.11528831758064 L 2.5615538620303987e-15 119.00000000000001 L 1.1705419320967736 119.11528831758064 L 2.2961005941905435 119.4567228049323 L 3.333421398117615 120.01118232618474 L 4.242640687119287 120.75735931288072 L 4.988817673815275 121.6665786018824 L 5.543277195067723 122.70389940580947 L 5.884711682419385 123.82945806790325 Z" fill="#aed926" stroke="#c93" stroke-width="1" />
  <path d="M 5.9999999999999964 100 L 5.884711682419379 101.17054193209677 L 5.543277195067716 102.29610059419053 L 4.988817673815268 103.33342139811761 L 4.242640687119282 104.24264068711929 L 3.3334213981176104 104.98881767381528 L 2.2961005941905355 105.54327719506772 L 1.1705419320967665 105.88471168241938 L -3.0742973365937794e-15 106 L -1.1705419320967727 105.88471168241938 L -2.296100594190542 105.54327719506772 L -3.3334213981176153 104.98881767381528 L -4.242640687119288 104.24264068711929 L -4.988817673815276 103.33342139811761 L -5.5432771950677235 102.29610059419053 L -5.884711682419386 101.17054193209677 L -6.0000000000000036 100 L -5.884711682419386 98.82945806790323 L -5.543277195067724 97.70389940580947 L -4.9888176738152765 96.66657860188239 L -4.242640687119289 95.75735931288071 L -3.3334213981176166 95.01118232618472 L -2.2961005941905457 94.45672280493228 L -1.1705419320967754 94.11528831758062 L -4.543873495570603e-15 94 L 1.1705419320967665 94.11528831758062 L 2.2961005941905364 94.45672280493228 L 3.3334213981176077 95.01118232618472 L 4.24264068711928 95.75735931288071 L 4.988817673815268 96.66657860188239 L 5.5432771950677155 97.70389940580945 L 5.884711682419378 98.82945806790323 Z" fill="#75d926" stroke="#c93" stroke-width="1" />
  <path d="M 92.60254037844388 125 L 92.48725206086326 126.17054193209677 L 92.1458175735116 127.29610059419053 L 91.59135805225915 128.33342139811762 L 90.84518106556317 129.2426406871193 L 89.93596177656148 129.98881767381528 L 88.89864097263441 130.54327719506773 L 87.77308231054064 130.88471168241938 L 86.60254037844388 131 L 85.43199844634711 130.88471168241938 L 84.30643978425334 130.54327719506773 L 83.26911898032627 129.98881767381528 L 82.35989969132459 129.2426406871193 L 81.6137227046286 128.33342139811762 L 81.05926318337616 127.29610059419053 L 80.7178286960245 126.17054193209677 L 80.60254037844388 125 L 80.7178286960245 123.82945806790323 L 81.05926318337616 122.70389940580947 L 81.6137227046286 121.66657860188239 L 82.35989969132459 120.75735931288071 L 83.26911898032627 120.01118232618472 L 84.30643978425333 119.45672280493228 L 85.43199844634711 119.11528831758062 L 86.60254037844388 119 L 87.77308231054064 119.11528831758062 L 88.89864097263441 119.45672280493228 L 89.93596177656148 120.01118232618472 L 90.84518106556317 120.75735931288071 L 91.59135805225915 121.66657860188239 L 92.1458175735116 122.70389940580945 L 92.48725206086326 123.82945806790323 Z" fill="#3cd926" stroke="#c93" stroke-width="1" />
  <path d="M 70.9519052838329 137.5 L 70.83661696625228 138.67054193209677 L 70.49518247890062 139.79610059419053 L 69.94072295764818 140.83342139811762 L 69.19454597095219 141.7426406871193 L 68.28532668195051 142.48881767381528 L 67.24800587802343 143.04327719506773 L 66.12244721592967 143.38471168241938 L 64.9519052838329 143.5 L 63.78136335173613 143.38471168241938 L 62.65580468964236 143.04327719506773 L 61.618483885715285 142.48881767381528 L 60.709264596713616 141.7426406871193 L 59.96308761001763 140.83342139811762 L 59.408628088765184 139.79610059419053 L 59.06719360141352 138.67054193209677 L 58.9519052838329 137.5 L 59.06719360141352 136.32945806790323 L 59.40862808876518 135.20389940580947 L 59.963087610017624 134.16657860188238 L 60.709264596713616 133.2573593128807 L 61.618483885715285 132.51118232618472 L 62.65580468964236 131.95672280493227 L 63.781363351736125 131.61528831758062 L 64.9519052838329 131.5 L 66.12244721592967 131.61528831758062 L 67.24800587802343 131.95672280493227 L 68.28532668195051 132.51118232618472 L 69.19454597095219 133.2573593128807 L 69.94072295764818 134.16657860188238 L 70.49518247890062 135.20389940580947 L 70.83661696625228 136.32945806790323 Z" fill="#26d94a" stroke="#c93" stroke-width="1" />
  <path d="M 135.9038105676658 125 L 135.78852225008518 126.17054193209677 L 135.44708776273353 127.29610059419053 L 134.89262824148108 128.33342139811762 L 134.1464512547851 129.2426406871193 L 133.23723196578342 129.98881767381528 L 132.19991116185633 130.54327719506773 L 131.07435249976257 130.88471168241938 L 129.9038105676658 131 L 128.73326863556903 130.88471168241938 L 127.60770997347527 130.54327719506773 L 126.57038916954819 129.98881767381528 L 125.66116988054651 129.2426406871193 L 124.91499289385052 128.33342139811762 L 124.36053337259808 127.29610059419053 L 124.01909888524642 126.17054193209677 L 123.9038105676658 125 L 124.01909888524642 123.82945806790323 L 124.36053337259808 122.70389940580947 L 124.91499289385052 121.66657860188239 L 125.66116988054651 120.75735931288071 L 126.57038916954819 120.01118232618472 L 127.60770997347525 119.45672280493228 L 128.73326863556903 119.11528831758062 L 129.9038105676658 119 L 131.07435249976257 119.11528831758062 L 132.19991116185633 119.45672280493228 L 133.23723196578342 120.01118232618472 L 134.1464512547851 120.75735931288071 L 134.89262824148108 121.66657860188239 L 135.44708776273353 122.70389940580945 L 135.78852225008518 123.82945806790323 Z" fill="#26d983" stroke="#c93" stroke-width="1" />
  <path d="M 114.25317547305482 137.5 L 114.1378871554742 138.67054193209677 L 113.79645266812254 139.79610059419053 L 113.2419931468701 140.83342139811762 L 112.49581616017412 141.7426406871193 L 111.58659687117243 142.48881767381528 L 110.54927606724536 143.04327719506773 L 109.42371740515159 143.38471168241938 L 108.25317547305482 143.5 L 107.08263354095806 143.38471168241938 L 105.95707487886429 143.04327719506773 L 104.91975407493722 142.48881767381528 L 104.01053478593553 141.7426406871193 L 103.26435779923955 140.83342139811762 L 102.70989827798711 139.79610059419053 L 102.36846379063545 138.67054193209677 L 102.25317547305482 137.5 L 102.36846379063545 136.32945806790323 L 102.70989827798711 135.20389940580947 L 103.26435779923955 134.16657860188238 L 104.01053478593553 133.2573593128807 L 104.91975407493722 132.51118232618472 L 105.95707487886428 131.95672280493227 L 107.08263354095806 131.61528831758062 L 108.25317547305482 131.5 L 109.42371740515159 131.61528831758062 L 110.54927606724536 131.95672280493227 L 111.58659687117243 132.51118232618472 L 112.49581616017412 133.2573593128807 L 113.2419931468701 134.16657860188238 L 113.79645266812254 135.20389940580947 L 114.1378871554742 136.32945806790323 Z" fill="#26d9bc" stroke="#c93" stroke-width="1" />
  <path d="M 179.20508075688775 125 L 179.08979243930713 126.17054193209677 L 178.74835795195548 127.29610059419053 L 178.19389843070303 128.33342139811762 L 177.44772144400704 129.2426406871193 L 176.53850215500538 129.98881767381528 L 175.5011813510783 130.54327719506773 L 174.37562268898452 130.88471168241938 L 173.20508075688775 131 L 172.03453882479099 130.88471168241938 L 170.90898016269722 130.54327719506773 L 169.87165935877013 129.98881767381528 L 168.96244006976846 129.2426406871193 L 168.21626308307248 128.33342139811762 L 167.66180356182002 127.29610059419053 L 167.32036907446837 126.17054193209677 L 167.20508075688775 125 L 167.32036907446837 123.82945806790323 L 167.66180356182002 122.70389940580947 L 168.21626308307248 121.66657860188239 L 168.96244006976846 120.75735931288071 L 169.87165935877013 120.01118232618472 L 170.90898016269722 119.45672280493228 L 172.03453882479099 119.11528831758062 L 173.20508075688775 119 L 174.37562268898452 119.11528831758062 L 175.5011813510783 119.45672280493228 L 176.53850215500538 120.01118232618472 L 177.44772144400704 120.75735931288071 L 178.19389843070303 121.66657860188239 L 178.74835795195548 122.70389940580945 L 179.08979243930713 123.82945806790323 Z" fill="#26bcd9" stroke="#c93" stroke-width="1" />
  <path d="M 157.55444566227678 137.5 L 157.43915734469616 138.67054193209677 L 157.0977228573445 139.79610059419053 L 156.54326333609205 140.83342139811762 L 155.79708634939607 141.7426406871193 L 154.8878670603944 142.48881767381528 L 153.8505462564673 143.04327719506773 L 152.72498759437354 143.38471168241938 L 151.55444566227678 143.5 L 150.38390373018 143.38471168241938 L 149.25834506808624 143.04327719506773 L 148.22102426415915 142.48881767381528 L 147.3118049751575 141.7426406871193 L 146.5656279884615 140.83342139811762 L 146.01116846720905 139.79610059419053 L 145.6697339798574 138.67054193209677 L 145.55444566227678 137.5 L 145.6697339798574 136.32945806790323 L 146.01116846720905 135.20389940580947 L 146.5656279884615 134.16657860188238 L 147.3118049751575 133.2573593128807 L 148.22102426415915 132.51118232618472 L 149.25834506808624 131.95672280493227 L 150.38390373018 131.61528831758062 L 151.55444566227678 131.5 L 152.72498759437354 131.61528831758062 L 153.8505462564673 131.95672280493227 L 154.8878670603944 132.51118232618472 L 155.79708634939607 133.2573593128807 L 156.54326333609205 134.16657860188238 L 157.0977228573445 135.20389940580947 L 157.43915734469616 136.32945806790323 Z" fill="#2683d9" stroke="#c93" stroke-width="1" />
  <path d="M 222.50635094610968 125 L 222.39106262852906 126.17054193209677 L 222.0496281411774 127.29610059419053 L 221.49516861992495 128.33342139811762 L 220.74899163322897 129.2426406871193 L 219.8397723442273 129.98881767381528 L 218.8024515403002 130.54327719506773 L 217.67689287820644 130.88471168241938 L 216.50635094610968 131 L 215.3358090140129 130.88471168241938 L 214.21025035191914 130.54327719506773 L 213.17292954799206 129.98881767381528 L 212.2637102589904 129.2426406871193 L 211.5175332722944 128.33342139811762 L 210.96307375104195 127.29610059419053 L 210.6216392636903 126.17054193209677 L 210.50635094610968 125 L 210.6216392636903 123.82945806790323 L 210.96307375104195 122.70389940580947 L 211.5175332722944 121.66657860188239 L 212.2637102589904 120.75735931288071 L 213.17292954799206 120.01118232618472 L 214.21025035191914 119.45672280493228 L 215.3358090140129 119.11528831758062 L 216.50635094610968 119 L 217.67689287820644 119.11528831758062 L 218.8024515403002 119.45672280493228 L 219.8397723442273 120.01118232618472 L 220.74899163322897 120.75735931288071 L 221.49516861992495 121.66657860188239 L 222.0496281411774 122.70389940580945 L 222.39106262852906 123.82945806790323 Z" fill="#264ad9" stroke="#c93" stroke-width="1" />
  <path d="M 200.8557158514987 137.5 L 200.74042753391808 138.67054193209677 L 200.39899304656643 139.79610059419053 L 199.84453352531398 140.83342139811762 L 199.098356538618 141.7426406871193 L 198.18913724961632 142.48881767381528 L 197.15181644568924 143.04327719506773 L 196.02625778359547 143.38471168241938 L 194.8557158514987 143.5 L 193.68517391940193 143.38471168241938 L 192.55961525730817 143.04327719506773 L 191.52229445338108 142.48881767381528 L 190.6130751643794 141.7426406871193 L 189.86689817768342 140.83342139811762 L 189.31243865643097 139.79610059419053 L 188.97100416907932 138.67054193209677 L 188.8557158514987 137.5 L 188.97100416907932 136.32945806790323 L 189.31243865643097 135.20389940580947 L 189.86689817768342 134.16657860188238 L 190.6130751643794 133.2573593128807 L 191.52229445338108 132.51118232618472 L 192.55961525730817 131.95672280493227 L 193.68517391940193 131.61528831758062 L 194.8557158514987 131.5 L 196.02625778359547 131.61528831758062 L 197.15181644568924 131.95672280493227 L 198.18913724961632 132.51118232618472 L 199.098356538618 133.2573593128807 L 199.84453352531398 134.16657860188238 L 200.39899304656643 135.20389940580947 L 200.74042753391808 136.32945806790323 Z" fill="#3c26d9" stroke="#c93" stroke-width="1" />
  <path d="M 222.50635094610968 100.00000000000001 L 222.39106262852906 101.17054193209678 L 222.0496281411774 102.29610059419055 L 221.49516861992495 103.33342139811762 L 220.74899163322897 104.2426406871193 L 219.8397723442273 104.98881767381529 L 218.8024515403002 105.54327719506773 L 217.67689287820644 105.8847116824194 L 216.50635094610968 106.00000000000001 L 215.3358090140129 105.8847116824194 L 214.21025035191914 105.54327719506773 L 213.17292954799206 104.98881767381529 L 212.2637102589904 104.2426406871193 L 211.5175332722944 103.33342139811762 L 210.96307375104195 102.29610059419055 L 210.6216392636903 101.17054193209678 L 210.50635094610968 100.00000000000001 L 210.6216392636903 98.82945806790325 L 210.96307375104195 97.70389940580948 L 211.5175332722944 96.6665786018824 L 212.2637102589904 95.75735931288072 L 213.17292954799206 95.01118232618474 L 214.21025035191914 94.4567228049323 L 215.3358090140129 94.11528831758064 L 216.50635094610968 94.00000000000001 L 217.67689287820644 94.11528831758064 L 218.8024515403002 94.4567228049323 L 219.8397723442273 95.01118232618474 L 220.74899163322897 95.75735931288072 L 221.49516861992495 96.6665786018824 L 222.0496281411774 97.70389940580947 L 222.39106262852906 98.82945806790325 Z" fill="#7526d9" stroke="#c93" stroke-width="1" />
</svg>