<svg width="160" height="90" viewBox="159.48717948717947 -11.538461538461538 41.02564102564103 23.076923076923077" xmlns="http://www.w3.org/2000/svg">
  <path d="M 10 0 L 9.807852804032304 1.9509032201612824 L 9.238795325112868 3.826834323650898 L 8.314696123025453 5.555702330196022 L 7.0710678118654755 7.071067811865475 L 5.555702330196023 8.314696123025453 L 3.8268343236508984 9.238795325112868 L 1.9509032201612833 9.807852804032304 L 6.123233995736766e-16 10 L -1.950903220161282 9.807852804032304 L -3.826834323650897 9.238795325112868 L -5.55570233019602 8.314696123025454 L -7.071067811865475 7.0710678118654755 L -8.314696123025453 5.555702330196022 L -9.238795325112868 3.826834323650899 L -9.807852804032304 1.9509032201612861 L -10 1.2246467991473533e-15 L -9.807852804032304 -1.9509032201612837 L -9.238795325112868 -3.8268343236508966 L -8.314696123025454 -5.55570233019602 L -7.071067811865477 -7.071067811865475 L -5.555702330196022 -8.314696123025453 L -3.8268343236509033 -9.238795325112864 L -1.9509032201612866 -9.807852804032303 L -1.8369701987210296e-15 -10 L 1.950903220161283 -9.807852804032304 L 3.8268343236509 -9.238795325112866 L 5.555702330196018 -8.314696123025454 L 7.071067811865474 -7.071067811865477 L 8.314696123025453 -5.555702330196022 L 9.238795325112864 -3.826834323650904 L 9.807852804032303 -1.9509032201612873 Z" fill="#8826d9" stroke="#8826d9" stroke-width="1" />
  <path d="M 40 0 L 39.80785280403231 1.9509032201612824 L 39.23879532511287 3.826834323650898 L 38.314696123025456 5.555702330196022 L 37.071067811865476 7.071067811865475 L 35.55570233019602 8.314696123025453 L 33.8268343236509 9.238795325112868 L 31.950903220161283 9.807852804032304 L 30 10 L 28.049096779838717 9.807852804032304 L 26.173165676349104 9.238795325112868 L 24.44429766980398 8.314696123025454 L 22.928932188134524 7.0710678118654755 L 21.685303876974547 5.555702330196022 L 20.761204674887132 3.826834323650899 L 20.192147195967696 1.9509032201612861 L 20 1.2246467991473533e-15 L 20.192147195967696 -1.9509032201612837 L 20.761204674887132 -3.8268343236508966 L 21.685303876974544 -5.55570233019602 L 22.928932188134524 -7.071067811865475 L 24.44429766980398 -8.314696123025453 L 26.173165676349097 -9.238795325112864 L 28.049096779838713 -9.807852804032303 L 29.999999999999996 -10 L 31.950903220161283 -9.807852804032304 L 33.8268343236509 -9.238795325112866 L 35.55570233019602 -8.314696123025454 L 37.071067811865476 -7.071067811865477 L 38.314696123025456 -5.555702330196022 L 39.23879532511286 -3.826834323650904 L 39.8078528040323 -1.9509032201612873 Z" fill="#a026d9" stroke="#a026d9" stroke-width="1" />
  <path d="M 70 0 L 69.80785280403231 1.9509032201612824 L 69.23879532511287 3.826834323650898 L 68.31469612302546 5.555702330196022 L 67.07106781186548 7.071067811865475 L 65.55570233019603 8.314696123025453 L 63.8268343236509 9.238795325112868 L 61.95090322016128 9.807852804032304 L 60 10 L 58.04909677983872 9.807852804032304 L 56.1731656763491 9.238795325112868 L 54.44429766980398 8.314696123025454 L 52.928932188134524 7.0710678118654755 L 51.685303876974544 5.555702330196022 L 50.76120467488713 3.826834323650899 L 50.19214719596769 1.9509032201612861 L 50 1.2246467991473533e-15 L 50.19214719596769 -1.9509032201612837 L 50.76120467488713 -3.8268343236508966 L 51.685303876974544 -5.55570233019602 L 52.928932188134524 -7.071067811865475 L 54.44429766980398 -8.314696123025453 L 56.1731656763491 -9.238795325112864 L 58.04909677983871 -9.807852804032303 L 60 -10 L 61.95090322016128 -9.807852804032304 L 63.8268343236509 -9.238795325112866 L 65.55570233019601 -8.314696123025454 L 67.07106781186548 -7.071067811865477 L 68.31469612302546 -5.555702330196022 L 69.23879532511286 -3.826834323650904 L 69.80785280403231 -1.9509032201612873 Z" fill="#b826d9" stroke="#b826d9" stroke-width="1" />
  <path d="M 100 0 L 99.80785280403231 1.9509032201612824 L 99.23879532511287 3.826834323650898 L 98.31469612302546 5.555702330196022 L 97.07106781186548 7.071067811865475 L 95.55570233019603 8.314696123025453 L 93.8268343236509 9.238795325112868 L 91.95090322016128 9.807852804032304 L 90 10 L 88.04909677983872 9.807852804032304 L 86.1731656763491 9.238795325112868 L 84.44429766980397 8.314696123025454 L 82.92893218813452 7.0710678118654755 L 81.68530387697454 5.555702330196022 L 80.76120467488713 3.826834323650899 L 80.19214719596769 1.9509032201612861 L 80 1.2246467991473533e-15 L 80.19214719596769 -1.9509032201612837 L 80.76120467488713 -3.8268343236508966 L 81.68530387697454 -5.55570233019602 L 82.92893218813452 -7.071067811865475 L 84.44429766980397 -8.314696123025453 L 86.1731656763491 -9.238795325112864 L 88.04909677983872 -9.807852804032303 L 90 -10 L 91.95090322016128 -9.807852804032304 L 93.8268343236509 -9.238795325112866 L 95.55570233019601 -8.314696123025454 L 97.07106781186548 -7.071067811865477 L 98.31469612302546 -5.555702330196022 L 99.23879532511286 -3.826834323650904 L 99.80785280403231 -1.9509032201612873 Z" fill="#d026d9" stroke="#d026d9" stroke-width="1" />
  <path d="M 130 0 L 129.8078528040323 1.9509032201612824 L 129.23879532511287 3.826834323650898 L 128.31469612302544 5.555702330196022 L 127.07106781186548 7.071067811865475 L 125.55570233019603 8.314696123025453 L 123.8268343236509 9.238795325112868 L 121.95090322016128 9.807852804032304 L 120 10 L 118.04909677983872 9.807852804032304 L 116.1731656763491 9.238795325112868 L 114.44429766980397 8.314696123025454 L 112.92893218813452 7.0710678118654755 L 111.68530387697454 5.555702330196022 L 110.76120467488713 3.826834323650899 L 110.19214719596769 1.9509032201612861 L 110 1.2246467991473533e-15 L 110.19214719596769 -1.9509032201612837 L 110.76120467488713 -3.8268343236508966 L 111.68530387697454 -5.55570233019602 L 112.92893218813452 -7.071067811865475 L 114.44429766980397 -8.314696123025453 L 116.1731656763491 -9.238795325112864 L 118.04909677983872 -9.807852804032303 L 120 -10 L 121.95090322016128 -9.807852804032304 L 123.8268343236509 -9.238795325112866 L 125.55570233019601 -8.314696123025454 L 127.07106781186548 -7.071067811865477 L 128.31469612302544 -5.555702330196022 L 129.23879532511287 -3.826834323650904 L 129.8078528040323 -1.9509032201612873 Z" fill="#266ed9" stroke="#266ed9" stroke-width="1" />
  <path d="M 160 0 L 159.8078528040323 1.9509032201612824 L 159.23879532511287 3.826834323650898 L 158.31469612302544 5.555702330196022 L 157.07106781186548 7.071067811865475 L 155.55570233019603 8.314696123025453 L 153.8268343236509 9.238795325112868 L 151.95090322016128 9.807852804032304 L 150 10 L 148.04909677983872 9.807852804032304 L 146.1731656763491 9.238795325112868 L 144.44429766980397 8.314696123025454 L 142.92893218813452 7.0710678118654755 L 141.68530387697456 5.555702330196022 L 140.76120467488713 3.826834323650899 L 140.1921471959677 1.9509032201612861 L 140 1.2246467991473533e-15 L 140.1921471959677 -1.9509032201612837 L 140.76120467488713 -3.8268343236508966 L 141.68530387697456 -5.55570233019602 L 142.92893218813452 -7.071067811865475 L 144.44429766980397 -8.314696123025453 L 146.1731656763491 -9.238795325112864 L 148.04909677983872 -9.807852804032303 L 150 -10 L 151.95090322016128 -9.807852804032304 L 153.8268343236509 -9.238795325112866 L 155.55570233019603 -8.314696123025454 L 157.07106781186548 -7.071067811865477 L 158.31469612302544 -5.555702330196022 L 159.23879532511287 -3.826834323650904 L 159.8078528040323 -1.9509032201612873 Z" fill="#263ed9" stroke="#263ed9" stroke-width="1" />
  <path d="M 190 0 L 189.8078528040323 1.9509032201612824 L 189.23879532511287 3.826834323650898 L 188.31469612302544 5.555702330196022 L 187.07106781186548 7.071067811865475 L 185.55570233019603 8.314696123025453 L 183.8268343236509 9.238795325112868 L 181.95090322016128 9.807852804032304 L 180 10 L 178.04909677983872 9.807852804032304 L 176.1731656763491 9.238795325112868 L 174.44429766980397 8.314696123025454 L 172.92893218813452 7.0710678118654755 L 171.68530387697456 5.555702330196022 L 170.76120467488713 3.826834323650899 L 170.1921471959677 1.9509032201612861 L 170 1.2246467991473533e-15 L 170.1921471959677 -1.9509032201612837 L 170.76120467488713 -3.8268343236508966 L 171.68530387697456 -5.55570233019602 L 172.92893218813452 -7.071067811865475 L 174.44429766980397 -8.314696123025453 L 176.1731656763491 -9.238795325112864 L 178.04909677983872 -9.807852804032303 L 180 -10 L 181.95090322016128 -9.807852804032304 L 183.8268343236509 -9.238795325112866 L 185.55570233019603 -8.314696123025454 L 187.07106781186548 -7.071067811865477 L 188.31469612302544 -5.555702330196022 L 189.23879532511287 -3.826834323650904 L 189.8078528040323 -1.9509032201612873 Z" fill="#3e26d9" stroke="#3e26d9" stroke-width="1" />
  <path d="M 220 0 L 219.8078528040323 1.9509032201612824 L 219.23879532511287 3.826834323650898 L 218.31469612302544 5.555702330196022 L 217.07106781186548 7.071067811865475 L 215.55570233019603 8.314696123025453 L 213.8268343236509 9.238795325112868 L 211.95090322016128 9.807852804032304 L 210 10 L 208.04909677983872 9.807852804032304 L 206.1731656763491 9.238795325112868 L 204.44429766980397 8.314696123025454 L 202.92893218813452 7.0710678118654755 L 201.68530387697456 5.555702330196022 L 200.76120467488713 3.826834323650899 L 200.1921471959677 1.9509032201612861 L 200 1.2246467991473533e-15 L 200.1921471959677 -1.9509032201612837 L 200.76120467488713 -3.8268343236508966 L 201.68530387697456 -5.55570233019602 L 202.92893218813452 -7.071067811865475 L 204.44429766980397 -8.314696123025453 L 206.1731656763491 -9.238795325112864 L 208.04909677983872 -9.807852804032303 L 210 -10 L 211.95090322016128 -9.807852804032304 L 213.8268343236509 -9.238795325112866 L 215.55570233019603 -8.314696123025454 L 217.07106781186548 -7.071067811865477 L 218.31469612302544 -5.555702330196022 L 219.23879532511287 -3.826834323650904 L 219.8078528040323 -1.9509032201612873 Z" fill="#6e26d9" stroke="#6e26d9" stroke-width="1" />
  <path d="M 250 0 L 249.8078528040323 1.9509032201612824 L 249.23879532511287 3.826834323650898 L 248.31469612302544 5.555702330196022 L 247.07106781186548 7.071067811865475 L 245.55570233019603 8.314696123025453 L 243.8268343236509 9.238795325112868 L 241.95090322016128 9.807852804032304 L 240 10 L 238.04909677983872 9.807852804032304 L 236.1731656763491 9.238795325112868 L 234.44429766980397 8.314696123025454 L 232.92893218813452 7.0710678118654755 L 231.68530387697456 5.555702330196022 L 230.76120467488713 3.826834323650899 L 230.1921471959677 1.9509032201612861 L 230 1.2246467991473533e-15 L 230.1921471959677 -1.9509032201612837 L 230.76120467488713 -3.8268343236508966 L 231.68530387697456 -5.55570233019602 L 232.92893218813452 -7.071067811865475 L 234.44429766980397 -8.314696123025453 L 236.1731656763491 -9.238795325112864 L 238.04909677983872 -9.807852804032303 L 240 -10 L 241.95090322016128 -9.807852804032304 L 243.8268343236509 -9.238795325112866 L 245.55570233019603 -8.314696123025454 L 247.07106781186548 -7.071067811865477 L 248.31469612302544 -5.555702330196022 L 249.23879532511287 -3.826834323650904 L 249.8078528040323 -1.9509032201612873 Z" fill="#6ed926" stroke="#6ed926" stroke-width="1" />
  <path d="M 280 0 L 279.8078528040323 1.9509032201612824 L 279.23879532511285 3.826834323650898 L 278.31469612302544 5.555702330196022 L 277.0710678118655 7.071067811865475 L 275.555702330196 8.314696123025453 L 273.82683432365087 9.238795325112868 L 271.9509032201613 9.807852804032304 L 270 10 L 268.0490967798387 9.807852804032304 L 266.17316567634913 9.238795325112868 L 264.444297669804 8.314696123025454 L 262.9289321881345 7.0710678118654755 L 261.68530387697456 5.555702330196022 L 260.76120467488715 3.826834323650899 L 260.1921471959677 1.9509032201612861 L 260 1.2246467991473533e-15 L 260.1921471959677 -1.9509032201612837 L 260.76120467488715 -3.8268343236508966 L 261.68530387697456 -5.55570233019602 L 262.9289321881345 -7.071067811865475 L 264.444297669804 -8.314696123025453 L 266.1731656763491 -9.238795325112864 L 268.0490967798387 -9.807852804032303 L 270 -10 L 271.9509032201613 -9.807852804032304 L 273.8268343236509 -9.238795325112866 L 275.555702330196 -8.314696123025454 L 277.0710678118655 -7.071067811865477 L 278.31469612302544 -5.555702330196022 L 279.23879532511285 -3.826834323650904 L 279.8078528040323 -1.9509032201612873 Z" fill="#3ed926" stroke="#3ed926" stroke-width="1" />
  <path d="M 310 0 L 309.8078528040323 1.9509032201612824 L 309.23879532511285 3.826834323650898 L 308.31469612302544 5.555702330196022 L 307.0710678118655 7.071067811865475 L 305.555702330196 8.314696123025453 L 303.82683432365087 9.238795325112868 L 301.9509032201613 9.807852804032304 L 300 10 L 298.0490967798387 9.807852804032304 L 296.17316567634913 9.238795325112868 L 294.444297669804 8.314696123025454 L 292.9289321881345 7.0710678118654755 L 291.68530387697456 5.555702330196022 L 290.76120467488715 3.826834323650899 L 290.1921471959677 1.9509032201612861 L 290 1.2246467991473533e-15 L 290.1921471959677 -1.9509032201612837 L 290.76120467488715 -3.8268343236508966 L 291.68530387697456 -5.55570233019602 L 292.9289321881345 -7.071067811865475 L 294.444297669804 -8.314696123025453 L 296.1731656763491 -9.238795325112864 L 298.0490967798387 -9.807852804032303 L 300 -10 L 301.9509032201613 -9.807852804032304 L 303.8268343236509 -9.238795325112866 L 305.555702330196 -8.314696123025454 L 307.0710678118655 -7.071067811865477 L 308.31469612302544 -5.555702330196022 L 309.23879532511285 -3.826834323650904 L 309.8078528040323 -1.9509032201612873 Z" fill="#26d93e" stroke="#26d93e" stroke-width="1" />
  <path d="M 340 0 L 339.8078528040323 1.9509032201612824 L 339.23879532511285 3.826834323650898 L 338.31469612302544 5.555702330196022 L 337.0710678118655 7.071067811865475 L 335.555702330196 8.314696123025453 L 333.82683432365087 9.238795325112868 L 331.9509032201613 9.807852804032304 L 330 10 L 328.0490967798387 9.807852804032304 L 326.17316567634913 9.238795325112868 L 324.444297669804 8.314696123025454 L 322.9289321881345 7.0710678118654755 L 321.68530387697456 5.555702330196022 L 320.76120467488715 3.826834323650899 L 320.1921471959677 1.9509032201612861 L 320 1.2246467991473533e-15 L 320.1921471959677 -1.9509032201612837 L 320.76120467488715 -3.8268343236508966 L 321.68530387697456 -5.55570233019602 L 322.9289321881345 -7.071067811865475 L 324.444297669804 -8.314696123025453 L 326.1731656763491 -9.238795325112864 L 328.0490967798387 -9.807852804032303 L 330 -10 L 331.9509032201613 -9.807852804032304 L 333.8268343236509 -9.238795325112866 L 335.555702330196 -8.314696123025454 L 337.0710678118655 -7.071067811865477 L 338.31469612302544 -5.555702330196022 L 339.23879532511285 -3.826834323650904 L 339.8078528040323 -1.9509032201612873 Z" fill="#26d96e" stroke="#26d96e" stroke-width="1" />
  <path d="M 370 0 L 369.8078528040323 1.9509032201612824 L 369.23879532511285 3.826834323650898 L 368.31469612302544 5.555702330196022 L 367.0710678118655 7.071067811865475 L 365.555702330196 8.314696123025453 L 363.82683432365087 9.238795325112868 L 361.9509032201613 9.807852804032304 L 360 10 L 358.0490967798387 9.807852804032304 L 356.17316567634913 9.238795325112868 L 354.444297669804 8.314696123025454 L 352.9289321881345 7.0710678118654755 L 351.68530387697456 5.555702330196022 L 350.76120467488715 3.826834323650899 L 350.1921471959677 1.9509032201612861 L 350 1.2246467991473533e-15 L 350.1921471959677 -1.9509032201612837 L 350.76120467488715 -3.8268343236508966 L 351.68530387697456 -5.55570233019602 L 352.9289321881345 -7.071067811865475 L 354.444297669804 -8.314696123025453 L 356.1731656763491 -9.238795325112864 L 358.0490967798387 -9.807852804032303 L 360 -10 L 361.9509032201613 -9.807852804032304 L 363.8268343236509 -9.238795325112866 L 365.555702330196 -8.314696123025454 L 367.0710678118655 -7.071067811865477 L 368.31469612302544 -5.555702330196022 L 369.23879532511285 -3.826834323650904 L 369.8078528040323 -1.9509032201612873 Z" fill="#8826d9" stroke="#8826d9" stroke-width="1" />
  <path d="M 10 0 L 9.807852804032304 1.9509032201612824 L 9.238795325112868 3.826834323650898 L 8.314696123025453 5.555702330196022 L 7.0710678118654755 7.071067811865475 L 5.555702330196023 8.314696123025453 L 3.8268343236508984 9.238795325112868 L 1.9509032201612833 9.807852804032304 L 6.123233995736766e-16 10 L -1.950903220161282 9.807852804032304 L -3.826834323650897 9.238795325112868 L -5.55570233019602 8.314696123025454 L -7.071067811865475 7.0710678118654755 L -8.314696123025453 5.555702330196022 L -9.238795325112868 3.826834323650899 L -9.807852804032304 1.9509032201612861 L -10 1.2246467991473533e-15 L -9.807852804032304 -1.9509032201612837 L -9.238795325112868 -3.8268343236508966 L -8.314696123025454 -5.55570233019602 L -7.071067811865477 -7.071067811865475 L -5.555702330196022 -8.314696123025453 L -3.8268343236509033 -9.238795325112864 L -1.9509032201612866 -9.807852804032303 L -1.8369701987210296e-15 -10 L 1.950903220161283 -9.807852804032304 L 3.8268343236509 -9.238795325112866 L 5.555702330196018 -8.314696123025454 L 7.071067811865474 -7.071067811865477 L 8.314696123025453 -5.555702330196022 L 9.238795325112864 -3.826834323650904 L 9.807852804032303 -1.9509032201612873 Z" fill="#8826d9" stroke="#8826d9" stroke-width="1" />
  <path d="M 40 0 L 39.80785280403231 1.9509032201612824 L 39.23879532511287 3.826834323650898 L 38.314696123025456 5.555702330196022 L 37.071067811865476 7.071067811865475 L 35.55570233019602 8.314696123025453 L 33.8268343236509 9.238795325112868 L 31.950903220161283 9.807852804032304 L 30 10 L 28.049096779838717 9.807852804032304 L 26.173165676349104 9.238795325112868 L 24.44429766980398 8.314696123025454 L 22.928932188134524 7.0710678118654755 L 21.685303876974547 5.555702330196022 L 20.761204674887132 3.826834323650899 L 20.192147195967696 1.9509032201612861 L 20 1.2246467991473533e-15 L 20.192147195967696 -1.9509032201612837 L 20.761204674887132 -3.8268343236508966 L 21.685303876974544 -5.55570233019602 L 22.928932188134524 -7.071067811865475 L 24.44429766980398 -8.314696123025453 L 26.173165676349097 -9.238795325112864 L 28.049096779838713 -9.807852804032303 L 29.999999999999996 -10 L 31.950903220161283 -9.807852804032304 L 33.8268343236509 -9.238795325112866 L 35.55570233019602 -8.314696123025454 L 37.071067811865476 -7.071067811865477 L 38.314696123025456 -5.555702330196022 L 39.23879532511286 -3.826834323650904 L 39.8078528040323 -1.9509032201612873 Z" fill="#a026d9" stroke="#a026d9" stroke-width="1" />
  <path d="M 70 0 L 69.80785280403231 1.9509032201612824 L 69.23879532511287 3.826834323650898 L 68.31469612302546 5.555702330196022 L 67.07106781186548 7.071067811865475 L 65.55570233019603 8.314696123025453 L 63.8268343236509 9.238795325112868 L 61.95090322016128 9.807852804032304 L 60 10 L 58.04909677983872 9.807852804032304 L 56.1731656763491 9.238795325112868 L 54.44429766980398 8.314696123025454 L 52.928932188134524 7.0710678118654755 L 51.685303876974544 5.555702330196022 L 50.76120467488713 3.826834323650899 L 50.19214719596769 1.9509032201612861 L 50 1.2246467991473533e-15 L 50.19214719596769 -1.9509032201612837 L 50.76120467488713 -3.8268343236508966 L 51.685303876974544 -5.55570233019602 L 52.928932188134524 -7.071067811865475 L 54.44429766980398 -8.314696123025453 L 56.1731656763491 -9.238795325112864 L 58.04909677983871 -9.807852804032303 L 60 -10 L 61.95090322016128 -9.807852804032304 L 63.8268343236509 -9.238795325112866 L 65.55570233019601 -8.314696123025454 L 67.07106781186548 -7.071067811865477 L 68.31469612302546 -5.555702330196022 L 69.23879532511286 -3.826834323650904 L 69.80785280403231 -1.9509032201612873 Z" fill="#b826d9" stroke="#b826d9" stroke-width="1" />
  <path d="M 100 0 L 99.80785280403231 1.9509032201612824 L 99.23879532511287 3.826834323650898 L 98.31469612302546 5.555702330196022 L 97.07106781186548 7.071067811865475 L 95.55570233019603 8.314696123025453 L 93.8268343236509 9.238795325112868 L 91.95090322016128 9.807852804032304 L 90 10 L 88.04909677983872 9.807852804032304 L 86.1731656763491 9.238795325112868 L 84.44429766980397 8.314696123025454 L 82.92893218813452 7.0710678118654755 L 81.68530387697454 5.555702330196022 L 80.76120467488713 3.826834323650899 L 80.19214719596769 1.9509032201612861 L 80 1.2246467991473533e-15 L 80.19214719596769 -1.9509032201612837 L 80.76120467488713 -3.8268343236508966 L 81.68530387697454 -5.55570233019602 L 82.92893218813452 -7.071067811865475 L 84.44429766980397 -8.314696123025453 L 86.1731656763491 -9.238795325112864 L 88.04909677983872 -9.807852804032303 L 90 -10 L 91.95090322016128 -9.807852804032304 L 93.8268343236509 -9.238795325112866 L 95.55570233019601 -8.314696123025454 L 97.07106781186548 -7.071067811865477 L 98.31469612302546 -5.555702330196022 L 99.23879532511286 -3.826834323650904 L 99.80785280403231 -1.9509032201612873 Z" fill="#d026d9" stroke="#d026d9" stroke-width="1" />
  <path d="M 130 0 L 129.8078528040323 1.9509032201612824 L 129.23879532511287 3.826834323650898 L 128.31469612302544 5.555702330196022 L 127.07106781186548 7.071067811865475 L 125.55570233019603 8.314696123025453 L 123.8268343236509 9.238795325112868 L 121.95090322016128 9.807852804032304 L 120 10 L 118.04909677983872 9.807852804032304 L 116.1731656763491 9.238795325112868 L 114.44429766980397 8.314696123025454 L 112.92893218813452 7.0710678118654755 L 111.68530387697454 5.555702330196022 L 110.76120467488713 3.826834323650899 L 110.19214719596769 1.9509032201612861 L 110 1.2246467991473533e-15 L 110.19214719596769 -1.9509032201612837 L 110.76120467488713 -3.8268343236508966 L 111.68530387697454 -5.55570233019602 L 112.92893218813452 -7.071067811865475 L 114.44429766980397 -8.314696123025453 L 116.1731656763491 -9.238795325112864 L 118.04909677983872 -9.807852804032303 L 120 -10 L 121.95090322016128 -9.807852804032304 L 123.8268343236509 -9.238795325112866 L 125.55570233019601 -8.314696123025454 L 127.07106781186548 -7.071067811865477 L 128.31469612302544 -5.555702330196022 L 129.23879532511287 -3.826834323650904 L 129.8078528040323 -1.9509032201612873 Z" fill="#266ed9" stroke="#266ed9" stroke-width="1" />
  <path d="M 160 0 L 159.8078528040323 1.9509032201612824 L 159.23879532511287 3.826834323650898 L 158.31469612302544 5.555702330196022 L 157.07106781186548 7.071067811865475 L 155.55570233019603 8.314696123025453 L 153.8268343236509 9.238795325112868 L 151.95090322016128 9.807852804032304 L 150 10 L 148.04909677983872 9.807852804032304 L 146.1731656763491 9.238795325112868 L 144.44429766980397 8.314696123025454 L 142.92893218813452 7.0710678118654755 L 141.68530387697456 5.555702330196022 L 140.76120467488713 3.826834323650899 L 140.1921471959677 1.9509032201612861 L 140 1.2246467991473533e-15 L 140.1921471959677 -1.9509032201612837 L 140.76120467488713 -3.8268343236508966 L 141.68530387697456 -5.55570233019602 L 142.92893218813452 -7.071067811865475 L 144.44429766980397 -8.314696123025453 L 146.1731656763491 -9.238795325112864 L 148.04909677983872 -9.807852804032303 L 150 -10 L 151.95090322016128 -9.807852804032304 L 153.8268343236509 -9.238795325112866 L 155.55570233019603 -8.314696123025454 L 157.07106781186548 -7.071067811865477 L 158.31469612302544 -5.555702330196022 L 159.23879532511287 -3.826834323650904 L 159.8078528040323 -1.9509032201612873 Z" fill="#263ed9" stroke="#263ed9" stroke-width="1" />
  <path d="M 190 0 L 189.8078528040323 1.9509032201612824 L 189.23879532511287 3.826834323650898 L 188.31469612302544 5.555702330196022 L 187.07106781186548 7.071067811865475 L 185.55570233019603 8.314696123025453 L 183.8268343236509 9.238795325112868 L 181.95090322016128 9.807852804032304 L 180 10 L 178.04909677983872 9.807852804032304 L 176.1731656763491 9.238795325112868 L 174.44429766980397 8.314696123025454 L 172.92893218813452 7.0710678118654755 L 171.68530387697456 5.555702330196022 L 170.76120467488713 3.826834323650899 L 170.1921471959677 1.9509032201612861 L 170 1.2246467991473533e-15 L 170.1921471959677 -1.9509032201612837 L 170.76120467488713 -3.8268343236508966 L 171.68530387697456 -5.55570233019602 L 172.92893218813452 -7.071067811865475 L 174.44429766980397 -8.314696123025453 L 176.1731656763491 -9.238795325112864 L 178.04909677983872 -9.807852804032303 L 180 -10 L 181.95090322016128 -9.807852804032304 L 183.8268343236509 -9.238795325112866 L 185.55570233019603 -8.314696123025454 L 187.07106781186548 -7.071067811865477 L 188.31469612302544 -5.555702330196022 L 189.23879532511287 -3.826834323650904 L 189.8078528040323 -1.9509032201612873 Z" fill="#3e26d9" stroke="#3e26d9" stroke-width="1" />
  <path d="M 220 0 L 219.8078528040323 1.9509032201612824 L 219.23879532511287 3.826834323650898 L 218.31469612302544 5.555702330196022 L 217.07106781186548 7.071067811865475 L 215.55570233019603 8.314696123025453 L 213.8268343236509 9.238795325112868 L 211.95090322016128 9.807852804032304 L 210 10 L 208.04909677983872 9.807852804032304 L 206.1731656763491 9.238795325112868 L 204.44429766980397 8.314696123025454 L 202.92893218813452 7.0710678118654755 L 201.68530387697456 5.555702330196022 L 200.76120467488713 3.826834323650899 L 200.1921471959677 1.9509032201612861 L 200 1.2246467991473533e-15 L 200.1921471959677 -1.9509032201612837 L 200.76120467488713 -3.8268343236508966 L 201.68530387697456 -5.55570233019602 L 202.92893218813452 -7.071067811865475 L 204.44429766980397 -8.314696123025453 L 206.1731656763491 -9.238795325112864 L 208.04909677983872 -9.807852804032303 L 210 -10 L 211.95090322016128 -9.807852804032304 L 213.8268343236509 -9.238795325112866 L 215.55570233019603 -8.314696123025454 L 217.07106781186548 -7.071067811865477 L 218.31469612302544 -5.555702330196022 L 219.23879532511287 -3.826834323650904 L 219.8078528040323 -1.9509032201612873 Z" fill="#6e26d9" stroke="#6e26d9" stroke-width="1" />
  <path d="M 250 0 L 249.8078528040323 1.9509032201612824 L 249.23879532511287 3.826834323650898 L 248.31469612302544 5.555702330196022 L 247.07106781186548 7.071067811865475 L 245.55570233019603 8.314696123025453 L 243.8268343236509 9.238795325112868 L 241.95090322016128 9.807852804032304 L 240 10 L 238.04909677983872 9.807852804032304 L 236.1731656763491 9.238795325112868 L 234.44429766980397 8.314696123025454 L 232.92893218813452 7.0710678118654755 L 231.68530387697456 5.555702330196022 L 230.76120467488713 3.826834323650899 L 230.1921471959677 1.9509032201612861 L 230 1.2246467991473533e-15 L 230.1921471959677 -1.9509032201612837 L 230.76120467488713 -3.8268343236508966 L 231.68530387697456 -5.55570233019602 L 232.92893218813452 -7.071067811865475 L 234.44429766980397 -8.314696123025453 L 236.1731656763491 -9.238795325112864 L 238.04909677983872 -9.807852804032303 L 240 -10 L 241.95090322016128 -9.807852804032304 L 243.8268343236509 -9.238795325112866 L 245.55570233019603 -8.314696123025454 L 247.07106781186548 -7.071067811865477 L 248.31469612302544 -5.555702330196022 L 249.23879532511287 -3.826834323650904 L 249.8078528040323 -1.9509032201612873 Z" fill="#6ed926" stroke="#6ed926" stroke-width="1" />
  <path d="M 280 0 L 279.8078528040323 1.9509032201612824 L 279.23879532511285 3.826834323650898 L 278.31469612302544 5.555702330196022 L 277.0710678118655 7.071067811865475 L 275.555702330196 8.314696123025453 L 273.82683432365087 9.238795325112868 L 271.9509032201613 9.807852804032304 L 270 10 L 268.0490967798387 9.807852804032304 L 266.17316567634913 9.238795325112868 L 264.444297669804 8.314696123025454 L 262.9289321881345 7.0710678118654755 L 261.68530387697456 5.555702330196022 L 260.76120467488715 3.826834323650899 L 260.1921471959677 1.9509032201612861 L 260 1.2246467991473533e-15 L 260.1921471959677 -1.9509032201612837 L 260.76120467488715 -3.8268343236508966 L 261.68530387697456 -5.55570233019602 L 262.9289321881345 -7.071067811865475 L 264.444297669804 -8.314696123025453 L 266.1731656763491 -9.238795325112864 L 268.0490967798387 -9.807852804032303 L 270 -10 L 271.9509032201613 -9.807852804032304 L 273.8268343236509 -9.238795325112866 L 275.555702330196 -8.314696123025454 L 277.0710678118655 -7.071067811865477 L 278.31469612302544 -5.555702330196022 L 279.23879532511285 -3.826834323650904 L 279.8078528040323 -1.9509032201612873 Z" fill="#3ed926" stroke="#3ed926" stroke-width="1" />
  <path d="M 310 0 L 309.8078528040323 1.9509032201612824 L 309.23879532511285 3.826834323650898 L 308.31469612302544 5.555702330196022 L 307.0710678118655 7.071067811865475 L 305.555702330196 8.314696123025453 L 303.82683432365087 9.238795325112868 L 301.9509032201613 9.807852804032304 L 300 10 L 298.0490967798387 9.807852804032304 L 296.17316567634913 9.238795325112868 L 294.444297669804 8.314696123025454 L 292.9289321881345 7.0710678118654755 L 291.68530387697456 5.555702330196022 L 290.76120467488715 3.826834323650899 L 290.1921471959677 1.9509032201612861 L 290 1.2246467991473533e-15 L 290.1921471959677 -1.9509032201612837 L 290.76120467488715 -3.8268343236508966 L 291.68530387697456 -5.55570233019602 L 292.9289321881345 -7.071067811865475 L 294.444297669804 -8.314696123025453 L 296.1731656763491 -9.238795325112864 L 298.0490967798387 -9.807852804032303 L 300 -10 L 301.9509032201613 -9.807852804032304 L 303.8268343236509 -9.238795325112866 L 305.555702330196 -8.314696123025454 L 307.0710678118655 -7.071067811865477 L 308.31469612302544 -5.555702330196022 L 309.23879532511285 -3.826834323650904 L 309.8078528040323 -1.9509032201612873 Z" fill="#26d93e" stroke="#26d93e" stroke-width="1" />
  <path d="M 340 0 L 339.8078528040323 1.9509032201612824 L 339.23879532511285 3.826834323650898 L 338.31469612302544 5.555702330196022 L 337.0710678118655 7.071067811865475 L 335.555702330196 8.314696123025453 L 333.82683432365087 9.238795325112868 L 331.9509032201613 9.807852804032304 L 330 10 L 328.0490967798387 9.807852804032304 L 326.17316567634913 9.238795325112868 L 324.444297669804 8.314696123025454 L 322.9289321881345 7.0710678118654755 L 321.68530387697456 5.555702330196022 L 320.76120467488715 3.826834323650899 L 320.1921471959677 1.9509032201612861 L 320 1.2246467991473533e-15 L 320.1921471959677 -1.9509032201612837 L 320.76120467488715 -3.8268343236508966 L 321.68530387697456 -5.55570233019602 L 322.9289321881345 -7.071067811865475 L 324.444297669804 -8.314696123025453 L 326.1731656763491 -9.238795325112864 L 328.0490967798387 -9.807852804032303 L 330 -10 L 331.9509032201613 -9.807852804032304 L 333.8268343236509 -9.238795325112866 L 335.555702330196 -8.314696123025454 L 337.0710678118655 -7.071067811865477 L 338.31469612302544 -5.555702330196022 L 339.23879532511285 -3.826834323650904 L 339.8078528040323 -1.9509032201612873 Z" fill="#26d96e" stroke="#26d96e" stroke-width="1" />
  <path d="M 370 0 L 369.8078528040323 1.9509032201612824 L 369.23879532511285 3.826834323650898 L 368.31469612302544 5.555702330196022 L 367.0710678118655 7.071067811865475 L 365.555702330196 8.314696123025453 L 363.82683432365087 9.238795325112868 L 361.9509032201613 9.807852804032304 L 360 10 L 358.0490967798387 9.807852804032304 L 356.17316567634913 9.238795325112868 L 354.444297669804 8.314696123025454 L 352.9289321881345 7.0710678118654755 L 351.68530387697456 5.555702330196022 L 350.76120467488715 3.826834323650899 L 350.1921471959677 1.9509032201612861 L 350 1.2246467991473533e-15 L 350.1921471959677 -1.9509032201612837 L 350.76120467488715 -3.8268343236508966 L 351.68530387697456 -5.55570233019602 L 352.9289321881345 -7.071067811865475 L 354.444297669804 -8.314696123025453 L 356.1731656763491 -9.238795325112864 L 358.0490967798387 -9.807852804032303 L 360 -10 L 361.9509032201613 -9.807852804032304 L 363.8268343236509 -9.238795325112866 L 365.555702330196 -8.314696123025454 L 367.0710678118655 -7.071067811865477 L 368.31469612302544 -5.555702330196022 L 369.23879532511285 -3.826834323650904 L 369.8078528040323 -1.9509032201612873 Z" fill="#8826d9" stroke="#8826d9" stroke-width="1" />
</svg>