<svg width="160" height="90" viewBox="108.97435897435898 -23.076923076923077 82.05128205128206 46.15384615384615" xmlns="http://www.w3.org/2000/svg">
  <path d="M 17.320508075688775 9.999999999999998 L 1.2246467991473533e-15 20 L -17.32050807568877 10.000000000000007 L -17.320508075688778 -9.999999999999995 L -3.673940397442059e-15 -20 L 17.320508075688778 -9.999999999999993 Z" fill="#bf4d40" stroke="#bf4d40" stroke-width="1" />
  <path d="M 67.32050807568878 9.999999999999998 L 50 20 L 32.67949192431123 10.000000000000007 L 32.67949192431122 -9.999999999999995 L 49.99999999999999 -20 L 67.32050807568878 -9.999999999999993 Z" fill="#bf6140" stroke="#bf6140" stroke-width="1" />
  <path d="M 117.32050807568878 9.999999999999998 L 100 20 L 82.67949192431124 10.000000000000007 L 82.67949192431122 -9.999999999999995 L 100 -20 L 117.32050807568878 -9.999999999999993 Z" fill="#bf7540" stroke="#bf7540" stroke-width="1" />
  <path d="M 167.32050807568876 9.999999999999998 L 150 20 L 132.67949192431124 10.000000000000007 L 132.6794919243112 -9.999999999999995 L 150 -20 L 167.3205080756888 -9.999999999999993 Z" fill="#bf8a40" stroke="#bf8a40" stroke-width="1" />
  <path d="M 217.32050807568876 9.999999999999998 L 200 20 L 182.67949192431124 10.000000000000007 L 182.6794919243112 -9.999999999999995 L 200 -20 L 217.3205080756888 -9.999999999999993 Z" fill="#bf9e40" stroke="#bf9e40" stroke-width="1" />
  <path d="M 267.3205080756888 9.999999999999998 L 250 20 L 232.67949192431124 10.000000000000007 L 232.6794919243112 -9.999999999999995 L 250 -20 L 267.3205080756888 -9.999999999999993 Z" fill="#bfb340" stroke="#bfb340" stroke-width="1" />
  <path d="M 317.3205080756888 9.999999999999998 L 300 20 L 282.6794919243112 10.000000000000007 L 282.6794919243112 -9.999999999999995 L 300 -20 L 317.3205080756888 -9.999999999999993 Z" fill="#bf4d40" stroke="#bf4d40" stroke-width="1" />
  <path d="M 17.320508075688775 9.999999999999998 L 1.2246467991473533e-15 20 L -17.32050807568877 10.000000000000007 L -17.320508075688778 -9.999999999999995 L -3.673940397442059e-15 -20 L 17.320508075688778 -9.999999999999993 Z" fill="#bf4d40" stroke="#bf4d40" stroke-width="1" />
  <path d="M 67.32050807568878 9.999999999999998 L 50 20 L 32.67949192431123 10.000000000000007 L 32.67949192431122 -9.999999999999995 L 49.99999999999999 -20 L 67.32050807568878 -9.999999999999993 Z" fill="#bf6140" stroke="#bf6140" stroke-width="1" />
  <path d="M 117.32050807568878 9.999999999999998 L 100 20 L 82.67949192431124 10.000000000000007 L 82.67949192431122 -9.999999999999995 L 100 -20 L 117.32050807568878 -9.999999999999993 Z" fill="#bf7540" stroke="#bf7540" stroke-width="1" />
  <path d="M 167.32050807568876 9.999999999999998 L 150 20 L 132.67949192431124 10.000000000000007 L 132.6794919243112 -9.999999999999995 L 150 -20 L 167.3205080756888 -9.999999999999993 Z" fill="#bf8a40" stroke="#bf8a40" stroke-width="1" />
  <path d="M 217.32050807568876 9.999999999999998 L 200 20 L 182.67949192431124 10.000000000000007 L 182.6794919243112 -9.999999999999995 L 200 -20 L 217.3205080756888 -9.999999999999993 Z" fill="#bf9e40" stroke="#bf9e40" stroke-width="1" />
  <path d="M 267.3205080756888 9.999999999999998 L 250 20 L 232.67949192431124 10.000000000000007 L 232.6794919243112 -9.999999999999995 L 250 -20 L 267.3205080756888 -9.999999999999993 Z" fill="#bfb340" stroke="#bfb340" stroke-width="1" />
  <path d="M 317.3205080756888 9.999999999999998 L 300 20 L 282.6794919243112 10.000000000000007 L 282.6794919243112 -9.999999999999995 L 300 -20 L 317.3205080756888 -9.999999999999993 Z" fill="#bf4d40" stroke="#bf4d40" stroke-width="1" />
</svg>