<svg width="160" height="90" viewBox="55.88498502253921 -96.38326572633378 240.73002995492146 135.41064184964333" xmlns="http://www.w3.org/2000/svg">
  <path d="M 7.499999999999999 -1.5959455978986625e-16 L 7.355889603024227 1.4631774151209618 L 6.92909649383465 2.870125742738173 L 6.2360220922690885 4.166776747647017 L 5.303300858899106 5.303300858899106 L 4.166776747647016 6.236022092269089 L 2.870125742738174 6.929096493834651 L 1.4631774151209622 7.355889603024228 L 1.2617564229271053e-16 7.5 L -1.4631774151209618 7.355889603024228 L -2.870125742738173 6.929096493834651 L -4.166776747647016 6.236022092269091 L -5.303300858899107 5.303300858899107 L -6.236022092269091 4.166776747647017 L -6.929096493834652 2.870125742738174 L -7.355889603024229 1.4631774151209647 L -7.500000000000001 7.588905395706487e-16 L -7.355889603024229 -1.4631774151209627 L -6.929096493834653 -2.870125742738173 L -6.236022092269092 -4.166776747647015 L -5.303300858899108 -5.303300858899106 L -4.166776747647018 -6.236022092269089 L -2.8701257427381774 -6.929096493834649 L -1.4631774151209653 -7.355889603024227 L -1.7107945564283192e-15 -7.5 L 1.4631774151209618 -7.355889603024228 L 2.870125742738175 -6.92909649383465 L 4.166776747647013 -6.236022092269091 L 5.303300858899104 -5.3033008588991075 L 6.2360220922690885 -4.166776747647017 L 6.929096493834648 -2.8701257427381783 L 7.3558896030242265 -1.4631774151209653 Z" fill="#d99126" stroke="#d99126" stroke-width="1" />
  <path d="M 45 0 L 44.711779206048455 2.9263548302419236 L 43.8581929876693 5.740251485476347 L 42.47204418453818 8.333553495294034 L 40.60660171779821 10.606601717798211 L 38.333553495294034 12.472044184538179 L 35.74025148547635 13.858192987669302 L 32.92635483024193 14.711779206048456 L 30 15 L 27.073645169758077 14.711779206048456 L 24.259748514523654 13.858192987669302 L 21.66644650470597 12.472044184538182 L 19.393398282201787 10.606601717798213 L 17.52795581546182 8.333553495294034 L 16.1418070123307 5.740251485476349 L 15.288220793951544 2.9263548302419293 L 15 1.83697019872103e-15 L 15.288220793951544 -2.9263548302419253 L 16.141807012330695 -5.740251485476345 L 17.527955815461816 -8.33355349529403 L 19.393398282201787 -10.606601717798211 L 21.666446504705966 -12.472044184538179 L 24.259748514523643 -13.858192987669298 L 27.07364516975807 -14.711779206048455 L 29.999999999999996 -15 L 32.92635483024193 -14.711779206048456 L 35.74025148547635 -13.8581929876693 L 38.33355349529403 -12.472044184538182 L 40.60660171779821 -10.606601717798215 L 42.47204418453818 -8.333553495294034 L 43.8581929876693 -5.740251485476356 L 44.711779206048455 -2.9263548302419307 Z" fill="#d9ca26" stroke="#d9ca26" stroke-width="1" />
  <path d="M 82.5 1.5959455978986625e-16 L 82.0676688090727 4.389532245362886 L 80.78728948150395 8.61037722821452 L 78.70806627680727 12.50033024294105 L 75.90990257669732 15.909902576697316 L 72.50033024294106 18.70806627680727 L 68.61037722821453 20.787289481503954 L 64.38953224536289 22.067668809072686 L 60 22.5 L 55.61046775463712 22.067668809072686 L 51.389622771785476 20.787289481503954 L 47.49966975705896 18.708066276807273 L 44.09009742330268 15.90990257669732 L 41.291933723192734 12.50033024294105 L 39.21271051849605 8.610377228214523 L 37.932331190927314 4.389532245362894 L 37.5 2.915049857871411e-15 L 37.932331190927314 -4.389532245362887 L 39.21271051849604 -8.610377228214517 L 41.29193372319273 -12.500330242941045 L 44.09009742330268 -15.909902576697316 L 47.49966975705895 -18.70806627680727 L 51.38962277178547 -20.787289481503947 L 55.610467754637114 -22.067668809072682 L 60 -22.5 L 64.38953224536289 -22.067668809072686 L 68.61037722821453 -20.78728948150395 L 72.50033024294103 -18.708066276807273 L 75.90990257669732 -15.909902576697323 L 78.70806627680727 -12.50033024294105 L 80.78728948150395 -8.610377228214533 L 82.06766880907267 -4.389532245362895 Z" fill="#aed926" stroke="#aed926" stroke-width="1" />
  <path d="M 120 3.191891195797325e-16 L 119.42355841209692 5.852709660483848 L 117.7163859753386 11.480502970952694 L 114.94408836907635 16.667106990588067 L 111.21320343559643 21.213203435596423 L 106.66710699058808 24.944088369076358 L 101.4805029709527 27.716385975338603 L 95.85270966048384 29.423558412096913 L 90 30 L 84.14729033951616 29.423558412096913 L 78.5194970290473 27.716385975338603 L 73.33289300941195 24.944088369076365 L 68.78679656440357 21.213203435596427 L 65.05591163092365 16.667106990588067 L 62.283614024661404 11.480502970952697 L 60.576441587903076 5.8527096604838595 L 60 3.9931295170217925e-15 L 60.576441587903076 -5.85270966048385 L 62.283614024661404 -11.48050297095269 L 65.05591163092365 -16.66710699058806 L 68.78679656440357 -21.213203435596423 L 73.33289300941192 -24.944088369076358 L 78.5194970290473 -27.716385975338596 L 84.14729033951613 -29.42355841209691 L 90 -30 L 95.85270966048384 -29.423558412096913 L 101.4805029709527 -27.7163859753386 L 106.66710699058805 -24.944088369076365 L 111.21320343559643 -21.21320343559643 L 114.94408836907635 -16.667106990588067 L 117.7163859753386 -11.480502970952712 L 119.4235584120969 -5.85270966048386 Z" fill="#75d926" stroke="#75d926" stroke-width="1" />
  <path d="M 127.5 -1.5959455978986625e-16 L 127.35588960302422 1.4631774151209618 L 126.92909649383465 2.870125742738173 L 126.2360220922691 4.166776747647017 L 125.3033008588991 5.303300858899106 L 124.16677674764702 6.236022092269089 L 122.87012574273817 6.929096493834651 L 121.46317741512095 7.355889603024228 L 120 7.5 L 118.53682258487905 7.355889603024228 L 117.12987425726183 6.929096493834651 L 115.83322325235298 6.236022092269091 L 114.6966991411009 5.303300858899107 L 113.76397790773092 4.166776747647017 L 113.07090350616535 2.870125742738174 L 112.64411039697578 1.4631774151209647 L 112.5 7.588905395706487e-16 L 112.64411039697578 -1.4631774151209627 L 113.07090350616535 -2.870125742738173 L 113.76397790773092 -4.166776747647015 L 114.6966991411009 -5.303300858899106 L 115.83322325235298 -6.236022092269089 L 117.12987425726183 -6.929096493834649 L 118.53682258487903 -7.355889603024227 L 120 -7.5 L 121.46317741512095 -7.355889603024228 L 122.87012574273817 -6.92909649383465 L 124.16677674764702 -6.236022092269091 L 125.3033008588991 -5.3033008588991075 L 126.2360220922691 -4.166776747647017 L 126.92909649383465 -2.8701257427381783 L 127.35588960302422 -1.4631774151209653 Z" fill="#3cd926" stroke="#3cd926" stroke-width="1" />
  <path d="M 165 0 L 164.71177920604845 2.9263548302419236 L 163.8581929876693 5.740251485476347 L 162.4720441845382 8.333553495294034 L 160.6066017177982 10.606601717798211 L 158.33355349529404 12.472044184538179 L 155.74025148547634 13.858192987669302 L 152.92635483024193 14.711779206048456 L 150 15 L 147.07364516975807 14.711779206048456 L 144.25974851452366 13.858192987669302 L 141.66644650470596 12.472044184538182 L 139.3933982822018 10.606601717798213 L 137.5279558154618 8.333553495294034 L 136.1418070123307 5.740251485476349 L 135.28822079395155 2.9263548302419293 L 135 1.83697019872103e-15 L 135.28822079395155 -2.9263548302419253 L 136.1418070123307 -5.740251485476345 L 137.5279558154618 -8.33355349529403 L 139.3933982822018 -10.606601717798211 L 141.66644650470596 -12.472044184538179 L 144.25974851452364 -13.858192987669298 L 147.07364516975807 -14.711779206048455 L 150 -15 L 152.92635483024193 -14.711779206048456 L 155.74025148547636 -13.8581929876693 L 158.33355349529404 -12.472044184538182 L 160.6066017177982 -10.606601717798215 L 162.4720441845382 -8.333553495294034 L 163.8581929876693 -5.740251485476356 L 164.71177920604845 -2.9263548302419307 Z" fill="#26d94a" stroke="#26d94a" stroke-width="1" />
  <path d="M 202.5 1.5959455978986625e-16 L 202.06766880907267 4.389532245362886 L 200.78728948150393 8.61037722821452 L 198.7080662768073 12.50033024294105 L 195.90990257669733 15.909902576697316 L 192.50033024294106 18.70806627680727 L 188.6103772282145 20.787289481503954 L 184.3895322453629 22.067668809072686 L 180 22.5 L 175.6104677546371 22.067668809072686 L 171.3896227717855 20.787289481503954 L 167.49966975705894 18.708066276807273 L 164.09009742330267 15.90990257669732 L 161.2919337231927 12.50033024294105 L 159.21271051849607 8.610377228214523 L 157.93233119092733 4.389532245362894 L 157.5 2.915049857871411e-15 L 157.93233119092733 -4.389532245362887 L 159.21271051849607 -8.610377228214517 L 161.2919337231927 -12.500330242941045 L 164.09009742330267 -15.909902576697316 L 167.49966975705894 -18.70806627680727 L 171.38962277178547 -20.787289481503947 L 175.6104677546371 -22.067668809072682 L 180 -22.5 L 184.3895322453629 -22.067668809072686 L 188.61037722821453 -20.78728948150395 L 192.50033024294106 -18.708066276807273 L 195.90990257669733 -15.909902576697323 L 198.7080662768073 -12.50033024294105 L 200.78728948150393 -8.610377228214533 L 202.06766880907267 -4.389532245362895 Z" fill="#26d983" stroke="#26d983" stroke-width="1" />
  <path d="M 240 3.191891195797325e-16 L 239.4235584120969 5.852709660483848 L 237.7163859753386 11.480502970952694 L 234.94408836907638 16.667106990588067 L 231.21320343559643 21.213203435596423 L 226.66710699058808 24.944088369076358 L 221.48050297095267 27.716385975338603 L 215.85270966048387 29.423558412096913 L 210 30 L 204.14729033951613 29.423558412096913 L 198.51949702904733 27.716385975338603 L 193.33289300941192 24.944088369076365 L 188.78679656440357 21.213203435596427 L 185.05591163092362 16.667106990588067 L 182.2836140246614 11.480502970952697 L 180.5764415879031 5.8527096604838595 L 180 3.9931295170217925e-15 L 180.5764415879031 -5.85270966048385 L 182.2836140246614 -11.48050297095269 L 185.05591163092362 -16.66710699058806 L 188.78679656440357 -21.213203435596423 L 193.33289300941192 -24.944088369076358 L 198.51949702904727 -27.716385975338596 L 204.14729033951613 -29.42355841209691 L 210 -30 L 215.85270966048387 -29.423558412096913 L 221.48050297095273 -27.7163859753386 L 226.66710699058808 -24.944088369076365 L 231.21320343559643 -21.21320343559643 L 234.94408836907638 -16.667106990588067 L 237.7163859753386 -11.480502970952712 L 239.4235584120969 -5.85270966048386 Z" fill="#26d9bc" stroke="#26d9bc" stroke-width="1" />
  <path d="M 247.5 -1.5959455978986625e-16 L 247.35588960302422 1.4631774151209618 L 246.92909649383466 2.870125742738173 L 246.23602209226908 4.166776747647017 L 245.3033008588991 5.303300858899106 L 244.16677674764702 6.236022092269089 L 242.87012574273817 6.929096493834651 L 241.46317741512098 7.355889603024228 L 240 7.5 L 238.53682258487902 7.355889603024228 L 237.12987425726183 6.929096493834651 L 235.83322325235298 6.236022092269091 L 234.6966991411009 5.303300858899107 L 233.76397790773092 4.166776747647017 L 233.07090350616534 2.870125742738174 L 232.64411039697578 1.4631774151209647 L 232.5 7.588905395706487e-16 L 232.64411039697578 -1.4631774151209627 L 233.07090350616534 -2.870125742738173 L 233.76397790773092 -4.166776747647015 L 234.6966991411009 -5.303300858899106 L 235.83322325235298 -6.236022092269089 L 237.1298742572618 -6.929096493834649 L 238.53682258487902 -7.355889603024227 L 240 -7.5 L 241.46317741512098 -7.355889603024228 L 242.8701257427382 -6.92909649383465 L 244.16677674764702 -6.236022092269091 L 245.3033008588991 -5.3033008588991075 L 246.23602209226908 -4.166776747647017 L 246.92909649383466 -2.8701257427381783 L 247.35588960302422 -1.4631774151209653 Z" fill="#26bcd9" stroke="#26bcd9" stroke-width="1" />
  <path d="M 285 0 L 284.71177920604845 2.9263548302419236 L 283.8581929876693 5.740251485476347 L 282.47204418453816 8.333553495294034 L 280.6066017177982 10.606601717798211 L 278.33355349529404 12.472044184538179 L 275.74025148547634 13.858192987669302 L 272.9263548302419 14.711779206048456 L 270 15 L 267.0736451697581 14.711779206048456 L 264.25974851452366 13.858192987669302 L 261.66644650470596 12.472044184538182 L 259.3933982822018 10.606601717798213 L 257.52795581546184 8.333553495294034 L 256.1418070123307 5.740251485476349 L 255.28822079395155 2.9263548302419293 L 255 1.83697019872103e-15 L 255.28822079395155 -2.9263548302419253 L 256.1418070123307 -5.740251485476345 L 257.52795581546184 -8.33355349529403 L 259.39339828220176 -10.606601717798211 L 261.66644650470596 -12.472044184538179 L 264.25974851452366 -13.858192987669298 L 267.0736451697581 -14.711779206048455 L 270 -15 L 272.9263548302419 -14.711779206048456 L 275.74025148547634 -13.8581929876693 L 278.33355349529404 -12.472044184538182 L 280.6066017177982 -10.606601717798215 L 282.47204418453816 -8.333553495294034 L 283.8581929876693 -5.740251485476356 L 284.71177920604845 -2.9263548302419307 Z" fill="#2683d9" stroke="#2683d9" stroke-width="1" />
  <path d="M 322.5 1.5959455978986625e-16 L 322.06766880907264 4.389532245362886 L 320.787289481504 8.61037722821452 L 318.70806627680724 12.50033024294105 L 315.9099025766973 15.909902576697316 L 312.500330242941 18.70806627680727 L 308.6103772282145 20.787289481503954 L 304.38953224536283 22.067668809072686 L 300 22.5 L 295.6104677546371 22.067668809072686 L 291.38962277178547 20.787289481503954 L 287.4996697570589 18.708066276807273 L 284.0900974233027 15.90990257669732 L 281.29193372319276 12.50033024294105 L 279.212710518496 8.610377228214523 L 277.9323311909273 4.389532245362894 L 277.5 2.915049857871411e-15 L 277.9323311909273 -4.389532245362887 L 279.212710518496 -8.610377228214517 L 281.29193372319276 -12.500330242941045 L 284.0900974233026 -15.909902576697316 L 287.4996697570589 -18.70806627680727 L 291.38962277178547 -20.787289481503947 L 295.6104677546371 -22.067668809072682 L 300 -22.5 L 304.38953224536283 -22.067668809072686 L 308.6103772282145 -20.78728948150395 L 312.500330242941 -18.708066276807273 L 315.9099025766973 -15.909902576697323 L 318.70806627680724 -12.50033024294105 L 320.787289481504 -8.610377228214533 L 322.06766880907264 -4.389532245362895 Z" fill="#264ad9" stroke="#264ad9" stroke-width="1" />
  <path d="M 359.9999999999999 3.191891195797325e-16 L 359.4235584120968 5.852709660483848 L 357.71638597533854 11.480502970952694 L 354.9440883690762 16.667106990588067 L 351.21320343559626 21.213203435596423 L 346.66710699058797 24.944088369076358 L 341.48050297095256 27.716385975338603 L 335.8527096604837 29.423558412096913 L 329.9999999999999 30 L 324.1472903395161 29.423558412096913 L 318.5194970290472 27.716385975338603 L 313.3328930094118 24.944088369076365 L 308.7867965644035 21.213203435596427 L 305.05591163092356 16.667106990588067 L 302.28361402466123 11.480502970952697 L 300.576441587903 5.8527096604838595 L 299.9999999999999 3.9931295170217925e-15 L 300.576441587903 -5.85270966048385 L 302.28361402466123 -11.48050297095269 L 305.05591163092356 -16.66710699058806 L 308.7867965644034 -21.213203435596423 L 313.3328930094118 -24.944088369076358 L 318.5194970290472 -27.716385975338596 L 324.1472903395161 -29.42355841209691 L 329.9999999999999 -30 L 335.8527096604837 -29.423558412096913 L 341.48050297095256 -27.7163859753386 L 346.66710699058797 -24.944088369076365 L 351.21320343559626 -21.21320343559643 L 354.9440883690762 -16.667106990588067 L 357.71638597533854 -11.480502970952712 L 359.4235584120968 -5.85270966048386 Z" fill="#3c26d9" stroke="#3c26d9" stroke-width="1" />
  <path d="M 7.499999999999999 -1.5959455978986625e-16 L 7.355889603024227 1.4631774151209618 L 6.92909649383465 2.870125742738173 L 6.2360220922690885 4.166776747647017 L 5.303300858899106 5.303300858899106 L 4.166776747647016 6.236022092269089 L 2.870125742738174 6.929096493834651 L 1.4631774151209622 7.355889603024228 L 1.2617564229271053e-16 7.5 L -1.4631774151209618 7.355889603024228 L -2.870125742738173 6.929096493834651 L -4.166776747647016 6.236022092269091 L -5.303300858899107 5.303300858899107 L -6.236022092269091 4.166776747647017 L -6.929096493834652 2.870125742738174 L -7.355889603024229 1.4631774151209647 L -7.500000000000001 7.588905395706487e-16 L -7.355889603024229 -1.4631774151209627 L -6.929096493834653 -2.870125742738173 L -6.236022092269092 -4.166776747647015 L -5.303300858899108 -5.303300858899106 L -4.166776747647018 -6.236022092269089 L -2.8701257427381774 -6.929096493834649 L -1.4631774151209653 -7.355889603024227 L -1.7107945564283192e-15 -7.5 L 1.4631774151209618 -7.355889603024228 L 2.870125742738175 -6.92909649383465 L 4.166776747647013 -6.236022092269091 L 5.303300858899104 -5.3033008588991075 L 6.2360220922690885 -4.166776747647017 L 6.929096493834648 -2.8701257427381783 L 7.3558896030242265 -1.4631774151209653 Z" fill="#7526d9" stroke="#7526d9" stroke-width="1" />
  <path d="M 45 0 L 44.711779206048455 2.9263548302419236 L 43.8581929876693 5.740251485476347 L 42.47204418453818 8.333553495294034 L 40.60660171779821 10.606601717798211 L 38.333553495294034 12.472044184538179 L 35.74025148547635 13.858192987669302 L 32.92635483024193 14.711779206048456 L 30 15 L 27.073645169758077 14.711779206048456 L 24.259748514523654 13.858192987669302 L 21.66644650470597 12.472044184538182 L 19.393398282201787 10.606601717798213 L 17.52795581546182 8.333553495294034 L 16.1418070123307 5.740251485476349 L 15.288220793951544 2.9263548302419293 L 15 1.83697019872103e-15 L 15.288220793951544 -2.9263548302419253 L 16.141807012330695 -5.740251485476345 L 17.527955815461816 -8.33355349529403 L 19.393398282201787 -10.606601717798211 L 21.666446504705966 -12.472044184538179 L 24.259748514523643 -13.858192987669298 L 27.07364516975807 -14.711779206048455 L 29.999999999999996 -15 L 32.92635483024193 -14.711779206048456 L 35.74025148547635 -13.8581929876693 L 38.33355349529403 -12.472044184538182 L 40.60660171779821 -10.606601717798215 L 42.47204418453818 -8.333553495294034 L 43.8581929876693 -5.740251485476356 L 44.711779206048455 -2.9263548302419307 Z" fill="#ae26d9" stroke="#ae26d9" stroke-width="1" />
  <path d="M 82.5 1.5959455978986625e-16 L 82.0676688090727 4.389532245362886 L 80.78728948150395 8.61037722821452 L 78.70806627680727 12.50033024294105 L 75.90990257669732 15.909902576697316 L 72.50033024294106 18.70806627680727 L 68.61037722821453 20.787289481503954 L 64.38953224536289 22.067668809072686 L 60 22.5 L 55.61046775463712 22.067668809072686 L 51.389622771785476 20.787289481503954 L 47.49966975705896 18.708066276807273 L 44.09009742330268 15.90990257669732 L 41.291933723192734 12.50033024294105 L 39.21271051849605 8.610377228214523 L 37.932331190927314 4.389532245362894 L 37.5 2.915049857871411e-15 L 37.932331190927314 -4.389532245362887 L 39.21271051849604 -8.610377228214517 L 41.29193372319273 -12.500330242941045 L 44.09009742330268 -15.909902576697316 L 47.49966975705895 -18.70806627680727 L 51.38962277178547 -20.787289481503947 L 55.610467754637114 -22.067668809072682 L 60 -22.5 L 64.38953224536289 -22.067668809072686 L 68.61037722821453 -20.78728948150395 L 72.50033024294103 -18.708066276807273 L 75.90990257669732 -15.909902576697323 L 78.70806627680727 -12.50033024294105 L 80.78728948150395 -8.610377228214533 L 82.06766880907267 -4.389532245362895 Z" fill="#d926ca" stroke="#d926ca" stroke-width="1" />
  <path d="M 120 3.191891195797325e-16 L 119.42355841209692 5.852709660483848 L 117.7163859753386 11.480502970952694 L 114.94408836907635 16.667106990588067 L 111.21320343559643 21.213203435596423 L 106.66710699058808 24.944088369076358 L 101.4805029709527 27.716385975338603 L 95.85270966048384 29.423558412096913 L 90 30 L 84.14729033951616 29.423558412096913 L 78.5194970290473 27.716385975338603 L 73.33289300941195 24.944088369076365 L 68.78679656440357 21.213203435596427 L 65.05591163092365 16.667106990588067 L 62.283614024661404 11.480502970952697 L 60.576441587903076 5.8527096604838595 L 60 3.9931295170217925e-15 L 60.576441587903076 -5.85270966048385 L 62.283614024661404 -11.48050297095269 L 65.05591163092365 -16.66710699058806 L 68.78679656440357 -21.213203435596423 L 73.33289300941192 -24.944088369076358 L 78.5194970290473 -27.716385975338596 L 84.14729033951613 -29.42355841209691 L 90 -30 L 95.85270966048384 -29.423558412096913 L 101.4805029709527 -27.7163859753386 L 106.66710699058805 -24.944088369076365 L 111.21320343559643 -21.21320343559643 L 114.94408836907635 -16.667106990588067 L 117.7163859753386 -11.480502970952712 L 119.4235584120969 -5.85270966048386 Z" fill="#d92691" stroke="#d92691" stroke-width="1" />
  <path d="M 127.5 -1.5959455978986625e-16 L 127.35588960302422 1.4631774151209618 L 126.92909649383465 2.870125742738173 L 126.2360220922691 4.166776747647017 L 125.3033008588991 5.303300858899106 L 124.16677674764702 6.236022092269089 L 122.87012574273817 6.929096493834651 L 121.46317741512095 7.355889603024228 L 120 7.5 L 118.53682258487905 7.355889603024228 L 117.12987425726183 6.929096493834651 L 115.83322325235298 6.236022092269091 L 114.6966991411009 5.303300858899107 L 113.76397790773092 4.166776747647017 L 113.07090350616535 2.870125742738174 L 112.64411039697578 1.4631774151209647 L 112.5 7.588905395706487e-16 L 112.64411039697578 -1.4631774151209627 L 113.07090350616535 -2.870125742738173 L 113.76397790773092 -4.166776747647015 L 114.6966991411009 -5.303300858899106 L 115.83322325235298 -6.236022092269089 L 117.12987425726183 -6.929096493834649 L 118.53682258487903 -7.355889603024227 L 120 -7.5 L 121.46317741512095 -7.355889603024228 L 122.87012574273817 -6.92909649383465 L 124.16677674764702 -6.236022092269091 L 125.3033008588991 -5.3033008588991075 L 126.2360220922691 -4.166776747647017 L 126.92909649383465 -2.8701257427381783 L 127.35588960302422 -1.4631774151209653 Z" fill="#d99126" stroke="#d99126" stroke-width="1" />
  <path d="M 165 0 L 164.71177920604845 2.9263548302419236 L 163.8581929876693 5.740251485476347 L 162.4720441845382 8.333553495294034 L 160.6066017177982 10.606601717798211 L 158.33355349529404 12.472044184538179 L 155.74025148547634 13.858192987669302 L 152.92635483024193 14.711779206048456 L 150 15 L 147.07364516975807 14.711779206048456 L 144.25974851452366 13.858192987669302 L 141.66644650470596 12.472044184538182 L 139.3933982822018 10.606601717798213 L 137.5279558154618 8.333553495294034 L 136.1418070123307 5.740251485476349 L 135.28822079395155 2.9263548302419293 L 135 1.83697019872103e-15 L 135.28822079395155 -2.9263548302419253 L 136.1418070123307 -5.740251485476345 L 137.5279558154618 -8.33355349529403 L 139.3933982822018 -10.606601717798211 L 141.66644650470596 -12.472044184538179 L 144.25974851452364 -13.858192987669298 L 147.07364516975807 -14.711779206048455 L 150 -15 L 152.92635483024193 -14.711779206048456 L 155.74025148547636 -13.8581929876693 L 158.33355349529404 -12.472044184538182 L 160.6066017177982 -10.606601717798215 L 162.4720441845382 -8.333553495294034 L 163.8581929876693 -5.740251485476356 L 164.71177920604845 -2.9263548302419307 Z" fill="#d9ca26" stroke="#d9ca26" stroke-width="1" />
  <path d="M 202.5 1.5959455978986625e-16 L 202.06766880907267 4.389532245362886 L 200.78728948150393 8.61037722821452 L 198.7080662768073 12.50033024294105 L 195.90990257669733 15.909902576697316 L 192.50033024294106 18.70806627680727 L 188.6103772282145 20.787289481503954 L 184.3895322453629 22.067668809072686 L 180 22.5 L 175.6104677546371 22.067668809072686 L 171.3896227717855 20.787289481503954 L 167.49966975705894 18.708066276807273 L 164.09009742330267 15.90990257669732 L 161.2919337231927 12.50033024294105 L 159.21271051849607 8.610377228214523 L 157.93233119092733 4.389532245362894 L 157.5 2.915049857871411e-15 L 157.93233119092733 -4.389532245362887 L 159.21271051849607 -8.610377228214517 L 161.2919337231927 -12.500330242941045 L 164.09009742330267 -15.909902576697316 L 167.49966975705894 -18.70806627680727 L 171.38962277178547 -20.787289481503947 L 175.6104677546371 -22.067668809072682 L 180 -22.5 L 184.3895322453629 -22.067668809072686 L 188.61037722821453 -20.78728948150395 L 192.50033024294106 -18.708066276807273 L 195.90990257669733 -15.909902576697323 L 198.7080662768073 -12.50033024294105 L 200.78728948150393 -8.610377228214533 L 202.06766880907267 -4.389532245362895 Z" fill="#aed926" stroke="#aed926" stroke-width="1" />
  <path d="M 240 3.191891195797325e-16 L 239.4235584120969 5.852709660483848 L 237.7163859753386 11.480502970952694 L 234.94408836907638 16.667106990588067 L 231.21320343559643 21.213203435596423 L 226.66710699058808 24.944088369076358 L 221.48050297095267 27.716385975338603 L 215.85270966048387 29.423558412096913 L 210 30 L 204.14729033951613 29.423558412096913 L 198.51949702904733 27.716385975338603 L 193.33289300941192 24.944088369076365 L 188.78679656440357 21.213203435596427 L 185.05591163092362 16.667106990588067 L 182.2836140246614 11.480502970952697 L 180.5764415879031 5.8527096604838595 L 180 3.9931295170217925e-15 L 180.5764415879031 -5.85270966048385 L 182.2836140246614 -11.48050297095269 L 185.05591163092362 -16.66710699058806 L 188.78679656440357 -21.213203435596423 L 193.33289300941192 -24.944088369076358 L 198.51949702904727 -27.716385975338596 L 204.14729033951613 -29.42355841209691 L 210 -30 L 215.85270966048387 -29.423558412096913 L 221.48050297095273 -27.7163859753386 L 226.66710699058808 -24.944088369076365 L 231.21320343559643 -21.21320343559643 L 234.94408836907638 -16.667106990588067 L 237.7163859753386 -11.480502970952712 L 239.4235584120969 -5.85270966048386 Z" fill="#75d926" stroke="#75d926" stroke-width="1" />
  <path d="M 247.5 -1.5959455978986625e-16 L 247.35588960302422 1.4631774151209618 L 246.92909649383466 2.870125742738173 L 246.23602209226908 4.166776747647017 L 245.3033008588991 5.303300858899106 L 244.16677674764702 6.236022092269089 L 242.87012574273817 6.929096493834651 L 241.46317741512098 7.355889603024228 L 240 7.5 L 238.53682258487902 7.355889603024228 L 237.12987425726183 6.929096493834651 L 235.83322325235298 6.236022092269091 L 234.6966991411009 5.303300858899107 L 233.76397790773092 4.166776747647017 L 233.07090350616534 2.870125742738174 L 232.64411039697578 1.4631774151209647 L 232.5 7.588905395706487e-16 L 232.64411039697578 -1.4631774151209627 L 233.07090350616534 -2.870125742738173 L 233.76397790773092 -4.166776747647015 L 234.6966991411009 -5.303300858899106 L 235.83322325235298 -6.236022092269089 L 237.1298742572618 -6.929096493834649 L 238.53682258487902 -7.355889603024227 L 240 -7.5 L 241.46317741512098 -7.355889603024228 L 242.8701257427382 -6.92909649383465 L 244.16677674764702 -6.236022092269091 L 245.3033008588991 -5.3033008588991075 L 246.23602209226908 -4.166776747647017 L 246.92909649383466 -2.8701257427381783 L 247.35588960302422 -1.4631774151209653 Z" fill="#3cd926" stroke="#3cd926" stroke-width="1" />
  <path d="M 285 0 L 284.71177920604845 2.9263548302419236 L 283.8581929876693 5.740251485476347 L 282.47204418453816 8.333553495294034 L 280.6066017177982 10.606601717798211 L 278.33355349529404 12.472044184538179 L 275.74025148547634 13.858192987669302 L 272.9263548302419 14.711779206048456 L 270 15 L 267.0736451697581 14.711779206048456 L 264.25974851452366 13.858192987669302 L 261.66644650470596 12.472044184538182 L 259.3933982822018 10.606601717798213 L 257.52795581546184 8.333553495294034 L 256.1418070123307 5.740251485476349 L 255.28822079395155 2.9263548302419293 L 255 1.83697019872103e-15 L 255.28822079395155 -2.9263548302419253 L 256.1418070123307 -5.740251485476345 L 257.52795581546184 -8.33355349529403 L 259.39339828220176 -10.606601717798211 L 261.66644650470596 -12.472044184538179 L 264.25974851452366 -13.858192987669298 L 267.0736451697581 -14.711779206048455 L 270 -15 L 272.9263548302419 -14.711779206048456 L 275.74025148547634 -13.8581929876693 L 278.33355349529404 -12.472044184538182 L 280.6066017177982 -10.606601717798215 L 282.47204418453816 -8.333553495294034 L 283.8581929876693 -5.740251485476356 L 284.71177920604845 -2.9263548302419307 Z" fill="#26d94a" stroke="#26d94a" stroke-width="1" />
  <path d="M 322.5 1.5959455978986625e-16 L 322.06766880907264 4.389532245362886 L 320.787289481504 8.61037722821452 L 318.70806627680724 12.50033024294105 L 315.9099025766973 15.909902576697316 L 312.500330242941 18.70806627680727 L 308.6103772282145 20.787289481503954 L 304.38953224536283 22.067668809072686 L 300 22.5 L 295.6104677546371 22.067668809072686 L 291.38962277178547 20.787289481503954 L 287.4996697570589 18.708066276807273 L 284.0900974233027 15.90990257669732 L 281.29193372319276 12.50033024294105 L 279.212710518496 8.610377228214523 L 277.9323311909273 4.389532245362894 L 277.5 2.915049857871411e-15 L 277.9323311909273 -4.389532245362887 L 279.212710518496 -8.610377228214517 L 281.29193372319276 -12.500330242941045 L 284.0900974233026 -15.909902576697316 L 287.4996697570589 -18.70806627680727 L 291.38962277178547 -20.787289481503947 L 295.6104677546371 -22.067668809072682 L 300 -22.5 L 304.38953224536283 -22.067668809072686 L 308.6103772282145 -20.78728948150395 L 312.500330242941 -18.708066276807273 L 315.9099025766973 -15.909902576697323 L 318.70806627680724 -12.50033024294105 L 320.787289481504 -8.610377228214533 L 322.06766880907264 -4.389532245362895 Z" fill="#26d983" stroke="#26d983" stroke-width="1" />
  <path d="M 359.9999999999999 3.191891195797325e-16 L 359.4235584120968 5.852709660483848 L 357.71638597533854 11.480502970952694 L 354.9440883690762 16.667106990588067 L 351.21320343559626 21.213203435596423 L 346.66710699058797 24.944088369076358 L 341.48050297095256 27.716385975338603 L 335.8527096604837 29.423558412096913 L 329.9999999999999 30 L 324.1472903395161 29.423558412096913 L 318.5194970290472 27.716385975338603 L 313.3328930094118 24.944088369076365 L 308.7867965644035 21.213203435596427 L 305.05591163092356 16.667106990588067 L 302.28361402466123 11.480502970952697 L 300.576441587903 5.8527096604838595 L 299.9999999999999 3.9931295170217925e-15 L 300.576441587903 -5.85270966048385 L 302.28361402466123 -11.48050297095269 L 305.05591163092356 -16.66710699058806 L 308.7867965644034 -21.213203435596423 L 313.3328930094118 -24.944088369076358 L 318.5194970290472 -27.716385975338596 L 324.1472903395161 -29.42355841209691 L 329.9999999999999 -30 L 335.8527096604837 -29.423558412096913 L 341.48050297095256 -27.7163859753386 L 346.66710699058797 -24.944088369076365 L 351.21320343559626 -21.21320343559643 L 354.9440883690762 -16.667106990588067 L 357.71638597533854 -11.480502970952712 L 359.4235584120968 -5.85270966048386 Z" fill="#26d9bc" stroke="#26d9bc" stroke-width="1" />
  <path d="M 7.500000000000001 -80 L 7.355889603024229 -78.53682258487903 L 6.929096493834652 -77.12987425726183 L 6.23602209226909 -75.83322325235298 L 5.3033008588991075 -74.6966991411009 L 4.166776747647018 -73.7639779077309 L 2.8701257427381752 -73.07090350616535 L 1.4631774151209636 -72.64411039697578 L 1.5139544230741563e-15 -72.5 L -1.4631774151209604 -72.64411039697578 L -2.8701257427381717 -73.07090350616535 L -4.166776747647014 -73.7639779077309 L -5.303300858899105 -74.6966991411009 L -6.236022092269089 -75.83322325235298 L -6.92909649383465 -77.12987425726183 L -7.355889603024227 -78.53682258487903 L -7.499999999999999 -80 L -7.355889603024227 -81.46317741512097 L -6.929096493834651 -82.87012574273817 L -6.23602209226909 -84.16677674764702 L -5.303300858899107 -85.3033008588991 L -4.166776747647016 -86.2360220922691 L -2.870125742738176 -86.92909649383465 L -1.463177415120964 -87.35588960302422 L -3.230157756468735e-16 -87.5 L 1.463177415120963 -87.35588960302422 L 2.870125742738176 -86.92909649383465 L 4.166776747647015 -86.2360220922691 L 5.303300858899106 -85.3033008588991 L 6.23602209226909 -84.16677674764702 L 6.92909649383465 -82.87012574273818 L 7.355889603024228 -81.46317741512097 Z" fill="#26bcd9" stroke="#26bcd9" stroke-width="1" />
</svg>