<svg width="160" height="90" viewBox="-7.297297297297305 35.27027027027027 194.5945945945946 109.45945945945947" xmlns="http://www.w3.org/2000/svg">
  <path d="M 0 0 L 30 0 L 30 30 Z" fill="#333" stroke="#000" stroke-width="1" />
  <path d="M 0 0 L 30 30 L 0 30 Z" fill="#999" stroke="#000" stroke-width="1" />
  <path d="M 60 0 L 60 30 L 30 30 Z" fill="#333" stroke="#000" stroke-width="1" />
  <path d="M 30 0 L 60 0 L 30 30 Z" fill="#999" stroke="#000" stroke-width="1" />
  <path d="M 0 30 L 30 30 L 0 60 Z" fill="#333" stroke="#000" stroke-width="1" />
  <path d="M 30 30 L 30 60 L 0 60 Z" fill="#999" stroke="#000" stroke-width="1" />
  <path d="M 30 30 L 60 60 L 30 60 Z" fill="#333" stroke="#000" stroke-width="1" />
  <path d="M 30 30 L 60 30 L 60 60 Z" fill="#999" stroke="#000" stroke-width="1" />
  <path d="M 60 0 L 90 0 L 90 30 Z" fill="#333" stroke="#000" stroke-width="1" />
  <path d="M 60 0 L 90 30 L 60 30 Z" fill="#999" stroke="#000" stroke-width="1" />
  <path d="M 120 0 L 120 30 L 90 30 Z" fill="#333" stroke="#000" stroke-width="1" />
  <path d="M 90 0 L 120 0 L 90 30 Z" fill="#999" stroke="#000" stroke-width="1" />
  <path d="M 60 30 L 90 30 L 60 60 Z" fill="#333" stroke="#000" stroke-width="1" />
  <path d="M 90 30 L 90 60 L 60 60 Z" fill="#999" stroke="#000" stroke-width="1" />
  <path d="M 90 30 L 120 60 L 90 60 Z" fill="#333" stroke="#000" stroke-width="1" />
  <path d="M 90 30 L 120 30 L 120 60 Z" fill="#999" stroke="#000" stroke-width="1" />
  <path d="M 120 0 L 150 0 L 150 30 Z" fill="#333" stroke="#000" stroke-width="1" />
  <path d="M 120 0 L 150 30 L 120 30 Z" fill="#999" stroke="#000" stroke-width="1" />
  <path d="M 180 0 L 180 30 L 150 30 Z" fill="#333" stroke="#000" stroke-width="1" />
  <path d="M 150 0 L 180 0 L 150 30 Z" fill="#999" stroke="#000" stroke-width="1" />
  <path d="M 120 30 L 150 30 L 120 60 Z" fill="#333" stroke="#000" stroke-width="1" />
  <path d="M 150 30 L 150 60 L 120 60 Z" fill="#999" stroke="#000" stroke-width="1" />
  <path d="M 150 30 L 180 60 L 150 60 Z" fill="#333" stroke="#000" stroke-width="1" />
  <path d="M 150 30 L 180 30 L 180 60 Z" fill="#999" stroke="#000" stroke-width="1" />
  <path d="M 0 60 L 30 60 L 30 90 Z" fill="#333" stroke="#000" stroke-width="1" />
  <path d="M 0 60 L 30 90 L 0 90 Z" fill="#999" stroke="#000" stroke-width="1" />
  <path d="M 60 60 L 60 90 L 30 90 Z" fill="#333" stroke="#000" stroke-width="1" />
  <path d="M 30 60 L 60 60 L 30 90 Z" fill="#999" stroke="#000" stroke-width="1" />
  <path d="M 0 90 L 30 90 L 0 120 Z" fill="#333" stroke="#000" stroke-width="1" />
  <path d="M 30 90 L 30 120 L 0 120 Z" fill="#999" stroke="#000" stroke-width="1" />
  <path d="M 30 90 L 60 120 L 30 120 Z" fill="#333" stroke="#000" stroke-width="1" />
  <path d="M 30 90 L 60 90 L 60 120 Z" fill="#999" stroke="#000" stroke-width="1" />
  <path d="M 60 60 L 90 60 L 90 90 Z" fill="#333" stroke="#000" stroke-width="1" />
  <path d="M 60 60 L 90 90 L 60 90 Z" fill="#999" stroke="#000" stroke-width="1" />
  <path d="M 120 60 L 120 90 L 90 90 Z" fill="#333" stroke="#000" stroke-width="1" />
  <path d="M 90 60 L 120 60 L 90 90 Z" fill="#999" stroke="#000" stroke-width="1" />
  <path d="M 60 90 L 90 90 L 60 120 Z" fill="#333" stroke="#000" stroke-width="1" />
  <path d="M 90 90 L 90 120 L 60 120 Z" fill="#999" stroke="#000" stroke-width="1" />
  <path d="M 90 90 L 120 120 L 90 120 Z" fill="#333" stroke="#000" stroke-width="1" />
  <path d="M 90 90 L 120 90 L 120 120 Z" fill="#999" stroke="#000" stroke-width="1" />
  <path d="M 120 60 L 150 60 L 150 90 Z" fill="#333" stroke="#000" stroke-width="1" />
  <path d="M 120 60 L 150 90 L 120 90 Z" fill="#999" stroke="#000" stroke-width="1" />
  <path d="M 180 60 L 180 90 L 150 90 Z" fill="#333" stroke="#000" stroke-width="1" />
  <path d="M 150 60 L 180 60 L 150 90 Z" fill="#999" stroke="#000" stroke-width="1" />
  <path d="M 120 90 L 150 90 L 120 120 Z" fill="#333" stroke="#000" stroke-width="1" />
  <path d="M 150 90 L 150 120 L 120 120 Z" fill="#999" stroke="#000" stroke-width="1" />
  <path d="M 150 90 L 180 120 L 150 120 Z" fill="#333" stroke="#000" stroke-width="1" />
  <path d="M 150 90 L 180 90 L 180 120 Z" fill="#999" stroke="#000" stroke-width="1" />
  <path d="M 0 120 L 30 120 L 30 150 Z" fill="#333" stroke="#000" stroke-width="1" />
  <path d="M 0 120 L 30 150 L 0 150 Z" fill="#999" stroke="#000" stroke-width="1" />
  <path d="M 60 120 L 60 150 L 30 150 Z" fill="#333" stroke="#000" stroke-width="1" />
  <path d="M 30 120 L 60 120 L 30 150 Z" fill="#999" stroke="#000" stroke-width="1" />
  <path d="M 0 150 L 30 150 L 0 180 Z" fill="#333" stroke="#000" stroke-width="1" />
  <path d="M 30 150 L 30 180 L 0 180 Z" fill="#999" stroke="#000" stroke-width="1" />
  <path d="M 30 150 L 60 180 L 30 180 Z" fill="#333" stroke="#000" stroke-width="1" />
  <path d="M 30 150 L 60 150 L 60 180 Z" fill="#999" stroke="#000" stroke-width="1" />
  <path d="M 60 120 L 90 120 L 90 150 Z" fill="#333" stroke="#000" stroke-width="1" />
  <path d="M 60 120 L 90 150 L 60 150 Z" fill="#999" stroke="#000" stroke-width="1" />
  <path d="M 120 120 L 120 150 L 90 150 Z" fill="#333" stroke="#000" stroke-width="1" />
  <path d="M 90 120 L 120 120 L 90 150 Z" fill="#999" stroke="#000" stroke-width="1" />
  <path d="M 60 150 L 90 150 L 60 180 Z" fill="#333" stroke="#000" stroke-width="1" />
  <path d="M 90 150 L 90 180 L 60 180 Z" fill="#999" stroke="#000" stroke-width="1" />
  <path d="M 90 150 L 120 180 L 90 180 Z" fill="#333" stroke="#000" stroke-width="1" />
  <path d="M 90 150 L 120 150 L 120 180 Z" fill="#999" stroke="#000" stroke-width="1" />
  <path d="M 120 120 L 150 120 L 150 150 Z" fill="#333" stroke="#000" stroke-width="1" />
  <path d="M 120 120 L 150 150 L 120 150 Z" fill="#999" stroke="#000" stroke-width="1" />
  <path d="M 180 120 L 180 150 L 150 150 Z" fill="#333" stroke="#000" stroke-width="1" />
  <path d="M 150 120 L 180 120 L 150 150 Z" fill="#999" stroke="#000" stroke-width="1" />
  <path d="M 120 150 L 150 150 L 120 180 Z" fill="#333" stroke="#000" stroke-width="1" />
  <path d="M 150 150 L 150 180 L 120 180 Z" fill="#999" stroke="#000" stroke-width="1" />
  <path d="M 150 150 L 180 180 L 150 180 Z" fill="#333" stroke="#000" stroke-width="1" />
  <path d="M 150 150 L 180 150 L 180 180 Z" fill="#999" stroke="#000" stroke-width="1" />
</svg>