<svg width="160" height="90" viewBox="-11.486486486486484 26.351351351351354 172.97297297297297 97.29729729729729" xmlns="http://www.w3.org/2000/svg">
  <path d="M 0 0 L 150 0" fill="none" stroke="#39c" stroke-width="0.5" />
  <path d="M 0 30 L 150 30" fill="none" stroke="#39c" stroke-width="0.5" />
  <path d="M 0 60 L 150 60" fill="none" stroke="#39c" stroke-width="0.5" />
  <path d="M 0 90 L 150 90" fill="none" stroke="#39c" stroke-width="0.5" />
  <path d="M 0 120 L 150 120" fill="none" stroke="#39c" stroke-width="0.5" />
  <path d="M 0 150 L 150 150" fill="none" stroke="#39c" stroke-width="0.5" />
  <path d="M 0 0 L 0 150" fill="none" stroke="#39c" stroke-width="0.5" />
  <path d="M 30 0 L 30 150" fill="none" stroke="#39c" stroke-width="0.5" />
  <path d="M 60 0 L 60 150" fill="none" stroke="#39c" stroke-width="0.5" />
  <path d="M 90 0 L 90 150" fill="none" stroke="#39c" stroke-width="0.5" />
  <path d="M 120 0 L 120 150" fill="none" stroke="#39c" stroke-width="0.5" />
  <path d="M 150 0 L 150 150" fill="none" stroke="#39c" stroke-width="0.5" />
  <path d="M 5 -4.2327252813834093e-16 L 4.903926402016152 0.9754516100806407 L 4.619397662556434 1.9134171618254485 L 4.157348061512726 2.7778511650980104 L 3.5355339059327378 3.535533905932737 L 2.7778511650980113 4.157348061512726 L 1.9134171618254492 4.619397662556434 L 0.9754516100806417 4.903926402016152 L 3.8942842663372505e-16 5 L -0.9754516100806409 4.903926402016152 L -1.9134171618254485 4.619397662556434 L -2.77785116509801 4.157348061512727 L -3.5355339059327373 3.5355339059327373 L -4.157348061512726 2.7778511650980104 L -4.619397662556434 1.913417161825449 L -4.903926402016152 0.9754516100806426 L -5 1.890508714353357e-16 L -4.903926402016152 -0.9754516100806423 L -4.619397662556434 -1.9134171618254487 L -4.157348061512727 -2.7778511650980104 L -3.5355339059327386 -3.5355339059327378 L -2.777851165098011 -4.157348061512726 L -1.9134171618254516 -4.619397662556432 L -0.9754516100806432 -4.903926402016151 L -8.352183725136281e-16 -5 L 0.9754516100806416 -4.903926402016152 L 1.91341716182545 -4.619397662556433 L 2.777851165098009 -4.157348061512727 L 3.535533905932737 -3.535533905932739 L 4.157348061512726 -2.7778511650980113 L 4.619397662556432 -1.9134171618254525 L 4.903926402016151 -0.9754516100806441 Z" fill="#d99126" stroke="#c93" stroke-width="1" />
  <path d="M 35 -4.2327252813834093e-16 L 34.903926402016154 0.9754516100806407 L 34.61939766255644 1.9134171618254485 L 34.15734806151273 2.7778511650980104 L 33.53553390593274 3.535533905932737 L 32.777851165098014 4.157348061512726 L 31.91341716182545 4.619397662556434 L 30.97545161008064 4.903926402016152 L 30 5 L 29.02454838991936 4.903926402016152 L 28.08658283817455 4.619397662556434 L 27.22214883490199 4.157348061512727 L 26.464466094067262 3.5355339059327373 L 25.842651938487272 2.7778511650980104 L 25.380602337443566 1.913417161825449 L 25.096073597983846 0.9754516100806426 L 25 1.890508714353357e-16 L 25.096073597983846 -0.9754516100806423 L 25.380602337443566 -1.9134171618254487 L 25.842651938487272 -2.7778511650980104 L 26.464466094067262 -3.5355339059327378 L 27.22214883490199 -4.157348061512726 L 28.08658283817455 -4.619397662556432 L 29.024548389919357 -4.903926402016151 L 30 -5 L 30.97545161008064 -4.903926402016152 L 31.91341716182545 -4.619397662556433 L 32.77785116509801 -4.157348061512727 L 33.53553390593274 -3.535533905932739 L 34.15734806151273 -2.7778511650980113 L 34.61939766255643 -1.9134171618254525 L 34.903926402016154 -0.9754516100806441 Z" fill="#d9ca26" stroke="#c93" stroke-width="1" />
  <path d="M 65 -4.2327252813834093e-16 L 64.90392640201615 0.9754516100806407 L 64.61939766255644 1.9134171618254485 L 64.15734806151272 2.7778511650980104 L 63.53553390593274 3.535533905932737 L 62.777851165098014 4.157348061512726 L 61.91341716182545 4.619397662556434 L 60.97545161008064 4.903926402016152 L 60 5 L 59.02454838991936 4.903926402016152 L 58.08658283817455 4.619397662556434 L 57.222148834901986 4.157348061512727 L 56.46446609406726 3.5355339059327373 L 55.84265193848727 2.7778511650980104 L 55.38060233744356 1.913417161825449 L 55.096073597983846 0.9754516100806426 L 55 1.890508714353357e-16 L 55.096073597983846 -0.9754516100806423 L 55.38060233744356 -1.9134171618254487 L 55.84265193848727 -2.7778511650980104 L 56.46446609406726 -3.5355339059327378 L 57.222148834901986 -4.157348061512726 L 58.08658283817455 -4.619397662556432 L 59.02454838991936 -4.903926402016151 L 60 -5 L 60.97545161008064 -4.903926402016152 L 61.91341716182545 -4.619397662556433 L 62.77785116509801 -4.157348061512727 L 63.53553390593274 -3.535533905932739 L 64.15734806151272 -2.7778511650980113 L 64.61939766255644 -1.9134171618254525 L 64.90392640201615 -0.9754516100806441 Z" fill="#aed926" stroke="#c93" stroke-width="1" />
  <path d="M 95 -4.2327252813834093e-16 L 94.90392640201615 0.9754516100806407 L 94.61939766255644 1.9134171618254485 L 94.15734806151272 2.7778511650980104 L 93.53553390593274 3.535533905932737 L 92.77785116509801 4.157348061512726 L 91.91341716182545 4.619397662556434 L 90.97545161008064 4.903926402016152 L 90 5 L 89.02454838991936 4.903926402016152 L 88.08658283817455 4.619397662556434 L 87.22214883490199 4.157348061512727 L 86.46446609406726 3.5355339059327373 L 85.84265193848728 2.7778511650980104 L 85.38060233744356 1.913417161825449 L 85.09607359798385 0.9754516100806426 L 85 1.890508714353357e-16 L 85.09607359798385 -0.9754516100806423 L 85.38060233744356 -1.9134171618254487 L 85.84265193848728 -2.7778511650980104 L 86.46446609406726 -3.5355339059327378 L 87.22214883490199 -4.157348061512726 L 88.08658283817455 -4.619397662556432 L 89.02454838991936 -4.903926402016151 L 90 -5 L 90.97545161008064 -4.903926402016152 L 91.91341716182545 -4.619397662556433 L 92.77785116509801 -4.157348061512727 L 93.53553390593274 -3.535533905932739 L 94.15734806151272 -2.7778511650980113 L 94.61939766255644 -1.9134171618254525 L 94.90392640201615 -0.9754516100806441 Z" fill="#75d926" stroke="#c93" stroke-width="1" />
  <path d="M 125 -4.2327252813834093e-16 L 124.90392640201615 0.9754516100806407 L 124.61939766255644 1.9134171618254485 L 124.15734806151272 2.7778511650980104 L 123.53553390593274 3.535533905932737 L 122.77785116509801 4.157348061512726 L 121.91341716182545 4.619397662556434 L 120.97545161008064 4.903926402016152 L 120 5 L 119.02454838991936 4.903926402016152 L 118.08658283817455 4.619397662556434 L 117.22214883490199 4.157348061512727 L 116.46446609406726 3.5355339059327373 L 115.84265193848728 2.7778511650980104 L 115.38060233744356 1.913417161825449 L 115.09607359798385 0.9754516100806426 L 115 1.890508714353357e-16 L 115.09607359798385 -0.9754516100806423 L 115.38060233744356 -1.9134171618254487 L 115.84265193848728 -2.7778511650980104 L 116.46446609406726 -3.5355339059327378 L 117.22214883490199 -4.157348061512726 L 118.08658283817455 -4.619397662556432 L 119.02454838991936 -4.903926402016151 L 120 -5 L 120.97545161008064 -4.903926402016152 L 121.91341716182545 -4.619397662556433 L 122.77785116509801 -4.157348061512727 L 123.53553390593274 -3.535533905932739 L 124.15734806151272 -2.7778511650980113 L 124.61939766255644 -1.9134171618254525 L 124.90392640201615 -0.9754516100806441 Z" fill="#3cd926" stroke="#c93" stroke-width="1" />
  <path d="M 155 -4.2327252813834093e-16 L 154.90392640201614 0.9754516100806407 L 154.61939766255642 1.9134171618254485 L 154.15734806151272 2.7778511650980104 L 153.53553390593274 3.535533905932737 L 152.777851165098 4.157348061512726 L 151.91341716182544 4.619397662556434 L 150.97545161008065 4.903926402016152 L 150 5 L 149.02454838991935 4.903926402016152 L 148.08658283817456 4.619397662556434 L 147.222148834902 4.157348061512727 L 146.46446609406726 3.5355339059327373 L 145.84265193848728 2.7778511650980104 L 145.38060233744358 1.913417161825449 L 145.09607359798386 0.9754516100806426 L 145 1.890508714353357e-16 L 145.09607359798386 -0.9754516100806423 L 145.38060233744358 -1.9134171618254487 L 145.84265193848728 -2.7778511650980104 L 146.46446609406726 -3.5355339059327378 L 147.222148834902 -4.157348061512726 L 148.08658283817454 -4.619397662556432 L 149.02454838991935 -4.903926402016151 L 150 -5 L 150.97545161008065 -4.903926402016152 L 151.91341716182546 -4.619397662556433 L 152.777851165098 -4.157348061512727 L 153.53553390593274 -3.535533905932739 L 154.15734806151272 -2.7778511650980113 L 154.61939766255642 -1.9134171618254525 L 154.90392640201614 -0.9754516100806441 Z" fill="#26d94a" stroke="#c93" stroke-width="1" />
  <path d="M 5 30 L 4.903926402016152 30.97545161008064 L 4.619397662556434 31.91341716182545 L 4.157348061512726 32.777851165098014 L 3.5355339059327378 33.53553390593274 L 2.7778511650980113 34.15734806151273 L 1.9134171618254492 34.61939766255644 L 0.9754516100806417 34.903926402016154 L 3.8942842663372505e-16 35 L -0.9754516100806409 34.903926402016154 L -1.9134171618254485 34.61939766255644 L -2.77785116509801 34.15734806151273 L -3.5355339059327373 33.53553390593274 L -4.157348061512726 32.777851165098014 L -4.619397662556434 31.91341716182545 L -4.903926402016152 30.975451610080643 L -5 30 L -4.903926402016152 29.024548389919357 L -4.619397662556434 28.08658283817455 L -4.157348061512727 27.22214883490199 L -3.5355339059327386 26.464466094067262 L -2.777851165098011 25.842651938487272 L -1.9134171618254516 25.38060233744357 L -0.9754516100806432 25.09607359798385 L -8.352183725136281e-16 25 L 0.9754516100806416 25.096073597983846 L 1.91341716182545 25.380602337443566 L 2.777851165098009 25.842651938487272 L 3.535533905932737 26.464466094067262 L 4.157348061512726 27.22214883490199 L 4.619397662556432 28.086582838174547 L 4.903926402016151 29.024548389919357 Z" fill="#26d983" stroke="#c93" stroke-width="1" />
  <path d="M 35 30 L 34.903926402016154 30.97545161008064 L 34.61939766255644 31.91341716182545 L 34.15734806151273 32.777851165098014 L 33.53553390593274 33.53553390593274 L 32.777851165098014 34.15734806151273 L 31.91341716182545 34.61939766255644 L 30.97545161008064 34.903926402016154 L 30 35 L 29.02454838991936 34.903926402016154 L 28.08658283817455 34.61939766255644 L 27.22214883490199 34.15734806151273 L 26.464466094067262 33.53553390593274 L 25.842651938487272 32.777851165098014 L 25.380602337443566 31.91341716182545 L 25.096073597983846 30.975451610080643 L 25 30 L 25.096073597983846 29.024548389919357 L 25.380602337443566 28.08658283817455 L 25.842651938487272 27.22214883490199 L 26.464466094067262 26.464466094067262 L 27.22214883490199 25.842651938487272 L 28.08658283817455 25.38060233744357 L 29.024548389919357 25.09607359798385 L 30 25 L 30.97545161008064 25.096073597983846 L 31.91341716182545 25.380602337443566 L 32.77785116509801 25.842651938487272 L 33.53553390593274 26.464466094067262 L 34.15734806151273 27.22214883490199 L 34.61939766255643 28.086582838174547 L 34.903926402016154 29.024548389919357 Z" fill="#26d9bc" stroke="#c93" stroke-width="1" />
  <path d="M 65 30 L 64.90392640201615 30.97545161008064 L 64.61939766255644 31.91341716182545 L 64.15734806151272 32.777851165098014 L 63.53553390593274 33.53553390593274 L 62.777851165098014 34.15734806151273 L 61.91341716182545 34.61939766255644 L 60.97545161008064 34.903926402016154 L 60 35 L 59.02454838991936 34.903926402016154 L 58.08658283817455 34.61939766255644 L 57.222148834901986 34.15734806151273 L 56.46446609406726 33.53553390593274 L 55.84265193848727 32.777851165098014 L 55.38060233744356 31.91341716182545 L 55.096073597983846 30.975451610080643 L 55 30 L 55.096073597983846 29.024548389919357 L 55.38060233744356 28.08658283817455 L 55.84265193848727 27.22214883490199 L 56.46446609406726 26.464466094067262 L 57.222148834901986 25.842651938487272 L 58.08658283817455 25.38060233744357 L 59.02454838991936 25.09607359798385 L 60 25 L 60.97545161008064 25.096073597983846 L 61.91341716182545 25.380602337443566 L 62.77785116509801 25.842651938487272 L 63.53553390593274 26.464466094067262 L 64.15734806151272 27.22214883490199 L 64.61939766255644 28.086582838174547 L 64.90392640201615 29.024548389919357 Z" fill="#26bcd9" stroke="#c93" stroke-width="1" />
  <path d="M 95 30 L 94.90392640201615 30.97545161008064 L 94.61939766255644 31.91341716182545 L 94.15734806151272 32.777851165098014 L 93.53553390593274 33.53553390593274 L 92.77785116509801 34.15734806151273 L 91.91341716182545 34.61939766255644 L 90.97545161008064 34.903926402016154 L 90 35 L 89.02454838991936 34.903926402016154 L 88.08658283817455 34.61939766255644 L 87.22214883490199 34.15734806151273 L 86.46446609406726 33.53553390593274 L 85.84265193848728 32.777851165098014 L 85.38060233744356 31.91341716182545 L 85.09607359798385 30.975451610080643 L 85 30 L 85.09607359798385 29.024548389919357 L 85.38060233744356 28.08658283817455 L 85.84265193848728 27.22214883490199 L 86.46446609406726 26.464466094067262 L 87.22214883490199 25.842651938487272 L 88.08658283817455 25.38060233744357 L 89.02454838991936 25.09607359798385 L 90 25 L 90.97545161008064 25.096073597983846 L 91.91341716182545 25.380602337443566 L 92.77785116509801 25.842651938487272 L 93.53553390593274 26.464466094067262 L 94.15734806151272 27.22214883490199 L 94.61939766255644 28.086582838174547 L 94.90392640201615 29.024548389919357 Z" fill="#2683d9" stroke="#c93" stroke-width="1" />
  <path d="M 125 30 L 124.90392640201615 30.97545161008064 L 124.61939766255644 31.91341716182545 L 124.15734806151272 32.777851165098014 L 123.53553390593274 33.53553390593274 L 122.77785116509801 34.15734806151273 L 121.91341716182545 34.61939766255644 L 120.97545161008064 34.903926402016154 L 120 35 L 119.02454838991936 34.903926402016154 L 118.08658283817455 34.61939766255644 L 117.22214883490199 34.15734806151273 L 116.46446609406726 33.53553390593274 L 115.84265193848728 32.777851165098014 L 115.38060233744356 31.91341716182545 L 115.09607359798385 30.975451610080643 L 115 30 L 115.09607359798385 29.024548389919357 L 115.38060233744356 28.08658283817455 L 115.84265193848728 27.22214883490199 L 116.46446609406726 26.464466094067262 L 117.22214883490199 25.842651938487272 L 118.08658283817455 25.38060233744357 L 119.02454838991936 25.09607359798385 L 120 25 L 120.97545161008064 25.096073597983846 L 121.91341716182545 25.380602337443566 L 122.77785116509801 25.842651938487272 L 123.53553390593274 26.464466094067262 L 124.15734806151272 27.22214883490199 L 124.61939766255644 28.086582838174547 L 124.90392640201615 29.024548389919357 Z" fill="#264ad9" stroke="#c93" stroke-width="1" />
  <path d="M 155 30 L 154.90392640201614 30.97545161008064 L 154.61939766255642 31.91341716182545 L 154.15734806151272 32.777851165098014 L 153.53553390593274 33.53553390593274 L 152.777851165098 34.15734806151273 L 151.91341716182544 34.61939766255644 L 150.97545161008065 34.903926402016154 L 150 35 L 149.02454838991935 34.903926402016154 L 148.08658283817456 34.61939766255644 L 147.222148834902 34.15734806151273 L 146.46446609406726 33.53553390593274 L 145.84265193848728 32.777851165098014 L 145.38060233744358 31.91341716182545 L 145.09607359798386 30.975451610080643 L 145 30 L 145.09607359798386 29.024548389919357 L 145.38060233744358 28.08658283817455 L 145.84265193848728 27.22214883490199 L 146.46446609406726 26.464466094067262 L 147.222148834902 25.842651938487272 L 148.08658283817454 25.38060233744357 L 149.02454838991935 25.09607359798385 L 150 25 L 150.97545161008065 25.096073597983846 L 151.91341716182546 25.380602337443566 L 152.777851165098 25.842651938487272 L 153.53553390593274 26.464466094067262 L 154.15734806151272 27.22214883490199 L 154.61939766255642 28.086582838174547 L 154.90392640201614 29.024548389919357 Z" fill="#3c26d9" stroke="#c93" stroke-width="1" />
  <path d="M 5 60 L 4.903926402016152 60.97545161008064 L 4.619397662556434 61.91341716182545 L 4.157348061512726 62.777851165098014 L 3.5355339059327378 63.53553390593274 L 2.7778511650980113 64.15734806151272 L 1.9134171618254492 64.61939766255644 L 0.9754516100806417 64.90392640201615 L 3.8942842663372505e-16 65 L -0.9754516100806409 64.90392640201615 L -1.9134171618254485 64.61939766255644 L -2.77785116509801 64.15734806151272 L -3.5355339059327373 63.53553390593274 L -4.157348061512726 62.777851165098014 L -4.619397662556434 61.91341716182545 L -4.903926402016152 60.97545161008064 L -5 60 L -4.903926402016152 59.02454838991936 L -4.619397662556434 58.08658283817455 L -4.157348061512727 57.222148834901986 L -3.5355339059327386 56.46446609406726 L -2.777851165098011 55.84265193848727 L -1.9134171618254516 55.38060233744357 L -0.9754516100806432 55.096073597983846 L -8.352183725136281e-16 55 L 0.9754516100806416 55.096073597983846 L 1.91341716182545 55.38060233744357 L 2.777851165098009 55.84265193848727 L 3.535533905932737 56.46446609406726 L 4.157348061512726 57.222148834901986 L 4.619397662556432 58.08658283817455 L 4.903926402016151 59.02454838991935 Z" fill="#7526d9" stroke="#c93" stroke-width="1" />
  <path d="M 35 60 L 34.903926402016154 60.97545161008064 L 34.61939766255644 61.91341716182545 L 34.15734806151273 62.777851165098014 L 33.53553390593274 63.53553390593274 L 32.777851165098014 64.15734806151272 L 31.91341716182545 64.61939766255644 L 30.97545161008064 64.90392640201615 L 30 65 L 29.02454838991936 64.90392640201615 L 28.08658283817455 64.61939766255644 L 27.22214883490199 64.15734806151272 L 26.464466094067262 63.53553390593274 L 25.842651938487272 62.777851165098014 L 25.380602337443566 61.91341716182545 L 25.096073597983846 60.97545161008064 L 25 60 L 25.096073597983846 59.02454838991936 L 25.380602337443566 58.08658283817455 L 25.842651938487272 57.222148834901986 L 26.464466094067262 56.46446609406726 L 27.22214883490199 55.84265193848727 L 28.08658283817455 55.38060233744357 L 29.024548389919357 55.096073597983846 L 30 55 L 30.97545161008064 55.096073597983846 L 31.91341716182545 55.38060233744357 L 32.77785116509801 55.84265193848727 L 33.53553390593274 56.46446609406726 L 34.15734806151273 57.222148834901986 L 34.61939766255643 58.08658283817455 L 34.903926402016154 59.02454838991935 Z" fill="#ae26d9" stroke="#c93" stroke-width="1" />
  <path d="M 65 60 L 64.90392640201615 60.97545161008064 L 64.61939766255644 61.91341716182545 L 64.15734806151272 62.777851165098014 L 63.53553390593274 63.53553390593274 L 62.777851165098014 64.15734806151272 L 61.91341716182545 64.61939766255644 L 60.97545161008064 64.90392640201615 L 60 65 L 59.02454838991936 64.90392640201615 L 58.08658283817455 64.61939766255644 L 57.222148834901986 64.15734806151272 L 56.46446609406726 63.53553390593274 L 55.84265193848727 62.777851165098014 L 55.38060233744356 61.91341716182545 L 55.096073597983846 60.97545161008064 L 55 60 L 55.096073597983846 59.02454838991936 L 55.38060233744356 58.08658283817455 L 55.84265193848727 57.222148834901986 L 56.46446609406726 56.46446609406726 L 57.222148834901986 55.84265193848727 L 58.08658283817455 55.38060233744357 L 59.02454838991936 55.096073597983846 L 60 55 L 60.97545161008064 55.096073597983846 L 61.91341716182545 55.38060233744357 L 62.77785116509801 55.84265193848727 L 63.53553390593274 56.46446609406726 L 64.15734806151272 57.222148834901986 L 64.61939766255644 58.08658283817455 L 64.90392640201615 59.02454838991935 Z" fill="#d926ca" stroke="#c93" stroke-width="1" />
  <path d="M 95 60 L 94.90392640201615 60.97545161008064 L 94.61939766255644 61.91341716182545 L 94.15734806151272 62.777851165098014 L 93.53553390593274 63.53553390593274 L 92.77785116509801 64.15734806151272 L 91.91341716182545 64.61939766255644 L 90.97545161008064 64.90392640201615 L 90 65 L 89.02454838991936 64.90392640201615 L 88.08658283817455 64.61939766255644 L 87.22214883490199 64.15734806151272 L 86.46446609406726 63.53553390593274 L 85.84265193848728 62.777851165098014 L 85.38060233744356 61.91341716182545 L 85.09607359798385 60.97545161008064 L 85 60 L 85.09607359798385 59.02454838991936 L 85.38060233744356 58.08658283817455 L 85.84265193848728 57.222148834901986 L 86.46446609406726 56.46446609406726 L 87.22214883490199 55.84265193848727 L 88.08658283817455 55.38060233744357 L 89.02454838991936 55.096073597983846 L 90 55 L 90.97545161008064 55.096073597983846 L 91.91341716182545 55.38060233744357 L 92.77785116509801 55.84265193848727 L 93.53553390593274 56.46446609406726 L 94.15734806151272 57.222148834901986 L 94.61939766255644 58.08658283817455 L 94.90392640201615 59.02454838991935 Z" fill="#d92691" stroke="#c93" stroke-width="1" />
  <path d="M 125 60 L 124.90392640201615 60.97545161008064 L 124.61939766255644 61.91341716182545 L 124.15734806151272 62.777851165098014 L 123.53553390593274 63.53553390593274 L 122.77785116509801 64.15734806151272 L 121.91341716182545 64.61939766255644 L 120.97545161008064 64.90392640201615 L 120 65 L 119.02454838991936 64.90392640201615 L 118.08658283817455 64.61939766255644 L 117.22214883490199 64.15734806151272 L 116.46446609406726 63.53553390593274 L 115.84265193848728 62.777851165098014 L 115.38060233744356 61.91341716182545 L 115.09607359798385 60.97545161008064 L 115 60 L 115.09607359798385 59.02454838991936 L 115.38060233744356 58.08658283817455 L 115.84265193848728 57.222148834901986 L 116.46446609406726 56.46446609406726 L 117.22214883490199 55.84265193848727 L 118.08658283817455 55.38060233744357 L 119.02454838991936 55.096073597983846 L 120 55 L 120.97545161008064 55.096073597983846 L 121.91341716182545 55.38060233744357 L 122.77785116509801 55.84265193848727 L 123.53553390593274 56.46446609406726 L 124.15734806151272 57.222148834901986 L 124.61939766255644 58.08658283817455 L 124.90392640201615 59.02454838991935 Z" fill="#d99126" stroke="#c93" stroke-width="1" />
  <path d="M 155 60 L 154.90392640201614 60.97545161008064 L 154.61939766255642 61.91341716182545 L 154.15734806151272 62.777851165098014 L 153.53553390593274 63.53553390593274 L 152.777851165098 64.15734806151272 L 151.91341716182544 64.61939766255644 L 150.97545161008065 64.90392640201615 L 150 65 L 149.02454838991935 64.90392640201615 L 148.08658283817456 64.61939766255644 L 147.222148834902 64.15734806151272 L 146.46446609406726 63.53553390593274 L 145.84265193848728 62.777851165098014 L 145.38060233744358 61.91341716182545 L 145.09607359798386 60.97545161008064 L 145 60 L 145.09607359798386 59.02454838991936 L 145.38060233744358 58.08658283817455 L 145.84265193848728 57.222148834901986 L 146.46446609406726 56.46446609406726 L 147.222148834902 55.84265193848727 L 148.08658283817454 55.38060233744357 L 149.02454838991935 55.096073597983846 L 150 55 L 150.97545161008065 55.096073597983846 L 151.91341716182546 55.38060233744357 L 152.777851165098 55.84265193848727 L 153.53553390593274 56.46446609406726 L 154.15734806151272 57.222148834901986 L 154.61939766255642 58.08658283817455 L 154.90392640201614 59.02454838991935 Z" fill="#d9ca26" stroke="#c93" stroke-width="1" />
  <path d="M 5 90 L 4.903926402016152 90.97545161008064 L 4.619397662556434 91.91341716182545 L 4.157348061512726 92.77785116509801 L 3.5355339059327378 93.53553390593274 L 2.7778511650980113 94.15734806151272 L 1.9134171618254492 94.61939766255644 L 0.9754516100806417 94.90392640201615 L 3.8942842663372505e-16 95 L -0.9754516100806409 94.90392640201615 L -1.9134171618254485 94.61939766255644 L -2.77785116509801 94.15734806151272 L -3.5355339059327373 93.53553390593274 L -4.157348061512726 92.77785116509801 L -4.619397662556434 91.91341716182545 L -4.903926402016152 90.97545161008064 L -5 90 L -4.903926402016152 89.02454838991936 L -4.619397662556434 88.08658283817455 L -4.157348061512727 87.22214883490199 L -3.5355339059327386 86.46446609406726 L -2.777851165098011 85.84265193848728 L -1.9134171618254516 85.38060233744356 L -0.9754516100806432 85.09607359798385 L -8.352183725136281e-16 85 L 0.9754516100806416 85.09607359798385 L 1.91341716182545 85.38060233744356 L 2.777851165098009 85.84265193848728 L 3.535533905932737 86.46446609406726 L 4.157348061512726 87.22214883490199 L 4.619397662556432 88.08658283817455 L 4.903926402016151 89.02454838991936 Z" fill="#aed926" stroke="#c93" stroke-width="1" />
  <path d="M 35 90 L 34.903926402016154 90.97545161008064 L 34.61939766255644 91.91341716182545 L 34.15734806151273 92.77785116509801 L 33.53553390593274 93.53553390593274 L 32.777851165098014 94.15734806151272 L 31.91341716182545 94.61939766255644 L 30.97545161008064 94.90392640201615 L 30 95 L 29.02454838991936 94.90392640201615 L 28.08658283817455 94.61939766255644 L 27.22214883490199 94.15734806151272 L 26.464466094067262 93.53553390593274 L 25.842651938487272 92.77785116509801 L 25.380602337443566 91.91341716182545 L 25.096073597983846 90.97545161008064 L 25 90 L 25.096073597983846 89.02454838991936 L 25.380602337443566 88.08658283817455 L 25.842651938487272 87.22214883490199 L 26.464466094067262 86.46446609406726 L 27.22214883490199 85.84265193848728 L 28.08658283817455 85.38060233744356 L 29.024548389919357 85.09607359798385 L 30 85 L 30.97545161008064 85.09607359798385 L 31.91341716182545 85.38060233744356 L 32.77785116509801 85.84265193848728 L 33.53553390593274 86.46446609406726 L 34.15734806151273 87.22214883490199 L 34.61939766255643 88.08658283817455 L 34.903926402016154 89.02454838991936 Z" fill="#75d926" stroke="#c93" stroke-width="1" />
  <path d="M 65 90 L 64.90392640201615 90.97545161008064 L 64.61939766255644 91.91341716182545 L 64.15734806151272 92.77785116509801 L 63.53553390593274 93.53553390593274 L 62.777851165098014 94.15734806151272 L 61.91341716182545 94.61939766255644 L 60.97545161008064 94.90392640201615 L 60 95 L 59.02454838991936 94.90392640201615 L 58.08658283817455 94.61939766255644 L 57.222148834901986 94.15734806151272 L 56.46446609406726 93.53553390593274 L 55.84265193848727 92.77785116509801 L 55.38060233744356 91.91341716182545 L 55.096073597983846 90.97545161008064 L 55 90 L 55.096073597983846 89.02454838991936 L 55.38060233744356 88.08658283817455 L 55.84265193848727 87.22214883490199 L 56.46446609406726 86.46446609406726 L 57.222148834901986 85.84265193848728 L 58.08658283817455 85.38060233744356 L 59.02454838991936 85.09607359798385 L 60 85 L 60.97545161008064 85.09607359798385 L 61.91341716182545 85.38060233744356 L 62.77785116509801 85.84265193848728 L 63.53553390593274 86.46446609406726 L 64.15734806151272 87.22214883490199 L 64.61939766255644 88.08658283817455 L 64.90392640201615 89.02454838991936 Z" fill="#3cd926" stroke="#c93" stroke-width="1" />
  <path d="M 95 90 L 94.90392640201615 90.97545161008064 L 94.61939766255644 91.91341716182545 L 94.15734806151272 92.77785116509801 L 93.53553390593274 93.53553390593274 L 92.77785116509801 94.15734806151272 L 91.91341716182545 94.61939766255644 L 90.97545161008064 94.90392640201615 L 90 95 L 89.02454838991936 94.90392640201615 L 88.08658283817455 94.61939766255644 L 87.22214883490199 94.15734806151272 L 86.46446609406726 93.53553390593274 L 85.84265193848728 92.77785116509801 L 85.38060233744356 91.91341716182545 L 85.09607359798385 90.97545161008064 L 85 90 L 85.09607359798385 89.02454838991936 L 85.38060233744356 88.08658283817455 L 85.84265193848728 87.22214883490199 L 86.46446609406726 86.46446609406726 L 87.22214883490199 85.84265193848728 L 88.08658283817455 85.38060233744356 L 89.02454838991936 85.09607359798385 L 90 85 L 90.97545161008064 85.09607359798385 L 91.91341716182545 85.38060233744356 L 92.77785116509801 85.84265193848728 L 93.53553390593274 86.46446609406726 L 94.15734806151272 87.22214883490199 L 94.61939766255644 88.08658283817455 L 94.90392640201615 89.02454838991936 Z" fill="#26d94a" stroke="#c93" stroke-width="1" />
  <path d="M 125 90 L 124.90392640201615 90.97545161008064 L 124.61939766255644 91.91341716182545 L 124.15734806151272 92.77785116509801 L 123.53553390593274 93.53553390593274 L 122.77785116509801 94.15734806151272 L 121.91341716182545 94.61939766255644 L 120.97545161008064 94.90392640201615 L 120 95 L 119.02454838991936 94.90392640201615 L 118.08658283817455 94.61939766255644 L 117.22214883490199 94.15734806151272 L 116.46446609406726 93.53553390593274 L 115.84265193848728 92.77785116509801 L 115.38060233744356 91.91341716182545 L 115.09607359798385 90.97545161008064 L 115 90 L 115.09607359798385 89.02454838991936 L 115.38060233744356 88.08658283817455 L 115.84265193848728 87.22214883490199 L 116.46446609406726 86.46446609406726 L 117.22214883490199 85.84265193848728 L 118.08658283817455 85.38060233744356 L 119.02454838991936 85.09607359798385 L 120 85 L 120.97545161008064 85.09607359798385 L 121.91341716182545 85.38060233744356 L 122.77785116509801 85.84265193848728 L 123.53553390593274 86.46446609406726 L 124.15734806151272 87.22214883490199 L 124.61939766255644 88.08658283817455 L 124.90392640201615 89.02454838991936 Z" fill="#26d983" stroke="#c93" stroke-width="1" />
  <path d="M 155 90 L 154.90392640201614 90.97545161008064 L 154.61939766255642 91.91341716182545 L 154.15734806151272 92.77785116509801 L 153.53553390593274 93.53553390593274 L 152.777851165098 94.15734806151272 L 151.91341716182544 94.61939766255644 L 150.97545161008065 94.90392640201615 L 150 95 L 149.02454838991935 94.90392640201615 L 148.08658283817456 94.61939766255644 L 147.222148834902 94.15734806151272 L 146.46446609406726 93.53553390593274 L 145.84265193848728 92.77785116509801 L 145.38060233744358 91.91341716182545 L 145.09607359798386 90.97545161008064 L 145 90 L 145.09607359798386 89.02454838991936 L 145.38060233744358 88.08658283817455 L 145.84265193848728 87.22214883490199 L 146.46446609406726 86.46446609406726 L 147.222148834902 85.84265193848728 L 148.08658283817454 85.38060233744356 L 149.02454838991935 85.09607359798385 L 150 85 L 150.97545161008065 85.09607359798385 L 151.91341716182546 85.38060233744356 L 152.777851165098 85.84265193848728 L 153.53553390593274 86.46446609406726 L 154.15734806151272 87.22214883490199 L 154.61939766255642 88.08658283817455 L 154.90392640201614 89.02454838991936 Z" fill="#26d9bc" stroke="#c93" stroke-width="1" />
  <path d="M 5 120 L 4.903926402016152 120.97545161008064 L 4.619397662556434 121.91341716182545 L 4.157348061512726 122.77785116509801 L 3.5355339059327378 123.53553390593274 L 2.7778511650980113 124.15734806151272 L 1.9134171618254492 124.61939766255644 L 0.9754516100806417 124.90392640201615 L 3.8942842663372505e-16 125 L -0.9754516100806409 124.90392640201615 L -1.9134171618254485 124.61939766255644 L -2.77785116509801 124.15734806151272 L -3.5355339059327373 123.53553390593274 L -4.157348061512726 122.77785116509801 L -4.619397662556434 121.91341716182545 L -4.903926402016152 120.97545161008064 L -5 120 L -4.903926402016152 119.02454838991936 L -4.619397662556434 118.08658283817455 L -4.157348061512727 117.22214883490199 L -3.5355339059327386 116.46446609406726 L -2.777851165098011 115.84265193848728 L -1.9134171618254516 115.38060233744356 L -0.9754516100806432 115.09607359798385 L -8.352183725136281e-16 115 L 0.9754516100806416 115.09607359798385 L 1.91341716182545 115.38060233744356 L 2.777851165098009 115.84265193848728 L 3.535533905932737 116.46446609406726 L 4.157348061512726 117.22214883490199 L 4.619397662556432 118.08658283817455 L 4.903926402016151 119.02454838991936 Z" fill="#26bcd9" stroke="#c93" stroke-width="1" />
  <path d="M 35 120 L 34.903926402016154 120.97545161008064 L 34.61939766255644 121.91341716182545 L 34.15734806151273 122.77785116509801 L 33.53553390593274 123.53553390593274 L 32.777851165098014 124.15734806151272 L 31.91341716182545 124.61939766255644 L 30.97545161008064 124.90392640201615 L 30 125 L 29.02454838991936 124.90392640201615 L 28.08658283817455 124.61939766255644 L 27.22214883490199 124.15734806151272 L 26.464466094067262 123.53553390593274 L 25.842651938487272 122.77785116509801 L 25.380602337443566 121.91341716182545 L 25.096073597983846 120.97545161008064 L 25 120 L 25.096073597983846 119.02454838991936 L 25.380602337443566 118.08658283817455 L 25.842651938487272 117.22214883490199 L 26.464466094067262 116.46446609406726 L 27.22214883490199 115.84265193848728 L 28.08658283817455 115.38060233744356 L 29.024548389919357 115.09607359798385 L 30 115 L 30.97545161008064 115.09607359798385 L 31.91341716182545 115.38060233744356 L 32.77785116509801 115.84265193848728 L 33.53553390593274 116.46446609406726 L 34.15734806151273 117.22214883490199 L 34.61939766255643 118.08658283817455 L 34.903926402016154 119.02454838991936 Z" fill="#2683d9" stroke="#c93" stroke-width="1" />
  <path d="M 65 120 L 64.90392640201615 120.97545161008064 L 64.61939766255644 121.91341716182545 L 64.15734806151272 122.77785116509801 L 63.53553390593274 123.53553390593274 L 62.777851165098014 124.15734806151272 L 61.91341716182545 124.61939766255644 L 60.97545161008064 124.90392640201615 L 60 125 L 59.02454838991936 124.90392640201615 L 58.08658283817455 124.61939766255644 L 57.222148834901986 124.15734806151272 L 56.46446609406726 123.53553390593274 L 55.84265193848727 122.77785116509801 L 55.38060233744356 121.91341716182545 L 55.096073597983846 120.97545161008064 L 55 120 L 55.096073597983846 119.02454838991936 L 55.38060233744356 118.08658283817455 L 55.84265193848727 117.22214883490199 L 56.46446609406726 116.46446609406726 L 57.222148834901986 115.84265193848728 L 58.08658283817455 115.38060233744356 L 59.02454838991936 115.09607359798385 L 60 115 L 60.97545161008064 115.09607359798385 L 61.91341716182545 115.38060233744356 L 62.77785116509801 115.84265193848728 L 63.53553390593274 116.46446609406726 L 64.15734806151272 117.22214883490199 L 64.61939766255644 118.08658283817455 L 64.90392640201615 119.02454838991936 Z" fill="#264ad9" stroke="#c93" stroke-width="1" />
  <path d="M 95 120 L 94.90392640201615 120.97545161008064 L 94.61939766255644 121.91341716182545 L 94.15734806151272 122.77785116509801 L 93.53553390593274 123.53553390593274 L 92.77785116509801 124.15734806151272 L 91.91341716182545 124.61939766255644 L 90.97545161008064 124.90392640201615 L 90 125 L 89.02454838991936 124.90392640201615 L 88.08658283817455 124.61939766255644 L 87.22214883490199 124.15734806151272 L 86.46446609406726 123.53553390593274 L 85.84265193848728 122.77785116509801 L 85.38060233744356 121.91341716182545 L 85.09607359798385 120.97545161008064 L 85 120 L 85.09607359798385 119.02454838991936 L 85.38060233744356 118.08658283817455 L 85.84265193848728 117.22214883490199 L 86.46446609406726 116.46446609406726 L 87.22214883490199 115.84265193848728 L 88.08658283817455 115.38060233744356 L 89.02454838991936 115.09607359798385 L 90 115 L 90.97545161008064 115.09607359798385 L 91.91341716182545 115.38060233744356 L 92.77785116509801 115.84265193848728 L 93.53553390593274 116.46446609406726 L 94.15734806151272 117.22214883490199 L 94.61939766255644 118.08658283817455 L 94.90392640201615 119.02454838991936 Z" fill="#3c26d9" stroke="#c93" stroke-width="1" />
  <path d="M 125 120 L 124.90392640201615 120.97545161008064 L 124.61939766255644 121.91341716182545 L 124.15734806151272 122.77785116509801 L 123.53553390593274 123.53553390593274 L 122.77785116509801 124.15734806151272 L 121.91341716182545 124.61939766255644 L 120.97545161008064 124.90392640201615 L 120 125 L 119.02454838991936 124.90392640201615 L 118.08658283817455 124.61939766255644 L 117.22214883490199 124.15734806151272 L 116.46446609406726 123.53553390593274 L 115.84265193848728 122.77785116509801 L 115.38060233744356 121.91341716182545 L 115.09607359798385 120.97545161008064 L 115 120 L 115.09607359798385 119.02454838991936 L 115.38060233744356 118.08658283817455 L 115.84265193848728 117.22214883490199 L 116.46446609406726 116.46446609406726 L 117.22214883490199 115.84265193848728 L 118.08658283817455 115.38060233744356 L 119.02454838991936 115.09607359798385 L 120 115 L 120.97545161008064 115.09607359798385 L 121.91341716182545 115.38060233744356 L 122.77785116509801 115.84265193848728 L 123.53553390593274 116.46446609406726 L 124.15734806151272 117.22214883490199 L 124.61939766255644 118.08658283817455 L 124.90392640201615 119.02454838991936 Z" fill="#7526d9" stroke="#c93" stroke-width="1" />
  <path d="M 155 120 L 154.90392640201614 120.97545161008064 L 154.61939766255642 121.91341716182545 L 154.15734806151272 122.77785116509801 L 153.53553390593274 123.53553390593274 L 152.777851165098 124.15734806151272 L 151.91341716182544 124.61939766255644 L 150.97545161008065 124.90392640201615 L 150 125 L 149.02454838991935 124.90392640201615 L 148.08658283817456 124.61939766255644 L 147.222148834902 124.15734806151272 L 146.46446609406726 123.53553390593274 L 145.84265193848728 122.77785116509801 L 145.38060233744358 121.91341716182545 L 145.09607359798386 120.97545161008064 L 145 120 L 145.09607359798386 119.02454838991936 L 145.38060233744358 118.08658283817455 L 145.84265193848728 117.22214883490199 L 146.46446609406726 116.46446609406726 L 147.222148834902 115.84265193848728 L 148.08658283817454 115.38060233744356 L 149.02454838991935 115.09607359798385 L 150 115 L 150.97545161008065 115.09607359798385 L 151.91341716182546 115.38060233744356 L 152.777851165098 115.84265193848728 L 153.53553390593274 116.46446609406726 L 154.15734806151272 117.22214883490199 L 154.61939766255642 118.08658283817455 L 154.90392640201614 119.02454838991936 Z" fill="#ae26d9" stroke="#c93" stroke-width="1" />
  <path d="M 5 150 L 4.903926402016152 150.97545161008065 L 4.619397662556434 151.91341716182544 L 4.157348061512726 152.777851165098 L 3.5355339059327378 153.53553390593274 L 2.7778511650980113 154.15734806151272 L 1.9134171618254492 154.61939766255642 L 0.9754516100806417 154.90392640201614 L 3.8942842663372505e-16 155 L -0.9754516100806409 154.90392640201614 L -1.9134171618254485 154.61939766255642 L -2.77785116509801 154.15734806151272 L -3.5355339059327373 153.53553390593274 L -4.157348061512726 152.777851165098 L -4.619397662556434 151.91341716182544 L -4.903926402016152 150.97545161008065 L -5 150 L -4.903926402016152 149.02454838991935 L -4.619397662556434 148.08658283817456 L -4.157348061512727 147.222148834902 L -3.5355339059327386 146.46446609406726 L -2.777851165098011 145.84265193848728 L -1.9134171618254516 145.38060233744358 L -0.9754516100806432 145.09607359798386 L -8.352183725136281e-16 145 L 0.9754516100806416 145.09607359798386 L 1.91341716182545 145.38060233744358 L 2.777851165098009 145.84265193848728 L 3.535533905932737 146.46446609406726 L 4.157348061512726 147.222148834902 L 4.619397662556432 148.08658283817454 L 4.903926402016151 149.02454838991935 Z" fill="#d926ca" stroke="#c93" stroke-width="1" />
  <path d="M 35 150 L 34.903926402016154 150.97545161008065 L 34.61939766255644 151.91341716182544 L 34.15734806151273 152.777851165098 L 33.53553390593274 153.53553390593274 L 32.777851165098014 154.15734806151272 L 31.91341716182545 154.61939766255642 L 30.97545161008064 154.90392640201614 L 30 155 L 29.02454838991936 154.90392640201614 L 28.08658283817455 154.61939766255642 L 27.22214883490199 154.15734806151272 L 26.464466094067262 153.53553390593274 L 25.842651938487272 152.777851165098 L 25.380602337443566 151.91341716182544 L 25.096073597983846 150.97545161008065 L 25 150 L 25.096073597983846 149.02454838991935 L 25.380602337443566 148.08658283817456 L 25.842651938487272 147.222148834902 L 26.464466094067262 146.46446609406726 L 27.22214883490199 145.84265193848728 L 28.08658283817455 145.38060233744358 L 29.024548389919357 145.09607359798386 L 30 145 L 30.97545161008064 145.09607359798386 L 31.91341716182545 145.38060233744358 L 32.77785116509801 145.84265193848728 L 33.53553390593274 146.46446609406726 L 34.15734806151273 147.222148834902 L 34.61939766255643 148.08658283817454 L 34.903926402016154 149.02454838991935 Z" fill="#d92691" stroke="#c93" stroke-width="1" />
  <path d="M 65 150 L 64.90392640201615 150.97545161008065 L 64.61939766255644 151.91341716182544 L 64.15734806151272 152.777851165098 L 63.53553390593274 153.53553390593274 L 62.777851165098014 154.15734806151272 L 61.91341716182545 154.61939766255642 L 60.97545161008064 154.90392640201614 L 60 155 L 59.02454838991936 154.90392640201614 L 58.08658283817455 154.61939766255642 L 57.222148834901986 154.15734806151272 L 56.46446609406726 153.53553390593274 L 55.84265193848727 152.777851165098 L 55.38060233744356 151.91341716182544 L 55.096073597983846 150.97545161008065 L 55 150 L 55.096073597983846 149.02454838991935 L 55.38060233744356 148.08658283817456 L 55.84265193848727 147.222148834902 L 56.46446609406726 146.46446609406726 L 57.222148834901986 145.84265193848728 L 58.08658283817455 145.38060233744358 L 59.02454838991936 145.09607359798386 L 60 145 L 60.97545161008064 145.09607359798386 L 61.91341716182545 145.38060233744358 L 62.77785116509801 145.84265193848728 L 63.53553390593274 146.46446609406726 L 64.15734806151272 147.222148834902 L 64.61939766255644 148.08658283817454 L 64.90392640201615 149.02454838991935 Z" fill="#d99126" stroke="#c93" stroke-width="1" />
  <path d="M 95 150 L 94.90392640201615 150.97545161008065 L 94.61939766255644 151.91341716182544 L 94.15734806151272 152.777851165098 L 93.53553390593274 153.53553390593274 L 92.77785116509801 154.15734806151272 L 91.91341716182545 154.61939766255642 L 90.97545161008064 154.90392640201614 L 90 155 L 89.02454838991936 154.90392640201614 L 88.08658283817455 154.61939766255642 L 87.22214883490199 154.15734806151272 L 86.46446609406726 153.53553390593274 L 85.84265193848728 152.777851165098 L 85.38060233744356 151.91341716182544 L 85.09607359798385 150.97545161008065 L 85 150 L 85.09607359798385 149.02454838991935 L 85.38060233744356 148.08658283817456 L 85.84265193848728 147.222148834902 L 86.46446609406726 146.46446609406726 L 87.22214883490199 145.84265193848728 L 88.08658283817455 145.38060233744358 L 89.02454838991936 145.09607359798386 L 90 145 L 90.97545161008064 145.09607359798386 L 91.91341716182545 145.38060233744358 L 92.77785116509801 145.84265193848728 L 93.53553390593274 146.46446609406726 L 94.15734806151272 147.222148834902 L 94.61939766255644 148.08658283817454 L 94.90392640201615 149.02454838991935 Z" fill="#d9ca26" stroke="#c93" stroke-width="1" />
  <path d="M 125 150 L 124.90392640201615 150.97545161008065 L 124.61939766255644 151.91341716182544 L 124.15734806151272 152.777851165098 L 123.53553390593274 153.53553390593274 L 122.77785116509801 154.15734806151272 L 121.91341716182545 154.61939766255642 L 120.97545161008064 154.90392640201614 L 120 155 L 119.02454838991936 154.90392640201614 L 118.08658283817455 154.61939766255642 L 117.22214883490199 154.15734806151272 L 116.46446609406726 153.53553390593274 L 115.84265193848728 152.777851165098 L 115.38060233744356 151.91341716182544 L 115.09607359798385 150.97545161008065 L 115 150 L 115.09607359798385 149.02454838991935 L 115.38060233744356 148.08658283817456 L 115.84265193848728 147.222148834902 L 116.46446609406726 146.46446609406726 L 117.22214883490199 145.84265193848728 L 118.08658283817455 145.38060233744358 L 119.02454838991936 145.09607359798386 L 120 145 L 120.97545161008064 145.09607359798386 L 121.91341716182545 145.38060233744358 L 122.77785116509801 145.84265193848728 L 123.53553390593274 146.46446609406726 L 124.15734806151272 147.222148834902 L 124.61939766255644 148.08658283817454 L 124.90392640201615 149.02454838991935 Z" fill="#aed926" stroke="#c93" stroke-width="1" />
  <path d="M 155 150 L 154.90392640201614 150.97545161008065 L 154.61939766255642 151.91341716182544 L 154.15734806151272 152.777851165098 L 153.53553390593274 153.53553390593274 L 152.777851165098 154.15734806151272 L 151.91341716182544 154.61939766255642 L 150.97545161008065 154.90392640201614 L 150 155 L 149.02454838991935 154.90392640201614 L 148.08658283817456 154.61939766255642 L 147.222148834902 154.15734806151272 L 146.46446609406726 153.53553390593274 L 145.84265193848728 152.777851165098 L 145.38060233744358 151.91341716182544 L 145.09607359798386 150.97545161008065 L 145 150 L 145.09607359798386 149.02454838991935 L 145.38060233744358 148.08658283817456 L 145.84265193848728 147.222148834902 L 146.46446609406726 146.46446609406726 L 147.222148834902 145.84265193848728 L 148.08658283817454 145.38060233744358 L 149.02454838991935 145.09607359798386 L 150 145 L 150.97545161008065 145.09607359798386 L 151.91341716182546 145.38060233744358 L 152.777851165098 145.84265193848728 L 153.53553390593274 146.46446609406726 L 154.15734806151272 147.222148834902 L 154.61939766255642 148.08658283817454 L 154.90392640201614 149.02454838991935 Z" fill="#75d926" stroke="#c93" stroke-width="1" />
</svg>