<svg width="160" height="90" viewBox="-20.594594594594582 -98.20945945945945 349.18918918918916 196.4189189189189" xmlns="http://www.w3.org/2000/svg">
  <path d="M -7.5 -75 L 7.5 -75 L 7.5 75 L -7.5 75 Z" fill="#d99126" stroke="#d99126" stroke-width="1" />
  <path d="M 14.5 -225 L 29.5 -225 L 29.5 225 L 14.5 225 Z" fill="#d9ca26" stroke="#d9ca26" stroke-width="1" />
  <path d="M 36.5 -375 L 51.5 -375 L 51.5 375 L 36.5 375 Z" fill="#aed926" stroke="#aed926" stroke-width="1" />
  <path d="M 58.5 -525 L 73.5 -525 L 73.5 525 L 58.5 525 Z" fill="#75d926" stroke="#75d926" stroke-width="1" />
  <path d="M 80.5 -375 L 95.5 -375 L 95.5 375 L 80.5 375 Z" fill="#3cd926" stroke="#3cd926" stroke-width="1" />
  <path d="M 102.5 -225 L 117.5 -225 L 117.5 225 L 102.5 225 Z" fill="#26d94a" stroke="#26d94a" stroke-width="1" />
  <path d="M 124.5 -75 L 139.5 -75 L 139.5 75 L 124.5 75 Z" fill="#26d983" stroke="#26d983" stroke-width="1" />
  <path d="M 146.5 -225 L 161.5 -225 L 161.5 225 L 146.5 225 Z" fill="#26d9bc" stroke="#26d9bc" stroke-width="1" />
  <path d="M 168.5 -375 L 183.5 -375 L 183.5 375 L 168.5 375 Z" fill="#26bcd9" stroke="#26bcd9" stroke-width="1" />
  <path d="M 190.5 -525 L 205.5 -525 L 205.5 525 L 190.5 525 Z" fill="#2683d9" stroke="#2683d9" stroke-width="1" />
  <path d="M 212.5 -375 L 227.5 -375 L 227.5 375 L 212.5 375 Z" fill="#264ad9" stroke="#264ad9" stroke-width="1" />
  <path d="M 234.5 -225 L 249.5 -225 L 249.5 225 L 234.5 225 Z" fill="#3c26d9" stroke="#3c26d9" stroke-width="1" />
  <path d="M 256.5 -75 L 271.5 -75 L 271.5 75 L 256.5 75 Z" fill="#7526d9" stroke="#7526d9" stroke-width="1" />
  <path d="M 278.5 -225 L 293.5 -225 L 293.5 225 L 278.5 225 Z" fill="#ae26d9" stroke="#ae26d9" stroke-width="1" />
  <path d="M 300.5 -375 L 315.5 -375 L 315.5 375 L 300.5 375 Z" fill="#d926ca" stroke="#d926ca" stroke-width="1" />
  <path d="M -7.5 -75 L 7.5 -75 L 7.5 75 L -7.5 75 Z" fill="#d92691" stroke="#d92691" stroke-width="1" />
  <path d="M 14.5 -225 L 29.5 -225 L 29.5 225 L 14.5 225 Z" fill="#d99126" stroke="#d99126" stroke-width="1" />
  <path d="M 36.5 -375 L 51.5 -375 L 51.5 375 L 36.5 375 Z" fill="#d9ca26" stroke="#d9ca26" stroke-width="1" />
  <path d="M 58.5 -525 L 73.5 -525 L 73.5 525 L 58.5 525 Z" fill="#aed926" stroke="#aed926" stroke-width="1" />
  <path d="M 80.5 -375 L 95.5 -375 L 95.5 375 L 80.5 375 Z" fill="#75d926" stroke="#75d926" stroke-width="1" />
  <path d="M 102.5 -225 L 117.5 -225 L 117.5 225 L 102.5 225 Z" fill="#3cd926" stroke="#3cd926" stroke-width="1" />
  <path d="M 124.5 -75 L 139.5 -75 L 139.5 75 L 124.5 75 Z" fill="#26d94a" stroke="#26d94a" stroke-width="1" />
  <path d="M 146.5 -225 L 161.5 -225 L 161.5 225 L 146.5 225 Z" fill="#26d983" stroke="#26d983" stroke-width="1" />
  <path d="M 168.5 -375 L 183.5 -375 L 183.5 375 L 168.5 375 Z" fill="#26d9bc" stroke="#26d9bc" stroke-width="1" />
  <path d="M 190.5 -525 L 205.5 -525 L 205.5 525 L 190.5 525 Z" fill="#26bcd9" stroke="#26bcd9" stroke-width="1" />
  <path d="M 212.5 -375 L 227.5 -375 L 227.5 375 L 212.5 375 Z" fill="#2683d9" stroke="#2683d9" stroke-width="1" />
  <path d="M 234.5 -225 L 249.5 -225 L 249.5 225 L 234.5 225 Z" fill="#264ad9" stroke="#264ad9" stroke-width="1" />
  <path d="M 256.5 -75 L 271.5 -75 L 271.5 75 L 256.5 75 Z" fill="#3c26d9" stroke="#3c26d9" stroke-width="1" />
  <path d="M 278.5 -225 L 293.5 -225 L 293.5 225 L 278.5 225 Z" fill="#7526d9" stroke="#7526d9" stroke-width="1" />
  <path d="M 300.5 -375 L 315.5 -375 L 315.5 375 L 300.5 375 Z" fill="#ae26d9" stroke="#ae26d9" stroke-width="1" />
</svg>