<svg width="160" height="90" viewBox="119.48717948717949 -11.538461538461538 41.02564102564103 23.076923076923077" xmlns="http://www.w3.org/2000/svg">
  <path d="M -10 -10 L 10 -10 L 10 10 L -10 10 Z" fill="#d92f26" stroke="#d92f26" stroke-width="1" />
  <path d="M 18 -10 L 38 -10 L 38 10 L 18 10 Z" fill="#d97726" stroke="#d97726" stroke-width="1" />
  <path d="M 46 -10 L 66 -10 L 66 10 L 46 10 Z" fill="#d0d926" stroke="#d0d926" stroke-width="1" />
  <path d="M 74 -10 L 94 -10 L 94 10 L 74 10 Z" fill="#88d926" stroke="#88d926" stroke-width="1" />
  <path d="M 102 -10 L 122 -10 L 122 10 L 102 10 Z" fill="#d0d926" stroke="#d0d926" stroke-width="1" />
  <path d="M 130 -10 L 150 -10 L 150 10 L 130 10 Z" fill="#d97726" stroke="#d97726" stroke-width="1" />
  <path d="M 158 -10 L 178 -10 L 178 10 L 158 10 Z" fill="#d92f26" stroke="#d92f26" stroke-width="1" />
  <path d="M 186 -10 L 206 -10 L 206 10 L 186 10 Z" fill="#d97726" stroke="#d97726" stroke-width="1" />
  <path d="M 214 -10 L 234 -10 L 234 10 L 214 10 Z" fill="#d0d926" stroke="#d0d926" stroke-width="1" />
  <path d="M 242 -10 L 262 -10 L 262 10 L 242 10 Z" fill="#88d926" stroke="#88d926" stroke-width="1" />
  <path d="M 270 -10 L 290 -10 L 290 10 L 270 10 Z" fill="#d0d926" stroke="#d0d926" stroke-width="1" />
  <path d="M -10 -10 L 10 -10 L 10 10 L -10 10 Z" fill="#d92f26" stroke="#d92f26" stroke-width="1" />
  <path d="M 18 -10 L 38 -10 L 38 10 L 18 10 Z" fill="#d97726" stroke="#d97726" stroke-width="1" />
  <path d="M 46 -10 L 66 -10 L 66 10 L 46 10 Z" fill="#d0d926" stroke="#d0d926" stroke-width="1" />
  <path d="M 74 -10 L 94 -10 L 94 10 L 74 10 Z" fill="#88d926" stroke="#88d926" stroke-width="1" />
  <path d="M 102 -10 L 122 -10 L 122 10 L 102 10 Z" fill="#d0d926" stroke="#d0d926" stroke-width="1" />
  <path d="M 130 -10 L 150 -10 L 150 10 L 130 10 Z" fill="#d97726" stroke="#d97726" stroke-width="1" />
  <path d="M 158 -10 L 178 -10 L 178 10 L 158 10 Z" fill="#d92f26" stroke="#d92f26" stroke-width="1" />
  <path d="M 186 -10 L 206 -10 L 206 10 L 186 10 Z" fill="#d97726" stroke="#d97726" stroke-width="1" />
  <path d="M 214 -10 L 234 -10 L 234 10 L 214 10 Z" fill="#d0d926" stroke="#d0d926" stroke-width="1" />
  <path d="M 242 -10 L 262 -10 L 262 10 L 242 10 Z" fill="#88d926" stroke="#88d926" stroke-width="1" />
  <path d="M 270 -10 L 290 -10 L 290 10 L 270 10 Z" fill="#d0d926" stroke="#d0d926" stroke-width="1" />
</svg>